G04 #@! TF.GenerationSoftware,KiCad,Pcbnew,5.1.1-8be2ce7~80~ubuntu18.04.1*
G04 #@! TF.CreationDate,2019-04-28T21:42:53-05:00*
G04 #@! TF.ProjectId,Proyecto,50726f79-6563-4746-9f2e-6b696361645f,rev?*
G04 #@! TF.SameCoordinates,Original*
G04 #@! TF.FileFunction,Soldermask,Top*
G04 #@! TF.FilePolarity,Negative*
%FSLAX46Y46*%
G04 Gerber Fmt 4.6, Leading zero omitted, Abs format (unit mm)*
G04 Created by KiCad (PCBNEW 5.1.1-8be2ce7~80~ubuntu18.04.1) date 2019-04-28 21:42:53*
%MOMM*%
%LPD*%
G04 APERTURE LIST*
%ADD10C,0.100000*%
G04 APERTURE END LIST*
D10*
G36*
X165210442Y-130169518D02*
G01*
X165276627Y-130176037D01*
X165446466Y-130227557D01*
X165602991Y-130311222D01*
X165638729Y-130340552D01*
X165740186Y-130423814D01*
X165823448Y-130525271D01*
X165852778Y-130561009D01*
X165936443Y-130717534D01*
X165987963Y-130887373D01*
X166005359Y-131064000D01*
X165987963Y-131240627D01*
X165936443Y-131410466D01*
X165852778Y-131566991D01*
X165823448Y-131602729D01*
X165740186Y-131704186D01*
X165638729Y-131787448D01*
X165602991Y-131816778D01*
X165446466Y-131900443D01*
X165276627Y-131951963D01*
X165210443Y-131958481D01*
X165144260Y-131965000D01*
X165055740Y-131965000D01*
X164989557Y-131958481D01*
X164923373Y-131951963D01*
X164753534Y-131900443D01*
X164597009Y-131816778D01*
X164561271Y-131787448D01*
X164459814Y-131704186D01*
X164376552Y-131602729D01*
X164347222Y-131566991D01*
X164263557Y-131410466D01*
X164212037Y-131240627D01*
X164194641Y-131064000D01*
X164212037Y-130887373D01*
X164263557Y-130717534D01*
X164347222Y-130561009D01*
X164376552Y-130525271D01*
X164459814Y-130423814D01*
X164561271Y-130340552D01*
X164597009Y-130311222D01*
X164753534Y-130227557D01*
X164923373Y-130176037D01*
X164989558Y-130169518D01*
X165055740Y-130163000D01*
X165144260Y-130163000D01*
X165210442Y-130169518D01*
X165210442Y-130169518D01*
G37*
G36*
X148221000Y-131965000D02*
G01*
X146419000Y-131965000D01*
X146419000Y-130163000D01*
X148221000Y-130163000D01*
X148221000Y-131965000D01*
X148221000Y-131965000D01*
G37*
G36*
X149970442Y-130169518D02*
G01*
X150036627Y-130176037D01*
X150206466Y-130227557D01*
X150362991Y-130311222D01*
X150398729Y-130340552D01*
X150500186Y-130423814D01*
X150583448Y-130525271D01*
X150612778Y-130561009D01*
X150696443Y-130717534D01*
X150747963Y-130887373D01*
X150765359Y-131064000D01*
X150747963Y-131240627D01*
X150696443Y-131410466D01*
X150612778Y-131566991D01*
X150583448Y-131602729D01*
X150500186Y-131704186D01*
X150398729Y-131787448D01*
X150362991Y-131816778D01*
X150206466Y-131900443D01*
X150036627Y-131951963D01*
X149970443Y-131958481D01*
X149904260Y-131965000D01*
X149815740Y-131965000D01*
X149749557Y-131958481D01*
X149683373Y-131951963D01*
X149513534Y-131900443D01*
X149357009Y-131816778D01*
X149321271Y-131787448D01*
X149219814Y-131704186D01*
X149136552Y-131602729D01*
X149107222Y-131566991D01*
X149023557Y-131410466D01*
X148972037Y-131240627D01*
X148954641Y-131064000D01*
X148972037Y-130887373D01*
X149023557Y-130717534D01*
X149107222Y-130561009D01*
X149136552Y-130525271D01*
X149219814Y-130423814D01*
X149321271Y-130340552D01*
X149357009Y-130311222D01*
X149513534Y-130227557D01*
X149683373Y-130176037D01*
X149749558Y-130169518D01*
X149815740Y-130163000D01*
X149904260Y-130163000D01*
X149970442Y-130169518D01*
X149970442Y-130169518D01*
G37*
G36*
X152510442Y-130169518D02*
G01*
X152576627Y-130176037D01*
X152746466Y-130227557D01*
X152902991Y-130311222D01*
X152938729Y-130340552D01*
X153040186Y-130423814D01*
X153123448Y-130525271D01*
X153152778Y-130561009D01*
X153236443Y-130717534D01*
X153287963Y-130887373D01*
X153305359Y-131064000D01*
X153287963Y-131240627D01*
X153236443Y-131410466D01*
X153152778Y-131566991D01*
X153123448Y-131602729D01*
X153040186Y-131704186D01*
X152938729Y-131787448D01*
X152902991Y-131816778D01*
X152746466Y-131900443D01*
X152576627Y-131951963D01*
X152510443Y-131958481D01*
X152444260Y-131965000D01*
X152355740Y-131965000D01*
X152289557Y-131958481D01*
X152223373Y-131951963D01*
X152053534Y-131900443D01*
X151897009Y-131816778D01*
X151861271Y-131787448D01*
X151759814Y-131704186D01*
X151676552Y-131602729D01*
X151647222Y-131566991D01*
X151563557Y-131410466D01*
X151512037Y-131240627D01*
X151494641Y-131064000D01*
X151512037Y-130887373D01*
X151563557Y-130717534D01*
X151647222Y-130561009D01*
X151676552Y-130525271D01*
X151759814Y-130423814D01*
X151861271Y-130340552D01*
X151897009Y-130311222D01*
X152053534Y-130227557D01*
X152223373Y-130176037D01*
X152289558Y-130169518D01*
X152355740Y-130163000D01*
X152444260Y-130163000D01*
X152510442Y-130169518D01*
X152510442Y-130169518D01*
G37*
G36*
X155050442Y-130169518D02*
G01*
X155116627Y-130176037D01*
X155286466Y-130227557D01*
X155442991Y-130311222D01*
X155478729Y-130340552D01*
X155580186Y-130423814D01*
X155663448Y-130525271D01*
X155692778Y-130561009D01*
X155776443Y-130717534D01*
X155827963Y-130887373D01*
X155845359Y-131064000D01*
X155827963Y-131240627D01*
X155776443Y-131410466D01*
X155692778Y-131566991D01*
X155663448Y-131602729D01*
X155580186Y-131704186D01*
X155478729Y-131787448D01*
X155442991Y-131816778D01*
X155286466Y-131900443D01*
X155116627Y-131951963D01*
X155050443Y-131958481D01*
X154984260Y-131965000D01*
X154895740Y-131965000D01*
X154829557Y-131958481D01*
X154763373Y-131951963D01*
X154593534Y-131900443D01*
X154437009Y-131816778D01*
X154401271Y-131787448D01*
X154299814Y-131704186D01*
X154216552Y-131602729D01*
X154187222Y-131566991D01*
X154103557Y-131410466D01*
X154052037Y-131240627D01*
X154034641Y-131064000D01*
X154052037Y-130887373D01*
X154103557Y-130717534D01*
X154187222Y-130561009D01*
X154216552Y-130525271D01*
X154299814Y-130423814D01*
X154401271Y-130340552D01*
X154437009Y-130311222D01*
X154593534Y-130227557D01*
X154763373Y-130176037D01*
X154829558Y-130169518D01*
X154895740Y-130163000D01*
X154984260Y-130163000D01*
X155050442Y-130169518D01*
X155050442Y-130169518D01*
G37*
G36*
X157590442Y-130169518D02*
G01*
X157656627Y-130176037D01*
X157826466Y-130227557D01*
X157982991Y-130311222D01*
X158018729Y-130340552D01*
X158120186Y-130423814D01*
X158203448Y-130525271D01*
X158232778Y-130561009D01*
X158316443Y-130717534D01*
X158367963Y-130887373D01*
X158385359Y-131064000D01*
X158367963Y-131240627D01*
X158316443Y-131410466D01*
X158232778Y-131566991D01*
X158203448Y-131602729D01*
X158120186Y-131704186D01*
X158018729Y-131787448D01*
X157982991Y-131816778D01*
X157826466Y-131900443D01*
X157656627Y-131951963D01*
X157590443Y-131958481D01*
X157524260Y-131965000D01*
X157435740Y-131965000D01*
X157369557Y-131958481D01*
X157303373Y-131951963D01*
X157133534Y-131900443D01*
X156977009Y-131816778D01*
X156941271Y-131787448D01*
X156839814Y-131704186D01*
X156756552Y-131602729D01*
X156727222Y-131566991D01*
X156643557Y-131410466D01*
X156592037Y-131240627D01*
X156574641Y-131064000D01*
X156592037Y-130887373D01*
X156643557Y-130717534D01*
X156727222Y-130561009D01*
X156756552Y-130525271D01*
X156839814Y-130423814D01*
X156941271Y-130340552D01*
X156977009Y-130311222D01*
X157133534Y-130227557D01*
X157303373Y-130176037D01*
X157369558Y-130169518D01*
X157435740Y-130163000D01*
X157524260Y-130163000D01*
X157590442Y-130169518D01*
X157590442Y-130169518D01*
G37*
G36*
X160130442Y-130169518D02*
G01*
X160196627Y-130176037D01*
X160366466Y-130227557D01*
X160522991Y-130311222D01*
X160558729Y-130340552D01*
X160660186Y-130423814D01*
X160743448Y-130525271D01*
X160772778Y-130561009D01*
X160856443Y-130717534D01*
X160907963Y-130887373D01*
X160925359Y-131064000D01*
X160907963Y-131240627D01*
X160856443Y-131410466D01*
X160772778Y-131566991D01*
X160743448Y-131602729D01*
X160660186Y-131704186D01*
X160558729Y-131787448D01*
X160522991Y-131816778D01*
X160366466Y-131900443D01*
X160196627Y-131951963D01*
X160130443Y-131958481D01*
X160064260Y-131965000D01*
X159975740Y-131965000D01*
X159909557Y-131958481D01*
X159843373Y-131951963D01*
X159673534Y-131900443D01*
X159517009Y-131816778D01*
X159481271Y-131787448D01*
X159379814Y-131704186D01*
X159296552Y-131602729D01*
X159267222Y-131566991D01*
X159183557Y-131410466D01*
X159132037Y-131240627D01*
X159114641Y-131064000D01*
X159132037Y-130887373D01*
X159183557Y-130717534D01*
X159267222Y-130561009D01*
X159296552Y-130525271D01*
X159379814Y-130423814D01*
X159481271Y-130340552D01*
X159517009Y-130311222D01*
X159673534Y-130227557D01*
X159843373Y-130176037D01*
X159909558Y-130169518D01*
X159975740Y-130163000D01*
X160064260Y-130163000D01*
X160130442Y-130169518D01*
X160130442Y-130169518D01*
G37*
G36*
X162670442Y-130169518D02*
G01*
X162736627Y-130176037D01*
X162906466Y-130227557D01*
X163062991Y-130311222D01*
X163098729Y-130340552D01*
X163200186Y-130423814D01*
X163283448Y-130525271D01*
X163312778Y-130561009D01*
X163396443Y-130717534D01*
X163447963Y-130887373D01*
X163465359Y-131064000D01*
X163447963Y-131240627D01*
X163396443Y-131410466D01*
X163312778Y-131566991D01*
X163283448Y-131602729D01*
X163200186Y-131704186D01*
X163098729Y-131787448D01*
X163062991Y-131816778D01*
X162906466Y-131900443D01*
X162736627Y-131951963D01*
X162670443Y-131958481D01*
X162604260Y-131965000D01*
X162515740Y-131965000D01*
X162449557Y-131958481D01*
X162383373Y-131951963D01*
X162213534Y-131900443D01*
X162057009Y-131816778D01*
X162021271Y-131787448D01*
X161919814Y-131704186D01*
X161836552Y-131602729D01*
X161807222Y-131566991D01*
X161723557Y-131410466D01*
X161672037Y-131240627D01*
X161654641Y-131064000D01*
X161672037Y-130887373D01*
X161723557Y-130717534D01*
X161807222Y-130561009D01*
X161836552Y-130525271D01*
X161919814Y-130423814D01*
X162021271Y-130340552D01*
X162057009Y-130311222D01*
X162213534Y-130227557D01*
X162383373Y-130176037D01*
X162449558Y-130169518D01*
X162515740Y-130163000D01*
X162604260Y-130163000D01*
X162670442Y-130169518D01*
X162670442Y-130169518D01*
G37*
G36*
X109838442Y-129661518D02*
G01*
X109904627Y-129668037D01*
X110074466Y-129719557D01*
X110230991Y-129803222D01*
X110266729Y-129832552D01*
X110368186Y-129915814D01*
X110451448Y-130017271D01*
X110480778Y-130053009D01*
X110564443Y-130209534D01*
X110615963Y-130379373D01*
X110633359Y-130556000D01*
X110615963Y-130732627D01*
X110564443Y-130902466D01*
X110480778Y-131058991D01*
X110476667Y-131064000D01*
X110368186Y-131196186D01*
X110266729Y-131279448D01*
X110230991Y-131308778D01*
X110074466Y-131392443D01*
X109904627Y-131443963D01*
X109838442Y-131450482D01*
X109772260Y-131457000D01*
X109683740Y-131457000D01*
X109617558Y-131450482D01*
X109551373Y-131443963D01*
X109381534Y-131392443D01*
X109225009Y-131308778D01*
X109189271Y-131279448D01*
X109087814Y-131196186D01*
X108979333Y-131064000D01*
X108975222Y-131058991D01*
X108891557Y-130902466D01*
X108840037Y-130732627D01*
X108822641Y-130556000D01*
X108840037Y-130379373D01*
X108891557Y-130209534D01*
X108975222Y-130053009D01*
X109004552Y-130017271D01*
X109087814Y-129915814D01*
X109189271Y-129832552D01*
X109225009Y-129803222D01*
X109381534Y-129719557D01*
X109551373Y-129668037D01*
X109617558Y-129661518D01*
X109683740Y-129655000D01*
X109772260Y-129655000D01*
X109838442Y-129661518D01*
X109838442Y-129661518D01*
G37*
G36*
X112378442Y-129661518D02*
G01*
X112444627Y-129668037D01*
X112614466Y-129719557D01*
X112770991Y-129803222D01*
X112806729Y-129832552D01*
X112908186Y-129915814D01*
X112991448Y-130017271D01*
X113020778Y-130053009D01*
X113104443Y-130209534D01*
X113155963Y-130379373D01*
X113173359Y-130556000D01*
X113155963Y-130732627D01*
X113104443Y-130902466D01*
X113020778Y-131058991D01*
X113016667Y-131064000D01*
X112908186Y-131196186D01*
X112806729Y-131279448D01*
X112770991Y-131308778D01*
X112614466Y-131392443D01*
X112444627Y-131443963D01*
X112378442Y-131450482D01*
X112312260Y-131457000D01*
X112223740Y-131457000D01*
X112157558Y-131450482D01*
X112091373Y-131443963D01*
X111921534Y-131392443D01*
X111765009Y-131308778D01*
X111729271Y-131279448D01*
X111627814Y-131196186D01*
X111519333Y-131064000D01*
X111515222Y-131058991D01*
X111431557Y-130902466D01*
X111380037Y-130732627D01*
X111362641Y-130556000D01*
X111380037Y-130379373D01*
X111431557Y-130209534D01*
X111515222Y-130053009D01*
X111544552Y-130017271D01*
X111627814Y-129915814D01*
X111729271Y-129832552D01*
X111765009Y-129803222D01*
X111921534Y-129719557D01*
X112091373Y-129668037D01*
X112157558Y-129661518D01*
X112223740Y-129655000D01*
X112312260Y-129655000D01*
X112378442Y-129661518D01*
X112378442Y-129661518D01*
G37*
G36*
X107298442Y-129661518D02*
G01*
X107364627Y-129668037D01*
X107534466Y-129719557D01*
X107690991Y-129803222D01*
X107726729Y-129832552D01*
X107828186Y-129915814D01*
X107911448Y-130017271D01*
X107940778Y-130053009D01*
X108024443Y-130209534D01*
X108075963Y-130379373D01*
X108093359Y-130556000D01*
X108075963Y-130732627D01*
X108024443Y-130902466D01*
X107940778Y-131058991D01*
X107936667Y-131064000D01*
X107828186Y-131196186D01*
X107726729Y-131279448D01*
X107690991Y-131308778D01*
X107534466Y-131392443D01*
X107364627Y-131443963D01*
X107298442Y-131450482D01*
X107232260Y-131457000D01*
X107143740Y-131457000D01*
X107077558Y-131450482D01*
X107011373Y-131443963D01*
X106841534Y-131392443D01*
X106685009Y-131308778D01*
X106649271Y-131279448D01*
X106547814Y-131196186D01*
X106439333Y-131064000D01*
X106435222Y-131058991D01*
X106351557Y-130902466D01*
X106300037Y-130732627D01*
X106282641Y-130556000D01*
X106300037Y-130379373D01*
X106351557Y-130209534D01*
X106435222Y-130053009D01*
X106464552Y-130017271D01*
X106547814Y-129915814D01*
X106649271Y-129832552D01*
X106685009Y-129803222D01*
X106841534Y-129719557D01*
X107011373Y-129668037D01*
X107077558Y-129661518D01*
X107143740Y-129655000D01*
X107232260Y-129655000D01*
X107298442Y-129661518D01*
X107298442Y-129661518D01*
G37*
G36*
X102218442Y-129661518D02*
G01*
X102284627Y-129668037D01*
X102454466Y-129719557D01*
X102610991Y-129803222D01*
X102646729Y-129832552D01*
X102748186Y-129915814D01*
X102831448Y-130017271D01*
X102860778Y-130053009D01*
X102944443Y-130209534D01*
X102995963Y-130379373D01*
X103013359Y-130556000D01*
X102995963Y-130732627D01*
X102944443Y-130902466D01*
X102860778Y-131058991D01*
X102856667Y-131064000D01*
X102748186Y-131196186D01*
X102646729Y-131279448D01*
X102610991Y-131308778D01*
X102454466Y-131392443D01*
X102284627Y-131443963D01*
X102218442Y-131450482D01*
X102152260Y-131457000D01*
X102063740Y-131457000D01*
X101997558Y-131450482D01*
X101931373Y-131443963D01*
X101761534Y-131392443D01*
X101605009Y-131308778D01*
X101569271Y-131279448D01*
X101467814Y-131196186D01*
X101359333Y-131064000D01*
X101355222Y-131058991D01*
X101271557Y-130902466D01*
X101220037Y-130732627D01*
X101202641Y-130556000D01*
X101220037Y-130379373D01*
X101271557Y-130209534D01*
X101355222Y-130053009D01*
X101384552Y-130017271D01*
X101467814Y-129915814D01*
X101569271Y-129832552D01*
X101605009Y-129803222D01*
X101761534Y-129719557D01*
X101931373Y-129668037D01*
X101997558Y-129661518D01*
X102063740Y-129655000D01*
X102152260Y-129655000D01*
X102218442Y-129661518D01*
X102218442Y-129661518D01*
G37*
G36*
X100469000Y-131457000D02*
G01*
X98667000Y-131457000D01*
X98667000Y-129655000D01*
X100469000Y-129655000D01*
X100469000Y-131457000D01*
X100469000Y-131457000D01*
G37*
G36*
X104758442Y-129661518D02*
G01*
X104824627Y-129668037D01*
X104994466Y-129719557D01*
X105150991Y-129803222D01*
X105186729Y-129832552D01*
X105288186Y-129915814D01*
X105371448Y-130017271D01*
X105400778Y-130053009D01*
X105484443Y-130209534D01*
X105535963Y-130379373D01*
X105553359Y-130556000D01*
X105535963Y-130732627D01*
X105484443Y-130902466D01*
X105400778Y-131058991D01*
X105396667Y-131064000D01*
X105288186Y-131196186D01*
X105186729Y-131279448D01*
X105150991Y-131308778D01*
X104994466Y-131392443D01*
X104824627Y-131443963D01*
X104758442Y-131450482D01*
X104692260Y-131457000D01*
X104603740Y-131457000D01*
X104537558Y-131450482D01*
X104471373Y-131443963D01*
X104301534Y-131392443D01*
X104145009Y-131308778D01*
X104109271Y-131279448D01*
X104007814Y-131196186D01*
X103899333Y-131064000D01*
X103895222Y-131058991D01*
X103811557Y-130902466D01*
X103760037Y-130732627D01*
X103742641Y-130556000D01*
X103760037Y-130379373D01*
X103811557Y-130209534D01*
X103895222Y-130053009D01*
X103924552Y-130017271D01*
X104007814Y-129915814D01*
X104109271Y-129832552D01*
X104145009Y-129803222D01*
X104301534Y-129719557D01*
X104471373Y-129668037D01*
X104537558Y-129661518D01*
X104603740Y-129655000D01*
X104692260Y-129655000D01*
X104758442Y-129661518D01*
X104758442Y-129661518D01*
G37*
G36*
X84598425Y-124242760D02*
G01*
X84598428Y-124242761D01*
X84598429Y-124242761D01*
X84777693Y-124297140D01*
X84777696Y-124297142D01*
X84777697Y-124297142D01*
X84942903Y-124385446D01*
X85087712Y-124504288D01*
X85206554Y-124649097D01*
X85259953Y-124749000D01*
X85294860Y-124814307D01*
X85349239Y-124993571D01*
X85349240Y-124993575D01*
X85367601Y-125180000D01*
X85349240Y-125366425D01*
X85349239Y-125366428D01*
X85349239Y-125366429D01*
X85294860Y-125545693D01*
X85294858Y-125545696D01*
X85294858Y-125545697D01*
X85206554Y-125710903D01*
X85087712Y-125855712D01*
X84942903Y-125974554D01*
X84777697Y-126062858D01*
X84777693Y-126062860D01*
X84598429Y-126117239D01*
X84598428Y-126117239D01*
X84598425Y-126117240D01*
X84458718Y-126131000D01*
X82165282Y-126131000D01*
X82025575Y-126117240D01*
X82025572Y-126117239D01*
X82025571Y-126117239D01*
X81846307Y-126062860D01*
X81846303Y-126062858D01*
X81681097Y-125974554D01*
X81536288Y-125855712D01*
X81417446Y-125710903D01*
X81329142Y-125545697D01*
X81329142Y-125545696D01*
X81329140Y-125545693D01*
X81274761Y-125366429D01*
X81274761Y-125366428D01*
X81274760Y-125366425D01*
X81256399Y-125180000D01*
X81274760Y-124993575D01*
X81274761Y-124993571D01*
X81329140Y-124814307D01*
X81364047Y-124749000D01*
X81417446Y-124649097D01*
X81536288Y-124504288D01*
X81681097Y-124385446D01*
X81846303Y-124297142D01*
X81846304Y-124297142D01*
X81846307Y-124297140D01*
X82025571Y-124242761D01*
X82025572Y-124242761D01*
X82025575Y-124242760D01*
X82165282Y-124229000D01*
X84458718Y-124229000D01*
X84598425Y-124242760D01*
X84598425Y-124242760D01*
G37*
G36*
X211868564Y-122687389D02*
G01*
X212059833Y-122766615D01*
X212059835Y-122766616D01*
X212124819Y-122810037D01*
X212231973Y-122881635D01*
X212378365Y-123028027D01*
X212493385Y-123200167D01*
X212572611Y-123391436D01*
X212613000Y-123594484D01*
X212613000Y-123801516D01*
X212572611Y-124004564D01*
X212493385Y-124195833D01*
X212493384Y-124195835D01*
X212378365Y-124367973D01*
X212231973Y-124514365D01*
X212059835Y-124629384D01*
X212059834Y-124629385D01*
X212059833Y-124629385D01*
X211868564Y-124708611D01*
X211665516Y-124749000D01*
X211458484Y-124749000D01*
X211255436Y-124708611D01*
X211064167Y-124629385D01*
X211064166Y-124629385D01*
X211064165Y-124629384D01*
X210892027Y-124514365D01*
X210745635Y-124367973D01*
X210630616Y-124195835D01*
X210630615Y-124195833D01*
X210551389Y-124004564D01*
X210511000Y-123801516D01*
X210511000Y-123594484D01*
X210551389Y-123391436D01*
X210630615Y-123200167D01*
X210745635Y-123028027D01*
X210892027Y-122881635D01*
X210999181Y-122810037D01*
X211064165Y-122766616D01*
X211064167Y-122766615D01*
X211255436Y-122687389D01*
X211458484Y-122647000D01*
X211665516Y-122647000D01*
X211868564Y-122687389D01*
X211868564Y-122687389D01*
G37*
G36*
X205013000Y-124749000D02*
G01*
X202911000Y-124749000D01*
X202911000Y-122647000D01*
X205013000Y-122647000D01*
X205013000Y-124749000D01*
X205013000Y-124749000D01*
G37*
G36*
X187562442Y-122803518D02*
G01*
X187628627Y-122810037D01*
X187798466Y-122861557D01*
X187954991Y-122945222D01*
X187990729Y-122974552D01*
X188092186Y-123057814D01*
X188175448Y-123159271D01*
X188204778Y-123195009D01*
X188288443Y-123351534D01*
X188339963Y-123521373D01*
X188357359Y-123698000D01*
X188339963Y-123874627D01*
X188288443Y-124044466D01*
X188204778Y-124200991D01*
X188181791Y-124229000D01*
X188092186Y-124338186D01*
X187995858Y-124417239D01*
X187954991Y-124450778D01*
X187798466Y-124534443D01*
X187628627Y-124585963D01*
X187562442Y-124592482D01*
X187496260Y-124599000D01*
X187407740Y-124599000D01*
X187341558Y-124592482D01*
X187275373Y-124585963D01*
X187105534Y-124534443D01*
X186949009Y-124450778D01*
X186908142Y-124417239D01*
X186811814Y-124338186D01*
X186722209Y-124229000D01*
X186699222Y-124200991D01*
X186615557Y-124044466D01*
X186564037Y-123874627D01*
X186546641Y-123698000D01*
X186564037Y-123521373D01*
X186615557Y-123351534D01*
X186699222Y-123195009D01*
X186728552Y-123159271D01*
X186811814Y-123057814D01*
X186913271Y-122974552D01*
X186949009Y-122945222D01*
X187105534Y-122861557D01*
X187275373Y-122810037D01*
X187341558Y-122803518D01*
X187407740Y-122797000D01*
X187496260Y-122797000D01*
X187562442Y-122803518D01*
X187562442Y-122803518D01*
G37*
G36*
X170573000Y-124599000D02*
G01*
X168771000Y-124599000D01*
X168771000Y-122797000D01*
X170573000Y-122797000D01*
X170573000Y-124599000D01*
X170573000Y-124599000D01*
G37*
G36*
X182482442Y-122803518D02*
G01*
X182548627Y-122810037D01*
X182718466Y-122861557D01*
X182874991Y-122945222D01*
X182910729Y-122974552D01*
X183012186Y-123057814D01*
X183095448Y-123159271D01*
X183124778Y-123195009D01*
X183208443Y-123351534D01*
X183259963Y-123521373D01*
X183277359Y-123698000D01*
X183259963Y-123874627D01*
X183208443Y-124044466D01*
X183124778Y-124200991D01*
X183101791Y-124229000D01*
X183012186Y-124338186D01*
X182915858Y-124417239D01*
X182874991Y-124450778D01*
X182718466Y-124534443D01*
X182548627Y-124585963D01*
X182482442Y-124592482D01*
X182416260Y-124599000D01*
X182327740Y-124599000D01*
X182261558Y-124592482D01*
X182195373Y-124585963D01*
X182025534Y-124534443D01*
X181869009Y-124450778D01*
X181828142Y-124417239D01*
X181731814Y-124338186D01*
X181642209Y-124229000D01*
X181619222Y-124200991D01*
X181535557Y-124044466D01*
X181484037Y-123874627D01*
X181466641Y-123698000D01*
X181484037Y-123521373D01*
X181535557Y-123351534D01*
X181619222Y-123195009D01*
X181648552Y-123159271D01*
X181731814Y-123057814D01*
X181833271Y-122974552D01*
X181869009Y-122945222D01*
X182025534Y-122861557D01*
X182195373Y-122810037D01*
X182261558Y-122803518D01*
X182327740Y-122797000D01*
X182416260Y-122797000D01*
X182482442Y-122803518D01*
X182482442Y-122803518D01*
G37*
G36*
X179942442Y-122803518D02*
G01*
X180008627Y-122810037D01*
X180178466Y-122861557D01*
X180334991Y-122945222D01*
X180370729Y-122974552D01*
X180472186Y-123057814D01*
X180555448Y-123159271D01*
X180584778Y-123195009D01*
X180668443Y-123351534D01*
X180719963Y-123521373D01*
X180737359Y-123698000D01*
X180719963Y-123874627D01*
X180668443Y-124044466D01*
X180584778Y-124200991D01*
X180561791Y-124229000D01*
X180472186Y-124338186D01*
X180375858Y-124417239D01*
X180334991Y-124450778D01*
X180178466Y-124534443D01*
X180008627Y-124585963D01*
X179942442Y-124592482D01*
X179876260Y-124599000D01*
X179787740Y-124599000D01*
X179721558Y-124592482D01*
X179655373Y-124585963D01*
X179485534Y-124534443D01*
X179329009Y-124450778D01*
X179288142Y-124417239D01*
X179191814Y-124338186D01*
X179102209Y-124229000D01*
X179079222Y-124200991D01*
X178995557Y-124044466D01*
X178944037Y-123874627D01*
X178926641Y-123698000D01*
X178944037Y-123521373D01*
X178995557Y-123351534D01*
X179079222Y-123195009D01*
X179108552Y-123159271D01*
X179191814Y-123057814D01*
X179293271Y-122974552D01*
X179329009Y-122945222D01*
X179485534Y-122861557D01*
X179655373Y-122810037D01*
X179721558Y-122803518D01*
X179787740Y-122797000D01*
X179876260Y-122797000D01*
X179942442Y-122803518D01*
X179942442Y-122803518D01*
G37*
G36*
X177402442Y-122803518D02*
G01*
X177468627Y-122810037D01*
X177638466Y-122861557D01*
X177794991Y-122945222D01*
X177830729Y-122974552D01*
X177932186Y-123057814D01*
X178015448Y-123159271D01*
X178044778Y-123195009D01*
X178128443Y-123351534D01*
X178179963Y-123521373D01*
X178197359Y-123698000D01*
X178179963Y-123874627D01*
X178128443Y-124044466D01*
X178044778Y-124200991D01*
X178021791Y-124229000D01*
X177932186Y-124338186D01*
X177835858Y-124417239D01*
X177794991Y-124450778D01*
X177638466Y-124534443D01*
X177468627Y-124585963D01*
X177402442Y-124592482D01*
X177336260Y-124599000D01*
X177247740Y-124599000D01*
X177181558Y-124592482D01*
X177115373Y-124585963D01*
X176945534Y-124534443D01*
X176789009Y-124450778D01*
X176748142Y-124417239D01*
X176651814Y-124338186D01*
X176562209Y-124229000D01*
X176539222Y-124200991D01*
X176455557Y-124044466D01*
X176404037Y-123874627D01*
X176386641Y-123698000D01*
X176404037Y-123521373D01*
X176455557Y-123351534D01*
X176539222Y-123195009D01*
X176568552Y-123159271D01*
X176651814Y-123057814D01*
X176753271Y-122974552D01*
X176789009Y-122945222D01*
X176945534Y-122861557D01*
X177115373Y-122810037D01*
X177181558Y-122803518D01*
X177247740Y-122797000D01*
X177336260Y-122797000D01*
X177402442Y-122803518D01*
X177402442Y-122803518D01*
G37*
G36*
X174862442Y-122803518D02*
G01*
X174928627Y-122810037D01*
X175098466Y-122861557D01*
X175254991Y-122945222D01*
X175290729Y-122974552D01*
X175392186Y-123057814D01*
X175475448Y-123159271D01*
X175504778Y-123195009D01*
X175588443Y-123351534D01*
X175639963Y-123521373D01*
X175657359Y-123698000D01*
X175639963Y-123874627D01*
X175588443Y-124044466D01*
X175504778Y-124200991D01*
X175481791Y-124229000D01*
X175392186Y-124338186D01*
X175295858Y-124417239D01*
X175254991Y-124450778D01*
X175098466Y-124534443D01*
X174928627Y-124585963D01*
X174862442Y-124592482D01*
X174796260Y-124599000D01*
X174707740Y-124599000D01*
X174641558Y-124592482D01*
X174575373Y-124585963D01*
X174405534Y-124534443D01*
X174249009Y-124450778D01*
X174208142Y-124417239D01*
X174111814Y-124338186D01*
X174022209Y-124229000D01*
X173999222Y-124200991D01*
X173915557Y-124044466D01*
X173864037Y-123874627D01*
X173846641Y-123698000D01*
X173864037Y-123521373D01*
X173915557Y-123351534D01*
X173999222Y-123195009D01*
X174028552Y-123159271D01*
X174111814Y-123057814D01*
X174213271Y-122974552D01*
X174249009Y-122945222D01*
X174405534Y-122861557D01*
X174575373Y-122810037D01*
X174641558Y-122803518D01*
X174707740Y-122797000D01*
X174796260Y-122797000D01*
X174862442Y-122803518D01*
X174862442Y-122803518D01*
G37*
G36*
X124091000Y-124599000D02*
G01*
X122289000Y-124599000D01*
X122289000Y-122797000D01*
X124091000Y-122797000D01*
X124091000Y-124599000D01*
X124091000Y-124599000D01*
G37*
G36*
X125840442Y-122803518D02*
G01*
X125906627Y-122810037D01*
X126076466Y-122861557D01*
X126232991Y-122945222D01*
X126268729Y-122974552D01*
X126370186Y-123057814D01*
X126453448Y-123159271D01*
X126482778Y-123195009D01*
X126566443Y-123351534D01*
X126617963Y-123521373D01*
X126635359Y-123698000D01*
X126617963Y-123874627D01*
X126566443Y-124044466D01*
X126482778Y-124200991D01*
X126459791Y-124229000D01*
X126370186Y-124338186D01*
X126273858Y-124417239D01*
X126232991Y-124450778D01*
X126076466Y-124534443D01*
X125906627Y-124585963D01*
X125840442Y-124592482D01*
X125774260Y-124599000D01*
X125685740Y-124599000D01*
X125619558Y-124592482D01*
X125553373Y-124585963D01*
X125383534Y-124534443D01*
X125227009Y-124450778D01*
X125186142Y-124417239D01*
X125089814Y-124338186D01*
X125000209Y-124229000D01*
X124977222Y-124200991D01*
X124893557Y-124044466D01*
X124842037Y-123874627D01*
X124824641Y-123698000D01*
X124842037Y-123521373D01*
X124893557Y-123351534D01*
X124977222Y-123195009D01*
X125006552Y-123159271D01*
X125089814Y-123057814D01*
X125191271Y-122974552D01*
X125227009Y-122945222D01*
X125383534Y-122861557D01*
X125553373Y-122810037D01*
X125619558Y-122803518D01*
X125685740Y-122797000D01*
X125774260Y-122797000D01*
X125840442Y-122803518D01*
X125840442Y-122803518D01*
G37*
G36*
X130920442Y-122803518D02*
G01*
X130986627Y-122810037D01*
X131156466Y-122861557D01*
X131312991Y-122945222D01*
X131348729Y-122974552D01*
X131450186Y-123057814D01*
X131533448Y-123159271D01*
X131562778Y-123195009D01*
X131646443Y-123351534D01*
X131697963Y-123521373D01*
X131715359Y-123698000D01*
X131697963Y-123874627D01*
X131646443Y-124044466D01*
X131562778Y-124200991D01*
X131539791Y-124229000D01*
X131450186Y-124338186D01*
X131353858Y-124417239D01*
X131312991Y-124450778D01*
X131156466Y-124534443D01*
X130986627Y-124585963D01*
X130920442Y-124592482D01*
X130854260Y-124599000D01*
X130765740Y-124599000D01*
X130699558Y-124592482D01*
X130633373Y-124585963D01*
X130463534Y-124534443D01*
X130307009Y-124450778D01*
X130266142Y-124417239D01*
X130169814Y-124338186D01*
X130080209Y-124229000D01*
X130057222Y-124200991D01*
X129973557Y-124044466D01*
X129922037Y-123874627D01*
X129904641Y-123698000D01*
X129922037Y-123521373D01*
X129973557Y-123351534D01*
X130057222Y-123195009D01*
X130086552Y-123159271D01*
X130169814Y-123057814D01*
X130271271Y-122974552D01*
X130307009Y-122945222D01*
X130463534Y-122861557D01*
X130633373Y-122810037D01*
X130699558Y-122803518D01*
X130765740Y-122797000D01*
X130854260Y-122797000D01*
X130920442Y-122803518D01*
X130920442Y-122803518D01*
G37*
G36*
X133460442Y-122803518D02*
G01*
X133526627Y-122810037D01*
X133696466Y-122861557D01*
X133852991Y-122945222D01*
X133888729Y-122974552D01*
X133990186Y-123057814D01*
X134073448Y-123159271D01*
X134102778Y-123195009D01*
X134186443Y-123351534D01*
X134237963Y-123521373D01*
X134255359Y-123698000D01*
X134237963Y-123874627D01*
X134186443Y-124044466D01*
X134102778Y-124200991D01*
X134079791Y-124229000D01*
X133990186Y-124338186D01*
X133893858Y-124417239D01*
X133852991Y-124450778D01*
X133696466Y-124534443D01*
X133526627Y-124585963D01*
X133460442Y-124592482D01*
X133394260Y-124599000D01*
X133305740Y-124599000D01*
X133239558Y-124592482D01*
X133173373Y-124585963D01*
X133003534Y-124534443D01*
X132847009Y-124450778D01*
X132806142Y-124417239D01*
X132709814Y-124338186D01*
X132620209Y-124229000D01*
X132597222Y-124200991D01*
X132513557Y-124044466D01*
X132462037Y-123874627D01*
X132444641Y-123698000D01*
X132462037Y-123521373D01*
X132513557Y-123351534D01*
X132597222Y-123195009D01*
X132626552Y-123159271D01*
X132709814Y-123057814D01*
X132811271Y-122974552D01*
X132847009Y-122945222D01*
X133003534Y-122861557D01*
X133173373Y-122810037D01*
X133239558Y-122803518D01*
X133305740Y-122797000D01*
X133394260Y-122797000D01*
X133460442Y-122803518D01*
X133460442Y-122803518D01*
G37*
G36*
X185022442Y-122803518D02*
G01*
X185088627Y-122810037D01*
X185258466Y-122861557D01*
X185414991Y-122945222D01*
X185450729Y-122974552D01*
X185552186Y-123057814D01*
X185635448Y-123159271D01*
X185664778Y-123195009D01*
X185748443Y-123351534D01*
X185799963Y-123521373D01*
X185817359Y-123698000D01*
X185799963Y-123874627D01*
X185748443Y-124044466D01*
X185664778Y-124200991D01*
X185641791Y-124229000D01*
X185552186Y-124338186D01*
X185455858Y-124417239D01*
X185414991Y-124450778D01*
X185258466Y-124534443D01*
X185088627Y-124585963D01*
X185022442Y-124592482D01*
X184956260Y-124599000D01*
X184867740Y-124599000D01*
X184801558Y-124592482D01*
X184735373Y-124585963D01*
X184565534Y-124534443D01*
X184409009Y-124450778D01*
X184368142Y-124417239D01*
X184271814Y-124338186D01*
X184182209Y-124229000D01*
X184159222Y-124200991D01*
X184075557Y-124044466D01*
X184024037Y-123874627D01*
X184006641Y-123698000D01*
X184024037Y-123521373D01*
X184075557Y-123351534D01*
X184159222Y-123195009D01*
X184188552Y-123159271D01*
X184271814Y-123057814D01*
X184373271Y-122974552D01*
X184409009Y-122945222D01*
X184565534Y-122861557D01*
X184735373Y-122810037D01*
X184801558Y-122803518D01*
X184867740Y-122797000D01*
X184956260Y-122797000D01*
X185022442Y-122803518D01*
X185022442Y-122803518D01*
G37*
G36*
X172322442Y-122803518D02*
G01*
X172388627Y-122810037D01*
X172558466Y-122861557D01*
X172714991Y-122945222D01*
X172750729Y-122974552D01*
X172852186Y-123057814D01*
X172935448Y-123159271D01*
X172964778Y-123195009D01*
X173048443Y-123351534D01*
X173099963Y-123521373D01*
X173117359Y-123698000D01*
X173099963Y-123874627D01*
X173048443Y-124044466D01*
X172964778Y-124200991D01*
X172941791Y-124229000D01*
X172852186Y-124338186D01*
X172755858Y-124417239D01*
X172714991Y-124450778D01*
X172558466Y-124534443D01*
X172388627Y-124585963D01*
X172322442Y-124592482D01*
X172256260Y-124599000D01*
X172167740Y-124599000D01*
X172101558Y-124592482D01*
X172035373Y-124585963D01*
X171865534Y-124534443D01*
X171709009Y-124450778D01*
X171668142Y-124417239D01*
X171571814Y-124338186D01*
X171482209Y-124229000D01*
X171459222Y-124200991D01*
X171375557Y-124044466D01*
X171324037Y-123874627D01*
X171306641Y-123698000D01*
X171324037Y-123521373D01*
X171375557Y-123351534D01*
X171459222Y-123195009D01*
X171488552Y-123159271D01*
X171571814Y-123057814D01*
X171673271Y-122974552D01*
X171709009Y-122945222D01*
X171865534Y-122861557D01*
X172035373Y-122810037D01*
X172101558Y-122803518D01*
X172167740Y-122797000D01*
X172256260Y-122797000D01*
X172322442Y-122803518D01*
X172322442Y-122803518D01*
G37*
G36*
X141080442Y-122803518D02*
G01*
X141146627Y-122810037D01*
X141316466Y-122861557D01*
X141472991Y-122945222D01*
X141508729Y-122974552D01*
X141610186Y-123057814D01*
X141693448Y-123159271D01*
X141722778Y-123195009D01*
X141806443Y-123351534D01*
X141857963Y-123521373D01*
X141875359Y-123698000D01*
X141857963Y-123874627D01*
X141806443Y-124044466D01*
X141722778Y-124200991D01*
X141699791Y-124229000D01*
X141610186Y-124338186D01*
X141513858Y-124417239D01*
X141472991Y-124450778D01*
X141316466Y-124534443D01*
X141146627Y-124585963D01*
X141080442Y-124592482D01*
X141014260Y-124599000D01*
X140925740Y-124599000D01*
X140859558Y-124592482D01*
X140793373Y-124585963D01*
X140623534Y-124534443D01*
X140467009Y-124450778D01*
X140426142Y-124417239D01*
X140329814Y-124338186D01*
X140240209Y-124229000D01*
X140217222Y-124200991D01*
X140133557Y-124044466D01*
X140082037Y-123874627D01*
X140064641Y-123698000D01*
X140082037Y-123521373D01*
X140133557Y-123351534D01*
X140217222Y-123195009D01*
X140246552Y-123159271D01*
X140329814Y-123057814D01*
X140431271Y-122974552D01*
X140467009Y-122945222D01*
X140623534Y-122861557D01*
X140793373Y-122810037D01*
X140859558Y-122803518D01*
X140925740Y-122797000D01*
X141014260Y-122797000D01*
X141080442Y-122803518D01*
X141080442Y-122803518D01*
G37*
G36*
X138540442Y-122803518D02*
G01*
X138606627Y-122810037D01*
X138776466Y-122861557D01*
X138932991Y-122945222D01*
X138968729Y-122974552D01*
X139070186Y-123057814D01*
X139153448Y-123159271D01*
X139182778Y-123195009D01*
X139266443Y-123351534D01*
X139317963Y-123521373D01*
X139335359Y-123698000D01*
X139317963Y-123874627D01*
X139266443Y-124044466D01*
X139182778Y-124200991D01*
X139159791Y-124229000D01*
X139070186Y-124338186D01*
X138973858Y-124417239D01*
X138932991Y-124450778D01*
X138776466Y-124534443D01*
X138606627Y-124585963D01*
X138540442Y-124592482D01*
X138474260Y-124599000D01*
X138385740Y-124599000D01*
X138319558Y-124592482D01*
X138253373Y-124585963D01*
X138083534Y-124534443D01*
X137927009Y-124450778D01*
X137886142Y-124417239D01*
X137789814Y-124338186D01*
X137700209Y-124229000D01*
X137677222Y-124200991D01*
X137593557Y-124044466D01*
X137542037Y-123874627D01*
X137524641Y-123698000D01*
X137542037Y-123521373D01*
X137593557Y-123351534D01*
X137677222Y-123195009D01*
X137706552Y-123159271D01*
X137789814Y-123057814D01*
X137891271Y-122974552D01*
X137927009Y-122945222D01*
X138083534Y-122861557D01*
X138253373Y-122810037D01*
X138319558Y-122803518D01*
X138385740Y-122797000D01*
X138474260Y-122797000D01*
X138540442Y-122803518D01*
X138540442Y-122803518D01*
G37*
G36*
X136000442Y-122803518D02*
G01*
X136066627Y-122810037D01*
X136236466Y-122861557D01*
X136392991Y-122945222D01*
X136428729Y-122974552D01*
X136530186Y-123057814D01*
X136613448Y-123159271D01*
X136642778Y-123195009D01*
X136726443Y-123351534D01*
X136777963Y-123521373D01*
X136795359Y-123698000D01*
X136777963Y-123874627D01*
X136726443Y-124044466D01*
X136642778Y-124200991D01*
X136619791Y-124229000D01*
X136530186Y-124338186D01*
X136433858Y-124417239D01*
X136392991Y-124450778D01*
X136236466Y-124534443D01*
X136066627Y-124585963D01*
X136000442Y-124592482D01*
X135934260Y-124599000D01*
X135845740Y-124599000D01*
X135779558Y-124592482D01*
X135713373Y-124585963D01*
X135543534Y-124534443D01*
X135387009Y-124450778D01*
X135346142Y-124417239D01*
X135249814Y-124338186D01*
X135160209Y-124229000D01*
X135137222Y-124200991D01*
X135053557Y-124044466D01*
X135002037Y-123874627D01*
X134984641Y-123698000D01*
X135002037Y-123521373D01*
X135053557Y-123351534D01*
X135137222Y-123195009D01*
X135166552Y-123159271D01*
X135249814Y-123057814D01*
X135351271Y-122974552D01*
X135387009Y-122945222D01*
X135543534Y-122861557D01*
X135713373Y-122810037D01*
X135779558Y-122803518D01*
X135845740Y-122797000D01*
X135934260Y-122797000D01*
X136000442Y-122803518D01*
X136000442Y-122803518D01*
G37*
G36*
X128380442Y-122803518D02*
G01*
X128446627Y-122810037D01*
X128616466Y-122861557D01*
X128772991Y-122945222D01*
X128808729Y-122974552D01*
X128910186Y-123057814D01*
X128993448Y-123159271D01*
X129022778Y-123195009D01*
X129106443Y-123351534D01*
X129157963Y-123521373D01*
X129175359Y-123698000D01*
X129157963Y-123874627D01*
X129106443Y-124044466D01*
X129022778Y-124200991D01*
X128999791Y-124229000D01*
X128910186Y-124338186D01*
X128813858Y-124417239D01*
X128772991Y-124450778D01*
X128616466Y-124534443D01*
X128446627Y-124585963D01*
X128380442Y-124592482D01*
X128314260Y-124599000D01*
X128225740Y-124599000D01*
X128159558Y-124592482D01*
X128093373Y-124585963D01*
X127923534Y-124534443D01*
X127767009Y-124450778D01*
X127726142Y-124417239D01*
X127629814Y-124338186D01*
X127540209Y-124229000D01*
X127517222Y-124200991D01*
X127433557Y-124044466D01*
X127382037Y-123874627D01*
X127364641Y-123698000D01*
X127382037Y-123521373D01*
X127433557Y-123351534D01*
X127517222Y-123195009D01*
X127546552Y-123159271D01*
X127629814Y-123057814D01*
X127731271Y-122974552D01*
X127767009Y-122945222D01*
X127923534Y-122861557D01*
X128093373Y-122810037D01*
X128159558Y-122803518D01*
X128225740Y-122797000D01*
X128314260Y-122797000D01*
X128380442Y-122803518D01*
X128380442Y-122803518D01*
G37*
G36*
X88298424Y-120342760D02*
G01*
X88298427Y-120342761D01*
X88298428Y-120342761D01*
X88477692Y-120397140D01*
X88477695Y-120397142D01*
X88477696Y-120397142D01*
X88642903Y-120485446D01*
X88787712Y-120604288D01*
X88906554Y-120749097D01*
X88994858Y-120914303D01*
X88994860Y-120914307D01*
X88994860Y-120914308D01*
X89049240Y-121093575D01*
X89063000Y-121233282D01*
X89063000Y-123526718D01*
X89049240Y-123666425D01*
X89049239Y-123666428D01*
X89049239Y-123666429D01*
X88994860Y-123845693D01*
X88994858Y-123845696D01*
X88994858Y-123845697D01*
X88906554Y-124010903D01*
X88787712Y-124155712D01*
X88642903Y-124274554D01*
X88523855Y-124338186D01*
X88477693Y-124362860D01*
X88298429Y-124417239D01*
X88298428Y-124417239D01*
X88298425Y-124417240D01*
X88112000Y-124435601D01*
X87925576Y-124417240D01*
X87925573Y-124417239D01*
X87925572Y-124417239D01*
X87746308Y-124362860D01*
X87700146Y-124338186D01*
X87581098Y-124274554D01*
X87436289Y-124155712D01*
X87317447Y-124010903D01*
X87229143Y-123845697D01*
X87229143Y-123845696D01*
X87229141Y-123845693D01*
X87174762Y-123666429D01*
X87174762Y-123666428D01*
X87174761Y-123666425D01*
X87161001Y-123526718D01*
X87161000Y-121233283D01*
X87174760Y-121093576D01*
X87174761Y-121093572D01*
X87229140Y-120914308D01*
X87229143Y-120914303D01*
X87317446Y-120749097D01*
X87436288Y-120604288D01*
X87581097Y-120485446D01*
X87746303Y-120397142D01*
X87746304Y-120397142D01*
X87746307Y-120397140D01*
X87925571Y-120342761D01*
X87925572Y-120342761D01*
X87925575Y-120342760D01*
X88112000Y-120324399D01*
X88298424Y-120342760D01*
X88298424Y-120342760D01*
G37*
G36*
X85563000Y-120331000D02*
G01*
X81061000Y-120331000D01*
X81061000Y-118429000D01*
X85563000Y-118429000D01*
X85563000Y-120331000D01*
X85563000Y-120331000D01*
G37*
G36*
X130042228Y-115767703D02*
G01*
X130197100Y-115831853D01*
X130336481Y-115924985D01*
X130455015Y-116043519D01*
X130548147Y-116182900D01*
X130612297Y-116337772D01*
X130645000Y-116502184D01*
X130645000Y-116669816D01*
X130612297Y-116834228D01*
X130548147Y-116989100D01*
X130455015Y-117128481D01*
X130336481Y-117247015D01*
X130197100Y-117340147D01*
X130042228Y-117404297D01*
X129877816Y-117437000D01*
X129710184Y-117437000D01*
X129545772Y-117404297D01*
X129390900Y-117340147D01*
X129251519Y-117247015D01*
X129132985Y-117128481D01*
X129039853Y-116989100D01*
X128975703Y-116834228D01*
X128943000Y-116669816D01*
X128943000Y-116502184D01*
X128975703Y-116337772D01*
X129039853Y-116182900D01*
X129132985Y-116043519D01*
X129251519Y-115924985D01*
X129390900Y-115831853D01*
X129545772Y-115767703D01*
X129710184Y-115735000D01*
X129877816Y-115735000D01*
X130042228Y-115767703D01*
X130042228Y-115767703D01*
G37*
G36*
X137580823Y-115747313D02*
G01*
X137741242Y-115795976D01*
X137808361Y-115831852D01*
X137889078Y-115874996D01*
X138018659Y-115981341D01*
X138125004Y-116110922D01*
X138125005Y-116110924D01*
X138204024Y-116258758D01*
X138252687Y-116419177D01*
X138269117Y-116586000D01*
X138252687Y-116752823D01*
X138204024Y-116913242D01*
X138163477Y-116989100D01*
X138125004Y-117061078D01*
X138018659Y-117190659D01*
X137889078Y-117297004D01*
X137889076Y-117297005D01*
X137741242Y-117376024D01*
X137580823Y-117424687D01*
X137455804Y-117437000D01*
X137372196Y-117437000D01*
X137247177Y-117424687D01*
X137086758Y-117376024D01*
X136938924Y-117297005D01*
X136938922Y-117297004D01*
X136809341Y-117190659D01*
X136702996Y-117061078D01*
X136664523Y-116989100D01*
X136623976Y-116913242D01*
X136575313Y-116752823D01*
X136558883Y-116586000D01*
X136575313Y-116419177D01*
X136623976Y-116258758D01*
X136702995Y-116110924D01*
X136702996Y-116110922D01*
X136809341Y-115981341D01*
X136938922Y-115874996D01*
X137019639Y-115831852D01*
X137086758Y-115795976D01*
X137247177Y-115747313D01*
X137372196Y-115735000D01*
X137455804Y-115735000D01*
X137580823Y-115747313D01*
X137580823Y-115747313D01*
G37*
G36*
X154317000Y-116217000D02*
G01*
X152515000Y-116217000D01*
X152515000Y-114415000D01*
X154317000Y-114415000D01*
X154317000Y-116217000D01*
X154317000Y-116217000D01*
G37*
G36*
X156066442Y-114421518D02*
G01*
X156132627Y-114428037D01*
X156302466Y-114479557D01*
X156458991Y-114563222D01*
X156494729Y-114592552D01*
X156596186Y-114675814D01*
X156679448Y-114777271D01*
X156708778Y-114813009D01*
X156792443Y-114969534D01*
X156843963Y-115139373D01*
X156861359Y-115316000D01*
X156843963Y-115492627D01*
X156792443Y-115662466D01*
X156708778Y-115818991D01*
X156698223Y-115831852D01*
X156596186Y-115956186D01*
X156494729Y-116039448D01*
X156458991Y-116068778D01*
X156302466Y-116152443D01*
X156132627Y-116203963D01*
X156066443Y-116210481D01*
X156000260Y-116217000D01*
X155911740Y-116217000D01*
X155845557Y-116210481D01*
X155779373Y-116203963D01*
X155609534Y-116152443D01*
X155453009Y-116068778D01*
X155417271Y-116039448D01*
X155315814Y-115956186D01*
X155213777Y-115831852D01*
X155203222Y-115818991D01*
X155119557Y-115662466D01*
X155068037Y-115492627D01*
X155050641Y-115316000D01*
X155068037Y-115139373D01*
X155119557Y-114969534D01*
X155203222Y-114813009D01*
X155232552Y-114777271D01*
X155315814Y-114675814D01*
X155417271Y-114592552D01*
X155453009Y-114563222D01*
X155609534Y-114479557D01*
X155779373Y-114428037D01*
X155845558Y-114421518D01*
X155911740Y-114415000D01*
X156000260Y-114415000D01*
X156066442Y-114421518D01*
X156066442Y-114421518D01*
G37*
G36*
X158606442Y-114421518D02*
G01*
X158672627Y-114428037D01*
X158842466Y-114479557D01*
X158998991Y-114563222D01*
X159034729Y-114592552D01*
X159136186Y-114675814D01*
X159219448Y-114777271D01*
X159248778Y-114813009D01*
X159332443Y-114969534D01*
X159383963Y-115139373D01*
X159401359Y-115316000D01*
X159383963Y-115492627D01*
X159332443Y-115662466D01*
X159248778Y-115818991D01*
X159238223Y-115831852D01*
X159136186Y-115956186D01*
X159034729Y-116039448D01*
X158998991Y-116068778D01*
X158842466Y-116152443D01*
X158672627Y-116203963D01*
X158606443Y-116210481D01*
X158540260Y-116217000D01*
X158451740Y-116217000D01*
X158385557Y-116210481D01*
X158319373Y-116203963D01*
X158149534Y-116152443D01*
X157993009Y-116068778D01*
X157957271Y-116039448D01*
X157855814Y-115956186D01*
X157753777Y-115831852D01*
X157743222Y-115818991D01*
X157659557Y-115662466D01*
X157608037Y-115492627D01*
X157590641Y-115316000D01*
X157608037Y-115139373D01*
X157659557Y-114969534D01*
X157743222Y-114813009D01*
X157772552Y-114777271D01*
X157855814Y-114675814D01*
X157957271Y-114592552D01*
X157993009Y-114563222D01*
X158149534Y-114479557D01*
X158319373Y-114428037D01*
X158385558Y-114421518D01*
X158451740Y-114415000D01*
X158540260Y-114415000D01*
X158606442Y-114421518D01*
X158606442Y-114421518D01*
G37*
G36*
X130042228Y-112211703D02*
G01*
X130197100Y-112275853D01*
X130336481Y-112368985D01*
X130455015Y-112487519D01*
X130548147Y-112626900D01*
X130612297Y-112781772D01*
X130645000Y-112946184D01*
X130645000Y-113113816D01*
X130612297Y-113278228D01*
X130548147Y-113433100D01*
X130455015Y-113572481D01*
X130336481Y-113691015D01*
X130197100Y-113784147D01*
X130042228Y-113848297D01*
X129877816Y-113881000D01*
X129710184Y-113881000D01*
X129545772Y-113848297D01*
X129390900Y-113784147D01*
X129251519Y-113691015D01*
X129132985Y-113572481D01*
X129039853Y-113433100D01*
X128975703Y-113278228D01*
X128943000Y-113113816D01*
X128943000Y-112946184D01*
X128975703Y-112781772D01*
X129039853Y-112626900D01*
X129132985Y-112487519D01*
X129251519Y-112368985D01*
X129390900Y-112275853D01*
X129545772Y-112211703D01*
X129710184Y-112179000D01*
X129877816Y-112179000D01*
X130042228Y-112211703D01*
X130042228Y-112211703D01*
G37*
G36*
X137580823Y-112191313D02*
G01*
X137741242Y-112239976D01*
X137808361Y-112275852D01*
X137889078Y-112318996D01*
X138018659Y-112425341D01*
X138125004Y-112554922D01*
X138125005Y-112554924D01*
X138204024Y-112702758D01*
X138252687Y-112863177D01*
X138269117Y-113030000D01*
X138252687Y-113196823D01*
X138204024Y-113357242D01*
X138163477Y-113433100D01*
X138125004Y-113505078D01*
X138018659Y-113634659D01*
X137889078Y-113741004D01*
X137889076Y-113741005D01*
X137741242Y-113820024D01*
X137580823Y-113868687D01*
X137455804Y-113881000D01*
X137372196Y-113881000D01*
X137247177Y-113868687D01*
X137086758Y-113820024D01*
X136938924Y-113741005D01*
X136938922Y-113741004D01*
X136809341Y-113634659D01*
X136702996Y-113505078D01*
X136664523Y-113433100D01*
X136623976Y-113357242D01*
X136575313Y-113196823D01*
X136558883Y-113030000D01*
X136575313Y-112863177D01*
X136623976Y-112702758D01*
X136702995Y-112554924D01*
X136702996Y-112554922D01*
X136809341Y-112425341D01*
X136938922Y-112318996D01*
X137019639Y-112275852D01*
X137086758Y-112239976D01*
X137247177Y-112191313D01*
X137372196Y-112179000D01*
X137455804Y-112179000D01*
X137580823Y-112191313D01*
X137580823Y-112191313D01*
G37*
G36*
X107055000Y-112103000D02*
G01*
X105353000Y-112103000D01*
X105353000Y-110401000D01*
X107055000Y-110401000D01*
X107055000Y-112103000D01*
X107055000Y-112103000D01*
G37*
G36*
X108452228Y-110433703D02*
G01*
X108607100Y-110497853D01*
X108746481Y-110590985D01*
X108865015Y-110709519D01*
X108958147Y-110848900D01*
X109022297Y-111003772D01*
X109055000Y-111168184D01*
X109055000Y-111335816D01*
X109022297Y-111500228D01*
X108958147Y-111655100D01*
X108865015Y-111794481D01*
X108746481Y-111913015D01*
X108607100Y-112006147D01*
X108452228Y-112070297D01*
X108287816Y-112103000D01*
X108120184Y-112103000D01*
X107955772Y-112070297D01*
X107800900Y-112006147D01*
X107661519Y-111913015D01*
X107542985Y-111794481D01*
X107449853Y-111655100D01*
X107385703Y-111500228D01*
X107353000Y-111335816D01*
X107353000Y-111168184D01*
X107385703Y-111003772D01*
X107449853Y-110848900D01*
X107542985Y-110709519D01*
X107661519Y-110590985D01*
X107800900Y-110497853D01*
X107955772Y-110433703D01*
X108120184Y-110401000D01*
X108287816Y-110401000D01*
X108452228Y-110433703D01*
X108452228Y-110433703D01*
G37*
G36*
X114643000Y-112103000D02*
G01*
X112941000Y-112103000D01*
X112941000Y-110401000D01*
X114643000Y-110401000D01*
X114643000Y-112103000D01*
X114643000Y-112103000D01*
G37*
G36*
X116040228Y-110433703D02*
G01*
X116195100Y-110497853D01*
X116334481Y-110590985D01*
X116453015Y-110709519D01*
X116546147Y-110848900D01*
X116610297Y-111003772D01*
X116643000Y-111168184D01*
X116643000Y-111335816D01*
X116610297Y-111500228D01*
X116546147Y-111655100D01*
X116453015Y-111794481D01*
X116334481Y-111913015D01*
X116195100Y-112006147D01*
X116040228Y-112070297D01*
X115875816Y-112103000D01*
X115708184Y-112103000D01*
X115543772Y-112070297D01*
X115388900Y-112006147D01*
X115249519Y-111913015D01*
X115130985Y-111794481D01*
X115037853Y-111655100D01*
X114973703Y-111500228D01*
X114941000Y-111335816D01*
X114941000Y-111168184D01*
X114973703Y-111003772D01*
X115037853Y-110848900D01*
X115130985Y-110709519D01*
X115249519Y-110590985D01*
X115388900Y-110497853D01*
X115543772Y-110433703D01*
X115708184Y-110401000D01*
X115875816Y-110401000D01*
X116040228Y-110433703D01*
X116040228Y-110433703D01*
G37*
G36*
X95926228Y-110179703D02*
G01*
X96081100Y-110243853D01*
X96220481Y-110336985D01*
X96339015Y-110455519D01*
X96432147Y-110594900D01*
X96496297Y-110749772D01*
X96529000Y-110914184D01*
X96529000Y-111081816D01*
X96496297Y-111246228D01*
X96432147Y-111401100D01*
X96339015Y-111540481D01*
X96220481Y-111659015D01*
X96081100Y-111752147D01*
X95926228Y-111816297D01*
X95761816Y-111849000D01*
X95594184Y-111849000D01*
X95429772Y-111816297D01*
X95274900Y-111752147D01*
X95135519Y-111659015D01*
X95016985Y-111540481D01*
X94923853Y-111401100D01*
X94859703Y-111246228D01*
X94827000Y-111081816D01*
X94827000Y-110914184D01*
X94859703Y-110749772D01*
X94923853Y-110594900D01*
X95016985Y-110455519D01*
X95135519Y-110336985D01*
X95274900Y-110243853D01*
X95429772Y-110179703D01*
X95594184Y-110147000D01*
X95761816Y-110147000D01*
X95926228Y-110179703D01*
X95926228Y-110179703D01*
G37*
G36*
X90926228Y-110179703D02*
G01*
X91081100Y-110243853D01*
X91220481Y-110336985D01*
X91339015Y-110455519D01*
X91432147Y-110594900D01*
X91496297Y-110749772D01*
X91529000Y-110914184D01*
X91529000Y-111081816D01*
X91496297Y-111246228D01*
X91432147Y-111401100D01*
X91339015Y-111540481D01*
X91220481Y-111659015D01*
X91081100Y-111752147D01*
X90926228Y-111816297D01*
X90761816Y-111849000D01*
X90594184Y-111849000D01*
X90429772Y-111816297D01*
X90274900Y-111752147D01*
X90135519Y-111659015D01*
X90016985Y-111540481D01*
X89923853Y-111401100D01*
X89859703Y-111246228D01*
X89827000Y-111081816D01*
X89827000Y-110914184D01*
X89859703Y-110749772D01*
X89923853Y-110594900D01*
X90016985Y-110455519D01*
X90135519Y-110336985D01*
X90274900Y-110243853D01*
X90429772Y-110179703D01*
X90594184Y-110147000D01*
X90761816Y-110147000D01*
X90926228Y-110179703D01*
X90926228Y-110179703D01*
G37*
G36*
X86274228Y-109671703D02*
G01*
X86429100Y-109735853D01*
X86568481Y-109828985D01*
X86687015Y-109947519D01*
X86780147Y-110086900D01*
X86844297Y-110241772D01*
X86877000Y-110406184D01*
X86877000Y-110573816D01*
X86844297Y-110738228D01*
X86780147Y-110893100D01*
X86687015Y-111032481D01*
X86568481Y-111151015D01*
X86429100Y-111244147D01*
X86274228Y-111308297D01*
X86109816Y-111341000D01*
X85942184Y-111341000D01*
X85777772Y-111308297D01*
X85622900Y-111244147D01*
X85483519Y-111151015D01*
X85364985Y-111032481D01*
X85271853Y-110893100D01*
X85207703Y-110738228D01*
X85175000Y-110573816D01*
X85175000Y-110406184D01*
X85207703Y-110241772D01*
X85271853Y-110086900D01*
X85364985Y-109947519D01*
X85483519Y-109828985D01*
X85622900Y-109735853D01*
X85777772Y-109671703D01*
X85942184Y-109639000D01*
X86109816Y-109639000D01*
X86274228Y-109671703D01*
X86274228Y-109671703D01*
G37*
G36*
X81274228Y-109671703D02*
G01*
X81429100Y-109735853D01*
X81568481Y-109828985D01*
X81687015Y-109947519D01*
X81780147Y-110086900D01*
X81844297Y-110241772D01*
X81877000Y-110406184D01*
X81877000Y-110573816D01*
X81844297Y-110738228D01*
X81780147Y-110893100D01*
X81687015Y-111032481D01*
X81568481Y-111151015D01*
X81429100Y-111244147D01*
X81274228Y-111308297D01*
X81109816Y-111341000D01*
X80942184Y-111341000D01*
X80777772Y-111308297D01*
X80622900Y-111244147D01*
X80483519Y-111151015D01*
X80364985Y-111032481D01*
X80271853Y-110893100D01*
X80207703Y-110738228D01*
X80175000Y-110573816D01*
X80175000Y-110406184D01*
X80207703Y-110241772D01*
X80271853Y-110086900D01*
X80364985Y-109947519D01*
X80483519Y-109828985D01*
X80622900Y-109735853D01*
X80777772Y-109671703D01*
X80942184Y-109639000D01*
X81109816Y-109639000D01*
X81274228Y-109671703D01*
X81274228Y-109671703D01*
G37*
G36*
X137580823Y-108889313D02*
G01*
X137741242Y-108937976D01*
X137808361Y-108973852D01*
X137889078Y-109016996D01*
X138018659Y-109123341D01*
X138125004Y-109252922D01*
X138125005Y-109252924D01*
X138204024Y-109400758D01*
X138252687Y-109561177D01*
X138269117Y-109728000D01*
X138252687Y-109894823D01*
X138204024Y-110055242D01*
X138163477Y-110131100D01*
X138125004Y-110203078D01*
X138018659Y-110332659D01*
X137889078Y-110439004D01*
X137889076Y-110439005D01*
X137741242Y-110518024D01*
X137580823Y-110566687D01*
X137455804Y-110579000D01*
X137372196Y-110579000D01*
X137247177Y-110566687D01*
X137086758Y-110518024D01*
X136938924Y-110439005D01*
X136938922Y-110439004D01*
X136809341Y-110332659D01*
X136702996Y-110203078D01*
X136664523Y-110131100D01*
X136623976Y-110055242D01*
X136575313Y-109894823D01*
X136558883Y-109728000D01*
X136575313Y-109561177D01*
X136623976Y-109400758D01*
X136702995Y-109252924D01*
X136702996Y-109252922D01*
X136809341Y-109123341D01*
X136938922Y-109016996D01*
X137019639Y-108973852D01*
X137086758Y-108937976D01*
X137247177Y-108889313D01*
X137372196Y-108877000D01*
X137455804Y-108877000D01*
X137580823Y-108889313D01*
X137580823Y-108889313D01*
G37*
G36*
X130042228Y-108909703D02*
G01*
X130197100Y-108973853D01*
X130336481Y-109066985D01*
X130455015Y-109185519D01*
X130548147Y-109324900D01*
X130612297Y-109479772D01*
X130645000Y-109644184D01*
X130645000Y-109811816D01*
X130612297Y-109976228D01*
X130548147Y-110131100D01*
X130455015Y-110270481D01*
X130336481Y-110389015D01*
X130197100Y-110482147D01*
X130042228Y-110546297D01*
X129877816Y-110579000D01*
X129710184Y-110579000D01*
X129545772Y-110546297D01*
X129390900Y-110482147D01*
X129251519Y-110389015D01*
X129132985Y-110270481D01*
X129039853Y-110131100D01*
X128975703Y-109976228D01*
X128943000Y-109811816D01*
X128943000Y-109644184D01*
X128975703Y-109479772D01*
X129039853Y-109324900D01*
X129132985Y-109185519D01*
X129251519Y-109066985D01*
X129390900Y-108973853D01*
X129545772Y-108909703D01*
X129710184Y-108877000D01*
X129877816Y-108877000D01*
X130042228Y-108909703D01*
X130042228Y-108909703D01*
G37*
G36*
X217534443Y-106801519D02*
G01*
X217600627Y-106808037D01*
X217770466Y-106859557D01*
X217926991Y-106943222D01*
X217949901Y-106962024D01*
X218064186Y-107055814D01*
X218147448Y-107157271D01*
X218176778Y-107193009D01*
X218260443Y-107349534D01*
X218311963Y-107519373D01*
X218329359Y-107696000D01*
X218311963Y-107872627D01*
X218260443Y-108042466D01*
X218176778Y-108198991D01*
X218147448Y-108234729D01*
X218064186Y-108336186D01*
X217962729Y-108419448D01*
X217926991Y-108448778D01*
X217770466Y-108532443D01*
X217600627Y-108583963D01*
X217534442Y-108590482D01*
X217468260Y-108597000D01*
X217379740Y-108597000D01*
X217313558Y-108590482D01*
X217247373Y-108583963D01*
X217077534Y-108532443D01*
X216921009Y-108448778D01*
X216885271Y-108419448D01*
X216783814Y-108336186D01*
X216700552Y-108234729D01*
X216671222Y-108198991D01*
X216587557Y-108042466D01*
X216536037Y-107872627D01*
X216518641Y-107696000D01*
X216536037Y-107519373D01*
X216587557Y-107349534D01*
X216671222Y-107193009D01*
X216700552Y-107157271D01*
X216783814Y-107055814D01*
X216898099Y-106962024D01*
X216921009Y-106943222D01*
X217077534Y-106859557D01*
X217247373Y-106808037D01*
X217313557Y-106801519D01*
X217379740Y-106795000D01*
X217468260Y-106795000D01*
X217534443Y-106801519D01*
X217534443Y-106801519D01*
G37*
G36*
X137580823Y-105333313D02*
G01*
X137741242Y-105381976D01*
X137808361Y-105417852D01*
X137889078Y-105460996D01*
X138018659Y-105567341D01*
X138125004Y-105696922D01*
X138125005Y-105696924D01*
X138204024Y-105844758D01*
X138252687Y-106005177D01*
X138269117Y-106172000D01*
X138252687Y-106338823D01*
X138204024Y-106499242D01*
X138163477Y-106575100D01*
X138125004Y-106647078D01*
X138018659Y-106776659D01*
X137889078Y-106883004D01*
X137889076Y-106883005D01*
X137741242Y-106962024D01*
X137580823Y-107010687D01*
X137455804Y-107023000D01*
X137372196Y-107023000D01*
X137247177Y-107010687D01*
X137086758Y-106962024D01*
X136938924Y-106883005D01*
X136938922Y-106883004D01*
X136809341Y-106776659D01*
X136702996Y-106647078D01*
X136664523Y-106575100D01*
X136623976Y-106499242D01*
X136575313Y-106338823D01*
X136558883Y-106172000D01*
X136575313Y-106005177D01*
X136623976Y-105844758D01*
X136702995Y-105696924D01*
X136702996Y-105696922D01*
X136809341Y-105567341D01*
X136938922Y-105460996D01*
X137019639Y-105417852D01*
X137086758Y-105381976D01*
X137247177Y-105333313D01*
X137372196Y-105321000D01*
X137455804Y-105321000D01*
X137580823Y-105333313D01*
X137580823Y-105333313D01*
G37*
G36*
X130042228Y-105353703D02*
G01*
X130197100Y-105417853D01*
X130336481Y-105510985D01*
X130455015Y-105629519D01*
X130548147Y-105768900D01*
X130612297Y-105923772D01*
X130645000Y-106088184D01*
X130645000Y-106255816D01*
X130612297Y-106420228D01*
X130548147Y-106575100D01*
X130455015Y-106714481D01*
X130336481Y-106833015D01*
X130197100Y-106926147D01*
X130042228Y-106990297D01*
X129877816Y-107023000D01*
X129710184Y-107023000D01*
X129545772Y-106990297D01*
X129390900Y-106926147D01*
X129251519Y-106833015D01*
X129132985Y-106714481D01*
X129039853Y-106575100D01*
X128975703Y-106420228D01*
X128943000Y-106255816D01*
X128943000Y-106088184D01*
X128975703Y-105923772D01*
X129039853Y-105768900D01*
X129132985Y-105629519D01*
X129251519Y-105510985D01*
X129390900Y-105417853D01*
X129545772Y-105353703D01*
X129710184Y-105321000D01*
X129877816Y-105321000D01*
X130042228Y-105353703D01*
X130042228Y-105353703D01*
G37*
G36*
X217534442Y-104261518D02*
G01*
X217600627Y-104268037D01*
X217770466Y-104319557D01*
X217926991Y-104403222D01*
X217962729Y-104432552D01*
X218064186Y-104515814D01*
X218103882Y-104564185D01*
X218176778Y-104653009D01*
X218260443Y-104809534D01*
X218311963Y-104979373D01*
X218329359Y-105156000D01*
X218311963Y-105332627D01*
X218265229Y-105486687D01*
X218260442Y-105502468D01*
X218225766Y-105567341D01*
X218176778Y-105658991D01*
X218147448Y-105694729D01*
X218064186Y-105796186D01*
X217962729Y-105879448D01*
X217926991Y-105908778D01*
X217770466Y-105992443D01*
X217600627Y-106043963D01*
X217534442Y-106050482D01*
X217468260Y-106057000D01*
X217379740Y-106057000D01*
X217313558Y-106050482D01*
X217247373Y-106043963D01*
X217077534Y-105992443D01*
X216921009Y-105908778D01*
X216885271Y-105879448D01*
X216783814Y-105796186D01*
X216700552Y-105694729D01*
X216671222Y-105658991D01*
X216622234Y-105567341D01*
X216587558Y-105502468D01*
X216582771Y-105486687D01*
X216536037Y-105332627D01*
X216518641Y-105156000D01*
X216536037Y-104979373D01*
X216587557Y-104809534D01*
X216671222Y-104653009D01*
X216744118Y-104564185D01*
X216783814Y-104515814D01*
X216885271Y-104432552D01*
X216921009Y-104403222D01*
X217077534Y-104319557D01*
X217247373Y-104268037D01*
X217313558Y-104261518D01*
X217379740Y-104255000D01*
X217468260Y-104255000D01*
X217534442Y-104261518D01*
X217534442Y-104261518D01*
G37*
G36*
X196082228Y-103829703D02*
G01*
X196237100Y-103893853D01*
X196376481Y-103986985D01*
X196495015Y-104105519D01*
X196588147Y-104244900D01*
X196652297Y-104399772D01*
X196685000Y-104564184D01*
X196685000Y-104731816D01*
X196652297Y-104896228D01*
X196588147Y-105051100D01*
X196495015Y-105190481D01*
X196376481Y-105309015D01*
X196237100Y-105402147D01*
X196082228Y-105466297D01*
X195917816Y-105499000D01*
X195750184Y-105499000D01*
X195585772Y-105466297D01*
X195430900Y-105402147D01*
X195291519Y-105309015D01*
X195172985Y-105190481D01*
X195079853Y-105051100D01*
X195015703Y-104896228D01*
X194983000Y-104731816D01*
X194983000Y-104564184D01*
X195015703Y-104399772D01*
X195079853Y-104244900D01*
X195172985Y-104105519D01*
X195291519Y-103986985D01*
X195430900Y-103893853D01*
X195585772Y-103829703D01*
X195750184Y-103797000D01*
X195917816Y-103797000D01*
X196082228Y-103829703D01*
X196082228Y-103829703D01*
G37*
G36*
X203620823Y-103809313D02*
G01*
X203781242Y-103857976D01*
X203848361Y-103893852D01*
X203929078Y-103936996D01*
X204058659Y-104043341D01*
X204165004Y-104172922D01*
X204165005Y-104172924D01*
X204244024Y-104320758D01*
X204292687Y-104481177D01*
X204309117Y-104648000D01*
X204292687Y-104814823D01*
X204244024Y-104975242D01*
X204203477Y-105051100D01*
X204165004Y-105123078D01*
X204058659Y-105252659D01*
X203929078Y-105359004D01*
X203929076Y-105359005D01*
X203781242Y-105438024D01*
X203620823Y-105486687D01*
X203495804Y-105499000D01*
X203412196Y-105499000D01*
X203287177Y-105486687D01*
X203126758Y-105438024D01*
X202978924Y-105359005D01*
X202978922Y-105359004D01*
X202849341Y-105252659D01*
X202742996Y-105123078D01*
X202704523Y-105051100D01*
X202663976Y-104975242D01*
X202615313Y-104814823D01*
X202598883Y-104648000D01*
X202615313Y-104481177D01*
X202663976Y-104320758D01*
X202742995Y-104172924D01*
X202742996Y-104172922D01*
X202849341Y-104043341D01*
X202978922Y-103936996D01*
X203059639Y-103893852D01*
X203126758Y-103857976D01*
X203287177Y-103809313D01*
X203412196Y-103797000D01*
X203495804Y-103797000D01*
X203620823Y-103809313D01*
X203620823Y-103809313D01*
G37*
G36*
X110686719Y-102595520D02*
G01*
X110875880Y-102652901D01*
X110875883Y-102652902D01*
X110968333Y-102702318D01*
X111050212Y-102746083D01*
X111203015Y-102871485D01*
X111328417Y-103024288D01*
X111421599Y-103198619D01*
X111478980Y-103387780D01*
X111493500Y-103535206D01*
X111493500Y-103728793D01*
X111478980Y-103876219D01*
X111428284Y-104043341D01*
X111421598Y-104065383D01*
X111400144Y-104105520D01*
X111328417Y-104239712D01*
X111203015Y-104392515D01*
X111050212Y-104517917D01*
X110875881Y-104611099D01*
X110686720Y-104668480D01*
X110490000Y-104687855D01*
X110293281Y-104668480D01*
X110104120Y-104611099D01*
X109929788Y-104517917D01*
X109776985Y-104392515D01*
X109651583Y-104239712D01*
X109558401Y-104065381D01*
X109501020Y-103876220D01*
X109486500Y-103728794D01*
X109486500Y-103535207D01*
X109501020Y-103387781D01*
X109558401Y-103198620D01*
X109558402Y-103198617D01*
X109607818Y-103106167D01*
X109651583Y-103024288D01*
X109776985Y-102871485D01*
X109929788Y-102746083D01*
X110104119Y-102652901D01*
X110293280Y-102595520D01*
X110490000Y-102576145D01*
X110686719Y-102595520D01*
X110686719Y-102595520D01*
G37*
G36*
X91382719Y-102595520D02*
G01*
X91571880Y-102652901D01*
X91571883Y-102652902D01*
X91664333Y-102702318D01*
X91746212Y-102746083D01*
X91899015Y-102871485D01*
X92024417Y-103024288D01*
X92117599Y-103198619D01*
X92174980Y-103387780D01*
X92189500Y-103535206D01*
X92189500Y-103728793D01*
X92174980Y-103876219D01*
X92124284Y-104043341D01*
X92117598Y-104065383D01*
X92096144Y-104105520D01*
X92024417Y-104239712D01*
X91899015Y-104392515D01*
X91746212Y-104517917D01*
X91571881Y-104611099D01*
X91382720Y-104668480D01*
X91186000Y-104687855D01*
X90989281Y-104668480D01*
X90800120Y-104611099D01*
X90625788Y-104517917D01*
X90472985Y-104392515D01*
X90347583Y-104239712D01*
X90254401Y-104065381D01*
X90197020Y-103876220D01*
X90182500Y-103728794D01*
X90182500Y-103535207D01*
X90197020Y-103387781D01*
X90254401Y-103198620D01*
X90254402Y-103198617D01*
X90303818Y-103106167D01*
X90347583Y-103024288D01*
X90472985Y-102871485D01*
X90625788Y-102746083D01*
X90800119Y-102652901D01*
X90989280Y-102595520D01*
X91186000Y-102576145D01*
X91382719Y-102595520D01*
X91382719Y-102595520D01*
G37*
G36*
X88842719Y-102595520D02*
G01*
X89031880Y-102652901D01*
X89031883Y-102652902D01*
X89124333Y-102702318D01*
X89206212Y-102746083D01*
X89359015Y-102871485D01*
X89484417Y-103024288D01*
X89577599Y-103198619D01*
X89634980Y-103387780D01*
X89649500Y-103535206D01*
X89649500Y-103728793D01*
X89634980Y-103876219D01*
X89584284Y-104043341D01*
X89577598Y-104065383D01*
X89556144Y-104105520D01*
X89484417Y-104239712D01*
X89359015Y-104392515D01*
X89206212Y-104517917D01*
X89031881Y-104611099D01*
X88842720Y-104668480D01*
X88646000Y-104687855D01*
X88449281Y-104668480D01*
X88260120Y-104611099D01*
X88085788Y-104517917D01*
X87932985Y-104392515D01*
X87807583Y-104239712D01*
X87714401Y-104065381D01*
X87657020Y-103876220D01*
X87642500Y-103728794D01*
X87642500Y-103535207D01*
X87657020Y-103387781D01*
X87714401Y-103198620D01*
X87714402Y-103198617D01*
X87763818Y-103106167D01*
X87807583Y-103024288D01*
X87932985Y-102871485D01*
X88085788Y-102746083D01*
X88260119Y-102652901D01*
X88449280Y-102595520D01*
X88646000Y-102576145D01*
X88842719Y-102595520D01*
X88842719Y-102595520D01*
G37*
G36*
X113226719Y-102595520D02*
G01*
X113415880Y-102652901D01*
X113415883Y-102652902D01*
X113508333Y-102702318D01*
X113590212Y-102746083D01*
X113743015Y-102871485D01*
X113868417Y-103024288D01*
X113961599Y-103198619D01*
X114018980Y-103387780D01*
X114033500Y-103535206D01*
X114033500Y-103728793D01*
X114018980Y-103876219D01*
X113968284Y-104043341D01*
X113961598Y-104065383D01*
X113940144Y-104105520D01*
X113868417Y-104239712D01*
X113743015Y-104392515D01*
X113590212Y-104517917D01*
X113415881Y-104611099D01*
X113226720Y-104668480D01*
X113030000Y-104687855D01*
X112833281Y-104668480D01*
X112644120Y-104611099D01*
X112469788Y-104517917D01*
X112316985Y-104392515D01*
X112191583Y-104239712D01*
X112098401Y-104065381D01*
X112041020Y-103876220D01*
X112026500Y-103728794D01*
X112026500Y-103535207D01*
X112041020Y-103387781D01*
X112098401Y-103198620D01*
X112098402Y-103198617D01*
X112147818Y-103106167D01*
X112191583Y-103024288D01*
X112316985Y-102871485D01*
X112469788Y-102746083D01*
X112644119Y-102652901D01*
X112833280Y-102595520D01*
X113030000Y-102576145D01*
X113226719Y-102595520D01*
X113226719Y-102595520D01*
G37*
G36*
X108953500Y-104683000D02*
G01*
X106946500Y-104683000D01*
X106946500Y-102581000D01*
X108953500Y-102581000D01*
X108953500Y-104683000D01*
X108953500Y-104683000D01*
G37*
G36*
X87109500Y-104683000D02*
G01*
X85102500Y-104683000D01*
X85102500Y-102581000D01*
X87109500Y-102581000D01*
X87109500Y-104683000D01*
X87109500Y-104683000D01*
G37*
G36*
X217534443Y-101721519D02*
G01*
X217600627Y-101728037D01*
X217770466Y-101779557D01*
X217926991Y-101863222D01*
X217962729Y-101892552D01*
X218064186Y-101975814D01*
X218147448Y-102077271D01*
X218176778Y-102113009D01*
X218260443Y-102269534D01*
X218311963Y-102439373D01*
X218329359Y-102616000D01*
X218311963Y-102792627D01*
X218260443Y-102962466D01*
X218176778Y-103118991D01*
X218147448Y-103154729D01*
X218064186Y-103256186D01*
X217962729Y-103339448D01*
X217926991Y-103368778D01*
X217770466Y-103452443D01*
X217600627Y-103503963D01*
X217534443Y-103510481D01*
X217468260Y-103517000D01*
X217379740Y-103517000D01*
X217313558Y-103510482D01*
X217247373Y-103503963D01*
X217077534Y-103452443D01*
X216921009Y-103368778D01*
X216885271Y-103339448D01*
X216783814Y-103256186D01*
X216700552Y-103154729D01*
X216671222Y-103118991D01*
X216587557Y-102962466D01*
X216536037Y-102792627D01*
X216518641Y-102616000D01*
X216536037Y-102439373D01*
X216587557Y-102269534D01*
X216671222Y-102113009D01*
X216700552Y-102077271D01*
X216783814Y-101975814D01*
X216885271Y-101892552D01*
X216921009Y-101863222D01*
X217077534Y-101779557D01*
X217247373Y-101728037D01*
X217313558Y-101721518D01*
X217379740Y-101715000D01*
X217468260Y-101715000D01*
X217534443Y-101721519D01*
X217534443Y-101721519D01*
G37*
G36*
X217534442Y-99181518D02*
G01*
X217600627Y-99188037D01*
X217770466Y-99239557D01*
X217926991Y-99323222D01*
X217962729Y-99352552D01*
X218064186Y-99435814D01*
X218147448Y-99537271D01*
X218176778Y-99573009D01*
X218260443Y-99729534D01*
X218311963Y-99899373D01*
X218329359Y-100076000D01*
X218311963Y-100252627D01*
X218260443Y-100422466D01*
X218176778Y-100578991D01*
X218147448Y-100614729D01*
X218064186Y-100716186D01*
X217962729Y-100799448D01*
X217926991Y-100828778D01*
X217770466Y-100912443D01*
X217600627Y-100963963D01*
X217534442Y-100970482D01*
X217468260Y-100977000D01*
X217379740Y-100977000D01*
X217313558Y-100970482D01*
X217247373Y-100963963D01*
X217077534Y-100912443D01*
X216921009Y-100828778D01*
X216885271Y-100799448D01*
X216783814Y-100716186D01*
X216700552Y-100614729D01*
X216671222Y-100578991D01*
X216587557Y-100422466D01*
X216536037Y-100252627D01*
X216518641Y-100076000D01*
X216536037Y-99899373D01*
X216587557Y-99729534D01*
X216671222Y-99573009D01*
X216700552Y-99537271D01*
X216783814Y-99435814D01*
X216885271Y-99352552D01*
X216921009Y-99323222D01*
X217077534Y-99239557D01*
X217247373Y-99188037D01*
X217313558Y-99181518D01*
X217379740Y-99175000D01*
X217468260Y-99175000D01*
X217534442Y-99181518D01*
X217534442Y-99181518D01*
G37*
G36*
X217534442Y-96641518D02*
G01*
X217600627Y-96648037D01*
X217770466Y-96699557D01*
X217926991Y-96783222D01*
X217944262Y-96797396D01*
X218064186Y-96895814D01*
X218125450Y-96970466D01*
X218176778Y-97033009D01*
X218260443Y-97189534D01*
X218311963Y-97359373D01*
X218329359Y-97536000D01*
X218311963Y-97712627D01*
X218260443Y-97882466D01*
X218176778Y-98038991D01*
X218147448Y-98074729D01*
X218064186Y-98176186D01*
X217962729Y-98259448D01*
X217926991Y-98288778D01*
X217770466Y-98372443D01*
X217600627Y-98423963D01*
X217534443Y-98430481D01*
X217468260Y-98437000D01*
X217379740Y-98437000D01*
X217313558Y-98430482D01*
X217247373Y-98423963D01*
X217077534Y-98372443D01*
X216921009Y-98288778D01*
X216885271Y-98259448D01*
X216783814Y-98176186D01*
X216700552Y-98074729D01*
X216671222Y-98038991D01*
X216587557Y-97882466D01*
X216536037Y-97712627D01*
X216518641Y-97536000D01*
X216536037Y-97359373D01*
X216587557Y-97189534D01*
X216671222Y-97033009D01*
X216722550Y-96970466D01*
X216783814Y-96895814D01*
X216903738Y-96797396D01*
X216921009Y-96783222D01*
X217077534Y-96699557D01*
X217247373Y-96648037D01*
X217313557Y-96641519D01*
X217379740Y-96635000D01*
X217468260Y-96635000D01*
X217534442Y-96641518D01*
X217534442Y-96641518D01*
G37*
G36*
X184593000Y-97471000D02*
G01*
X182691000Y-97471000D01*
X182691000Y-95569000D01*
X184593000Y-95569000D01*
X184593000Y-97471000D01*
X184593000Y-97471000D01*
G37*
G36*
X186459395Y-95605546D02*
G01*
X186632466Y-95677234D01*
X186632467Y-95677235D01*
X186788227Y-95781310D01*
X186920690Y-95913773D01*
X186920691Y-95913775D01*
X187024766Y-96069534D01*
X187096454Y-96242605D01*
X187133000Y-96426333D01*
X187133000Y-96613667D01*
X187096454Y-96797395D01*
X187024766Y-96970466D01*
X187024765Y-96970467D01*
X186920690Y-97126227D01*
X186788227Y-97258690D01*
X186709818Y-97311081D01*
X186632466Y-97362766D01*
X186459395Y-97434454D01*
X186275667Y-97471000D01*
X186088333Y-97471000D01*
X185904605Y-97434454D01*
X185731534Y-97362766D01*
X185654182Y-97311081D01*
X185575773Y-97258690D01*
X185443310Y-97126227D01*
X185339235Y-96970467D01*
X185339234Y-96970466D01*
X185267546Y-96797395D01*
X185231000Y-96613667D01*
X185231000Y-96426333D01*
X185267546Y-96242605D01*
X185339234Y-96069534D01*
X185443309Y-95913775D01*
X185443310Y-95913773D01*
X185575773Y-95781310D01*
X185731533Y-95677235D01*
X185731534Y-95677234D01*
X185904605Y-95605546D01*
X186088333Y-95569000D01*
X186275667Y-95569000D01*
X186459395Y-95605546D01*
X186459395Y-95605546D01*
G37*
G36*
X217534442Y-94101518D02*
G01*
X217600627Y-94108037D01*
X217770466Y-94159557D01*
X217926991Y-94243222D01*
X217962729Y-94272552D01*
X218064186Y-94355814D01*
X218147448Y-94457271D01*
X218176778Y-94493009D01*
X218260443Y-94649534D01*
X218311963Y-94819373D01*
X218329359Y-94996000D01*
X218311963Y-95172627D01*
X218260443Y-95342466D01*
X218176778Y-95498991D01*
X218147448Y-95534729D01*
X218064186Y-95636186D01*
X217962729Y-95719448D01*
X217926991Y-95748778D01*
X217770466Y-95832443D01*
X217600627Y-95883963D01*
X217534442Y-95890482D01*
X217468260Y-95897000D01*
X217379740Y-95897000D01*
X217313557Y-95890481D01*
X217247373Y-95883963D01*
X217077534Y-95832443D01*
X216921009Y-95748778D01*
X216885271Y-95719448D01*
X216783814Y-95636186D01*
X216700552Y-95534729D01*
X216671222Y-95498991D01*
X216587557Y-95342466D01*
X216536037Y-95172627D01*
X216518641Y-94996000D01*
X216536037Y-94819373D01*
X216587557Y-94649534D01*
X216671222Y-94493009D01*
X216700552Y-94457271D01*
X216783814Y-94355814D01*
X216885271Y-94272552D01*
X216921009Y-94243222D01*
X217077534Y-94159557D01*
X217247373Y-94108037D01*
X217313558Y-94101518D01*
X217379740Y-94095000D01*
X217468260Y-94095000D01*
X217534442Y-94101518D01*
X217534442Y-94101518D01*
G37*
G36*
X195828228Y-92399703D02*
G01*
X195983100Y-92463853D01*
X196122481Y-92556985D01*
X196241015Y-92675519D01*
X196334147Y-92814900D01*
X196398297Y-92969772D01*
X196431000Y-93134184D01*
X196431000Y-93301816D01*
X196398297Y-93466228D01*
X196334147Y-93621100D01*
X196241015Y-93760481D01*
X196122481Y-93879015D01*
X195983100Y-93972147D01*
X195828228Y-94036297D01*
X195663816Y-94069000D01*
X195496184Y-94069000D01*
X195331772Y-94036297D01*
X195176900Y-93972147D01*
X195037519Y-93879015D01*
X194918985Y-93760481D01*
X194825853Y-93621100D01*
X194761703Y-93466228D01*
X194729000Y-93301816D01*
X194729000Y-93134184D01*
X194761703Y-92969772D01*
X194825853Y-92814900D01*
X194918985Y-92675519D01*
X195037519Y-92556985D01*
X195176900Y-92463853D01*
X195331772Y-92399703D01*
X195496184Y-92367000D01*
X195663816Y-92367000D01*
X195828228Y-92399703D01*
X195828228Y-92399703D01*
G37*
G36*
X203366823Y-92379313D02*
G01*
X203527242Y-92427976D01*
X203594361Y-92463852D01*
X203675078Y-92506996D01*
X203804659Y-92613341D01*
X203911004Y-92742922D01*
X203911005Y-92742924D01*
X203990024Y-92890758D01*
X204038687Y-93051177D01*
X204055117Y-93218000D01*
X204038687Y-93384823D01*
X203990024Y-93545242D01*
X203928049Y-93661189D01*
X203911004Y-93693078D01*
X203804659Y-93822659D01*
X203675078Y-93929004D01*
X203675076Y-93929005D01*
X203527242Y-94008024D01*
X203366823Y-94056687D01*
X203241804Y-94069000D01*
X203158196Y-94069000D01*
X203033177Y-94056687D01*
X202872758Y-94008024D01*
X202724924Y-93929005D01*
X202724922Y-93929004D01*
X202595341Y-93822659D01*
X202488996Y-93693078D01*
X202471951Y-93661189D01*
X202409976Y-93545242D01*
X202361313Y-93384823D01*
X202344883Y-93218000D01*
X202361313Y-93051177D01*
X202409976Y-92890758D01*
X202488995Y-92742924D01*
X202488996Y-92742922D01*
X202595341Y-92613341D01*
X202724922Y-92506996D01*
X202805639Y-92463852D01*
X202872758Y-92427976D01*
X203033177Y-92379313D01*
X203158196Y-92367000D01*
X203241804Y-92367000D01*
X203366823Y-92379313D01*
X203366823Y-92379313D01*
G37*
G36*
X92929059Y-92241860D02*
G01*
X92989294Y-92266810D01*
X93065732Y-92298472D01*
X93188735Y-92380660D01*
X93293340Y-92485265D01*
X93375528Y-92608268D01*
X93375529Y-92608270D01*
X93432140Y-92744941D01*
X93461000Y-92890032D01*
X93461000Y-93037968D01*
X93432140Y-93183059D01*
X93382950Y-93301815D01*
X93375528Y-93319732D01*
X93293340Y-93442735D01*
X93188735Y-93547340D01*
X93065732Y-93629528D01*
X93065731Y-93629529D01*
X93065730Y-93629529D01*
X92929059Y-93686140D01*
X92783968Y-93715000D01*
X92636032Y-93715000D01*
X92490941Y-93686140D01*
X92354270Y-93629529D01*
X92354269Y-93629529D01*
X92354268Y-93629528D01*
X92231265Y-93547340D01*
X92126660Y-93442735D01*
X92044472Y-93319732D01*
X92037051Y-93301815D01*
X91987860Y-93183059D01*
X91959000Y-93037968D01*
X91959000Y-92890032D01*
X91987860Y-92744941D01*
X92044471Y-92608270D01*
X92044472Y-92608268D01*
X92126660Y-92485265D01*
X92231265Y-92380660D01*
X92354268Y-92298472D01*
X92430707Y-92266810D01*
X92490941Y-92241860D01*
X92636032Y-92213000D01*
X92783968Y-92213000D01*
X92929059Y-92241860D01*
X92929059Y-92241860D01*
G37*
G36*
X85163665Y-92216622D02*
G01*
X85237222Y-92223867D01*
X85378786Y-92266810D01*
X85509252Y-92336546D01*
X85539040Y-92360992D01*
X85623607Y-92430393D01*
X85686471Y-92506995D01*
X85717454Y-92544748D01*
X85787190Y-92675214D01*
X85830133Y-92816778D01*
X85844633Y-92964000D01*
X85830133Y-93111222D01*
X85787190Y-93252786D01*
X85717454Y-93383252D01*
X85693008Y-93413040D01*
X85623607Y-93497607D01*
X85563004Y-93547341D01*
X85509252Y-93591454D01*
X85378786Y-93661190D01*
X85237222Y-93704133D01*
X85163665Y-93711378D01*
X85126888Y-93715000D01*
X85053112Y-93715000D01*
X85016335Y-93711378D01*
X84942778Y-93704133D01*
X84801214Y-93661190D01*
X84670748Y-93591454D01*
X84616996Y-93547341D01*
X84556393Y-93497607D01*
X84486992Y-93413040D01*
X84462546Y-93383252D01*
X84392810Y-93252786D01*
X84349867Y-93111222D01*
X84335367Y-92964000D01*
X84349867Y-92816778D01*
X84392810Y-92675214D01*
X84462546Y-92544748D01*
X84493529Y-92506995D01*
X84556393Y-92430393D01*
X84640960Y-92360992D01*
X84670748Y-92336546D01*
X84801214Y-92266810D01*
X84942778Y-92223867D01*
X85016335Y-92216622D01*
X85053112Y-92213000D01*
X85126888Y-92213000D01*
X85163665Y-92216622D01*
X85163665Y-92216622D01*
G37*
G36*
X217534443Y-91561519D02*
G01*
X217600627Y-91568037D01*
X217770466Y-91619557D01*
X217926991Y-91703222D01*
X217962729Y-91732552D01*
X218064186Y-91815814D01*
X218147448Y-91917271D01*
X218176778Y-91953009D01*
X218260443Y-92109534D01*
X218311963Y-92279373D01*
X218329359Y-92456000D01*
X218311963Y-92632627D01*
X218277893Y-92744941D01*
X218260442Y-92802468D01*
X218218611Y-92880728D01*
X218176778Y-92958991D01*
X218172667Y-92964000D01*
X218064186Y-93096186D01*
X217962729Y-93179448D01*
X217926991Y-93208778D01*
X217770466Y-93292443D01*
X217600627Y-93343963D01*
X217534442Y-93350482D01*
X217468260Y-93357000D01*
X217379740Y-93357000D01*
X217313558Y-93350482D01*
X217247373Y-93343963D01*
X217077534Y-93292443D01*
X216921009Y-93208778D01*
X216885271Y-93179448D01*
X216783814Y-93096186D01*
X216675333Y-92964000D01*
X216671222Y-92958991D01*
X216629389Y-92880728D01*
X216587558Y-92802468D01*
X216570107Y-92744941D01*
X216536037Y-92632627D01*
X216518641Y-92456000D01*
X216536037Y-92279373D01*
X216587557Y-92109534D01*
X216671222Y-91953009D01*
X216700552Y-91917271D01*
X216783814Y-91815814D01*
X216885271Y-91732552D01*
X216921009Y-91703222D01*
X217077534Y-91619557D01*
X217247373Y-91568037D01*
X217313557Y-91561519D01*
X217379740Y-91555000D01*
X217468260Y-91555000D01*
X217534443Y-91561519D01*
X217534443Y-91561519D01*
G37*
G36*
X184593000Y-92899000D02*
G01*
X182691000Y-92899000D01*
X182691000Y-90997000D01*
X184593000Y-90997000D01*
X184593000Y-92899000D01*
X184593000Y-92899000D01*
G37*
G36*
X186459395Y-91033546D02*
G01*
X186632466Y-91105234D01*
X186632467Y-91105235D01*
X186788227Y-91209310D01*
X186920690Y-91341773D01*
X186920691Y-91341775D01*
X187024766Y-91497534D01*
X187096454Y-91670605D01*
X187133000Y-91854333D01*
X187133000Y-92041667D01*
X187096454Y-92225395D01*
X187024766Y-92398466D01*
X187005048Y-92427976D01*
X186920690Y-92554227D01*
X186788227Y-92686690D01*
X186709818Y-92739081D01*
X186632466Y-92790766D01*
X186459395Y-92862454D01*
X186275667Y-92899000D01*
X186088333Y-92899000D01*
X185904605Y-92862454D01*
X185731534Y-92790766D01*
X185654182Y-92739081D01*
X185575773Y-92686690D01*
X185443310Y-92554227D01*
X185358952Y-92427976D01*
X185339234Y-92398466D01*
X185267546Y-92225395D01*
X185231000Y-92041667D01*
X185231000Y-91854333D01*
X185267546Y-91670605D01*
X185339234Y-91497534D01*
X185443309Y-91341775D01*
X185443310Y-91341773D01*
X185575773Y-91209310D01*
X185731533Y-91105235D01*
X185731534Y-91105234D01*
X185904605Y-91033546D01*
X186088333Y-90997000D01*
X186275667Y-90997000D01*
X186459395Y-91033546D01*
X186459395Y-91033546D01*
G37*
G36*
X217534442Y-89021518D02*
G01*
X217600627Y-89028037D01*
X217770466Y-89079557D01*
X217926991Y-89163222D01*
X217962729Y-89192552D01*
X218064186Y-89275814D01*
X218103882Y-89324185D01*
X218176778Y-89413009D01*
X218260443Y-89569534D01*
X218311963Y-89739373D01*
X218329359Y-89916000D01*
X218311963Y-90092627D01*
X218260443Y-90262466D01*
X218176778Y-90418991D01*
X218147448Y-90454729D01*
X218064186Y-90556186D01*
X217962729Y-90639448D01*
X217926991Y-90668778D01*
X217770466Y-90752443D01*
X217600627Y-90803963D01*
X217534443Y-90810481D01*
X217468260Y-90817000D01*
X217379740Y-90817000D01*
X217313557Y-90810481D01*
X217247373Y-90803963D01*
X217077534Y-90752443D01*
X216921009Y-90668778D01*
X216885271Y-90639448D01*
X216783814Y-90556186D01*
X216700552Y-90454729D01*
X216671222Y-90418991D01*
X216587557Y-90262466D01*
X216536037Y-90092627D01*
X216518641Y-89916000D01*
X216536037Y-89739373D01*
X216587557Y-89569534D01*
X216671222Y-89413009D01*
X216744118Y-89324185D01*
X216783814Y-89275814D01*
X216885271Y-89192552D01*
X216921009Y-89163222D01*
X217077534Y-89079557D01*
X217247373Y-89028037D01*
X217313558Y-89021518D01*
X217379740Y-89015000D01*
X217468260Y-89015000D01*
X217534442Y-89021518D01*
X217534442Y-89021518D01*
G37*
G36*
X125057000Y-90767000D02*
G01*
X123355000Y-90767000D01*
X123355000Y-89065000D01*
X125057000Y-89065000D01*
X125057000Y-90767000D01*
X125057000Y-90767000D01*
G37*
G36*
X126912823Y-89077313D02*
G01*
X127073242Y-89125976D01*
X127142922Y-89163221D01*
X127221078Y-89204996D01*
X127350659Y-89311341D01*
X127457004Y-89440922D01*
X127457005Y-89440924D01*
X127536024Y-89588758D01*
X127584687Y-89749177D01*
X127601117Y-89916000D01*
X127584687Y-90082823D01*
X127536024Y-90243242D01*
X127525747Y-90262468D01*
X127457004Y-90391078D01*
X127350659Y-90520659D01*
X127221078Y-90627004D01*
X127221076Y-90627005D01*
X127073242Y-90706024D01*
X126912823Y-90754687D01*
X126787804Y-90767000D01*
X126704196Y-90767000D01*
X126579177Y-90754687D01*
X126418758Y-90706024D01*
X126270924Y-90627005D01*
X126270922Y-90627004D01*
X126141341Y-90520659D01*
X126034996Y-90391078D01*
X125966253Y-90262468D01*
X125955976Y-90243242D01*
X125907313Y-90082823D01*
X125890883Y-89916000D01*
X125907313Y-89749177D01*
X125955976Y-89588758D01*
X126034995Y-89440924D01*
X126034996Y-89440922D01*
X126141341Y-89311341D01*
X126270922Y-89204996D01*
X126349078Y-89163221D01*
X126418758Y-89125976D01*
X126579177Y-89077313D01*
X126704196Y-89065000D01*
X126787804Y-89065000D01*
X126912823Y-89077313D01*
X126912823Y-89077313D01*
G37*
G36*
X142152823Y-89077313D02*
G01*
X142313242Y-89125976D01*
X142382922Y-89163221D01*
X142461078Y-89204996D01*
X142590659Y-89311341D01*
X142697004Y-89440922D01*
X142697005Y-89440924D01*
X142776024Y-89588758D01*
X142824687Y-89749177D01*
X142841117Y-89916000D01*
X142824687Y-90082823D01*
X142776024Y-90243242D01*
X142765747Y-90262468D01*
X142697004Y-90391078D01*
X142590659Y-90520659D01*
X142461078Y-90627004D01*
X142461076Y-90627005D01*
X142313242Y-90706024D01*
X142152823Y-90754687D01*
X142027804Y-90767000D01*
X141944196Y-90767000D01*
X141819177Y-90754687D01*
X141658758Y-90706024D01*
X141510924Y-90627005D01*
X141510922Y-90627004D01*
X141381341Y-90520659D01*
X141274996Y-90391078D01*
X141206253Y-90262468D01*
X141195976Y-90243242D01*
X141147313Y-90082823D01*
X141130883Y-89916000D01*
X141147313Y-89749177D01*
X141195976Y-89588758D01*
X141274995Y-89440924D01*
X141274996Y-89440922D01*
X141381341Y-89311341D01*
X141510922Y-89204996D01*
X141589078Y-89163221D01*
X141658758Y-89125976D01*
X141819177Y-89077313D01*
X141944196Y-89065000D01*
X142027804Y-89065000D01*
X142152823Y-89077313D01*
X142152823Y-89077313D01*
G37*
G36*
X139612823Y-89077313D02*
G01*
X139773242Y-89125976D01*
X139842922Y-89163221D01*
X139921078Y-89204996D01*
X140050659Y-89311341D01*
X140157004Y-89440922D01*
X140157005Y-89440924D01*
X140236024Y-89588758D01*
X140284687Y-89749177D01*
X140301117Y-89916000D01*
X140284687Y-90082823D01*
X140236024Y-90243242D01*
X140225747Y-90262468D01*
X140157004Y-90391078D01*
X140050659Y-90520659D01*
X139921078Y-90627004D01*
X139921076Y-90627005D01*
X139773242Y-90706024D01*
X139612823Y-90754687D01*
X139487804Y-90767000D01*
X139404196Y-90767000D01*
X139279177Y-90754687D01*
X139118758Y-90706024D01*
X138970924Y-90627005D01*
X138970922Y-90627004D01*
X138841341Y-90520659D01*
X138734996Y-90391078D01*
X138666253Y-90262468D01*
X138655976Y-90243242D01*
X138607313Y-90082823D01*
X138590883Y-89916000D01*
X138607313Y-89749177D01*
X138655976Y-89588758D01*
X138734995Y-89440924D01*
X138734996Y-89440922D01*
X138841341Y-89311341D01*
X138970922Y-89204996D01*
X139049078Y-89163221D01*
X139118758Y-89125976D01*
X139279177Y-89077313D01*
X139404196Y-89065000D01*
X139487804Y-89065000D01*
X139612823Y-89077313D01*
X139612823Y-89077313D01*
G37*
G36*
X147232823Y-89077313D02*
G01*
X147393242Y-89125976D01*
X147462922Y-89163221D01*
X147541078Y-89204996D01*
X147670659Y-89311341D01*
X147777004Y-89440922D01*
X147777005Y-89440924D01*
X147856024Y-89588758D01*
X147904687Y-89749177D01*
X147921117Y-89916000D01*
X147904687Y-90082823D01*
X147856024Y-90243242D01*
X147845747Y-90262468D01*
X147777004Y-90391078D01*
X147670659Y-90520659D01*
X147541078Y-90627004D01*
X147541076Y-90627005D01*
X147393242Y-90706024D01*
X147232823Y-90754687D01*
X147107804Y-90767000D01*
X147024196Y-90767000D01*
X146899177Y-90754687D01*
X146738758Y-90706024D01*
X146590924Y-90627005D01*
X146590922Y-90627004D01*
X146461341Y-90520659D01*
X146354996Y-90391078D01*
X146286253Y-90262468D01*
X146275976Y-90243242D01*
X146227313Y-90082823D01*
X146210883Y-89916000D01*
X146227313Y-89749177D01*
X146275976Y-89588758D01*
X146354995Y-89440924D01*
X146354996Y-89440922D01*
X146461341Y-89311341D01*
X146590922Y-89204996D01*
X146669078Y-89163221D01*
X146738758Y-89125976D01*
X146899177Y-89077313D01*
X147024196Y-89065000D01*
X147107804Y-89065000D01*
X147232823Y-89077313D01*
X147232823Y-89077313D01*
G37*
G36*
X172632823Y-89077313D02*
G01*
X172793242Y-89125976D01*
X172862922Y-89163221D01*
X172941078Y-89204996D01*
X173070659Y-89311341D01*
X173177004Y-89440922D01*
X173177005Y-89440924D01*
X173256024Y-89588758D01*
X173304687Y-89749177D01*
X173321117Y-89916000D01*
X173304687Y-90082823D01*
X173256024Y-90243242D01*
X173245747Y-90262468D01*
X173177004Y-90391078D01*
X173070659Y-90520659D01*
X172941078Y-90627004D01*
X172941076Y-90627005D01*
X172793242Y-90706024D01*
X172632823Y-90754687D01*
X172507804Y-90767000D01*
X172424196Y-90767000D01*
X172299177Y-90754687D01*
X172138758Y-90706024D01*
X171990924Y-90627005D01*
X171990922Y-90627004D01*
X171861341Y-90520659D01*
X171754996Y-90391078D01*
X171686253Y-90262468D01*
X171675976Y-90243242D01*
X171627313Y-90082823D01*
X171610883Y-89916000D01*
X171627313Y-89749177D01*
X171675976Y-89588758D01*
X171754995Y-89440924D01*
X171754996Y-89440922D01*
X171861341Y-89311341D01*
X171990922Y-89204996D01*
X172069078Y-89163221D01*
X172138758Y-89125976D01*
X172299177Y-89077313D01*
X172424196Y-89065000D01*
X172507804Y-89065000D01*
X172632823Y-89077313D01*
X172632823Y-89077313D01*
G37*
G36*
X159932823Y-89077313D02*
G01*
X160093242Y-89125976D01*
X160162922Y-89163221D01*
X160241078Y-89204996D01*
X160370659Y-89311341D01*
X160477004Y-89440922D01*
X160477005Y-89440924D01*
X160556024Y-89588758D01*
X160604687Y-89749177D01*
X160621117Y-89916000D01*
X160604687Y-90082823D01*
X160556024Y-90243242D01*
X160545747Y-90262468D01*
X160477004Y-90391078D01*
X160370659Y-90520659D01*
X160241078Y-90627004D01*
X160241076Y-90627005D01*
X160093242Y-90706024D01*
X159932823Y-90754687D01*
X159807804Y-90767000D01*
X159724196Y-90767000D01*
X159599177Y-90754687D01*
X159438758Y-90706024D01*
X159290924Y-90627005D01*
X159290922Y-90627004D01*
X159161341Y-90520659D01*
X159054996Y-90391078D01*
X158986253Y-90262468D01*
X158975976Y-90243242D01*
X158927313Y-90082823D01*
X158910883Y-89916000D01*
X158927313Y-89749177D01*
X158975976Y-89588758D01*
X159054995Y-89440924D01*
X159054996Y-89440922D01*
X159161341Y-89311341D01*
X159290922Y-89204996D01*
X159369078Y-89163221D01*
X159438758Y-89125976D01*
X159599177Y-89077313D01*
X159724196Y-89065000D01*
X159807804Y-89065000D01*
X159932823Y-89077313D01*
X159932823Y-89077313D01*
G37*
G36*
X137072823Y-89077313D02*
G01*
X137233242Y-89125976D01*
X137302922Y-89163221D01*
X137381078Y-89204996D01*
X137510659Y-89311341D01*
X137617004Y-89440922D01*
X137617005Y-89440924D01*
X137696024Y-89588758D01*
X137744687Y-89749177D01*
X137761117Y-89916000D01*
X137744687Y-90082823D01*
X137696024Y-90243242D01*
X137685747Y-90262468D01*
X137617004Y-90391078D01*
X137510659Y-90520659D01*
X137381078Y-90627004D01*
X137381076Y-90627005D01*
X137233242Y-90706024D01*
X137072823Y-90754687D01*
X136947804Y-90767000D01*
X136864196Y-90767000D01*
X136739177Y-90754687D01*
X136578758Y-90706024D01*
X136430924Y-90627005D01*
X136430922Y-90627004D01*
X136301341Y-90520659D01*
X136194996Y-90391078D01*
X136126253Y-90262468D01*
X136115976Y-90243242D01*
X136067313Y-90082823D01*
X136050883Y-89916000D01*
X136067313Y-89749177D01*
X136115976Y-89588758D01*
X136194995Y-89440924D01*
X136194996Y-89440922D01*
X136301341Y-89311341D01*
X136430922Y-89204996D01*
X136509078Y-89163221D01*
X136578758Y-89125976D01*
X136739177Y-89077313D01*
X136864196Y-89065000D01*
X136947804Y-89065000D01*
X137072823Y-89077313D01*
X137072823Y-89077313D01*
G37*
G36*
X144692823Y-89077313D02*
G01*
X144853242Y-89125976D01*
X144922922Y-89163221D01*
X145001078Y-89204996D01*
X145130659Y-89311341D01*
X145237004Y-89440922D01*
X145237005Y-89440924D01*
X145316024Y-89588758D01*
X145364687Y-89749177D01*
X145381117Y-89916000D01*
X145364687Y-90082823D01*
X145316024Y-90243242D01*
X145305747Y-90262468D01*
X145237004Y-90391078D01*
X145130659Y-90520659D01*
X145001078Y-90627004D01*
X145001076Y-90627005D01*
X144853242Y-90706024D01*
X144692823Y-90754687D01*
X144567804Y-90767000D01*
X144484196Y-90767000D01*
X144359177Y-90754687D01*
X144198758Y-90706024D01*
X144050924Y-90627005D01*
X144050922Y-90627004D01*
X143921341Y-90520659D01*
X143814996Y-90391078D01*
X143746253Y-90262468D01*
X143735976Y-90243242D01*
X143687313Y-90082823D01*
X143670883Y-89916000D01*
X143687313Y-89749177D01*
X143735976Y-89588758D01*
X143814995Y-89440924D01*
X143814996Y-89440922D01*
X143921341Y-89311341D01*
X144050922Y-89204996D01*
X144129078Y-89163221D01*
X144198758Y-89125976D01*
X144359177Y-89077313D01*
X144484196Y-89065000D01*
X144567804Y-89065000D01*
X144692823Y-89077313D01*
X144692823Y-89077313D01*
G37*
G36*
X165012823Y-89077313D02*
G01*
X165173242Y-89125976D01*
X165242922Y-89163221D01*
X165321078Y-89204996D01*
X165450659Y-89311341D01*
X165557004Y-89440922D01*
X165557005Y-89440924D01*
X165636024Y-89588758D01*
X165684687Y-89749177D01*
X165701117Y-89916000D01*
X165684687Y-90082823D01*
X165636024Y-90243242D01*
X165625747Y-90262468D01*
X165557004Y-90391078D01*
X165450659Y-90520659D01*
X165321078Y-90627004D01*
X165321076Y-90627005D01*
X165173242Y-90706024D01*
X165012823Y-90754687D01*
X164887804Y-90767000D01*
X164804196Y-90767000D01*
X164679177Y-90754687D01*
X164518758Y-90706024D01*
X164370924Y-90627005D01*
X164370922Y-90627004D01*
X164241341Y-90520659D01*
X164134996Y-90391078D01*
X164066253Y-90262468D01*
X164055976Y-90243242D01*
X164007313Y-90082823D01*
X163990883Y-89916000D01*
X164007313Y-89749177D01*
X164055976Y-89588758D01*
X164134995Y-89440924D01*
X164134996Y-89440922D01*
X164241341Y-89311341D01*
X164370922Y-89204996D01*
X164449078Y-89163221D01*
X164518758Y-89125976D01*
X164679177Y-89077313D01*
X164804196Y-89065000D01*
X164887804Y-89065000D01*
X165012823Y-89077313D01*
X165012823Y-89077313D01*
G37*
G36*
X170092823Y-89077313D02*
G01*
X170253242Y-89125976D01*
X170322922Y-89163221D01*
X170401078Y-89204996D01*
X170530659Y-89311341D01*
X170637004Y-89440922D01*
X170637005Y-89440924D01*
X170716024Y-89588758D01*
X170764687Y-89749177D01*
X170781117Y-89916000D01*
X170764687Y-90082823D01*
X170716024Y-90243242D01*
X170705747Y-90262468D01*
X170637004Y-90391078D01*
X170530659Y-90520659D01*
X170401078Y-90627004D01*
X170401076Y-90627005D01*
X170253242Y-90706024D01*
X170092823Y-90754687D01*
X169967804Y-90767000D01*
X169884196Y-90767000D01*
X169759177Y-90754687D01*
X169598758Y-90706024D01*
X169450924Y-90627005D01*
X169450922Y-90627004D01*
X169321341Y-90520659D01*
X169214996Y-90391078D01*
X169146253Y-90262468D01*
X169135976Y-90243242D01*
X169087313Y-90082823D01*
X169070883Y-89916000D01*
X169087313Y-89749177D01*
X169135976Y-89588758D01*
X169214995Y-89440924D01*
X169214996Y-89440922D01*
X169321341Y-89311341D01*
X169450922Y-89204996D01*
X169529078Y-89163221D01*
X169598758Y-89125976D01*
X169759177Y-89077313D01*
X169884196Y-89065000D01*
X169967804Y-89065000D01*
X170092823Y-89077313D01*
X170092823Y-89077313D01*
G37*
G36*
X167552823Y-89077313D02*
G01*
X167713242Y-89125976D01*
X167782922Y-89163221D01*
X167861078Y-89204996D01*
X167990659Y-89311341D01*
X168097004Y-89440922D01*
X168097005Y-89440924D01*
X168176024Y-89588758D01*
X168224687Y-89749177D01*
X168241117Y-89916000D01*
X168224687Y-90082823D01*
X168176024Y-90243242D01*
X168165747Y-90262468D01*
X168097004Y-90391078D01*
X167990659Y-90520659D01*
X167861078Y-90627004D01*
X167861076Y-90627005D01*
X167713242Y-90706024D01*
X167552823Y-90754687D01*
X167427804Y-90767000D01*
X167344196Y-90767000D01*
X167219177Y-90754687D01*
X167058758Y-90706024D01*
X166910924Y-90627005D01*
X166910922Y-90627004D01*
X166781341Y-90520659D01*
X166674996Y-90391078D01*
X166606253Y-90262468D01*
X166595976Y-90243242D01*
X166547313Y-90082823D01*
X166530883Y-89916000D01*
X166547313Y-89749177D01*
X166595976Y-89588758D01*
X166674995Y-89440924D01*
X166674996Y-89440922D01*
X166781341Y-89311341D01*
X166910922Y-89204996D01*
X166989078Y-89163221D01*
X167058758Y-89125976D01*
X167219177Y-89077313D01*
X167344196Y-89065000D01*
X167427804Y-89065000D01*
X167552823Y-89077313D01*
X167552823Y-89077313D01*
G37*
G36*
X134532823Y-89077313D02*
G01*
X134693242Y-89125976D01*
X134762922Y-89163221D01*
X134841078Y-89204996D01*
X134970659Y-89311341D01*
X135077004Y-89440922D01*
X135077005Y-89440924D01*
X135156024Y-89588758D01*
X135204687Y-89749177D01*
X135221117Y-89916000D01*
X135204687Y-90082823D01*
X135156024Y-90243242D01*
X135145747Y-90262468D01*
X135077004Y-90391078D01*
X134970659Y-90520659D01*
X134841078Y-90627004D01*
X134841076Y-90627005D01*
X134693242Y-90706024D01*
X134532823Y-90754687D01*
X134407804Y-90767000D01*
X134324196Y-90767000D01*
X134199177Y-90754687D01*
X134038758Y-90706024D01*
X133890924Y-90627005D01*
X133890922Y-90627004D01*
X133761341Y-90520659D01*
X133654996Y-90391078D01*
X133586253Y-90262468D01*
X133575976Y-90243242D01*
X133527313Y-90082823D01*
X133510883Y-89916000D01*
X133527313Y-89749177D01*
X133575976Y-89588758D01*
X133654995Y-89440924D01*
X133654996Y-89440922D01*
X133761341Y-89311341D01*
X133890922Y-89204996D01*
X133969078Y-89163221D01*
X134038758Y-89125976D01*
X134199177Y-89077313D01*
X134324196Y-89065000D01*
X134407804Y-89065000D01*
X134532823Y-89077313D01*
X134532823Y-89077313D01*
G37*
G36*
X157392823Y-89077313D02*
G01*
X157553242Y-89125976D01*
X157622922Y-89163221D01*
X157701078Y-89204996D01*
X157830659Y-89311341D01*
X157937004Y-89440922D01*
X157937005Y-89440924D01*
X158016024Y-89588758D01*
X158064687Y-89749177D01*
X158081117Y-89916000D01*
X158064687Y-90082823D01*
X158016024Y-90243242D01*
X158005747Y-90262468D01*
X157937004Y-90391078D01*
X157830659Y-90520659D01*
X157701078Y-90627004D01*
X157701076Y-90627005D01*
X157553242Y-90706024D01*
X157392823Y-90754687D01*
X157267804Y-90767000D01*
X157184196Y-90767000D01*
X157059177Y-90754687D01*
X156898758Y-90706024D01*
X156750924Y-90627005D01*
X156750922Y-90627004D01*
X156621341Y-90520659D01*
X156514996Y-90391078D01*
X156446253Y-90262468D01*
X156435976Y-90243242D01*
X156387313Y-90082823D01*
X156370883Y-89916000D01*
X156387313Y-89749177D01*
X156435976Y-89588758D01*
X156514995Y-89440924D01*
X156514996Y-89440922D01*
X156621341Y-89311341D01*
X156750922Y-89204996D01*
X156829078Y-89163221D01*
X156898758Y-89125976D01*
X157059177Y-89077313D01*
X157184196Y-89065000D01*
X157267804Y-89065000D01*
X157392823Y-89077313D01*
X157392823Y-89077313D01*
G37*
G36*
X129452823Y-89077313D02*
G01*
X129613242Y-89125976D01*
X129682922Y-89163221D01*
X129761078Y-89204996D01*
X129890659Y-89311341D01*
X129997004Y-89440922D01*
X129997005Y-89440924D01*
X130076024Y-89588758D01*
X130124687Y-89749177D01*
X130141117Y-89916000D01*
X130124687Y-90082823D01*
X130076024Y-90243242D01*
X130065747Y-90262468D01*
X129997004Y-90391078D01*
X129890659Y-90520659D01*
X129761078Y-90627004D01*
X129761076Y-90627005D01*
X129613242Y-90706024D01*
X129452823Y-90754687D01*
X129327804Y-90767000D01*
X129244196Y-90767000D01*
X129119177Y-90754687D01*
X128958758Y-90706024D01*
X128810924Y-90627005D01*
X128810922Y-90627004D01*
X128681341Y-90520659D01*
X128574996Y-90391078D01*
X128506253Y-90262468D01*
X128495976Y-90243242D01*
X128447313Y-90082823D01*
X128430883Y-89916000D01*
X128447313Y-89749177D01*
X128495976Y-89588758D01*
X128574995Y-89440924D01*
X128574996Y-89440922D01*
X128681341Y-89311341D01*
X128810922Y-89204996D01*
X128889078Y-89163221D01*
X128958758Y-89125976D01*
X129119177Y-89077313D01*
X129244196Y-89065000D01*
X129327804Y-89065000D01*
X129452823Y-89077313D01*
X129452823Y-89077313D01*
G37*
G36*
X131992823Y-89077313D02*
G01*
X132153242Y-89125976D01*
X132222922Y-89163221D01*
X132301078Y-89204996D01*
X132430659Y-89311341D01*
X132537004Y-89440922D01*
X132537005Y-89440924D01*
X132616024Y-89588758D01*
X132664687Y-89749177D01*
X132681117Y-89916000D01*
X132664687Y-90082823D01*
X132616024Y-90243242D01*
X132605747Y-90262468D01*
X132537004Y-90391078D01*
X132430659Y-90520659D01*
X132301078Y-90627004D01*
X132301076Y-90627005D01*
X132153242Y-90706024D01*
X131992823Y-90754687D01*
X131867804Y-90767000D01*
X131784196Y-90767000D01*
X131659177Y-90754687D01*
X131498758Y-90706024D01*
X131350924Y-90627005D01*
X131350922Y-90627004D01*
X131221341Y-90520659D01*
X131114996Y-90391078D01*
X131046253Y-90262468D01*
X131035976Y-90243242D01*
X130987313Y-90082823D01*
X130970883Y-89916000D01*
X130987313Y-89749177D01*
X131035976Y-89588758D01*
X131114995Y-89440924D01*
X131114996Y-89440922D01*
X131221341Y-89311341D01*
X131350922Y-89204996D01*
X131429078Y-89163221D01*
X131498758Y-89125976D01*
X131659177Y-89077313D01*
X131784196Y-89065000D01*
X131867804Y-89065000D01*
X131992823Y-89077313D01*
X131992823Y-89077313D01*
G37*
G36*
X162472823Y-89077313D02*
G01*
X162633242Y-89125976D01*
X162702922Y-89163221D01*
X162781078Y-89204996D01*
X162910659Y-89311341D01*
X163017004Y-89440922D01*
X163017005Y-89440924D01*
X163096024Y-89588758D01*
X163144687Y-89749177D01*
X163161117Y-89916000D01*
X163144687Y-90082823D01*
X163096024Y-90243242D01*
X163085747Y-90262468D01*
X163017004Y-90391078D01*
X162910659Y-90520659D01*
X162781078Y-90627004D01*
X162781076Y-90627005D01*
X162633242Y-90706024D01*
X162472823Y-90754687D01*
X162347804Y-90767000D01*
X162264196Y-90767000D01*
X162139177Y-90754687D01*
X161978758Y-90706024D01*
X161830924Y-90627005D01*
X161830922Y-90627004D01*
X161701341Y-90520659D01*
X161594996Y-90391078D01*
X161526253Y-90262468D01*
X161515976Y-90243242D01*
X161467313Y-90082823D01*
X161450883Y-89916000D01*
X161467313Y-89749177D01*
X161515976Y-89588758D01*
X161594995Y-89440924D01*
X161594996Y-89440922D01*
X161701341Y-89311341D01*
X161830922Y-89204996D01*
X161909078Y-89163221D01*
X161978758Y-89125976D01*
X162139177Y-89077313D01*
X162264196Y-89065000D01*
X162347804Y-89065000D01*
X162472823Y-89077313D01*
X162472823Y-89077313D01*
G37*
G36*
X154852823Y-89077313D02*
G01*
X155013242Y-89125976D01*
X155082922Y-89163221D01*
X155161078Y-89204996D01*
X155290659Y-89311341D01*
X155397004Y-89440922D01*
X155397005Y-89440924D01*
X155476024Y-89588758D01*
X155524687Y-89749177D01*
X155541117Y-89916000D01*
X155524687Y-90082823D01*
X155476024Y-90243242D01*
X155465747Y-90262468D01*
X155397004Y-90391078D01*
X155290659Y-90520659D01*
X155161078Y-90627004D01*
X155161076Y-90627005D01*
X155013242Y-90706024D01*
X154852823Y-90754687D01*
X154727804Y-90767000D01*
X154644196Y-90767000D01*
X154519177Y-90754687D01*
X154358758Y-90706024D01*
X154210924Y-90627005D01*
X154210922Y-90627004D01*
X154081341Y-90520659D01*
X153974996Y-90391078D01*
X153906253Y-90262468D01*
X153895976Y-90243242D01*
X153847313Y-90082823D01*
X153830883Y-89916000D01*
X153847313Y-89749177D01*
X153895976Y-89588758D01*
X153974995Y-89440924D01*
X153974996Y-89440922D01*
X154081341Y-89311341D01*
X154210922Y-89204996D01*
X154289078Y-89163221D01*
X154358758Y-89125976D01*
X154519177Y-89077313D01*
X154644196Y-89065000D01*
X154727804Y-89065000D01*
X154852823Y-89077313D01*
X154852823Y-89077313D01*
G37*
G36*
X152312823Y-89077313D02*
G01*
X152473242Y-89125976D01*
X152542922Y-89163221D01*
X152621078Y-89204996D01*
X152750659Y-89311341D01*
X152857004Y-89440922D01*
X152857005Y-89440924D01*
X152936024Y-89588758D01*
X152984687Y-89749177D01*
X153001117Y-89916000D01*
X152984687Y-90082823D01*
X152936024Y-90243242D01*
X152925747Y-90262468D01*
X152857004Y-90391078D01*
X152750659Y-90520659D01*
X152621078Y-90627004D01*
X152621076Y-90627005D01*
X152473242Y-90706024D01*
X152312823Y-90754687D01*
X152187804Y-90767000D01*
X152104196Y-90767000D01*
X151979177Y-90754687D01*
X151818758Y-90706024D01*
X151670924Y-90627005D01*
X151670922Y-90627004D01*
X151541341Y-90520659D01*
X151434996Y-90391078D01*
X151366253Y-90262468D01*
X151355976Y-90243242D01*
X151307313Y-90082823D01*
X151290883Y-89916000D01*
X151307313Y-89749177D01*
X151355976Y-89588758D01*
X151434995Y-89440924D01*
X151434996Y-89440922D01*
X151541341Y-89311341D01*
X151670922Y-89204996D01*
X151749078Y-89163221D01*
X151818758Y-89125976D01*
X151979177Y-89077313D01*
X152104196Y-89065000D01*
X152187804Y-89065000D01*
X152312823Y-89077313D01*
X152312823Y-89077313D01*
G37*
G36*
X149772823Y-89077313D02*
G01*
X149933242Y-89125976D01*
X150002922Y-89163221D01*
X150081078Y-89204996D01*
X150210659Y-89311341D01*
X150317004Y-89440922D01*
X150317005Y-89440924D01*
X150396024Y-89588758D01*
X150444687Y-89749177D01*
X150461117Y-89916000D01*
X150444687Y-90082823D01*
X150396024Y-90243242D01*
X150385747Y-90262468D01*
X150317004Y-90391078D01*
X150210659Y-90520659D01*
X150081078Y-90627004D01*
X150081076Y-90627005D01*
X149933242Y-90706024D01*
X149772823Y-90754687D01*
X149647804Y-90767000D01*
X149564196Y-90767000D01*
X149439177Y-90754687D01*
X149278758Y-90706024D01*
X149130924Y-90627005D01*
X149130922Y-90627004D01*
X149001341Y-90520659D01*
X148894996Y-90391078D01*
X148826253Y-90262468D01*
X148815976Y-90243242D01*
X148767313Y-90082823D01*
X148750883Y-89916000D01*
X148767313Y-89749177D01*
X148815976Y-89588758D01*
X148894995Y-89440924D01*
X148894996Y-89440922D01*
X149001341Y-89311341D01*
X149130922Y-89204996D01*
X149209078Y-89163221D01*
X149278758Y-89125976D01*
X149439177Y-89077313D01*
X149564196Y-89065000D01*
X149647804Y-89065000D01*
X149772823Y-89077313D01*
X149772823Y-89077313D01*
G37*
G36*
X195828228Y-88589703D02*
G01*
X195983100Y-88653853D01*
X196122481Y-88746985D01*
X196241015Y-88865519D01*
X196334147Y-89004900D01*
X196398297Y-89159772D01*
X196431000Y-89324184D01*
X196431000Y-89491816D01*
X196398297Y-89656228D01*
X196334147Y-89811100D01*
X196241015Y-89950481D01*
X196122481Y-90069015D01*
X195983100Y-90162147D01*
X195828228Y-90226297D01*
X195663816Y-90259000D01*
X195496184Y-90259000D01*
X195331772Y-90226297D01*
X195176900Y-90162147D01*
X195037519Y-90069015D01*
X194918985Y-89950481D01*
X194825853Y-89811100D01*
X194761703Y-89656228D01*
X194729000Y-89491816D01*
X194729000Y-89324184D01*
X194761703Y-89159772D01*
X194825853Y-89004900D01*
X194918985Y-88865519D01*
X195037519Y-88746985D01*
X195176900Y-88653853D01*
X195331772Y-88589703D01*
X195496184Y-88557000D01*
X195663816Y-88557000D01*
X195828228Y-88589703D01*
X195828228Y-88589703D01*
G37*
G36*
X203366823Y-88569313D02*
G01*
X203527242Y-88617976D01*
X203594361Y-88653852D01*
X203675078Y-88696996D01*
X203804659Y-88803341D01*
X203911004Y-88932922D01*
X203911005Y-88932924D01*
X203990024Y-89080758D01*
X204038687Y-89241177D01*
X204055117Y-89408000D01*
X204038687Y-89574823D01*
X203990024Y-89735242D01*
X203949477Y-89811100D01*
X203911004Y-89883078D01*
X203804659Y-90012659D01*
X203675078Y-90119004D01*
X203675076Y-90119005D01*
X203527242Y-90198024D01*
X203366823Y-90246687D01*
X203241804Y-90259000D01*
X203158196Y-90259000D01*
X203033177Y-90246687D01*
X202872758Y-90198024D01*
X202724924Y-90119005D01*
X202724922Y-90119004D01*
X202595341Y-90012659D01*
X202488996Y-89883078D01*
X202450523Y-89811100D01*
X202409976Y-89735242D01*
X202361313Y-89574823D01*
X202344883Y-89408000D01*
X202361313Y-89241177D01*
X202409976Y-89080758D01*
X202488995Y-88932924D01*
X202488996Y-88932922D01*
X202595341Y-88803341D01*
X202724922Y-88696996D01*
X202805639Y-88653852D01*
X202872758Y-88617976D01*
X203033177Y-88569313D01*
X203158196Y-88557000D01*
X203241804Y-88557000D01*
X203366823Y-88569313D01*
X203366823Y-88569313D01*
G37*
G36*
X217534442Y-86481518D02*
G01*
X217600627Y-86488037D01*
X217770466Y-86539557D01*
X217926991Y-86623222D01*
X217949901Y-86642024D01*
X218064186Y-86735814D01*
X218147448Y-86837271D01*
X218176778Y-86873009D01*
X218260443Y-87029534D01*
X218311963Y-87199373D01*
X218329359Y-87376000D01*
X218311963Y-87552627D01*
X218260443Y-87722466D01*
X218176778Y-87878991D01*
X218147448Y-87914729D01*
X218064186Y-88016186D01*
X217962729Y-88099448D01*
X217926991Y-88128778D01*
X217770466Y-88212443D01*
X217600627Y-88263963D01*
X217534442Y-88270482D01*
X217468260Y-88277000D01*
X217379740Y-88277000D01*
X217313558Y-88270482D01*
X217247373Y-88263963D01*
X217077534Y-88212443D01*
X216921009Y-88128778D01*
X216885271Y-88099448D01*
X216783814Y-88016186D01*
X216700552Y-87914729D01*
X216671222Y-87878991D01*
X216587557Y-87722466D01*
X216536037Y-87552627D01*
X216518641Y-87376000D01*
X216536037Y-87199373D01*
X216587557Y-87029534D01*
X216671222Y-86873009D01*
X216700552Y-86837271D01*
X216783814Y-86735814D01*
X216898099Y-86642024D01*
X216921009Y-86623222D01*
X217077534Y-86539557D01*
X217247373Y-86488037D01*
X217313558Y-86481518D01*
X217379740Y-86475000D01*
X217468260Y-86475000D01*
X217534442Y-86481518D01*
X217534442Y-86481518D01*
G37*
G36*
X186459395Y-86207546D02*
G01*
X186632466Y-86279234D01*
X186704069Y-86327078D01*
X186788227Y-86383310D01*
X186920690Y-86515773D01*
X186952249Y-86563005D01*
X187024766Y-86671534D01*
X187096454Y-86844605D01*
X187133000Y-87028333D01*
X187133000Y-87215667D01*
X187096454Y-87399395D01*
X187024766Y-87572466D01*
X187024765Y-87572467D01*
X186920690Y-87728227D01*
X186788227Y-87860690D01*
X186760840Y-87878989D01*
X186632466Y-87964766D01*
X186459395Y-88036454D01*
X186275667Y-88073000D01*
X186088333Y-88073000D01*
X185904605Y-88036454D01*
X185731534Y-87964766D01*
X185603160Y-87878989D01*
X185575773Y-87860690D01*
X185443310Y-87728227D01*
X185339235Y-87572467D01*
X185339234Y-87572466D01*
X185267546Y-87399395D01*
X185231000Y-87215667D01*
X185231000Y-87028333D01*
X185267546Y-86844605D01*
X185339234Y-86671534D01*
X185411751Y-86563005D01*
X185443310Y-86515773D01*
X185575773Y-86383310D01*
X185659931Y-86327078D01*
X185731534Y-86279234D01*
X185904605Y-86207546D01*
X186088333Y-86171000D01*
X186275667Y-86171000D01*
X186459395Y-86207546D01*
X186459395Y-86207546D01*
G37*
G36*
X184593000Y-88073000D02*
G01*
X182691000Y-88073000D01*
X182691000Y-86171000D01*
X184593000Y-86171000D01*
X184593000Y-88073000D01*
X184593000Y-88073000D01*
G37*
G36*
X195828228Y-85033703D02*
G01*
X195983100Y-85097853D01*
X196122481Y-85190985D01*
X196241015Y-85309519D01*
X196334147Y-85448900D01*
X196398297Y-85603772D01*
X196431000Y-85768184D01*
X196431000Y-85935816D01*
X196398297Y-86100228D01*
X196334147Y-86255100D01*
X196241015Y-86394481D01*
X196122481Y-86513015D01*
X195983100Y-86606147D01*
X195828228Y-86670297D01*
X195663816Y-86703000D01*
X195496184Y-86703000D01*
X195331772Y-86670297D01*
X195176900Y-86606147D01*
X195037519Y-86513015D01*
X194918985Y-86394481D01*
X194825853Y-86255100D01*
X194761703Y-86100228D01*
X194729000Y-85935816D01*
X194729000Y-85768184D01*
X194761703Y-85603772D01*
X194825853Y-85448900D01*
X194918985Y-85309519D01*
X195037519Y-85190985D01*
X195176900Y-85097853D01*
X195331772Y-85033703D01*
X195496184Y-85001000D01*
X195663816Y-85001000D01*
X195828228Y-85033703D01*
X195828228Y-85033703D01*
G37*
G36*
X203366823Y-85013313D02*
G01*
X203527242Y-85061976D01*
X203594361Y-85097852D01*
X203675078Y-85140996D01*
X203804659Y-85247341D01*
X203911004Y-85376922D01*
X203911005Y-85376924D01*
X203990024Y-85524758D01*
X204038687Y-85685177D01*
X204055117Y-85852000D01*
X204038687Y-86018823D01*
X203990024Y-86179242D01*
X203919114Y-86311906D01*
X203911004Y-86327078D01*
X203804659Y-86456659D01*
X203675078Y-86563004D01*
X203675076Y-86563005D01*
X203527242Y-86642024D01*
X203366823Y-86690687D01*
X203241804Y-86703000D01*
X203158196Y-86703000D01*
X203033177Y-86690687D01*
X202872758Y-86642024D01*
X202724924Y-86563005D01*
X202724922Y-86563004D01*
X202595341Y-86456659D01*
X202488996Y-86327078D01*
X202480886Y-86311906D01*
X202409976Y-86179242D01*
X202361313Y-86018823D01*
X202344883Y-85852000D01*
X202361313Y-85685177D01*
X202409976Y-85524758D01*
X202488995Y-85376924D01*
X202488996Y-85376922D01*
X202595341Y-85247341D01*
X202724922Y-85140996D01*
X202805639Y-85097852D01*
X202872758Y-85061976D01*
X203033177Y-85013313D01*
X203158196Y-85001000D01*
X203241804Y-85001000D01*
X203366823Y-85013313D01*
X203366823Y-85013313D01*
G37*
G36*
X217534443Y-83941519D02*
G01*
X217600627Y-83948037D01*
X217770466Y-83999557D01*
X217926991Y-84083222D01*
X217962729Y-84112552D01*
X218064186Y-84195814D01*
X218147448Y-84297271D01*
X218176778Y-84333009D01*
X218260443Y-84489534D01*
X218311963Y-84659373D01*
X218329359Y-84836000D01*
X218311963Y-85012627D01*
X218260443Y-85182466D01*
X218260442Y-85182468D01*
X218225766Y-85247341D01*
X218176778Y-85338991D01*
X218147448Y-85374729D01*
X218064186Y-85476186D01*
X217962729Y-85559448D01*
X217926991Y-85588778D01*
X217770466Y-85672443D01*
X217600627Y-85723963D01*
X217534443Y-85730481D01*
X217468260Y-85737000D01*
X217379740Y-85737000D01*
X217313557Y-85730481D01*
X217247373Y-85723963D01*
X217077534Y-85672443D01*
X216921009Y-85588778D01*
X216885271Y-85559448D01*
X216783814Y-85476186D01*
X216700552Y-85374729D01*
X216671222Y-85338991D01*
X216622234Y-85247341D01*
X216587558Y-85182468D01*
X216587557Y-85182466D01*
X216536037Y-85012627D01*
X216518641Y-84836000D01*
X216536037Y-84659373D01*
X216587557Y-84489534D01*
X216671222Y-84333009D01*
X216700552Y-84297271D01*
X216783814Y-84195814D01*
X216885271Y-84112552D01*
X216921009Y-84083222D01*
X217077534Y-83999557D01*
X217247373Y-83948037D01*
X217313557Y-83941519D01*
X217379740Y-83935000D01*
X217468260Y-83935000D01*
X217534443Y-83941519D01*
X217534443Y-83941519D01*
G37*
G36*
X203366823Y-81711313D02*
G01*
X203527242Y-81759976D01*
X203594361Y-81795852D01*
X203675078Y-81838996D01*
X203804659Y-81945341D01*
X203911004Y-82074922D01*
X203911005Y-82074924D01*
X203990024Y-82222758D01*
X204038687Y-82383177D01*
X204055117Y-82550000D01*
X204038687Y-82716823D01*
X203990024Y-82877242D01*
X203949477Y-82953100D01*
X203911004Y-83025078D01*
X203804659Y-83154659D01*
X203675078Y-83261004D01*
X203675076Y-83261005D01*
X203527242Y-83340024D01*
X203366823Y-83388687D01*
X203241804Y-83401000D01*
X203158196Y-83401000D01*
X203033177Y-83388687D01*
X202872758Y-83340024D01*
X202724924Y-83261005D01*
X202724922Y-83261004D01*
X202595341Y-83154659D01*
X202488996Y-83025078D01*
X202450523Y-82953100D01*
X202409976Y-82877242D01*
X202361313Y-82716823D01*
X202344883Y-82550000D01*
X202361313Y-82383177D01*
X202409976Y-82222758D01*
X202488995Y-82074924D01*
X202488996Y-82074922D01*
X202595341Y-81945341D01*
X202724922Y-81838996D01*
X202805639Y-81795852D01*
X202872758Y-81759976D01*
X203033177Y-81711313D01*
X203158196Y-81699000D01*
X203241804Y-81699000D01*
X203366823Y-81711313D01*
X203366823Y-81711313D01*
G37*
G36*
X195828228Y-81731703D02*
G01*
X195983100Y-81795853D01*
X196122481Y-81888985D01*
X196241015Y-82007519D01*
X196334147Y-82146900D01*
X196398297Y-82301772D01*
X196431000Y-82466184D01*
X196431000Y-82633816D01*
X196398297Y-82798228D01*
X196334147Y-82953100D01*
X196241015Y-83092481D01*
X196122481Y-83211015D01*
X195983100Y-83304147D01*
X195828228Y-83368297D01*
X195663816Y-83401000D01*
X195496184Y-83401000D01*
X195331772Y-83368297D01*
X195176900Y-83304147D01*
X195037519Y-83211015D01*
X194918985Y-83092481D01*
X194825853Y-82953100D01*
X194761703Y-82798228D01*
X194729000Y-82633816D01*
X194729000Y-82466184D01*
X194761703Y-82301772D01*
X194825853Y-82146900D01*
X194918985Y-82007519D01*
X195037519Y-81888985D01*
X195176900Y-81795853D01*
X195331772Y-81731703D01*
X195496184Y-81699000D01*
X195663816Y-81699000D01*
X195828228Y-81731703D01*
X195828228Y-81731703D01*
G37*
G36*
X186459395Y-81381546D02*
G01*
X186632466Y-81453234D01*
X186709818Y-81504919D01*
X186788227Y-81557310D01*
X186920690Y-81689773D01*
X186948708Y-81731705D01*
X187024766Y-81845534D01*
X187096454Y-82018605D01*
X187133000Y-82202333D01*
X187133000Y-82389667D01*
X187096454Y-82573395D01*
X187024766Y-82746466D01*
X187024765Y-82746467D01*
X186920690Y-82902227D01*
X186788227Y-83034690D01*
X186767141Y-83048779D01*
X186632466Y-83138766D01*
X186459395Y-83210454D01*
X186275667Y-83247000D01*
X186088333Y-83247000D01*
X185904605Y-83210454D01*
X185731534Y-83138766D01*
X185596859Y-83048779D01*
X185575773Y-83034690D01*
X185443310Y-82902227D01*
X185339235Y-82746467D01*
X185339234Y-82746466D01*
X185267546Y-82573395D01*
X185231000Y-82389667D01*
X185231000Y-82202333D01*
X185267546Y-82018605D01*
X185339234Y-81845534D01*
X185415292Y-81731705D01*
X185443310Y-81689773D01*
X185575773Y-81557310D01*
X185654182Y-81504919D01*
X185731534Y-81453234D01*
X185904605Y-81381546D01*
X186088333Y-81345000D01*
X186275667Y-81345000D01*
X186459395Y-81381546D01*
X186459395Y-81381546D01*
G37*
G36*
X184593000Y-83247000D02*
G01*
X182691000Y-83247000D01*
X182691000Y-81345000D01*
X184593000Y-81345000D01*
X184593000Y-83247000D01*
X184593000Y-83247000D01*
G37*
G36*
X217534443Y-81401519D02*
G01*
X217600627Y-81408037D01*
X217770466Y-81459557D01*
X217926991Y-81543222D01*
X217944156Y-81557309D01*
X218064186Y-81655814D01*
X218126467Y-81731705D01*
X218176778Y-81793009D01*
X218260443Y-81949534D01*
X218311963Y-82119373D01*
X218329359Y-82296000D01*
X218311963Y-82472627D01*
X218260443Y-82642466D01*
X218176778Y-82798991D01*
X218147448Y-82834729D01*
X218064186Y-82936186D01*
X217962729Y-83019448D01*
X217926991Y-83048778D01*
X217770466Y-83132443D01*
X217600627Y-83183963D01*
X217534442Y-83190482D01*
X217468260Y-83197000D01*
X217379740Y-83197000D01*
X217313558Y-83190482D01*
X217247373Y-83183963D01*
X217077534Y-83132443D01*
X216921009Y-83048778D01*
X216885271Y-83019448D01*
X216783814Y-82936186D01*
X216700552Y-82834729D01*
X216671222Y-82798991D01*
X216587557Y-82642466D01*
X216536037Y-82472627D01*
X216518641Y-82296000D01*
X216536037Y-82119373D01*
X216587557Y-81949534D01*
X216671222Y-81793009D01*
X216721533Y-81731705D01*
X216783814Y-81655814D01*
X216903844Y-81557309D01*
X216921009Y-81543222D01*
X217077534Y-81459557D01*
X217247373Y-81408037D01*
X217313557Y-81401519D01*
X217379740Y-81395000D01*
X217468260Y-81395000D01*
X217534443Y-81401519D01*
X217534443Y-81401519D01*
G37*
G36*
X217534443Y-78861519D02*
G01*
X217600627Y-78868037D01*
X217770466Y-78919557D01*
X217926991Y-79003222D01*
X217962729Y-79032552D01*
X218064186Y-79115814D01*
X218147448Y-79217271D01*
X218176778Y-79253009D01*
X218260443Y-79409534D01*
X218311963Y-79579373D01*
X218329359Y-79756000D01*
X218311963Y-79932627D01*
X218260443Y-80102466D01*
X218176778Y-80258991D01*
X218147448Y-80294729D01*
X218064186Y-80396186D01*
X217962729Y-80479448D01*
X217926991Y-80508778D01*
X217770466Y-80592443D01*
X217600627Y-80643963D01*
X217534443Y-80650481D01*
X217468260Y-80657000D01*
X217379740Y-80657000D01*
X217313557Y-80650481D01*
X217247373Y-80643963D01*
X217077534Y-80592443D01*
X216921009Y-80508778D01*
X216885271Y-80479448D01*
X216783814Y-80396186D01*
X216700552Y-80294729D01*
X216671222Y-80258991D01*
X216587557Y-80102466D01*
X216536037Y-79932627D01*
X216518641Y-79756000D01*
X216536037Y-79579373D01*
X216587557Y-79409534D01*
X216671222Y-79253009D01*
X216700552Y-79217271D01*
X216783814Y-79115814D01*
X216885271Y-79032552D01*
X216921009Y-79003222D01*
X217077534Y-78919557D01*
X217247373Y-78868037D01*
X217313557Y-78861519D01*
X217379740Y-78855000D01*
X217468260Y-78855000D01*
X217534443Y-78861519D01*
X217534443Y-78861519D01*
G37*
G36*
X203366823Y-78155313D02*
G01*
X203527242Y-78203976D01*
X203594361Y-78239852D01*
X203675078Y-78282996D01*
X203804659Y-78389341D01*
X203911004Y-78518922D01*
X203911005Y-78518924D01*
X203990024Y-78666758D01*
X204038687Y-78827177D01*
X204055117Y-78994000D01*
X204038687Y-79160823D01*
X203990024Y-79321242D01*
X203949477Y-79397100D01*
X203911004Y-79469078D01*
X203804659Y-79598659D01*
X203675078Y-79705004D01*
X203675076Y-79705005D01*
X203527242Y-79784024D01*
X203366823Y-79832687D01*
X203241804Y-79845000D01*
X203158196Y-79845000D01*
X203033177Y-79832687D01*
X202872758Y-79784024D01*
X202724924Y-79705005D01*
X202724922Y-79705004D01*
X202595341Y-79598659D01*
X202488996Y-79469078D01*
X202450523Y-79397100D01*
X202409976Y-79321242D01*
X202361313Y-79160823D01*
X202344883Y-78994000D01*
X202361313Y-78827177D01*
X202409976Y-78666758D01*
X202488995Y-78518924D01*
X202488996Y-78518922D01*
X202595341Y-78389341D01*
X202724922Y-78282996D01*
X202805639Y-78239852D01*
X202872758Y-78203976D01*
X203033177Y-78155313D01*
X203158196Y-78143000D01*
X203241804Y-78143000D01*
X203366823Y-78155313D01*
X203366823Y-78155313D01*
G37*
G36*
X195828228Y-78175703D02*
G01*
X195983100Y-78239853D01*
X196122481Y-78332985D01*
X196241015Y-78451519D01*
X196334147Y-78590900D01*
X196398297Y-78745772D01*
X196431000Y-78910184D01*
X196431000Y-79077816D01*
X196398297Y-79242228D01*
X196334147Y-79397100D01*
X196241015Y-79536481D01*
X196122481Y-79655015D01*
X195983100Y-79748147D01*
X195828228Y-79812297D01*
X195663816Y-79845000D01*
X195496184Y-79845000D01*
X195331772Y-79812297D01*
X195176900Y-79748147D01*
X195037519Y-79655015D01*
X194918985Y-79536481D01*
X194825853Y-79397100D01*
X194761703Y-79242228D01*
X194729000Y-79077816D01*
X194729000Y-78910184D01*
X194761703Y-78745772D01*
X194825853Y-78590900D01*
X194918985Y-78451519D01*
X195037519Y-78332985D01*
X195176900Y-78239853D01*
X195331772Y-78175703D01*
X195496184Y-78143000D01*
X195663816Y-78143000D01*
X195828228Y-78175703D01*
X195828228Y-78175703D01*
G37*
G36*
X217534442Y-76321518D02*
G01*
X217600627Y-76328037D01*
X217770466Y-76379557D01*
X217926991Y-76463222D01*
X217962729Y-76492552D01*
X218064186Y-76575814D01*
X218147448Y-76677271D01*
X218176778Y-76713009D01*
X218260443Y-76869534D01*
X218311963Y-77039373D01*
X218329359Y-77216000D01*
X218311963Y-77392627D01*
X218260443Y-77562466D01*
X218176778Y-77718991D01*
X218147448Y-77754729D01*
X218064186Y-77856186D01*
X217962729Y-77939448D01*
X217926991Y-77968778D01*
X217770466Y-78052443D01*
X217600627Y-78103963D01*
X217534442Y-78110482D01*
X217468260Y-78117000D01*
X217379740Y-78117000D01*
X217313558Y-78110482D01*
X217247373Y-78103963D01*
X217077534Y-78052443D01*
X216921009Y-77968778D01*
X216885271Y-77939448D01*
X216783814Y-77856186D01*
X216700552Y-77754729D01*
X216671222Y-77718991D01*
X216587557Y-77562466D01*
X216536037Y-77392627D01*
X216518641Y-77216000D01*
X216536037Y-77039373D01*
X216587557Y-76869534D01*
X216671222Y-76713009D01*
X216700552Y-76677271D01*
X216783814Y-76575814D01*
X216885271Y-76492552D01*
X216921009Y-76463222D01*
X217077534Y-76379557D01*
X217247373Y-76328037D01*
X217313558Y-76321518D01*
X217379740Y-76315000D01*
X217468260Y-76315000D01*
X217534442Y-76321518D01*
X217534442Y-76321518D01*
G37*
G36*
X195828228Y-74619703D02*
G01*
X195983100Y-74683853D01*
X196122481Y-74776985D01*
X196241015Y-74895519D01*
X196334147Y-75034900D01*
X196398297Y-75189772D01*
X196431000Y-75354184D01*
X196431000Y-75521816D01*
X196398297Y-75686228D01*
X196334147Y-75841100D01*
X196241015Y-75980481D01*
X196122481Y-76099015D01*
X195983100Y-76192147D01*
X195828228Y-76256297D01*
X195663816Y-76289000D01*
X195496184Y-76289000D01*
X195331772Y-76256297D01*
X195176900Y-76192147D01*
X195037519Y-76099015D01*
X194918985Y-75980481D01*
X194825853Y-75841100D01*
X194761703Y-75686228D01*
X194729000Y-75521816D01*
X194729000Y-75354184D01*
X194761703Y-75189772D01*
X194825853Y-75034900D01*
X194918985Y-74895519D01*
X195037519Y-74776985D01*
X195176900Y-74683853D01*
X195331772Y-74619703D01*
X195496184Y-74587000D01*
X195663816Y-74587000D01*
X195828228Y-74619703D01*
X195828228Y-74619703D01*
G37*
G36*
X203366823Y-74599313D02*
G01*
X203527242Y-74647976D01*
X203594361Y-74683852D01*
X203675078Y-74726996D01*
X203804659Y-74833341D01*
X203911004Y-74962922D01*
X203911005Y-74962924D01*
X203990024Y-75110758D01*
X204038687Y-75271177D01*
X204055117Y-75438000D01*
X204038687Y-75604823D01*
X203990024Y-75765242D01*
X203949477Y-75841100D01*
X203911004Y-75913078D01*
X203804659Y-76042659D01*
X203675078Y-76149004D01*
X203675076Y-76149005D01*
X203527242Y-76228024D01*
X203366823Y-76276687D01*
X203241804Y-76289000D01*
X203158196Y-76289000D01*
X203033177Y-76276687D01*
X202872758Y-76228024D01*
X202724924Y-76149005D01*
X202724922Y-76149004D01*
X202595341Y-76042659D01*
X202488996Y-75913078D01*
X202450523Y-75841100D01*
X202409976Y-75765242D01*
X202361313Y-75604823D01*
X202344883Y-75438000D01*
X202361313Y-75271177D01*
X202409976Y-75110758D01*
X202488995Y-74962924D01*
X202488996Y-74962922D01*
X202595341Y-74833341D01*
X202724922Y-74726996D01*
X202805639Y-74683852D01*
X202872758Y-74647976D01*
X203033177Y-74599313D01*
X203158196Y-74587000D01*
X203241804Y-74587000D01*
X203366823Y-74599313D01*
X203366823Y-74599313D01*
G37*
G36*
X217534443Y-73781519D02*
G01*
X217600627Y-73788037D01*
X217770466Y-73839557D01*
X217926991Y-73923222D01*
X217962729Y-73952552D01*
X218064186Y-74035814D01*
X218147448Y-74137271D01*
X218176778Y-74173009D01*
X218260443Y-74329534D01*
X218311963Y-74499373D01*
X218329359Y-74676000D01*
X218311963Y-74852627D01*
X218260443Y-75022466D01*
X218176778Y-75178991D01*
X218167931Y-75189771D01*
X218064186Y-75316186D01*
X217962729Y-75399448D01*
X217926991Y-75428778D01*
X217770466Y-75512443D01*
X217600627Y-75563963D01*
X217534443Y-75570481D01*
X217468260Y-75577000D01*
X217379740Y-75577000D01*
X217313557Y-75570481D01*
X217247373Y-75563963D01*
X217077534Y-75512443D01*
X216921009Y-75428778D01*
X216885271Y-75399448D01*
X216783814Y-75316186D01*
X216680069Y-75189771D01*
X216671222Y-75178991D01*
X216587557Y-75022466D01*
X216536037Y-74852627D01*
X216518641Y-74676000D01*
X216536037Y-74499373D01*
X216587557Y-74329534D01*
X216671222Y-74173009D01*
X216700552Y-74137271D01*
X216783814Y-74035814D01*
X216885271Y-73952552D01*
X216921009Y-73923222D01*
X217077534Y-73839557D01*
X217247373Y-73788037D01*
X217313557Y-73781519D01*
X217379740Y-73775000D01*
X217468260Y-73775000D01*
X217534443Y-73781519D01*
X217534443Y-73781519D01*
G37*
G36*
X149772823Y-73837313D02*
G01*
X149933242Y-73885976D01*
X150002922Y-73923221D01*
X150081078Y-73964996D01*
X150210659Y-74071341D01*
X150317004Y-74200922D01*
X150317005Y-74200924D01*
X150396024Y-74348758D01*
X150444687Y-74509177D01*
X150461117Y-74676000D01*
X150444687Y-74842823D01*
X150396024Y-75003242D01*
X150338555Y-75110758D01*
X150317004Y-75151078D01*
X150210659Y-75280659D01*
X150081078Y-75387004D01*
X150081076Y-75387005D01*
X149933242Y-75466024D01*
X149772823Y-75514687D01*
X149647804Y-75527000D01*
X149564196Y-75527000D01*
X149439177Y-75514687D01*
X149278758Y-75466024D01*
X149130924Y-75387005D01*
X149130922Y-75387004D01*
X149001341Y-75280659D01*
X148894996Y-75151078D01*
X148873445Y-75110758D01*
X148815976Y-75003242D01*
X148767313Y-74842823D01*
X148750883Y-74676000D01*
X148767313Y-74509177D01*
X148815976Y-74348758D01*
X148894995Y-74200924D01*
X148894996Y-74200922D01*
X149001341Y-74071341D01*
X149130922Y-73964996D01*
X149209078Y-73923221D01*
X149278758Y-73885976D01*
X149439177Y-73837313D01*
X149564196Y-73825000D01*
X149647804Y-73825000D01*
X149772823Y-73837313D01*
X149772823Y-73837313D01*
G37*
G36*
X147232823Y-73837313D02*
G01*
X147393242Y-73885976D01*
X147462922Y-73923221D01*
X147541078Y-73964996D01*
X147670659Y-74071341D01*
X147777004Y-74200922D01*
X147777005Y-74200924D01*
X147856024Y-74348758D01*
X147904687Y-74509177D01*
X147921117Y-74676000D01*
X147904687Y-74842823D01*
X147856024Y-75003242D01*
X147798555Y-75110758D01*
X147777004Y-75151078D01*
X147670659Y-75280659D01*
X147541078Y-75387004D01*
X147541076Y-75387005D01*
X147393242Y-75466024D01*
X147232823Y-75514687D01*
X147107804Y-75527000D01*
X147024196Y-75527000D01*
X146899177Y-75514687D01*
X146738758Y-75466024D01*
X146590924Y-75387005D01*
X146590922Y-75387004D01*
X146461341Y-75280659D01*
X146354996Y-75151078D01*
X146333445Y-75110758D01*
X146275976Y-75003242D01*
X146227313Y-74842823D01*
X146210883Y-74676000D01*
X146227313Y-74509177D01*
X146275976Y-74348758D01*
X146354995Y-74200924D01*
X146354996Y-74200922D01*
X146461341Y-74071341D01*
X146590922Y-73964996D01*
X146669078Y-73923221D01*
X146738758Y-73885976D01*
X146899177Y-73837313D01*
X147024196Y-73825000D01*
X147107804Y-73825000D01*
X147232823Y-73837313D01*
X147232823Y-73837313D01*
G37*
G36*
X144692823Y-73837313D02*
G01*
X144853242Y-73885976D01*
X144922922Y-73923221D01*
X145001078Y-73964996D01*
X145130659Y-74071341D01*
X145237004Y-74200922D01*
X145237005Y-74200924D01*
X145316024Y-74348758D01*
X145364687Y-74509177D01*
X145381117Y-74676000D01*
X145364687Y-74842823D01*
X145316024Y-75003242D01*
X145258555Y-75110758D01*
X145237004Y-75151078D01*
X145130659Y-75280659D01*
X145001078Y-75387004D01*
X145001076Y-75387005D01*
X144853242Y-75466024D01*
X144692823Y-75514687D01*
X144567804Y-75527000D01*
X144484196Y-75527000D01*
X144359177Y-75514687D01*
X144198758Y-75466024D01*
X144050924Y-75387005D01*
X144050922Y-75387004D01*
X143921341Y-75280659D01*
X143814996Y-75151078D01*
X143793445Y-75110758D01*
X143735976Y-75003242D01*
X143687313Y-74842823D01*
X143670883Y-74676000D01*
X143687313Y-74509177D01*
X143735976Y-74348758D01*
X143814995Y-74200924D01*
X143814996Y-74200922D01*
X143921341Y-74071341D01*
X144050922Y-73964996D01*
X144129078Y-73923221D01*
X144198758Y-73885976D01*
X144359177Y-73837313D01*
X144484196Y-73825000D01*
X144567804Y-73825000D01*
X144692823Y-73837313D01*
X144692823Y-73837313D01*
G37*
G36*
X142152823Y-73837313D02*
G01*
X142313242Y-73885976D01*
X142382922Y-73923221D01*
X142461078Y-73964996D01*
X142590659Y-74071341D01*
X142697004Y-74200922D01*
X142697005Y-74200924D01*
X142776024Y-74348758D01*
X142824687Y-74509177D01*
X142841117Y-74676000D01*
X142824687Y-74842823D01*
X142776024Y-75003242D01*
X142718555Y-75110758D01*
X142697004Y-75151078D01*
X142590659Y-75280659D01*
X142461078Y-75387004D01*
X142461076Y-75387005D01*
X142313242Y-75466024D01*
X142152823Y-75514687D01*
X142027804Y-75527000D01*
X141944196Y-75527000D01*
X141819177Y-75514687D01*
X141658758Y-75466024D01*
X141510924Y-75387005D01*
X141510922Y-75387004D01*
X141381341Y-75280659D01*
X141274996Y-75151078D01*
X141253445Y-75110758D01*
X141195976Y-75003242D01*
X141147313Y-74842823D01*
X141130883Y-74676000D01*
X141147313Y-74509177D01*
X141195976Y-74348758D01*
X141274995Y-74200924D01*
X141274996Y-74200922D01*
X141381341Y-74071341D01*
X141510922Y-73964996D01*
X141589078Y-73923221D01*
X141658758Y-73885976D01*
X141819177Y-73837313D01*
X141944196Y-73825000D01*
X142027804Y-73825000D01*
X142152823Y-73837313D01*
X142152823Y-73837313D01*
G37*
G36*
X139612823Y-73837313D02*
G01*
X139773242Y-73885976D01*
X139842922Y-73923221D01*
X139921078Y-73964996D01*
X140050659Y-74071341D01*
X140157004Y-74200922D01*
X140157005Y-74200924D01*
X140236024Y-74348758D01*
X140284687Y-74509177D01*
X140301117Y-74676000D01*
X140284687Y-74842823D01*
X140236024Y-75003242D01*
X140178555Y-75110758D01*
X140157004Y-75151078D01*
X140050659Y-75280659D01*
X139921078Y-75387004D01*
X139921076Y-75387005D01*
X139773242Y-75466024D01*
X139612823Y-75514687D01*
X139487804Y-75527000D01*
X139404196Y-75527000D01*
X139279177Y-75514687D01*
X139118758Y-75466024D01*
X138970924Y-75387005D01*
X138970922Y-75387004D01*
X138841341Y-75280659D01*
X138734996Y-75151078D01*
X138713445Y-75110758D01*
X138655976Y-75003242D01*
X138607313Y-74842823D01*
X138590883Y-74676000D01*
X138607313Y-74509177D01*
X138655976Y-74348758D01*
X138734995Y-74200924D01*
X138734996Y-74200922D01*
X138841341Y-74071341D01*
X138970922Y-73964996D01*
X139049078Y-73923221D01*
X139118758Y-73885976D01*
X139279177Y-73837313D01*
X139404196Y-73825000D01*
X139487804Y-73825000D01*
X139612823Y-73837313D01*
X139612823Y-73837313D01*
G37*
G36*
X137072823Y-73837313D02*
G01*
X137233242Y-73885976D01*
X137302922Y-73923221D01*
X137381078Y-73964996D01*
X137510659Y-74071341D01*
X137617004Y-74200922D01*
X137617005Y-74200924D01*
X137696024Y-74348758D01*
X137744687Y-74509177D01*
X137761117Y-74676000D01*
X137744687Y-74842823D01*
X137696024Y-75003242D01*
X137638555Y-75110758D01*
X137617004Y-75151078D01*
X137510659Y-75280659D01*
X137381078Y-75387004D01*
X137381076Y-75387005D01*
X137233242Y-75466024D01*
X137072823Y-75514687D01*
X136947804Y-75527000D01*
X136864196Y-75527000D01*
X136739177Y-75514687D01*
X136578758Y-75466024D01*
X136430924Y-75387005D01*
X136430922Y-75387004D01*
X136301341Y-75280659D01*
X136194996Y-75151078D01*
X136173445Y-75110758D01*
X136115976Y-75003242D01*
X136067313Y-74842823D01*
X136050883Y-74676000D01*
X136067313Y-74509177D01*
X136115976Y-74348758D01*
X136194995Y-74200924D01*
X136194996Y-74200922D01*
X136301341Y-74071341D01*
X136430922Y-73964996D01*
X136509078Y-73923221D01*
X136578758Y-73885976D01*
X136739177Y-73837313D01*
X136864196Y-73825000D01*
X136947804Y-73825000D01*
X137072823Y-73837313D01*
X137072823Y-73837313D01*
G37*
G36*
X134532823Y-73837313D02*
G01*
X134693242Y-73885976D01*
X134762922Y-73923221D01*
X134841078Y-73964996D01*
X134970659Y-74071341D01*
X135077004Y-74200922D01*
X135077005Y-74200924D01*
X135156024Y-74348758D01*
X135204687Y-74509177D01*
X135221117Y-74676000D01*
X135204687Y-74842823D01*
X135156024Y-75003242D01*
X135098555Y-75110758D01*
X135077004Y-75151078D01*
X134970659Y-75280659D01*
X134841078Y-75387004D01*
X134841076Y-75387005D01*
X134693242Y-75466024D01*
X134532823Y-75514687D01*
X134407804Y-75527000D01*
X134324196Y-75527000D01*
X134199177Y-75514687D01*
X134038758Y-75466024D01*
X133890924Y-75387005D01*
X133890922Y-75387004D01*
X133761341Y-75280659D01*
X133654996Y-75151078D01*
X133633445Y-75110758D01*
X133575976Y-75003242D01*
X133527313Y-74842823D01*
X133510883Y-74676000D01*
X133527313Y-74509177D01*
X133575976Y-74348758D01*
X133654995Y-74200924D01*
X133654996Y-74200922D01*
X133761341Y-74071341D01*
X133890922Y-73964996D01*
X133969078Y-73923221D01*
X134038758Y-73885976D01*
X134199177Y-73837313D01*
X134324196Y-73825000D01*
X134407804Y-73825000D01*
X134532823Y-73837313D01*
X134532823Y-73837313D01*
G37*
G36*
X131992823Y-73837313D02*
G01*
X132153242Y-73885976D01*
X132222922Y-73923221D01*
X132301078Y-73964996D01*
X132430659Y-74071341D01*
X132537004Y-74200922D01*
X132537005Y-74200924D01*
X132616024Y-74348758D01*
X132664687Y-74509177D01*
X132681117Y-74676000D01*
X132664687Y-74842823D01*
X132616024Y-75003242D01*
X132558555Y-75110758D01*
X132537004Y-75151078D01*
X132430659Y-75280659D01*
X132301078Y-75387004D01*
X132301076Y-75387005D01*
X132153242Y-75466024D01*
X131992823Y-75514687D01*
X131867804Y-75527000D01*
X131784196Y-75527000D01*
X131659177Y-75514687D01*
X131498758Y-75466024D01*
X131350924Y-75387005D01*
X131350922Y-75387004D01*
X131221341Y-75280659D01*
X131114996Y-75151078D01*
X131093445Y-75110758D01*
X131035976Y-75003242D01*
X130987313Y-74842823D01*
X130970883Y-74676000D01*
X130987313Y-74509177D01*
X131035976Y-74348758D01*
X131114995Y-74200924D01*
X131114996Y-74200922D01*
X131221341Y-74071341D01*
X131350922Y-73964996D01*
X131429078Y-73923221D01*
X131498758Y-73885976D01*
X131659177Y-73837313D01*
X131784196Y-73825000D01*
X131867804Y-73825000D01*
X131992823Y-73837313D01*
X131992823Y-73837313D01*
G37*
G36*
X129452823Y-73837313D02*
G01*
X129613242Y-73885976D01*
X129682922Y-73923221D01*
X129761078Y-73964996D01*
X129890659Y-74071341D01*
X129997004Y-74200922D01*
X129997005Y-74200924D01*
X130076024Y-74348758D01*
X130124687Y-74509177D01*
X130141117Y-74676000D01*
X130124687Y-74842823D01*
X130076024Y-75003242D01*
X130018555Y-75110758D01*
X129997004Y-75151078D01*
X129890659Y-75280659D01*
X129761078Y-75387004D01*
X129761076Y-75387005D01*
X129613242Y-75466024D01*
X129452823Y-75514687D01*
X129327804Y-75527000D01*
X129244196Y-75527000D01*
X129119177Y-75514687D01*
X128958758Y-75466024D01*
X128810924Y-75387005D01*
X128810922Y-75387004D01*
X128681341Y-75280659D01*
X128574996Y-75151078D01*
X128553445Y-75110758D01*
X128495976Y-75003242D01*
X128447313Y-74842823D01*
X128430883Y-74676000D01*
X128447313Y-74509177D01*
X128495976Y-74348758D01*
X128574995Y-74200924D01*
X128574996Y-74200922D01*
X128681341Y-74071341D01*
X128810922Y-73964996D01*
X128889078Y-73923221D01*
X128958758Y-73885976D01*
X129119177Y-73837313D01*
X129244196Y-73825000D01*
X129327804Y-73825000D01*
X129452823Y-73837313D01*
X129452823Y-73837313D01*
G37*
G36*
X126912823Y-73837313D02*
G01*
X127073242Y-73885976D01*
X127142922Y-73923221D01*
X127221078Y-73964996D01*
X127350659Y-74071341D01*
X127457004Y-74200922D01*
X127457005Y-74200924D01*
X127536024Y-74348758D01*
X127584687Y-74509177D01*
X127601117Y-74676000D01*
X127584687Y-74842823D01*
X127536024Y-75003242D01*
X127478555Y-75110758D01*
X127457004Y-75151078D01*
X127350659Y-75280659D01*
X127221078Y-75387004D01*
X127221076Y-75387005D01*
X127073242Y-75466024D01*
X126912823Y-75514687D01*
X126787804Y-75527000D01*
X126704196Y-75527000D01*
X126579177Y-75514687D01*
X126418758Y-75466024D01*
X126270924Y-75387005D01*
X126270922Y-75387004D01*
X126141341Y-75280659D01*
X126034996Y-75151078D01*
X126013445Y-75110758D01*
X125955976Y-75003242D01*
X125907313Y-74842823D01*
X125890883Y-74676000D01*
X125907313Y-74509177D01*
X125955976Y-74348758D01*
X126034995Y-74200924D01*
X126034996Y-74200922D01*
X126141341Y-74071341D01*
X126270922Y-73964996D01*
X126349078Y-73923221D01*
X126418758Y-73885976D01*
X126579177Y-73837313D01*
X126704196Y-73825000D01*
X126787804Y-73825000D01*
X126912823Y-73837313D01*
X126912823Y-73837313D01*
G37*
G36*
X154852823Y-73837313D02*
G01*
X155013242Y-73885976D01*
X155082922Y-73923221D01*
X155161078Y-73964996D01*
X155290659Y-74071341D01*
X155397004Y-74200922D01*
X155397005Y-74200924D01*
X155476024Y-74348758D01*
X155524687Y-74509177D01*
X155541117Y-74676000D01*
X155524687Y-74842823D01*
X155476024Y-75003242D01*
X155418555Y-75110758D01*
X155397004Y-75151078D01*
X155290659Y-75280659D01*
X155161078Y-75387004D01*
X155161076Y-75387005D01*
X155013242Y-75466024D01*
X154852823Y-75514687D01*
X154727804Y-75527000D01*
X154644196Y-75527000D01*
X154519177Y-75514687D01*
X154358758Y-75466024D01*
X154210924Y-75387005D01*
X154210922Y-75387004D01*
X154081341Y-75280659D01*
X153974996Y-75151078D01*
X153953445Y-75110758D01*
X153895976Y-75003242D01*
X153847313Y-74842823D01*
X153830883Y-74676000D01*
X153847313Y-74509177D01*
X153895976Y-74348758D01*
X153974995Y-74200924D01*
X153974996Y-74200922D01*
X154081341Y-74071341D01*
X154210922Y-73964996D01*
X154289078Y-73923221D01*
X154358758Y-73885976D01*
X154519177Y-73837313D01*
X154644196Y-73825000D01*
X154727804Y-73825000D01*
X154852823Y-73837313D01*
X154852823Y-73837313D01*
G37*
G36*
X152312823Y-73837313D02*
G01*
X152473242Y-73885976D01*
X152542922Y-73923221D01*
X152621078Y-73964996D01*
X152750659Y-74071341D01*
X152857004Y-74200922D01*
X152857005Y-74200924D01*
X152936024Y-74348758D01*
X152984687Y-74509177D01*
X153001117Y-74676000D01*
X152984687Y-74842823D01*
X152936024Y-75003242D01*
X152878555Y-75110758D01*
X152857004Y-75151078D01*
X152750659Y-75280659D01*
X152621078Y-75387004D01*
X152621076Y-75387005D01*
X152473242Y-75466024D01*
X152312823Y-75514687D01*
X152187804Y-75527000D01*
X152104196Y-75527000D01*
X151979177Y-75514687D01*
X151818758Y-75466024D01*
X151670924Y-75387005D01*
X151670922Y-75387004D01*
X151541341Y-75280659D01*
X151434996Y-75151078D01*
X151413445Y-75110758D01*
X151355976Y-75003242D01*
X151307313Y-74842823D01*
X151290883Y-74676000D01*
X151307313Y-74509177D01*
X151355976Y-74348758D01*
X151434995Y-74200924D01*
X151434996Y-74200922D01*
X151541341Y-74071341D01*
X151670922Y-73964996D01*
X151749078Y-73923221D01*
X151818758Y-73885976D01*
X151979177Y-73837313D01*
X152104196Y-73825000D01*
X152187804Y-73825000D01*
X152312823Y-73837313D01*
X152312823Y-73837313D01*
G37*
G36*
X157392823Y-73837313D02*
G01*
X157553242Y-73885976D01*
X157622922Y-73923221D01*
X157701078Y-73964996D01*
X157830659Y-74071341D01*
X157937004Y-74200922D01*
X157937005Y-74200924D01*
X158016024Y-74348758D01*
X158064687Y-74509177D01*
X158081117Y-74676000D01*
X158064687Y-74842823D01*
X158016024Y-75003242D01*
X157958555Y-75110758D01*
X157937004Y-75151078D01*
X157830659Y-75280659D01*
X157701078Y-75387004D01*
X157701076Y-75387005D01*
X157553242Y-75466024D01*
X157392823Y-75514687D01*
X157267804Y-75527000D01*
X157184196Y-75527000D01*
X157059177Y-75514687D01*
X156898758Y-75466024D01*
X156750924Y-75387005D01*
X156750922Y-75387004D01*
X156621341Y-75280659D01*
X156514996Y-75151078D01*
X156493445Y-75110758D01*
X156435976Y-75003242D01*
X156387313Y-74842823D01*
X156370883Y-74676000D01*
X156387313Y-74509177D01*
X156435976Y-74348758D01*
X156514995Y-74200924D01*
X156514996Y-74200922D01*
X156621341Y-74071341D01*
X156750922Y-73964996D01*
X156829078Y-73923221D01*
X156898758Y-73885976D01*
X157059177Y-73837313D01*
X157184196Y-73825000D01*
X157267804Y-73825000D01*
X157392823Y-73837313D01*
X157392823Y-73837313D01*
G37*
G36*
X167552823Y-73837313D02*
G01*
X167713242Y-73885976D01*
X167782922Y-73923221D01*
X167861078Y-73964996D01*
X167990659Y-74071341D01*
X168097004Y-74200922D01*
X168097005Y-74200924D01*
X168176024Y-74348758D01*
X168224687Y-74509177D01*
X168241117Y-74676000D01*
X168224687Y-74842823D01*
X168176024Y-75003242D01*
X168118555Y-75110758D01*
X168097004Y-75151078D01*
X167990659Y-75280659D01*
X167861078Y-75387004D01*
X167861076Y-75387005D01*
X167713242Y-75466024D01*
X167552823Y-75514687D01*
X167427804Y-75527000D01*
X167344196Y-75527000D01*
X167219177Y-75514687D01*
X167058758Y-75466024D01*
X166910924Y-75387005D01*
X166910922Y-75387004D01*
X166781341Y-75280659D01*
X166674996Y-75151078D01*
X166653445Y-75110758D01*
X166595976Y-75003242D01*
X166547313Y-74842823D01*
X166530883Y-74676000D01*
X166547313Y-74509177D01*
X166595976Y-74348758D01*
X166674995Y-74200924D01*
X166674996Y-74200922D01*
X166781341Y-74071341D01*
X166910922Y-73964996D01*
X166989078Y-73923221D01*
X167058758Y-73885976D01*
X167219177Y-73837313D01*
X167344196Y-73825000D01*
X167427804Y-73825000D01*
X167552823Y-73837313D01*
X167552823Y-73837313D01*
G37*
G36*
X165012823Y-73837313D02*
G01*
X165173242Y-73885976D01*
X165242922Y-73923221D01*
X165321078Y-73964996D01*
X165450659Y-74071341D01*
X165557004Y-74200922D01*
X165557005Y-74200924D01*
X165636024Y-74348758D01*
X165684687Y-74509177D01*
X165701117Y-74676000D01*
X165684687Y-74842823D01*
X165636024Y-75003242D01*
X165578555Y-75110758D01*
X165557004Y-75151078D01*
X165450659Y-75280659D01*
X165321078Y-75387004D01*
X165321076Y-75387005D01*
X165173242Y-75466024D01*
X165012823Y-75514687D01*
X164887804Y-75527000D01*
X164804196Y-75527000D01*
X164679177Y-75514687D01*
X164518758Y-75466024D01*
X164370924Y-75387005D01*
X164370922Y-75387004D01*
X164241341Y-75280659D01*
X164134996Y-75151078D01*
X164113445Y-75110758D01*
X164055976Y-75003242D01*
X164007313Y-74842823D01*
X163990883Y-74676000D01*
X164007313Y-74509177D01*
X164055976Y-74348758D01*
X164134995Y-74200924D01*
X164134996Y-74200922D01*
X164241341Y-74071341D01*
X164370922Y-73964996D01*
X164449078Y-73923221D01*
X164518758Y-73885976D01*
X164679177Y-73837313D01*
X164804196Y-73825000D01*
X164887804Y-73825000D01*
X165012823Y-73837313D01*
X165012823Y-73837313D01*
G37*
G36*
X159932823Y-73837313D02*
G01*
X160093242Y-73885976D01*
X160162922Y-73923221D01*
X160241078Y-73964996D01*
X160370659Y-74071341D01*
X160477004Y-74200922D01*
X160477005Y-74200924D01*
X160556024Y-74348758D01*
X160604687Y-74509177D01*
X160621117Y-74676000D01*
X160604687Y-74842823D01*
X160556024Y-75003242D01*
X160498555Y-75110758D01*
X160477004Y-75151078D01*
X160370659Y-75280659D01*
X160241078Y-75387004D01*
X160241076Y-75387005D01*
X160093242Y-75466024D01*
X159932823Y-75514687D01*
X159807804Y-75527000D01*
X159724196Y-75527000D01*
X159599177Y-75514687D01*
X159438758Y-75466024D01*
X159290924Y-75387005D01*
X159290922Y-75387004D01*
X159161341Y-75280659D01*
X159054996Y-75151078D01*
X159033445Y-75110758D01*
X158975976Y-75003242D01*
X158927313Y-74842823D01*
X158910883Y-74676000D01*
X158927313Y-74509177D01*
X158975976Y-74348758D01*
X159054995Y-74200924D01*
X159054996Y-74200922D01*
X159161341Y-74071341D01*
X159290922Y-73964996D01*
X159369078Y-73923221D01*
X159438758Y-73885976D01*
X159599177Y-73837313D01*
X159724196Y-73825000D01*
X159807804Y-73825000D01*
X159932823Y-73837313D01*
X159932823Y-73837313D01*
G37*
G36*
X162472823Y-73837313D02*
G01*
X162633242Y-73885976D01*
X162702922Y-73923221D01*
X162781078Y-73964996D01*
X162910659Y-74071341D01*
X163017004Y-74200922D01*
X163017005Y-74200924D01*
X163096024Y-74348758D01*
X163144687Y-74509177D01*
X163161117Y-74676000D01*
X163144687Y-74842823D01*
X163096024Y-75003242D01*
X163038555Y-75110758D01*
X163017004Y-75151078D01*
X162910659Y-75280659D01*
X162781078Y-75387004D01*
X162781076Y-75387005D01*
X162633242Y-75466024D01*
X162472823Y-75514687D01*
X162347804Y-75527000D01*
X162264196Y-75527000D01*
X162139177Y-75514687D01*
X161978758Y-75466024D01*
X161830924Y-75387005D01*
X161830922Y-75387004D01*
X161701341Y-75280659D01*
X161594996Y-75151078D01*
X161573445Y-75110758D01*
X161515976Y-75003242D01*
X161467313Y-74842823D01*
X161450883Y-74676000D01*
X161467313Y-74509177D01*
X161515976Y-74348758D01*
X161594995Y-74200924D01*
X161594996Y-74200922D01*
X161701341Y-74071341D01*
X161830922Y-73964996D01*
X161909078Y-73923221D01*
X161978758Y-73885976D01*
X162139177Y-73837313D01*
X162264196Y-73825000D01*
X162347804Y-73825000D01*
X162472823Y-73837313D01*
X162472823Y-73837313D01*
G37*
G36*
X172632823Y-73837313D02*
G01*
X172793242Y-73885976D01*
X172862922Y-73923221D01*
X172941078Y-73964996D01*
X173070659Y-74071341D01*
X173177004Y-74200922D01*
X173177005Y-74200924D01*
X173256024Y-74348758D01*
X173304687Y-74509177D01*
X173321117Y-74676000D01*
X173304687Y-74842823D01*
X173256024Y-75003242D01*
X173198555Y-75110758D01*
X173177004Y-75151078D01*
X173070659Y-75280659D01*
X172941078Y-75387004D01*
X172941076Y-75387005D01*
X172793242Y-75466024D01*
X172632823Y-75514687D01*
X172507804Y-75527000D01*
X172424196Y-75527000D01*
X172299177Y-75514687D01*
X172138758Y-75466024D01*
X171990924Y-75387005D01*
X171990922Y-75387004D01*
X171861341Y-75280659D01*
X171754996Y-75151078D01*
X171733445Y-75110758D01*
X171675976Y-75003242D01*
X171627313Y-74842823D01*
X171610883Y-74676000D01*
X171627313Y-74509177D01*
X171675976Y-74348758D01*
X171754995Y-74200924D01*
X171754996Y-74200922D01*
X171861341Y-74071341D01*
X171990922Y-73964996D01*
X172069078Y-73923221D01*
X172138758Y-73885976D01*
X172299177Y-73837313D01*
X172424196Y-73825000D01*
X172507804Y-73825000D01*
X172632823Y-73837313D01*
X172632823Y-73837313D01*
G37*
G36*
X124372823Y-73837313D02*
G01*
X124533242Y-73885976D01*
X124602922Y-73923221D01*
X124681078Y-73964996D01*
X124810659Y-74071341D01*
X124917004Y-74200922D01*
X124917005Y-74200924D01*
X124996024Y-74348758D01*
X125044687Y-74509177D01*
X125061117Y-74676000D01*
X125044687Y-74842823D01*
X124996024Y-75003242D01*
X124938555Y-75110758D01*
X124917004Y-75151078D01*
X124810659Y-75280659D01*
X124681078Y-75387004D01*
X124681076Y-75387005D01*
X124533242Y-75466024D01*
X124372823Y-75514687D01*
X124247804Y-75527000D01*
X124164196Y-75527000D01*
X124039177Y-75514687D01*
X123878758Y-75466024D01*
X123730924Y-75387005D01*
X123730922Y-75387004D01*
X123601341Y-75280659D01*
X123494996Y-75151078D01*
X123473445Y-75110758D01*
X123415976Y-75003242D01*
X123367313Y-74842823D01*
X123350883Y-74676000D01*
X123367313Y-74509177D01*
X123415976Y-74348758D01*
X123494995Y-74200924D01*
X123494996Y-74200922D01*
X123601341Y-74071341D01*
X123730922Y-73964996D01*
X123809078Y-73923221D01*
X123878758Y-73885976D01*
X124039177Y-73837313D01*
X124164196Y-73825000D01*
X124247804Y-73825000D01*
X124372823Y-73837313D01*
X124372823Y-73837313D01*
G37*
G36*
X170092823Y-73837313D02*
G01*
X170253242Y-73885976D01*
X170322922Y-73923221D01*
X170401078Y-73964996D01*
X170530659Y-74071341D01*
X170637004Y-74200922D01*
X170637005Y-74200924D01*
X170716024Y-74348758D01*
X170764687Y-74509177D01*
X170781117Y-74676000D01*
X170764687Y-74842823D01*
X170716024Y-75003242D01*
X170658555Y-75110758D01*
X170637004Y-75151078D01*
X170530659Y-75280659D01*
X170401078Y-75387004D01*
X170401076Y-75387005D01*
X170253242Y-75466024D01*
X170092823Y-75514687D01*
X169967804Y-75527000D01*
X169884196Y-75527000D01*
X169759177Y-75514687D01*
X169598758Y-75466024D01*
X169450924Y-75387005D01*
X169450922Y-75387004D01*
X169321341Y-75280659D01*
X169214996Y-75151078D01*
X169193445Y-75110758D01*
X169135976Y-75003242D01*
X169087313Y-74842823D01*
X169070883Y-74676000D01*
X169087313Y-74509177D01*
X169135976Y-74348758D01*
X169214995Y-74200924D01*
X169214996Y-74200922D01*
X169321341Y-74071341D01*
X169450922Y-73964996D01*
X169529078Y-73923221D01*
X169598758Y-73885976D01*
X169759177Y-73837313D01*
X169884196Y-73825000D01*
X169967804Y-73825000D01*
X170092823Y-73837313D01*
X170092823Y-73837313D01*
G37*
G36*
X217534443Y-71241519D02*
G01*
X217600627Y-71248037D01*
X217770466Y-71299557D01*
X217926991Y-71383222D01*
X217962729Y-71412552D01*
X218064186Y-71495814D01*
X218147448Y-71597271D01*
X218176778Y-71633009D01*
X218260443Y-71789534D01*
X218311963Y-71959373D01*
X218329359Y-72136000D01*
X218311963Y-72312627D01*
X218260443Y-72482466D01*
X218176778Y-72638991D01*
X218147448Y-72674729D01*
X218064186Y-72776186D01*
X217962729Y-72859448D01*
X217926991Y-72888778D01*
X217770466Y-72972443D01*
X217600627Y-73023963D01*
X217534443Y-73030481D01*
X217468260Y-73037000D01*
X217379740Y-73037000D01*
X217313557Y-73030481D01*
X217247373Y-73023963D01*
X217077534Y-72972443D01*
X216921009Y-72888778D01*
X216885271Y-72859448D01*
X216783814Y-72776186D01*
X216700552Y-72674729D01*
X216671222Y-72638991D01*
X216587557Y-72482466D01*
X216536037Y-72312627D01*
X216518641Y-72136000D01*
X216536037Y-71959373D01*
X216587557Y-71789534D01*
X216671222Y-71633009D01*
X216700552Y-71597271D01*
X216783814Y-71495814D01*
X216885271Y-71412552D01*
X216921009Y-71383222D01*
X217077534Y-71299557D01*
X217247373Y-71248037D01*
X217313557Y-71241519D01*
X217379740Y-71235000D01*
X217468260Y-71235000D01*
X217534443Y-71241519D01*
X217534443Y-71241519D01*
G37*
G36*
X113196823Y-70789313D02*
G01*
X113357242Y-70837976D01*
X113489906Y-70908886D01*
X113505078Y-70916996D01*
X113634659Y-71023341D01*
X113741004Y-71152922D01*
X113741005Y-71152924D01*
X113820024Y-71300758D01*
X113868687Y-71461177D01*
X113885117Y-71628000D01*
X113868687Y-71794823D01*
X113820024Y-71955242D01*
X113749114Y-72087906D01*
X113741004Y-72103078D01*
X113634659Y-72232659D01*
X113505078Y-72339004D01*
X113505076Y-72339005D01*
X113357242Y-72418024D01*
X113196823Y-72466687D01*
X113071804Y-72479000D01*
X112988196Y-72479000D01*
X112863177Y-72466687D01*
X112702758Y-72418024D01*
X112554924Y-72339005D01*
X112554922Y-72339004D01*
X112425341Y-72232659D01*
X112318996Y-72103078D01*
X112310886Y-72087906D01*
X112239976Y-71955242D01*
X112191313Y-71794823D01*
X112174883Y-71628000D01*
X112191313Y-71461177D01*
X112239976Y-71300758D01*
X112318995Y-71152924D01*
X112318996Y-71152922D01*
X112425341Y-71023341D01*
X112554922Y-70916996D01*
X112570094Y-70908886D01*
X112702758Y-70837976D01*
X112863177Y-70789313D01*
X112988196Y-70777000D01*
X113071804Y-70777000D01*
X113196823Y-70789313D01*
X113196823Y-70789313D01*
G37*
G36*
X105576823Y-70789313D02*
G01*
X105737242Y-70837976D01*
X105869906Y-70908886D01*
X105885078Y-70916996D01*
X106014659Y-71023341D01*
X106121004Y-71152922D01*
X106121005Y-71152924D01*
X106200024Y-71300758D01*
X106248687Y-71461177D01*
X106265117Y-71628000D01*
X106248687Y-71794823D01*
X106200024Y-71955242D01*
X106129114Y-72087906D01*
X106121004Y-72103078D01*
X106014659Y-72232659D01*
X105885078Y-72339004D01*
X105885076Y-72339005D01*
X105737242Y-72418024D01*
X105576823Y-72466687D01*
X105451804Y-72479000D01*
X105368196Y-72479000D01*
X105243177Y-72466687D01*
X105082758Y-72418024D01*
X104934924Y-72339005D01*
X104934922Y-72339004D01*
X104805341Y-72232659D01*
X104698996Y-72103078D01*
X104690886Y-72087906D01*
X104619976Y-71955242D01*
X104571313Y-71794823D01*
X104554883Y-71628000D01*
X104571313Y-71461177D01*
X104619976Y-71300758D01*
X104698995Y-71152924D01*
X104698996Y-71152922D01*
X104805341Y-71023341D01*
X104934922Y-70916996D01*
X104950094Y-70908886D01*
X105082758Y-70837976D01*
X105243177Y-70789313D01*
X105368196Y-70777000D01*
X105451804Y-70777000D01*
X105576823Y-70789313D01*
X105576823Y-70789313D01*
G37*
G36*
X218325000Y-70497000D02*
G01*
X216523000Y-70497000D01*
X216523000Y-68695000D01*
X218325000Y-68695000D01*
X218325000Y-70497000D01*
X218325000Y-70497000D01*
G37*
G36*
X105576823Y-68249313D02*
G01*
X105737242Y-68297976D01*
X105869906Y-68368886D01*
X105885078Y-68376996D01*
X106014659Y-68483341D01*
X106121004Y-68612922D01*
X106121005Y-68612924D01*
X106200024Y-68760758D01*
X106248687Y-68921177D01*
X106265117Y-69088000D01*
X106248687Y-69254823D01*
X106200024Y-69415242D01*
X106129114Y-69547906D01*
X106121004Y-69563078D01*
X106014659Y-69692659D01*
X105885078Y-69799004D01*
X105885076Y-69799005D01*
X105737242Y-69878024D01*
X105576823Y-69926687D01*
X105451804Y-69939000D01*
X105368196Y-69939000D01*
X105243177Y-69926687D01*
X105082758Y-69878024D01*
X104934924Y-69799005D01*
X104934922Y-69799004D01*
X104805341Y-69692659D01*
X104698996Y-69563078D01*
X104690886Y-69547906D01*
X104619976Y-69415242D01*
X104571313Y-69254823D01*
X104554883Y-69088000D01*
X104571313Y-68921177D01*
X104619976Y-68760758D01*
X104698995Y-68612924D01*
X104698996Y-68612922D01*
X104805341Y-68483341D01*
X104934922Y-68376996D01*
X104950094Y-68368886D01*
X105082758Y-68297976D01*
X105243177Y-68249313D01*
X105368196Y-68237000D01*
X105451804Y-68237000D01*
X105576823Y-68249313D01*
X105576823Y-68249313D01*
G37*
G36*
X113196823Y-68249313D02*
G01*
X113357242Y-68297976D01*
X113489906Y-68368886D01*
X113505078Y-68376996D01*
X113634659Y-68483341D01*
X113741004Y-68612922D01*
X113741005Y-68612924D01*
X113820024Y-68760758D01*
X113868687Y-68921177D01*
X113885117Y-69088000D01*
X113868687Y-69254823D01*
X113820024Y-69415242D01*
X113749114Y-69547906D01*
X113741004Y-69563078D01*
X113634659Y-69692659D01*
X113505078Y-69799004D01*
X113505076Y-69799005D01*
X113357242Y-69878024D01*
X113196823Y-69926687D01*
X113071804Y-69939000D01*
X112988196Y-69939000D01*
X112863177Y-69926687D01*
X112702758Y-69878024D01*
X112554924Y-69799005D01*
X112554922Y-69799004D01*
X112425341Y-69692659D01*
X112318996Y-69563078D01*
X112310886Y-69547906D01*
X112239976Y-69415242D01*
X112191313Y-69254823D01*
X112174883Y-69088000D01*
X112191313Y-68921177D01*
X112239976Y-68760758D01*
X112318995Y-68612924D01*
X112318996Y-68612922D01*
X112425341Y-68483341D01*
X112554922Y-68376996D01*
X112570094Y-68368886D01*
X112702758Y-68297976D01*
X112863177Y-68249313D01*
X112988196Y-68237000D01*
X113071804Y-68237000D01*
X113196823Y-68249313D01*
X113196823Y-68249313D01*
G37*
G36*
X105576823Y-65709313D02*
G01*
X105737242Y-65757976D01*
X105869906Y-65828886D01*
X105885078Y-65836996D01*
X106014659Y-65943341D01*
X106121004Y-66072922D01*
X106121005Y-66072924D01*
X106200024Y-66220758D01*
X106248687Y-66381177D01*
X106265117Y-66548000D01*
X106248687Y-66714823D01*
X106200024Y-66875242D01*
X106129114Y-67007906D01*
X106121004Y-67023078D01*
X106014659Y-67152659D01*
X105885078Y-67259004D01*
X105885076Y-67259005D01*
X105737242Y-67338024D01*
X105576823Y-67386687D01*
X105451804Y-67399000D01*
X105368196Y-67399000D01*
X105243177Y-67386687D01*
X105082758Y-67338024D01*
X104934924Y-67259005D01*
X104934922Y-67259004D01*
X104805341Y-67152659D01*
X104698996Y-67023078D01*
X104690886Y-67007906D01*
X104619976Y-66875242D01*
X104571313Y-66714823D01*
X104554883Y-66548000D01*
X104571313Y-66381177D01*
X104619976Y-66220758D01*
X104698995Y-66072924D01*
X104698996Y-66072922D01*
X104805341Y-65943341D01*
X104934922Y-65836996D01*
X104950094Y-65828886D01*
X105082758Y-65757976D01*
X105243177Y-65709313D01*
X105368196Y-65697000D01*
X105451804Y-65697000D01*
X105576823Y-65709313D01*
X105576823Y-65709313D01*
G37*
G36*
X113196823Y-65709313D02*
G01*
X113357242Y-65757976D01*
X113489906Y-65828886D01*
X113505078Y-65836996D01*
X113634659Y-65943341D01*
X113741004Y-66072922D01*
X113741005Y-66072924D01*
X113820024Y-66220758D01*
X113868687Y-66381177D01*
X113885117Y-66548000D01*
X113868687Y-66714823D01*
X113820024Y-66875242D01*
X113749114Y-67007906D01*
X113741004Y-67023078D01*
X113634659Y-67152659D01*
X113505078Y-67259004D01*
X113505076Y-67259005D01*
X113357242Y-67338024D01*
X113196823Y-67386687D01*
X113071804Y-67399000D01*
X112988196Y-67399000D01*
X112863177Y-67386687D01*
X112702758Y-67338024D01*
X112554924Y-67259005D01*
X112554922Y-67259004D01*
X112425341Y-67152659D01*
X112318996Y-67023078D01*
X112310886Y-67007906D01*
X112239976Y-66875242D01*
X112191313Y-66714823D01*
X112174883Y-66548000D01*
X112191313Y-66381177D01*
X112239976Y-66220758D01*
X112318995Y-66072924D01*
X112318996Y-66072922D01*
X112425341Y-65943341D01*
X112554922Y-65836996D01*
X112570094Y-65828886D01*
X112702758Y-65757976D01*
X112863177Y-65709313D01*
X112988196Y-65697000D01*
X113071804Y-65697000D01*
X113196823Y-65709313D01*
X113196823Y-65709313D01*
G37*
G36*
X161456823Y-63169313D02*
G01*
X161617242Y-63217976D01*
X161684361Y-63253852D01*
X161765078Y-63296996D01*
X161894659Y-63403341D01*
X162001004Y-63532922D01*
X162001005Y-63532924D01*
X162080024Y-63680758D01*
X162128687Y-63841177D01*
X162145117Y-64008000D01*
X162128687Y-64174823D01*
X162080024Y-64335242D01*
X162039477Y-64411100D01*
X162001004Y-64483078D01*
X161894659Y-64612659D01*
X161765078Y-64719004D01*
X161765076Y-64719005D01*
X161617242Y-64798024D01*
X161456823Y-64846687D01*
X161331804Y-64859000D01*
X161248196Y-64859000D01*
X161123177Y-64846687D01*
X160962758Y-64798024D01*
X160814924Y-64719005D01*
X160814922Y-64719004D01*
X160685341Y-64612659D01*
X160578996Y-64483078D01*
X160540523Y-64411100D01*
X160499976Y-64335242D01*
X160451313Y-64174823D01*
X160434883Y-64008000D01*
X160451313Y-63841177D01*
X160499976Y-63680758D01*
X160578995Y-63532924D01*
X160578996Y-63532922D01*
X160685341Y-63403341D01*
X160814922Y-63296996D01*
X160895639Y-63253852D01*
X160962758Y-63217976D01*
X161123177Y-63169313D01*
X161248196Y-63157000D01*
X161331804Y-63157000D01*
X161456823Y-63169313D01*
X161456823Y-63169313D01*
G37*
G36*
X153918228Y-63189703D02*
G01*
X154073100Y-63253853D01*
X154212481Y-63346985D01*
X154331015Y-63465519D01*
X154424147Y-63604900D01*
X154488297Y-63759772D01*
X154521000Y-63924184D01*
X154521000Y-64091816D01*
X154488297Y-64256228D01*
X154424147Y-64411100D01*
X154331015Y-64550481D01*
X154212481Y-64669015D01*
X154073100Y-64762147D01*
X153918228Y-64826297D01*
X153753816Y-64859000D01*
X153586184Y-64859000D01*
X153421772Y-64826297D01*
X153266900Y-64762147D01*
X153127519Y-64669015D01*
X153008985Y-64550481D01*
X152915853Y-64411100D01*
X152851703Y-64256228D01*
X152819000Y-64091816D01*
X152819000Y-63924184D01*
X152851703Y-63759772D01*
X152915853Y-63604900D01*
X153008985Y-63465519D01*
X153127519Y-63346985D01*
X153266900Y-63253853D01*
X153421772Y-63189703D01*
X153586184Y-63157000D01*
X153753816Y-63157000D01*
X153918228Y-63189703D01*
X153918228Y-63189703D01*
G37*
G36*
X113196823Y-63169313D02*
G01*
X113357242Y-63217976D01*
X113424361Y-63253852D01*
X113505078Y-63296996D01*
X113634659Y-63403341D01*
X113741004Y-63532922D01*
X113741005Y-63532924D01*
X113820024Y-63680758D01*
X113868687Y-63841177D01*
X113885117Y-64008000D01*
X113868687Y-64174823D01*
X113820024Y-64335242D01*
X113779477Y-64411100D01*
X113741004Y-64483078D01*
X113634659Y-64612659D01*
X113505078Y-64719004D01*
X113505076Y-64719005D01*
X113357242Y-64798024D01*
X113196823Y-64846687D01*
X113071804Y-64859000D01*
X112988196Y-64859000D01*
X112863177Y-64846687D01*
X112702758Y-64798024D01*
X112554924Y-64719005D01*
X112554922Y-64719004D01*
X112425341Y-64612659D01*
X112318996Y-64483078D01*
X112280523Y-64411100D01*
X112239976Y-64335242D01*
X112191313Y-64174823D01*
X112174883Y-64008000D01*
X112191313Y-63841177D01*
X112239976Y-63680758D01*
X112318995Y-63532924D01*
X112318996Y-63532922D01*
X112425341Y-63403341D01*
X112554922Y-63296996D01*
X112635639Y-63253852D01*
X112702758Y-63217976D01*
X112863177Y-63169313D01*
X112988196Y-63157000D01*
X113071804Y-63157000D01*
X113196823Y-63169313D01*
X113196823Y-63169313D01*
G37*
G36*
X106261000Y-64859000D02*
G01*
X104559000Y-64859000D01*
X104559000Y-63157000D01*
X106261000Y-63157000D01*
X106261000Y-64859000D01*
X106261000Y-64859000D01*
G37*
G36*
X127901000Y-62623000D02*
G01*
X126099000Y-62623000D01*
X126099000Y-60821000D01*
X127901000Y-60821000D01*
X127901000Y-62623000D01*
X127901000Y-62623000D01*
G37*
G36*
X139810443Y-60827519D02*
G01*
X139876627Y-60834037D01*
X140046466Y-60885557D01*
X140202991Y-60969222D01*
X140225901Y-60988024D01*
X140340186Y-61081814D01*
X140423448Y-61183271D01*
X140452778Y-61219009D01*
X140536443Y-61375534D01*
X140587963Y-61545373D01*
X140605359Y-61722000D01*
X140587963Y-61898627D01*
X140536443Y-62068466D01*
X140452778Y-62224991D01*
X140423448Y-62260729D01*
X140340186Y-62362186D01*
X140238729Y-62445448D01*
X140202991Y-62474778D01*
X140046466Y-62558443D01*
X139876627Y-62609963D01*
X139810442Y-62616482D01*
X139744260Y-62623000D01*
X139655740Y-62623000D01*
X139589558Y-62616482D01*
X139523373Y-62609963D01*
X139353534Y-62558443D01*
X139197009Y-62474778D01*
X139161271Y-62445448D01*
X139059814Y-62362186D01*
X138976552Y-62260729D01*
X138947222Y-62224991D01*
X138863557Y-62068466D01*
X138812037Y-61898627D01*
X138794641Y-61722000D01*
X138812037Y-61545373D01*
X138863557Y-61375534D01*
X138947222Y-61219009D01*
X138976552Y-61183271D01*
X139059814Y-61081814D01*
X139174099Y-60988024D01*
X139197009Y-60969222D01*
X139353534Y-60885557D01*
X139523373Y-60834037D01*
X139589557Y-60827519D01*
X139655740Y-60821000D01*
X139744260Y-60821000D01*
X139810443Y-60827519D01*
X139810443Y-60827519D01*
G37*
G36*
X134730443Y-60827519D02*
G01*
X134796627Y-60834037D01*
X134966466Y-60885557D01*
X135122991Y-60969222D01*
X135145901Y-60988024D01*
X135260186Y-61081814D01*
X135343448Y-61183271D01*
X135372778Y-61219009D01*
X135456443Y-61375534D01*
X135507963Y-61545373D01*
X135525359Y-61722000D01*
X135507963Y-61898627D01*
X135456443Y-62068466D01*
X135372778Y-62224991D01*
X135343448Y-62260729D01*
X135260186Y-62362186D01*
X135158729Y-62445448D01*
X135122991Y-62474778D01*
X134966466Y-62558443D01*
X134796627Y-62609963D01*
X134730442Y-62616482D01*
X134664260Y-62623000D01*
X134575740Y-62623000D01*
X134509558Y-62616482D01*
X134443373Y-62609963D01*
X134273534Y-62558443D01*
X134117009Y-62474778D01*
X134081271Y-62445448D01*
X133979814Y-62362186D01*
X133896552Y-62260729D01*
X133867222Y-62224991D01*
X133783557Y-62068466D01*
X133732037Y-61898627D01*
X133714641Y-61722000D01*
X133732037Y-61545373D01*
X133783557Y-61375534D01*
X133867222Y-61219009D01*
X133896552Y-61183271D01*
X133979814Y-61081814D01*
X134094099Y-60988024D01*
X134117009Y-60969222D01*
X134273534Y-60885557D01*
X134443373Y-60834037D01*
X134509557Y-60827519D01*
X134575740Y-60821000D01*
X134664260Y-60821000D01*
X134730443Y-60827519D01*
X134730443Y-60827519D01*
G37*
G36*
X132190443Y-60827519D02*
G01*
X132256627Y-60834037D01*
X132426466Y-60885557D01*
X132582991Y-60969222D01*
X132605901Y-60988024D01*
X132720186Y-61081814D01*
X132803448Y-61183271D01*
X132832778Y-61219009D01*
X132916443Y-61375534D01*
X132967963Y-61545373D01*
X132985359Y-61722000D01*
X132967963Y-61898627D01*
X132916443Y-62068466D01*
X132832778Y-62224991D01*
X132803448Y-62260729D01*
X132720186Y-62362186D01*
X132618729Y-62445448D01*
X132582991Y-62474778D01*
X132426466Y-62558443D01*
X132256627Y-62609963D01*
X132190442Y-62616482D01*
X132124260Y-62623000D01*
X132035740Y-62623000D01*
X131969558Y-62616482D01*
X131903373Y-62609963D01*
X131733534Y-62558443D01*
X131577009Y-62474778D01*
X131541271Y-62445448D01*
X131439814Y-62362186D01*
X131356552Y-62260729D01*
X131327222Y-62224991D01*
X131243557Y-62068466D01*
X131192037Y-61898627D01*
X131174641Y-61722000D01*
X131192037Y-61545373D01*
X131243557Y-61375534D01*
X131327222Y-61219009D01*
X131356552Y-61183271D01*
X131439814Y-61081814D01*
X131554099Y-60988024D01*
X131577009Y-60969222D01*
X131733534Y-60885557D01*
X131903373Y-60834037D01*
X131969557Y-60827519D01*
X132035740Y-60821000D01*
X132124260Y-60821000D01*
X132190443Y-60827519D01*
X132190443Y-60827519D01*
G37*
G36*
X137270443Y-60827519D02*
G01*
X137336627Y-60834037D01*
X137506466Y-60885557D01*
X137662991Y-60969222D01*
X137685901Y-60988024D01*
X137800186Y-61081814D01*
X137883448Y-61183271D01*
X137912778Y-61219009D01*
X137996443Y-61375534D01*
X138047963Y-61545373D01*
X138065359Y-61722000D01*
X138047963Y-61898627D01*
X137996443Y-62068466D01*
X137912778Y-62224991D01*
X137883448Y-62260729D01*
X137800186Y-62362186D01*
X137698729Y-62445448D01*
X137662991Y-62474778D01*
X137506466Y-62558443D01*
X137336627Y-62609963D01*
X137270442Y-62616482D01*
X137204260Y-62623000D01*
X137115740Y-62623000D01*
X137049558Y-62616482D01*
X136983373Y-62609963D01*
X136813534Y-62558443D01*
X136657009Y-62474778D01*
X136621271Y-62445448D01*
X136519814Y-62362186D01*
X136436552Y-62260729D01*
X136407222Y-62224991D01*
X136323557Y-62068466D01*
X136272037Y-61898627D01*
X136254641Y-61722000D01*
X136272037Y-61545373D01*
X136323557Y-61375534D01*
X136407222Y-61219009D01*
X136436552Y-61183271D01*
X136519814Y-61081814D01*
X136634099Y-60988024D01*
X136657009Y-60969222D01*
X136813534Y-60885557D01*
X136983373Y-60834037D01*
X137049557Y-60827519D01*
X137115740Y-60821000D01*
X137204260Y-60821000D01*
X137270443Y-60827519D01*
X137270443Y-60827519D01*
G37*
G36*
X129650443Y-60827519D02*
G01*
X129716627Y-60834037D01*
X129886466Y-60885557D01*
X130042991Y-60969222D01*
X130065901Y-60988024D01*
X130180186Y-61081814D01*
X130263448Y-61183271D01*
X130292778Y-61219009D01*
X130376443Y-61375534D01*
X130427963Y-61545373D01*
X130445359Y-61722000D01*
X130427963Y-61898627D01*
X130376443Y-62068466D01*
X130292778Y-62224991D01*
X130263448Y-62260729D01*
X130180186Y-62362186D01*
X130078729Y-62445448D01*
X130042991Y-62474778D01*
X129886466Y-62558443D01*
X129716627Y-62609963D01*
X129650442Y-62616482D01*
X129584260Y-62623000D01*
X129495740Y-62623000D01*
X129429558Y-62616482D01*
X129363373Y-62609963D01*
X129193534Y-62558443D01*
X129037009Y-62474778D01*
X129001271Y-62445448D01*
X128899814Y-62362186D01*
X128816552Y-62260729D01*
X128787222Y-62224991D01*
X128703557Y-62068466D01*
X128652037Y-61898627D01*
X128634641Y-61722000D01*
X128652037Y-61545373D01*
X128703557Y-61375534D01*
X128787222Y-61219009D01*
X128816552Y-61183271D01*
X128899814Y-61081814D01*
X129014099Y-60988024D01*
X129037009Y-60969222D01*
X129193534Y-60885557D01*
X129363373Y-60834037D01*
X129429557Y-60827519D01*
X129495740Y-60821000D01*
X129584260Y-60821000D01*
X129650443Y-60827519D01*
X129650443Y-60827519D01*
G37*
G36*
X161202823Y-59359313D02*
G01*
X161363242Y-59407976D01*
X161430361Y-59443852D01*
X161511078Y-59486996D01*
X161640659Y-59593341D01*
X161747004Y-59722922D01*
X161747005Y-59722924D01*
X161826024Y-59870758D01*
X161874687Y-60031177D01*
X161891117Y-60198000D01*
X161874687Y-60364823D01*
X161826024Y-60525242D01*
X161785477Y-60601100D01*
X161747004Y-60673078D01*
X161640659Y-60802659D01*
X161511078Y-60909004D01*
X161511076Y-60909005D01*
X161363242Y-60988024D01*
X161202823Y-61036687D01*
X161077804Y-61049000D01*
X160994196Y-61049000D01*
X160869177Y-61036687D01*
X160708758Y-60988024D01*
X160560924Y-60909005D01*
X160560922Y-60909004D01*
X160431341Y-60802659D01*
X160324996Y-60673078D01*
X160286523Y-60601100D01*
X160245976Y-60525242D01*
X160197313Y-60364823D01*
X160180883Y-60198000D01*
X160197313Y-60031177D01*
X160245976Y-59870758D01*
X160324995Y-59722924D01*
X160324996Y-59722922D01*
X160431341Y-59593341D01*
X160560922Y-59486996D01*
X160641639Y-59443852D01*
X160708758Y-59407976D01*
X160869177Y-59359313D01*
X160994196Y-59347000D01*
X161077804Y-59347000D01*
X161202823Y-59359313D01*
X161202823Y-59359313D01*
G37*
G36*
X153664228Y-59379703D02*
G01*
X153819100Y-59443853D01*
X153958481Y-59536985D01*
X154077015Y-59655519D01*
X154170147Y-59794900D01*
X154234297Y-59949772D01*
X154267000Y-60114184D01*
X154267000Y-60281816D01*
X154234297Y-60446228D01*
X154170147Y-60601100D01*
X154077015Y-60740481D01*
X153958481Y-60859015D01*
X153819100Y-60952147D01*
X153664228Y-61016297D01*
X153499816Y-61049000D01*
X153332184Y-61049000D01*
X153167772Y-61016297D01*
X153012900Y-60952147D01*
X152873519Y-60859015D01*
X152754985Y-60740481D01*
X152661853Y-60601100D01*
X152597703Y-60446228D01*
X152565000Y-60281816D01*
X152565000Y-60114184D01*
X152597703Y-59949772D01*
X152661853Y-59794900D01*
X152754985Y-59655519D01*
X152873519Y-59536985D01*
X153012900Y-59443853D01*
X153167772Y-59379703D01*
X153332184Y-59347000D01*
X153499816Y-59347000D01*
X153664228Y-59379703D01*
X153664228Y-59379703D01*
G37*
G36*
X105393142Y-53574242D02*
G01*
X105541101Y-53635529D01*
X105674255Y-53724499D01*
X105787501Y-53837745D01*
X105876471Y-53970899D01*
X105937758Y-54118858D01*
X105969000Y-54275925D01*
X105969000Y-54436075D01*
X105937758Y-54593142D01*
X105876471Y-54741101D01*
X105787501Y-54874255D01*
X105674255Y-54987501D01*
X105541101Y-55076471D01*
X105393142Y-55137758D01*
X105236075Y-55169000D01*
X105075925Y-55169000D01*
X104918858Y-55137758D01*
X104770899Y-55076471D01*
X104637745Y-54987501D01*
X104524499Y-54874255D01*
X104435529Y-54741101D01*
X104374242Y-54593142D01*
X104343000Y-54436075D01*
X104343000Y-54275925D01*
X104374242Y-54118858D01*
X104435529Y-53970899D01*
X104524499Y-53837745D01*
X104637745Y-53724499D01*
X104770899Y-53635529D01*
X104918858Y-53574242D01*
X105075925Y-53543000D01*
X105236075Y-53543000D01*
X105393142Y-53574242D01*
X105393142Y-53574242D01*
G37*
G36*
X108509000Y-55169000D02*
G01*
X106883000Y-55169000D01*
X106883000Y-53543000D01*
X108509000Y-53543000D01*
X108509000Y-55169000D01*
X108509000Y-55169000D01*
G37*
G36*
X200937395Y-52679546D02*
G01*
X201110466Y-52751234D01*
X201110467Y-52751235D01*
X201266227Y-52855310D01*
X201398690Y-52987773D01*
X201398691Y-52987775D01*
X201502766Y-53143534D01*
X201574454Y-53316605D01*
X201611000Y-53500333D01*
X201611000Y-53687667D01*
X201574454Y-53871395D01*
X201502766Y-54044466D01*
X201502765Y-54044467D01*
X201398690Y-54200227D01*
X201266227Y-54332690D01*
X201187818Y-54385081D01*
X201110466Y-54436766D01*
X200937395Y-54508454D01*
X200753667Y-54545000D01*
X200566333Y-54545000D01*
X200382605Y-54508454D01*
X200209534Y-54436766D01*
X200132182Y-54385081D01*
X200053773Y-54332690D01*
X199921310Y-54200227D01*
X199817235Y-54044467D01*
X199817234Y-54044466D01*
X199745546Y-53871395D01*
X199709000Y-53687667D01*
X199709000Y-53500333D01*
X199745546Y-53316605D01*
X199817234Y-53143534D01*
X199921309Y-52987775D01*
X199921310Y-52987773D01*
X200053773Y-52855310D01*
X200209533Y-52751235D01*
X200209534Y-52751234D01*
X200382605Y-52679546D01*
X200566333Y-52643000D01*
X200753667Y-52643000D01*
X200937395Y-52679546D01*
X200937395Y-52679546D01*
G37*
G36*
X105393142Y-51034242D02*
G01*
X105541101Y-51095529D01*
X105674255Y-51184499D01*
X105787501Y-51297745D01*
X105876471Y-51430899D01*
X105937758Y-51578858D01*
X105969000Y-51735925D01*
X105969000Y-51896075D01*
X105937758Y-52053142D01*
X105876471Y-52201101D01*
X105787501Y-52334255D01*
X105674255Y-52447501D01*
X105541101Y-52536471D01*
X105393142Y-52597758D01*
X105236075Y-52629000D01*
X105075925Y-52629000D01*
X104918858Y-52597758D01*
X104770899Y-52536471D01*
X104637745Y-52447501D01*
X104524499Y-52334255D01*
X104435529Y-52201101D01*
X104374242Y-52053142D01*
X104343000Y-51896075D01*
X104343000Y-51735925D01*
X104374242Y-51578858D01*
X104435529Y-51430899D01*
X104524499Y-51297745D01*
X104637745Y-51184499D01*
X104770899Y-51095529D01*
X104918858Y-51034242D01*
X105075925Y-51003000D01*
X105236075Y-51003000D01*
X105393142Y-51034242D01*
X105393142Y-51034242D01*
G37*
G36*
X107933142Y-51034242D02*
G01*
X108081101Y-51095529D01*
X108214255Y-51184499D01*
X108327501Y-51297745D01*
X108416471Y-51430899D01*
X108477758Y-51578858D01*
X108509000Y-51735925D01*
X108509000Y-51896075D01*
X108477758Y-52053142D01*
X108416471Y-52201101D01*
X108327501Y-52334255D01*
X108214255Y-52447501D01*
X108081101Y-52536471D01*
X107933142Y-52597758D01*
X107776075Y-52629000D01*
X107615925Y-52629000D01*
X107458858Y-52597758D01*
X107310899Y-52536471D01*
X107177745Y-52447501D01*
X107064499Y-52334255D01*
X106975529Y-52201101D01*
X106914242Y-52053142D01*
X106883000Y-51896075D01*
X106883000Y-51735925D01*
X106914242Y-51578858D01*
X106975529Y-51430899D01*
X107064499Y-51297745D01*
X107177745Y-51184499D01*
X107310899Y-51095529D01*
X107458858Y-51034242D01*
X107615925Y-51003000D01*
X107776075Y-51003000D01*
X107933142Y-51034242D01*
X107933142Y-51034242D01*
G37*
G36*
X200937395Y-50139546D02*
G01*
X201110466Y-50211234D01*
X201110467Y-50211235D01*
X201266227Y-50315310D01*
X201398690Y-50447773D01*
X201398691Y-50447775D01*
X201502766Y-50603534D01*
X201574454Y-50776605D01*
X201611000Y-50960333D01*
X201611000Y-51147667D01*
X201574454Y-51331395D01*
X201502766Y-51504466D01*
X201502765Y-51504467D01*
X201398690Y-51660227D01*
X201266227Y-51792690D01*
X201187818Y-51845081D01*
X201110466Y-51896766D01*
X200937395Y-51968454D01*
X200753667Y-52005000D01*
X200566333Y-52005000D01*
X200382605Y-51968454D01*
X200209534Y-51896766D01*
X200132182Y-51845081D01*
X200053773Y-51792690D01*
X199921310Y-51660227D01*
X199817235Y-51504467D01*
X199817234Y-51504466D01*
X199745546Y-51331395D01*
X199709000Y-51147667D01*
X199709000Y-50960333D01*
X199745546Y-50776605D01*
X199817234Y-50603534D01*
X199921309Y-50447775D01*
X199921310Y-50447773D01*
X200053773Y-50315310D01*
X200209533Y-50211235D01*
X200209534Y-50211234D01*
X200382605Y-50139546D01*
X200566333Y-50103000D01*
X200753667Y-50103000D01*
X200937395Y-50139546D01*
X200937395Y-50139546D01*
G37*
G36*
X154317000Y-51701000D02*
G01*
X152515000Y-51701000D01*
X152515000Y-49899000D01*
X154317000Y-49899000D01*
X154317000Y-51701000D01*
X154317000Y-51701000D01*
G37*
G36*
X156066442Y-49905518D02*
G01*
X156132627Y-49912037D01*
X156302466Y-49963557D01*
X156458991Y-50047222D01*
X156471829Y-50057758D01*
X156596186Y-50159814D01*
X156638385Y-50211235D01*
X156708778Y-50297009D01*
X156792443Y-50453534D01*
X156843963Y-50623373D01*
X156861359Y-50800000D01*
X156843963Y-50976627D01*
X156792443Y-51146466D01*
X156708778Y-51302991D01*
X156685467Y-51331395D01*
X156596186Y-51440186D01*
X156517859Y-51504466D01*
X156458991Y-51552778D01*
X156302466Y-51636443D01*
X156132627Y-51687963D01*
X156066442Y-51694482D01*
X156000260Y-51701000D01*
X155911740Y-51701000D01*
X155845558Y-51694482D01*
X155779373Y-51687963D01*
X155609534Y-51636443D01*
X155453009Y-51552778D01*
X155394141Y-51504466D01*
X155315814Y-51440186D01*
X155226533Y-51331395D01*
X155203222Y-51302991D01*
X155119557Y-51146466D01*
X155068037Y-50976627D01*
X155050641Y-50800000D01*
X155068037Y-50623373D01*
X155119557Y-50453534D01*
X155203222Y-50297009D01*
X155273615Y-50211235D01*
X155315814Y-50159814D01*
X155440171Y-50057758D01*
X155453009Y-50047222D01*
X155609534Y-49963557D01*
X155779373Y-49912037D01*
X155845557Y-49905519D01*
X155911740Y-49899000D01*
X156000260Y-49899000D01*
X156066442Y-49905518D01*
X156066442Y-49905518D01*
G37*
G36*
X158606442Y-49905518D02*
G01*
X158672627Y-49912037D01*
X158842466Y-49963557D01*
X158998991Y-50047222D01*
X159011829Y-50057758D01*
X159136186Y-50159814D01*
X159178385Y-50211235D01*
X159248778Y-50297009D01*
X159332443Y-50453534D01*
X159383963Y-50623373D01*
X159401359Y-50800000D01*
X159383963Y-50976627D01*
X159332443Y-51146466D01*
X159248778Y-51302991D01*
X159225467Y-51331395D01*
X159136186Y-51440186D01*
X159057859Y-51504466D01*
X158998991Y-51552778D01*
X158842466Y-51636443D01*
X158672627Y-51687963D01*
X158606442Y-51694482D01*
X158540260Y-51701000D01*
X158451740Y-51701000D01*
X158385558Y-51694482D01*
X158319373Y-51687963D01*
X158149534Y-51636443D01*
X157993009Y-51552778D01*
X157934141Y-51504466D01*
X157855814Y-51440186D01*
X157766533Y-51331395D01*
X157743222Y-51302991D01*
X157659557Y-51146466D01*
X157608037Y-50976627D01*
X157590641Y-50800000D01*
X157608037Y-50623373D01*
X157659557Y-50453534D01*
X157743222Y-50297009D01*
X157813615Y-50211235D01*
X157855814Y-50159814D01*
X157980171Y-50057758D01*
X157993009Y-50047222D01*
X158149534Y-49963557D01*
X158319373Y-49912037D01*
X158385557Y-49905519D01*
X158451740Y-49899000D01*
X158540260Y-49899000D01*
X158606442Y-49905518D01*
X158606442Y-49905518D01*
G37*
G36*
X171081000Y-51193000D02*
G01*
X169279000Y-51193000D01*
X169279000Y-49391000D01*
X171081000Y-49391000D01*
X171081000Y-51193000D01*
X171081000Y-51193000D01*
G37*
G36*
X123837000Y-51193000D02*
G01*
X122035000Y-51193000D01*
X122035000Y-49391000D01*
X123837000Y-49391000D01*
X123837000Y-51193000D01*
X123837000Y-51193000D01*
G37*
G36*
X125586442Y-49397518D02*
G01*
X125652627Y-49404037D01*
X125822466Y-49455557D01*
X125822468Y-49455558D01*
X125900729Y-49497390D01*
X125978991Y-49539222D01*
X126014729Y-49568552D01*
X126116186Y-49651814D01*
X126199448Y-49753271D01*
X126228778Y-49789009D01*
X126312443Y-49945534D01*
X126363963Y-50115373D01*
X126381359Y-50292000D01*
X126363963Y-50468627D01*
X126312443Y-50638466D01*
X126228778Y-50794991D01*
X126224667Y-50800000D01*
X126116186Y-50932186D01*
X126014729Y-51015448D01*
X125978991Y-51044778D01*
X125822466Y-51128443D01*
X125652627Y-51179963D01*
X125606571Y-51184499D01*
X125520260Y-51193000D01*
X125431740Y-51193000D01*
X125345429Y-51184499D01*
X125299373Y-51179963D01*
X125129534Y-51128443D01*
X124973009Y-51044778D01*
X124937271Y-51015448D01*
X124835814Y-50932186D01*
X124727333Y-50800000D01*
X124723222Y-50794991D01*
X124639557Y-50638466D01*
X124588037Y-50468627D01*
X124570641Y-50292000D01*
X124588037Y-50115373D01*
X124639557Y-49945534D01*
X124723222Y-49789009D01*
X124752552Y-49753271D01*
X124835814Y-49651814D01*
X124937271Y-49568552D01*
X124973009Y-49539222D01*
X125051272Y-49497389D01*
X125129532Y-49455558D01*
X125129534Y-49455557D01*
X125299373Y-49404037D01*
X125365558Y-49397518D01*
X125431740Y-49391000D01*
X125520260Y-49391000D01*
X125586442Y-49397518D01*
X125586442Y-49397518D01*
G37*
G36*
X128126442Y-49397518D02*
G01*
X128192627Y-49404037D01*
X128362466Y-49455557D01*
X128362468Y-49455558D01*
X128440729Y-49497390D01*
X128518991Y-49539222D01*
X128554729Y-49568552D01*
X128656186Y-49651814D01*
X128739448Y-49753271D01*
X128768778Y-49789009D01*
X128852443Y-49945534D01*
X128903963Y-50115373D01*
X128921359Y-50292000D01*
X128903963Y-50468627D01*
X128852443Y-50638466D01*
X128768778Y-50794991D01*
X128764667Y-50800000D01*
X128656186Y-50932186D01*
X128554729Y-51015448D01*
X128518991Y-51044778D01*
X128362466Y-51128443D01*
X128192627Y-51179963D01*
X128146571Y-51184499D01*
X128060260Y-51193000D01*
X127971740Y-51193000D01*
X127885429Y-51184499D01*
X127839373Y-51179963D01*
X127669534Y-51128443D01*
X127513009Y-51044778D01*
X127477271Y-51015448D01*
X127375814Y-50932186D01*
X127267333Y-50800000D01*
X127263222Y-50794991D01*
X127179557Y-50638466D01*
X127128037Y-50468627D01*
X127110641Y-50292000D01*
X127128037Y-50115373D01*
X127179557Y-49945534D01*
X127263222Y-49789009D01*
X127292552Y-49753271D01*
X127375814Y-49651814D01*
X127477271Y-49568552D01*
X127513009Y-49539222D01*
X127591272Y-49497389D01*
X127669532Y-49455558D01*
X127669534Y-49455557D01*
X127839373Y-49404037D01*
X127905558Y-49397518D01*
X127971740Y-49391000D01*
X128060260Y-49391000D01*
X128126442Y-49397518D01*
X128126442Y-49397518D01*
G37*
G36*
X130666442Y-49397518D02*
G01*
X130732627Y-49404037D01*
X130902466Y-49455557D01*
X130902468Y-49455558D01*
X130980729Y-49497390D01*
X131058991Y-49539222D01*
X131094729Y-49568552D01*
X131196186Y-49651814D01*
X131279448Y-49753271D01*
X131308778Y-49789009D01*
X131392443Y-49945534D01*
X131443963Y-50115373D01*
X131461359Y-50292000D01*
X131443963Y-50468627D01*
X131392443Y-50638466D01*
X131308778Y-50794991D01*
X131304667Y-50800000D01*
X131196186Y-50932186D01*
X131094729Y-51015448D01*
X131058991Y-51044778D01*
X130902466Y-51128443D01*
X130732627Y-51179963D01*
X130686571Y-51184499D01*
X130600260Y-51193000D01*
X130511740Y-51193000D01*
X130425429Y-51184499D01*
X130379373Y-51179963D01*
X130209534Y-51128443D01*
X130053009Y-51044778D01*
X130017271Y-51015448D01*
X129915814Y-50932186D01*
X129807333Y-50800000D01*
X129803222Y-50794991D01*
X129719557Y-50638466D01*
X129668037Y-50468627D01*
X129650641Y-50292000D01*
X129668037Y-50115373D01*
X129719557Y-49945534D01*
X129803222Y-49789009D01*
X129832552Y-49753271D01*
X129915814Y-49651814D01*
X130017271Y-49568552D01*
X130053009Y-49539222D01*
X130131272Y-49497389D01*
X130209532Y-49455558D01*
X130209534Y-49455557D01*
X130379373Y-49404037D01*
X130445558Y-49397518D01*
X130511740Y-49391000D01*
X130600260Y-49391000D01*
X130666442Y-49397518D01*
X130666442Y-49397518D01*
G37*
G36*
X133206442Y-49397518D02*
G01*
X133272627Y-49404037D01*
X133442466Y-49455557D01*
X133442468Y-49455558D01*
X133520729Y-49497390D01*
X133598991Y-49539222D01*
X133634729Y-49568552D01*
X133736186Y-49651814D01*
X133819448Y-49753271D01*
X133848778Y-49789009D01*
X133932443Y-49945534D01*
X133983963Y-50115373D01*
X134001359Y-50292000D01*
X133983963Y-50468627D01*
X133932443Y-50638466D01*
X133848778Y-50794991D01*
X133844667Y-50800000D01*
X133736186Y-50932186D01*
X133634729Y-51015448D01*
X133598991Y-51044778D01*
X133442466Y-51128443D01*
X133272627Y-51179963D01*
X133226571Y-51184499D01*
X133140260Y-51193000D01*
X133051740Y-51193000D01*
X132965429Y-51184499D01*
X132919373Y-51179963D01*
X132749534Y-51128443D01*
X132593009Y-51044778D01*
X132557271Y-51015448D01*
X132455814Y-50932186D01*
X132347333Y-50800000D01*
X132343222Y-50794991D01*
X132259557Y-50638466D01*
X132208037Y-50468627D01*
X132190641Y-50292000D01*
X132208037Y-50115373D01*
X132259557Y-49945534D01*
X132343222Y-49789009D01*
X132372552Y-49753271D01*
X132455814Y-49651814D01*
X132557271Y-49568552D01*
X132593009Y-49539222D01*
X132671272Y-49497389D01*
X132749532Y-49455558D01*
X132749534Y-49455557D01*
X132919373Y-49404037D01*
X132985558Y-49397518D01*
X133051740Y-49391000D01*
X133140260Y-49391000D01*
X133206442Y-49397518D01*
X133206442Y-49397518D01*
G37*
G36*
X135746442Y-49397518D02*
G01*
X135812627Y-49404037D01*
X135982466Y-49455557D01*
X135982468Y-49455558D01*
X136060729Y-49497390D01*
X136138991Y-49539222D01*
X136174729Y-49568552D01*
X136276186Y-49651814D01*
X136359448Y-49753271D01*
X136388778Y-49789009D01*
X136472443Y-49945534D01*
X136523963Y-50115373D01*
X136541359Y-50292000D01*
X136523963Y-50468627D01*
X136472443Y-50638466D01*
X136388778Y-50794991D01*
X136384667Y-50800000D01*
X136276186Y-50932186D01*
X136174729Y-51015448D01*
X136138991Y-51044778D01*
X135982466Y-51128443D01*
X135812627Y-51179963D01*
X135766571Y-51184499D01*
X135680260Y-51193000D01*
X135591740Y-51193000D01*
X135505429Y-51184499D01*
X135459373Y-51179963D01*
X135289534Y-51128443D01*
X135133009Y-51044778D01*
X135097271Y-51015448D01*
X134995814Y-50932186D01*
X134887333Y-50800000D01*
X134883222Y-50794991D01*
X134799557Y-50638466D01*
X134748037Y-50468627D01*
X134730641Y-50292000D01*
X134748037Y-50115373D01*
X134799557Y-49945534D01*
X134883222Y-49789009D01*
X134912552Y-49753271D01*
X134995814Y-49651814D01*
X135097271Y-49568552D01*
X135133009Y-49539222D01*
X135211272Y-49497389D01*
X135289532Y-49455558D01*
X135289534Y-49455557D01*
X135459373Y-49404037D01*
X135525558Y-49397518D01*
X135591740Y-49391000D01*
X135680260Y-49391000D01*
X135746442Y-49397518D01*
X135746442Y-49397518D01*
G37*
G36*
X138286442Y-49397518D02*
G01*
X138352627Y-49404037D01*
X138522466Y-49455557D01*
X138522468Y-49455558D01*
X138600729Y-49497390D01*
X138678991Y-49539222D01*
X138714729Y-49568552D01*
X138816186Y-49651814D01*
X138899448Y-49753271D01*
X138928778Y-49789009D01*
X139012443Y-49945534D01*
X139063963Y-50115373D01*
X139081359Y-50292000D01*
X139063963Y-50468627D01*
X139012443Y-50638466D01*
X138928778Y-50794991D01*
X138924667Y-50800000D01*
X138816186Y-50932186D01*
X138714729Y-51015448D01*
X138678991Y-51044778D01*
X138522466Y-51128443D01*
X138352627Y-51179963D01*
X138306571Y-51184499D01*
X138220260Y-51193000D01*
X138131740Y-51193000D01*
X138045429Y-51184499D01*
X137999373Y-51179963D01*
X137829534Y-51128443D01*
X137673009Y-51044778D01*
X137637271Y-51015448D01*
X137535814Y-50932186D01*
X137427333Y-50800000D01*
X137423222Y-50794991D01*
X137339557Y-50638466D01*
X137288037Y-50468627D01*
X137270641Y-50292000D01*
X137288037Y-50115373D01*
X137339557Y-49945534D01*
X137423222Y-49789009D01*
X137452552Y-49753271D01*
X137535814Y-49651814D01*
X137637271Y-49568552D01*
X137673009Y-49539222D01*
X137751272Y-49497389D01*
X137829532Y-49455558D01*
X137829534Y-49455557D01*
X137999373Y-49404037D01*
X138065558Y-49397518D01*
X138131740Y-49391000D01*
X138220260Y-49391000D01*
X138286442Y-49397518D01*
X138286442Y-49397518D01*
G37*
G36*
X140826442Y-49397518D02*
G01*
X140892627Y-49404037D01*
X141062466Y-49455557D01*
X141062468Y-49455558D01*
X141140729Y-49497390D01*
X141218991Y-49539222D01*
X141254729Y-49568552D01*
X141356186Y-49651814D01*
X141439448Y-49753271D01*
X141468778Y-49789009D01*
X141552443Y-49945534D01*
X141603963Y-50115373D01*
X141621359Y-50292000D01*
X141603963Y-50468627D01*
X141552443Y-50638466D01*
X141468778Y-50794991D01*
X141464667Y-50800000D01*
X141356186Y-50932186D01*
X141254729Y-51015448D01*
X141218991Y-51044778D01*
X141062466Y-51128443D01*
X140892627Y-51179963D01*
X140846571Y-51184499D01*
X140760260Y-51193000D01*
X140671740Y-51193000D01*
X140585429Y-51184499D01*
X140539373Y-51179963D01*
X140369534Y-51128443D01*
X140213009Y-51044778D01*
X140177271Y-51015448D01*
X140075814Y-50932186D01*
X139967333Y-50800000D01*
X139963222Y-50794991D01*
X139879557Y-50638466D01*
X139828037Y-50468627D01*
X139810641Y-50292000D01*
X139828037Y-50115373D01*
X139879557Y-49945534D01*
X139963222Y-49789009D01*
X139992552Y-49753271D01*
X140075814Y-49651814D01*
X140177271Y-49568552D01*
X140213009Y-49539222D01*
X140291272Y-49497389D01*
X140369532Y-49455558D01*
X140369534Y-49455557D01*
X140539373Y-49404037D01*
X140605558Y-49397518D01*
X140671740Y-49391000D01*
X140760260Y-49391000D01*
X140826442Y-49397518D01*
X140826442Y-49397518D01*
G37*
G36*
X180450442Y-49397518D02*
G01*
X180516627Y-49404037D01*
X180686466Y-49455557D01*
X180686468Y-49455558D01*
X180764729Y-49497390D01*
X180842991Y-49539222D01*
X180878729Y-49568552D01*
X180980186Y-49651814D01*
X181063448Y-49753271D01*
X181092778Y-49789009D01*
X181176443Y-49945534D01*
X181227963Y-50115373D01*
X181245359Y-50292000D01*
X181227963Y-50468627D01*
X181176443Y-50638466D01*
X181092778Y-50794991D01*
X181088667Y-50800000D01*
X180980186Y-50932186D01*
X180878729Y-51015448D01*
X180842991Y-51044778D01*
X180686466Y-51128443D01*
X180516627Y-51179963D01*
X180470571Y-51184499D01*
X180384260Y-51193000D01*
X180295740Y-51193000D01*
X180209429Y-51184499D01*
X180163373Y-51179963D01*
X179993534Y-51128443D01*
X179837009Y-51044778D01*
X179801271Y-51015448D01*
X179699814Y-50932186D01*
X179591333Y-50800000D01*
X179587222Y-50794991D01*
X179503557Y-50638466D01*
X179452037Y-50468627D01*
X179434641Y-50292000D01*
X179452037Y-50115373D01*
X179503557Y-49945534D01*
X179587222Y-49789009D01*
X179616552Y-49753271D01*
X179699814Y-49651814D01*
X179801271Y-49568552D01*
X179837009Y-49539222D01*
X179915271Y-49497390D01*
X179993532Y-49455558D01*
X179993534Y-49455557D01*
X180163373Y-49404037D01*
X180229558Y-49397518D01*
X180295740Y-49391000D01*
X180384260Y-49391000D01*
X180450442Y-49397518D01*
X180450442Y-49397518D01*
G37*
G36*
X177910442Y-49397518D02*
G01*
X177976627Y-49404037D01*
X178146466Y-49455557D01*
X178146468Y-49455558D01*
X178224729Y-49497390D01*
X178302991Y-49539222D01*
X178338729Y-49568552D01*
X178440186Y-49651814D01*
X178523448Y-49753271D01*
X178552778Y-49789009D01*
X178636443Y-49945534D01*
X178687963Y-50115373D01*
X178705359Y-50292000D01*
X178687963Y-50468627D01*
X178636443Y-50638466D01*
X178552778Y-50794991D01*
X178548667Y-50800000D01*
X178440186Y-50932186D01*
X178338729Y-51015448D01*
X178302991Y-51044778D01*
X178146466Y-51128443D01*
X177976627Y-51179963D01*
X177930571Y-51184499D01*
X177844260Y-51193000D01*
X177755740Y-51193000D01*
X177669429Y-51184499D01*
X177623373Y-51179963D01*
X177453534Y-51128443D01*
X177297009Y-51044778D01*
X177261271Y-51015448D01*
X177159814Y-50932186D01*
X177051333Y-50800000D01*
X177047222Y-50794991D01*
X176963557Y-50638466D01*
X176912037Y-50468627D01*
X176894641Y-50292000D01*
X176912037Y-50115373D01*
X176963557Y-49945534D01*
X177047222Y-49789009D01*
X177076552Y-49753271D01*
X177159814Y-49651814D01*
X177261271Y-49568552D01*
X177297009Y-49539222D01*
X177375271Y-49497390D01*
X177453532Y-49455558D01*
X177453534Y-49455557D01*
X177623373Y-49404037D01*
X177689558Y-49397518D01*
X177755740Y-49391000D01*
X177844260Y-49391000D01*
X177910442Y-49397518D01*
X177910442Y-49397518D01*
G37*
G36*
X175370442Y-49397518D02*
G01*
X175436627Y-49404037D01*
X175606466Y-49455557D01*
X175606468Y-49455558D01*
X175684729Y-49497390D01*
X175762991Y-49539222D01*
X175798729Y-49568552D01*
X175900186Y-49651814D01*
X175983448Y-49753271D01*
X176012778Y-49789009D01*
X176096443Y-49945534D01*
X176147963Y-50115373D01*
X176165359Y-50292000D01*
X176147963Y-50468627D01*
X176096443Y-50638466D01*
X176012778Y-50794991D01*
X176008667Y-50800000D01*
X175900186Y-50932186D01*
X175798729Y-51015448D01*
X175762991Y-51044778D01*
X175606466Y-51128443D01*
X175436627Y-51179963D01*
X175390571Y-51184499D01*
X175304260Y-51193000D01*
X175215740Y-51193000D01*
X175129429Y-51184499D01*
X175083373Y-51179963D01*
X174913534Y-51128443D01*
X174757009Y-51044778D01*
X174721271Y-51015448D01*
X174619814Y-50932186D01*
X174511333Y-50800000D01*
X174507222Y-50794991D01*
X174423557Y-50638466D01*
X174372037Y-50468627D01*
X174354641Y-50292000D01*
X174372037Y-50115373D01*
X174423557Y-49945534D01*
X174507222Y-49789009D01*
X174536552Y-49753271D01*
X174619814Y-49651814D01*
X174721271Y-49568552D01*
X174757009Y-49539222D01*
X174835272Y-49497389D01*
X174913532Y-49455558D01*
X174913534Y-49455557D01*
X175083373Y-49404037D01*
X175149558Y-49397518D01*
X175215740Y-49391000D01*
X175304260Y-49391000D01*
X175370442Y-49397518D01*
X175370442Y-49397518D01*
G37*
G36*
X172830442Y-49397518D02*
G01*
X172896627Y-49404037D01*
X173066466Y-49455557D01*
X173066468Y-49455558D01*
X173144729Y-49497390D01*
X173222991Y-49539222D01*
X173258729Y-49568552D01*
X173360186Y-49651814D01*
X173443448Y-49753271D01*
X173472778Y-49789009D01*
X173556443Y-49945534D01*
X173607963Y-50115373D01*
X173625359Y-50292000D01*
X173607963Y-50468627D01*
X173556443Y-50638466D01*
X173472778Y-50794991D01*
X173468667Y-50800000D01*
X173360186Y-50932186D01*
X173258729Y-51015448D01*
X173222991Y-51044778D01*
X173066466Y-51128443D01*
X172896627Y-51179963D01*
X172850571Y-51184499D01*
X172764260Y-51193000D01*
X172675740Y-51193000D01*
X172589429Y-51184499D01*
X172543373Y-51179963D01*
X172373534Y-51128443D01*
X172217009Y-51044778D01*
X172181271Y-51015448D01*
X172079814Y-50932186D01*
X171971333Y-50800000D01*
X171967222Y-50794991D01*
X171883557Y-50638466D01*
X171832037Y-50468627D01*
X171814641Y-50292000D01*
X171832037Y-50115373D01*
X171883557Y-49945534D01*
X171967222Y-49789009D01*
X171996552Y-49753271D01*
X172079814Y-49651814D01*
X172181271Y-49568552D01*
X172217009Y-49539222D01*
X172295272Y-49497389D01*
X172373532Y-49455558D01*
X172373534Y-49455557D01*
X172543373Y-49404037D01*
X172609558Y-49397518D01*
X172675740Y-49391000D01*
X172764260Y-49391000D01*
X172830442Y-49397518D01*
X172830442Y-49397518D01*
G37*
G36*
X105393142Y-48494242D02*
G01*
X105541101Y-48555529D01*
X105674255Y-48644499D01*
X105787501Y-48757745D01*
X105876471Y-48890899D01*
X105937758Y-49038858D01*
X105969000Y-49195925D01*
X105969000Y-49356075D01*
X105937758Y-49513142D01*
X105876471Y-49661101D01*
X105787501Y-49794255D01*
X105674255Y-49907501D01*
X105541101Y-49996471D01*
X105393142Y-50057758D01*
X105236075Y-50089000D01*
X105075925Y-50089000D01*
X104918858Y-50057758D01*
X104770899Y-49996471D01*
X104637745Y-49907501D01*
X104524499Y-49794255D01*
X104435529Y-49661101D01*
X104374242Y-49513142D01*
X104343000Y-49356075D01*
X104343000Y-49195925D01*
X104374242Y-49038858D01*
X104435529Y-48890899D01*
X104524499Y-48757745D01*
X104637745Y-48644499D01*
X104770899Y-48555529D01*
X104918858Y-48494242D01*
X105075925Y-48463000D01*
X105236075Y-48463000D01*
X105393142Y-48494242D01*
X105393142Y-48494242D01*
G37*
G36*
X107933142Y-48494242D02*
G01*
X108081101Y-48555529D01*
X108214255Y-48644499D01*
X108327501Y-48757745D01*
X108416471Y-48890899D01*
X108477758Y-49038858D01*
X108509000Y-49195925D01*
X108509000Y-49356075D01*
X108477758Y-49513142D01*
X108416471Y-49661101D01*
X108327501Y-49794255D01*
X108214255Y-49907501D01*
X108081101Y-49996471D01*
X107933142Y-50057758D01*
X107776075Y-50089000D01*
X107615925Y-50089000D01*
X107458858Y-50057758D01*
X107310899Y-49996471D01*
X107177745Y-49907501D01*
X107064499Y-49794255D01*
X106975529Y-49661101D01*
X106914242Y-49513142D01*
X106883000Y-49356075D01*
X106883000Y-49195925D01*
X106914242Y-49038858D01*
X106975529Y-48890899D01*
X107064499Y-48757745D01*
X107177745Y-48644499D01*
X107310899Y-48555529D01*
X107458858Y-48494242D01*
X107615925Y-48463000D01*
X107776075Y-48463000D01*
X107933142Y-48494242D01*
X107933142Y-48494242D01*
G37*
G36*
X200937395Y-47599546D02*
G01*
X201110466Y-47671234D01*
X201110467Y-47671235D01*
X201266227Y-47775310D01*
X201398690Y-47907773D01*
X201398691Y-47907775D01*
X201502766Y-48063534D01*
X201574454Y-48236605D01*
X201611000Y-48420333D01*
X201611000Y-48607667D01*
X201574454Y-48791395D01*
X201502766Y-48964466D01*
X201502765Y-48964467D01*
X201398690Y-49120227D01*
X201266227Y-49252690D01*
X201187818Y-49305081D01*
X201110466Y-49356766D01*
X200937395Y-49428454D01*
X200753667Y-49465000D01*
X200566333Y-49465000D01*
X200382605Y-49428454D01*
X200209534Y-49356766D01*
X200132182Y-49305081D01*
X200053773Y-49252690D01*
X199921310Y-49120227D01*
X199817235Y-48964467D01*
X199817234Y-48964466D01*
X199745546Y-48791395D01*
X199709000Y-48607667D01*
X199709000Y-48420333D01*
X199745546Y-48236605D01*
X199817234Y-48063534D01*
X199921309Y-47907775D01*
X199921310Y-47907773D01*
X200053773Y-47775310D01*
X200209533Y-47671235D01*
X200209534Y-47671234D01*
X200382605Y-47599546D01*
X200566333Y-47563000D01*
X200753667Y-47563000D01*
X200937395Y-47599546D01*
X200937395Y-47599546D01*
G37*
G36*
X105393142Y-45954242D02*
G01*
X105541101Y-46015529D01*
X105674255Y-46104499D01*
X105787501Y-46217745D01*
X105876471Y-46350899D01*
X105937758Y-46498858D01*
X105969000Y-46655925D01*
X105969000Y-46816075D01*
X105937758Y-46973142D01*
X105876471Y-47121101D01*
X105787501Y-47254255D01*
X105674255Y-47367501D01*
X105541101Y-47456471D01*
X105393142Y-47517758D01*
X105236075Y-47549000D01*
X105075925Y-47549000D01*
X104918858Y-47517758D01*
X104770899Y-47456471D01*
X104637745Y-47367501D01*
X104524499Y-47254255D01*
X104435529Y-47121101D01*
X104374242Y-46973142D01*
X104343000Y-46816075D01*
X104343000Y-46655925D01*
X104374242Y-46498858D01*
X104435529Y-46350899D01*
X104524499Y-46217745D01*
X104637745Y-46104499D01*
X104770899Y-46015529D01*
X104918858Y-45954242D01*
X105075925Y-45923000D01*
X105236075Y-45923000D01*
X105393142Y-45954242D01*
X105393142Y-45954242D01*
G37*
G36*
X107933142Y-45954242D02*
G01*
X108081101Y-46015529D01*
X108214255Y-46104499D01*
X108327501Y-46217745D01*
X108416471Y-46350899D01*
X108477758Y-46498858D01*
X108509000Y-46655925D01*
X108509000Y-46816075D01*
X108477758Y-46973142D01*
X108416471Y-47121101D01*
X108327501Y-47254255D01*
X108214255Y-47367501D01*
X108081101Y-47456471D01*
X107933142Y-47517758D01*
X107776075Y-47549000D01*
X107615925Y-47549000D01*
X107458858Y-47517758D01*
X107310899Y-47456471D01*
X107177745Y-47367501D01*
X107064499Y-47254255D01*
X106975529Y-47121101D01*
X106914242Y-46973142D01*
X106883000Y-46816075D01*
X106883000Y-46655925D01*
X106914242Y-46498858D01*
X106975529Y-46350899D01*
X107064499Y-46217745D01*
X107177745Y-46104499D01*
X107310899Y-46015529D01*
X107458858Y-45954242D01*
X107615925Y-45923000D01*
X107776075Y-45923000D01*
X107933142Y-45954242D01*
X107933142Y-45954242D01*
G37*
M02*
