G04 #@! TF.GenerationSoftware,KiCad,Pcbnew,5.1.1-8be2ce7~80~ubuntu18.04.1*
G04 #@! TF.CreationDate,2019-04-28T21:42:53-05:00*
G04 #@! TF.ProjectId,Proyecto,50726f79-6563-4746-9f2e-6b696361645f,rev?*
G04 #@! TF.SameCoordinates,Original*
G04 #@! TF.FileFunction,Legend,Top*
G04 #@! TF.FilePolarity,Positive*
%FSLAX46Y46*%
G04 Gerber Fmt 4.6, Leading zero omitted, Abs format (unit mm)*
G04 Created by KiCad (PCBNEW 5.1.1-8be2ce7~80~ubuntu18.04.1) date 2019-04-28 21:42:53*
%MOMM*%
%LPD*%
G04 APERTURE LIST*
%ADD10C,0.150000*%
%ADD11C,0.100000*%
%ADD12C,0.120000*%
G04 APERTURE END LIST*
D10*
X130024666Y-59126380D02*
X130024666Y-58126380D01*
X130024666Y-58602571D02*
X130596095Y-58602571D01*
X130596095Y-59126380D02*
X130596095Y-58126380D01*
X131643714Y-59031142D02*
X131596095Y-59078761D01*
X131453238Y-59126380D01*
X131358000Y-59126380D01*
X131215142Y-59078761D01*
X131119904Y-58983523D01*
X131072285Y-58888285D01*
X131024666Y-58697809D01*
X131024666Y-58554952D01*
X131072285Y-58364476D01*
X131119904Y-58269238D01*
X131215142Y-58174000D01*
X131358000Y-58126380D01*
X131453238Y-58126380D01*
X131596095Y-58174000D01*
X131643714Y-58221619D01*
X132072285Y-58745428D02*
X132834190Y-58745428D01*
X133500857Y-58126380D02*
X133596095Y-58126380D01*
X133691333Y-58174000D01*
X133738952Y-58221619D01*
X133786571Y-58316857D01*
X133834190Y-58507333D01*
X133834190Y-58745428D01*
X133786571Y-58935904D01*
X133738952Y-59031142D01*
X133691333Y-59078761D01*
X133596095Y-59126380D01*
X133500857Y-59126380D01*
X133405619Y-59078761D01*
X133358000Y-59031142D01*
X133310380Y-58935904D01*
X133262761Y-58745428D01*
X133262761Y-58507333D01*
X133310380Y-58316857D01*
X133358000Y-58221619D01*
X133405619Y-58174000D01*
X133500857Y-58126380D01*
X134738952Y-58126380D02*
X134262761Y-58126380D01*
X134215142Y-58602571D01*
X134262761Y-58554952D01*
X134358000Y-58507333D01*
X134596095Y-58507333D01*
X134691333Y-58554952D01*
X134738952Y-58602571D01*
X134786571Y-58697809D01*
X134786571Y-58935904D01*
X134738952Y-59031142D01*
X134691333Y-59078761D01*
X134596095Y-59126380D01*
X134358000Y-59126380D01*
X134262761Y-59078761D01*
X134215142Y-59031142D01*
X135929428Y-58078761D02*
X135072285Y-59364476D01*
X136453238Y-58126380D02*
X136548476Y-58126380D01*
X136643714Y-58174000D01*
X136691333Y-58221619D01*
X136738952Y-58316857D01*
X136786571Y-58507333D01*
X136786571Y-58745428D01*
X136738952Y-58935904D01*
X136691333Y-59031142D01*
X136643714Y-59078761D01*
X136548476Y-59126380D01*
X136453238Y-59126380D01*
X136358000Y-59078761D01*
X136310380Y-59031142D01*
X136262761Y-58935904D01*
X136215142Y-58745428D01*
X136215142Y-58507333D01*
X136262761Y-58316857D01*
X136310380Y-58221619D01*
X136358000Y-58174000D01*
X136453238Y-58126380D01*
X137643714Y-58126380D02*
X137453238Y-58126380D01*
X137358000Y-58174000D01*
X137310380Y-58221619D01*
X137215142Y-58364476D01*
X137167523Y-58554952D01*
X137167523Y-58935904D01*
X137215142Y-59031142D01*
X137262761Y-59078761D01*
X137358000Y-59126380D01*
X137548476Y-59126380D01*
X137643714Y-59078761D01*
X137691333Y-59031142D01*
X137738952Y-58935904D01*
X137738952Y-58697809D01*
X137691333Y-58602571D01*
X137643714Y-58554952D01*
X137548476Y-58507333D01*
X137358000Y-58507333D01*
X137262761Y-58554952D01*
X137215142Y-58602571D01*
X137167523Y-58697809D01*
X129992380Y-66198666D02*
X129516190Y-66532000D01*
X129992380Y-66770095D02*
X128992380Y-66770095D01*
X128992380Y-66389142D01*
X129040000Y-66293904D01*
X129087619Y-66246285D01*
X129182857Y-66198666D01*
X129325714Y-66198666D01*
X129420952Y-66246285D01*
X129468571Y-66293904D01*
X129516190Y-66389142D01*
X129516190Y-66770095D01*
X128992380Y-65865333D02*
X129992380Y-65198666D01*
X128992380Y-65198666D02*
X129992380Y-65865333D01*
X129992380Y-64817714D02*
X128992380Y-64817714D01*
X128992380Y-64579619D01*
X129040000Y-64436761D01*
X129135238Y-64341523D01*
X129230476Y-64293904D01*
X129420952Y-64246285D01*
X129563809Y-64246285D01*
X129754285Y-64293904D01*
X129849523Y-64341523D01*
X129944761Y-64436761D01*
X129992380Y-64579619D01*
X129992380Y-64817714D01*
X131786380Y-66793904D02*
X131786380Y-66222476D01*
X132786380Y-66508190D02*
X131786380Y-66508190D01*
X131786380Y-65984380D02*
X132786380Y-65317714D01*
X131786380Y-65317714D02*
X132786380Y-65984380D01*
X132786380Y-64936761D02*
X131786380Y-64936761D01*
X131786380Y-64698666D01*
X131834000Y-64555809D01*
X131929238Y-64460571D01*
X132024476Y-64412952D01*
X132214952Y-64365333D01*
X132357809Y-64365333D01*
X132548285Y-64412952D01*
X132643523Y-64460571D01*
X132738761Y-64555809D01*
X132786380Y-64698666D01*
X132786380Y-64936761D01*
X134374000Y-66293904D02*
X134326380Y-66389142D01*
X134326380Y-66532000D01*
X134374000Y-66674857D01*
X134469238Y-66770095D01*
X134564476Y-66817714D01*
X134754952Y-66865333D01*
X134897809Y-66865333D01*
X135088285Y-66817714D01*
X135183523Y-66770095D01*
X135278761Y-66674857D01*
X135326380Y-66532000D01*
X135326380Y-66436761D01*
X135278761Y-66293904D01*
X135231142Y-66246285D01*
X134897809Y-66246285D01*
X134897809Y-66436761D01*
X135326380Y-65817714D02*
X134326380Y-65817714D01*
X135326380Y-65246285D01*
X134326380Y-65246285D01*
X135326380Y-64770095D02*
X134326380Y-64770095D01*
X134326380Y-64532000D01*
X134374000Y-64389142D01*
X134469238Y-64293904D01*
X134564476Y-64246285D01*
X134754952Y-64198666D01*
X134897809Y-64198666D01*
X135088285Y-64246285D01*
X135183523Y-64293904D01*
X135278761Y-64389142D01*
X135326380Y-64532000D01*
X135326380Y-64770095D01*
X136612380Y-66865333D02*
X137612380Y-66532000D01*
X136612380Y-66198666D01*
X137517142Y-65293904D02*
X137564761Y-65341523D01*
X137612380Y-65484380D01*
X137612380Y-65579619D01*
X137564761Y-65722476D01*
X137469523Y-65817714D01*
X137374285Y-65865333D01*
X137183809Y-65912952D01*
X137040952Y-65912952D01*
X136850476Y-65865333D01*
X136755238Y-65817714D01*
X136660000Y-65722476D01*
X136612380Y-65579619D01*
X136612380Y-65484380D01*
X136660000Y-65341523D01*
X136707619Y-65293904D01*
X137517142Y-64293904D02*
X137564761Y-64341523D01*
X137612380Y-64484380D01*
X137612380Y-64579619D01*
X137564761Y-64722476D01*
X137469523Y-64817714D01*
X137374285Y-64865333D01*
X137183809Y-64912952D01*
X137040952Y-64912952D01*
X136850476Y-64865333D01*
X136755238Y-64817714D01*
X136660000Y-64722476D01*
X136612380Y-64579619D01*
X136612380Y-64484380D01*
X136660000Y-64341523D01*
X136707619Y-64293904D01*
X155297142Y-134024666D02*
X155344761Y-134072285D01*
X155392380Y-134215142D01*
X155392380Y-134310380D01*
X155344761Y-134453238D01*
X155249523Y-134548476D01*
X155154285Y-134596095D01*
X154963809Y-134643714D01*
X154820952Y-134643714D01*
X154630476Y-134596095D01*
X154535238Y-134548476D01*
X154440000Y-134453238D01*
X154392380Y-134310380D01*
X154392380Y-134215142D01*
X154440000Y-134072285D01*
X154487619Y-134024666D01*
X154725714Y-133167523D02*
X155392380Y-133167523D01*
X154344761Y-133405619D02*
X155059047Y-133643714D01*
X155059047Y-133024666D01*
X147931142Y-134024666D02*
X147978761Y-134072285D01*
X148026380Y-134215142D01*
X148026380Y-134310380D01*
X147978761Y-134453238D01*
X147883523Y-134548476D01*
X147788285Y-134596095D01*
X147597809Y-134643714D01*
X147454952Y-134643714D01*
X147264476Y-134596095D01*
X147169238Y-134548476D01*
X147074000Y-134453238D01*
X147026380Y-134310380D01*
X147026380Y-134215142D01*
X147074000Y-134072285D01*
X147121619Y-134024666D01*
X148026380Y-133072285D02*
X148026380Y-133643714D01*
X148026380Y-133358000D02*
X147026380Y-133358000D01*
X147169238Y-133453238D01*
X147264476Y-133548476D01*
X147312095Y-133643714D01*
X165282571Y-134191333D02*
X165282571Y-134524666D01*
X165806380Y-134524666D02*
X164806380Y-134524666D01*
X164806380Y-134048476D01*
X165139714Y-133238952D02*
X165806380Y-133238952D01*
X164758761Y-133477047D02*
X165473047Y-133715142D01*
X165473047Y-133096095D01*
X157408571Y-134191333D02*
X157408571Y-134524666D01*
X157932380Y-134524666D02*
X156932380Y-134524666D01*
X156932380Y-134048476D01*
X157932380Y-133143714D02*
X157932380Y-133715142D01*
X157932380Y-133429428D02*
X156932380Y-133429428D01*
X157075238Y-133524666D01*
X157170476Y-133619904D01*
X157218095Y-133715142D01*
X100576190Y-47188380D02*
X100576190Y-46188380D01*
X101623809Y-47188380D02*
X101290476Y-46712190D01*
X101052380Y-47188380D02*
X101052380Y-46188380D01*
X101433333Y-46188380D01*
X101528571Y-46236000D01*
X101576190Y-46283619D01*
X101623809Y-46378857D01*
X101623809Y-46521714D01*
X101576190Y-46616952D01*
X101528571Y-46664571D01*
X101433333Y-46712190D01*
X101052380Y-46712190D01*
X102719047Y-47283619D02*
X102623809Y-47236000D01*
X102528571Y-47140761D01*
X102385714Y-46997904D01*
X102290476Y-46950285D01*
X102195238Y-46950285D01*
X102242857Y-47188380D02*
X102147619Y-47140761D01*
X102052380Y-47045523D01*
X102004761Y-46855047D01*
X102004761Y-46521714D01*
X102052380Y-46331238D01*
X102147619Y-46236000D01*
X102242857Y-46188380D01*
X102433333Y-46188380D01*
X102528571Y-46236000D01*
X102623809Y-46331238D01*
X102671428Y-46521714D01*
X102671428Y-46855047D01*
X102623809Y-47045523D01*
X102528571Y-47140761D01*
X102433333Y-47188380D01*
X102242857Y-47188380D01*
X109934571Y-47188380D02*
X109934571Y-46188380D01*
X110267904Y-46902666D01*
X110601238Y-46188380D01*
X110601238Y-47188380D01*
X111077428Y-47188380D02*
X111077428Y-46188380D01*
X111506000Y-47140761D02*
X111648857Y-47188380D01*
X111886952Y-47188380D01*
X111982190Y-47140761D01*
X112029809Y-47093142D01*
X112077428Y-46997904D01*
X112077428Y-46902666D01*
X112029809Y-46807428D01*
X111982190Y-46759809D01*
X111886952Y-46712190D01*
X111696476Y-46664571D01*
X111601238Y-46616952D01*
X111553619Y-46569333D01*
X111506000Y-46474095D01*
X111506000Y-46378857D01*
X111553619Y-46283619D01*
X111601238Y-46236000D01*
X111696476Y-46188380D01*
X111934571Y-46188380D01*
X112077428Y-46236000D01*
X112696476Y-46188380D02*
X112886952Y-46188380D01*
X112982190Y-46236000D01*
X113077428Y-46331238D01*
X113125047Y-46521714D01*
X113125047Y-46855047D01*
X113077428Y-47045523D01*
X112982190Y-47140761D01*
X112886952Y-47188380D01*
X112696476Y-47188380D01*
X112601238Y-47140761D01*
X112506000Y-47045523D01*
X112458380Y-46855047D01*
X112458380Y-46521714D01*
X112506000Y-46331238D01*
X112601238Y-46236000D01*
X112696476Y-46188380D01*
X99774571Y-49728380D02*
X99774571Y-48728380D01*
X100107904Y-49442666D01*
X100441238Y-48728380D01*
X100441238Y-49728380D01*
X101107904Y-48728380D02*
X101298380Y-48728380D01*
X101393619Y-48776000D01*
X101488857Y-48871238D01*
X101536476Y-49061714D01*
X101536476Y-49395047D01*
X101488857Y-49585523D01*
X101393619Y-49680761D01*
X101298380Y-49728380D01*
X101107904Y-49728380D01*
X101012666Y-49680761D01*
X100917428Y-49585523D01*
X100869809Y-49395047D01*
X100869809Y-49061714D01*
X100917428Y-48871238D01*
X101012666Y-48776000D01*
X101107904Y-48728380D01*
X101917428Y-49680761D02*
X102060285Y-49728380D01*
X102298380Y-49728380D01*
X102393619Y-49680761D01*
X102441238Y-49633142D01*
X102488857Y-49537904D01*
X102488857Y-49442666D01*
X102441238Y-49347428D01*
X102393619Y-49299809D01*
X102298380Y-49252190D01*
X102107904Y-49204571D01*
X102012666Y-49156952D01*
X101965047Y-49109333D01*
X101917428Y-49014095D01*
X101917428Y-48918857D01*
X101965047Y-48823619D01*
X102012666Y-48776000D01*
X102107904Y-48728380D01*
X102346000Y-48728380D01*
X102488857Y-48776000D01*
X102917428Y-49728380D02*
X102917428Y-48728380D01*
X110839333Y-49633142D02*
X110791714Y-49680761D01*
X110648857Y-49728380D01*
X110553619Y-49728380D01*
X110410761Y-49680761D01*
X110315523Y-49585523D01*
X110267904Y-49490285D01*
X110220285Y-49299809D01*
X110220285Y-49156952D01*
X110267904Y-48966476D01*
X110315523Y-48871238D01*
X110410761Y-48776000D01*
X110553619Y-48728380D01*
X110648857Y-48728380D01*
X110791714Y-48776000D01*
X110839333Y-48823619D01*
X111220285Y-49680761D02*
X111363142Y-49728380D01*
X111601238Y-49728380D01*
X111696476Y-49680761D01*
X111744095Y-49633142D01*
X111791714Y-49537904D01*
X111791714Y-49442666D01*
X111744095Y-49347428D01*
X111696476Y-49299809D01*
X111601238Y-49252190D01*
X111410761Y-49204571D01*
X111315523Y-49156952D01*
X111267904Y-49109333D01*
X111220285Y-49014095D01*
X111220285Y-48918857D01*
X111267904Y-48823619D01*
X111315523Y-48776000D01*
X111410761Y-48728380D01*
X111648857Y-48728380D01*
X111791714Y-48776000D01*
X112220285Y-49728380D02*
X112220285Y-48728380D01*
X112791714Y-49728380D02*
X112363142Y-49156952D01*
X112791714Y-48728380D02*
X112220285Y-49299809D01*
X100909523Y-52173142D02*
X100861904Y-52220761D01*
X100719047Y-52268380D01*
X100623809Y-52268380D01*
X100480952Y-52220761D01*
X100385714Y-52125523D01*
X100338095Y-52030285D01*
X100290476Y-51839809D01*
X100290476Y-51696952D01*
X100338095Y-51506476D01*
X100385714Y-51411238D01*
X100480952Y-51316000D01*
X100623809Y-51268380D01*
X100719047Y-51268380D01*
X100861904Y-51316000D01*
X100909523Y-51363619D01*
X101290476Y-52220761D02*
X101433333Y-52268380D01*
X101671428Y-52268380D01*
X101766666Y-52220761D01*
X101814285Y-52173142D01*
X101861904Y-52077904D01*
X101861904Y-51982666D01*
X101814285Y-51887428D01*
X101766666Y-51839809D01*
X101671428Y-51792190D01*
X101480952Y-51744571D01*
X101385714Y-51696952D01*
X101338095Y-51649333D01*
X101290476Y-51554095D01*
X101290476Y-51458857D01*
X101338095Y-51363619D01*
X101385714Y-51316000D01*
X101480952Y-51268380D01*
X101719047Y-51268380D01*
X101861904Y-51316000D01*
X102290476Y-52268380D02*
X102290476Y-51268380D01*
X102861904Y-52268380D01*
X102861904Y-51268380D01*
X110855142Y-52427142D02*
X110807523Y-52474761D01*
X110664666Y-52522380D01*
X110569428Y-52522380D01*
X110426571Y-52474761D01*
X110331333Y-52379523D01*
X110283714Y-52284285D01*
X110236095Y-52093809D01*
X110236095Y-51950952D01*
X110283714Y-51760476D01*
X110331333Y-51665238D01*
X110426571Y-51570000D01*
X110569428Y-51522380D01*
X110664666Y-51522380D01*
X110807523Y-51570000D01*
X110855142Y-51617619D01*
X111283714Y-51998571D02*
X111617047Y-51998571D01*
X111759904Y-52522380D02*
X111283714Y-52522380D01*
X111283714Y-51522380D01*
X111759904Y-51522380D01*
X100266666Y-54062380D02*
X100600000Y-55062380D01*
X100933333Y-54062380D01*
X101838095Y-54967142D02*
X101790476Y-55014761D01*
X101647619Y-55062380D01*
X101552380Y-55062380D01*
X101409523Y-55014761D01*
X101314285Y-54919523D01*
X101266666Y-54824285D01*
X101219047Y-54633809D01*
X101219047Y-54490952D01*
X101266666Y-54300476D01*
X101314285Y-54205238D01*
X101409523Y-54110000D01*
X101552380Y-54062380D01*
X101647619Y-54062380D01*
X101790476Y-54110000D01*
X101838095Y-54157619D01*
X102838095Y-54967142D02*
X102790476Y-55014761D01*
X102647619Y-55062380D01*
X102552380Y-55062380D01*
X102409523Y-55014761D01*
X102314285Y-54919523D01*
X102266666Y-54824285D01*
X102219047Y-54633809D01*
X102219047Y-54490952D01*
X102266666Y-54300476D01*
X102314285Y-54205238D01*
X102409523Y-54110000D01*
X102552380Y-54062380D01*
X102647619Y-54062380D01*
X102790476Y-54110000D01*
X102838095Y-54157619D01*
X110744095Y-54110000D02*
X110648857Y-54062380D01*
X110506000Y-54062380D01*
X110363142Y-54110000D01*
X110267904Y-54205238D01*
X110220285Y-54300476D01*
X110172666Y-54490952D01*
X110172666Y-54633809D01*
X110220285Y-54824285D01*
X110267904Y-54919523D01*
X110363142Y-55014761D01*
X110506000Y-55062380D01*
X110601238Y-55062380D01*
X110744095Y-55014761D01*
X110791714Y-54967142D01*
X110791714Y-54633809D01*
X110601238Y-54633809D01*
X111220285Y-55062380D02*
X111220285Y-54062380D01*
X111791714Y-55062380D01*
X111791714Y-54062380D01*
X112267904Y-55062380D02*
X112267904Y-54062380D01*
X112506000Y-54062380D01*
X112648857Y-54110000D01*
X112744095Y-54205238D01*
X112791714Y-54300476D01*
X112839333Y-54490952D01*
X112839333Y-54633809D01*
X112791714Y-54824285D01*
X112744095Y-54919523D01*
X112648857Y-55014761D01*
X112506000Y-55062380D01*
X112267904Y-55062380D01*
X211931333Y-103576380D02*
X211598000Y-103100190D01*
X211359904Y-103576380D02*
X211359904Y-102576380D01*
X211740857Y-102576380D01*
X211836095Y-102624000D01*
X211883714Y-102671619D01*
X211931333Y-102766857D01*
X211931333Y-102909714D01*
X211883714Y-103004952D01*
X211836095Y-103052571D01*
X211740857Y-103100190D01*
X211359904Y-103100190D01*
X212359904Y-103576380D02*
X212359904Y-102576380D01*
X212598000Y-102576380D01*
X212740857Y-102624000D01*
X212836095Y-102719238D01*
X212883714Y-102814476D01*
X212931333Y-103004952D01*
X212931333Y-103147809D01*
X212883714Y-103338285D01*
X212836095Y-103433523D01*
X212740857Y-103528761D01*
X212598000Y-103576380D01*
X212359904Y-103576380D01*
X213264666Y-102576380D02*
X213931333Y-102576380D01*
X213502761Y-103576380D01*
X211931333Y-101036380D02*
X211598000Y-100560190D01*
X211359904Y-101036380D02*
X211359904Y-100036380D01*
X211740857Y-100036380D01*
X211836095Y-100084000D01*
X211883714Y-100131619D01*
X211931333Y-100226857D01*
X211931333Y-100369714D01*
X211883714Y-100464952D01*
X211836095Y-100512571D01*
X211740857Y-100560190D01*
X211359904Y-100560190D01*
X212359904Y-101036380D02*
X212359904Y-100036380D01*
X212598000Y-100036380D01*
X212740857Y-100084000D01*
X212836095Y-100179238D01*
X212883714Y-100274476D01*
X212931333Y-100464952D01*
X212931333Y-100607809D01*
X212883714Y-100798285D01*
X212836095Y-100893523D01*
X212740857Y-100988761D01*
X212598000Y-101036380D01*
X212359904Y-101036380D01*
X213788476Y-100036380D02*
X213598000Y-100036380D01*
X213502761Y-100084000D01*
X213455142Y-100131619D01*
X213359904Y-100274476D01*
X213312285Y-100464952D01*
X213312285Y-100845904D01*
X213359904Y-100941142D01*
X213407523Y-100988761D01*
X213502761Y-101036380D01*
X213693238Y-101036380D01*
X213788476Y-100988761D01*
X213836095Y-100941142D01*
X213883714Y-100845904D01*
X213883714Y-100607809D01*
X213836095Y-100512571D01*
X213788476Y-100464952D01*
X213693238Y-100417333D01*
X213502761Y-100417333D01*
X213407523Y-100464952D01*
X213359904Y-100512571D01*
X213312285Y-100607809D01*
X211931333Y-98496380D02*
X211598000Y-98020190D01*
X211359904Y-98496380D02*
X211359904Y-97496380D01*
X211740857Y-97496380D01*
X211836095Y-97544000D01*
X211883714Y-97591619D01*
X211931333Y-97686857D01*
X211931333Y-97829714D01*
X211883714Y-97924952D01*
X211836095Y-97972571D01*
X211740857Y-98020190D01*
X211359904Y-98020190D01*
X212359904Y-98496380D02*
X212359904Y-97496380D01*
X212598000Y-97496380D01*
X212740857Y-97544000D01*
X212836095Y-97639238D01*
X212883714Y-97734476D01*
X212931333Y-97924952D01*
X212931333Y-98067809D01*
X212883714Y-98258285D01*
X212836095Y-98353523D01*
X212740857Y-98448761D01*
X212598000Y-98496380D01*
X212359904Y-98496380D01*
X213836095Y-97496380D02*
X213359904Y-97496380D01*
X213312285Y-97972571D01*
X213359904Y-97924952D01*
X213455142Y-97877333D01*
X213693238Y-97877333D01*
X213788476Y-97924952D01*
X213836095Y-97972571D01*
X213883714Y-98067809D01*
X213883714Y-98305904D01*
X213836095Y-98401142D01*
X213788476Y-98448761D01*
X213693238Y-98496380D01*
X213455142Y-98496380D01*
X213359904Y-98448761D01*
X213312285Y-98401142D01*
X211931333Y-95702380D02*
X211598000Y-95226190D01*
X211359904Y-95702380D02*
X211359904Y-94702380D01*
X211740857Y-94702380D01*
X211836095Y-94750000D01*
X211883714Y-94797619D01*
X211931333Y-94892857D01*
X211931333Y-95035714D01*
X211883714Y-95130952D01*
X211836095Y-95178571D01*
X211740857Y-95226190D01*
X211359904Y-95226190D01*
X212359904Y-95702380D02*
X212359904Y-94702380D01*
X212598000Y-94702380D01*
X212740857Y-94750000D01*
X212836095Y-94845238D01*
X212883714Y-94940476D01*
X212931333Y-95130952D01*
X212931333Y-95273809D01*
X212883714Y-95464285D01*
X212836095Y-95559523D01*
X212740857Y-95654761D01*
X212598000Y-95702380D01*
X212359904Y-95702380D01*
X213788476Y-95035714D02*
X213788476Y-95702380D01*
X213550380Y-94654761D02*
X213312285Y-95369047D01*
X213931333Y-95369047D01*
X211931333Y-83002380D02*
X211598000Y-82526190D01*
X211359904Y-83002380D02*
X211359904Y-82002380D01*
X211740857Y-82002380D01*
X211836095Y-82050000D01*
X211883714Y-82097619D01*
X211931333Y-82192857D01*
X211931333Y-82335714D01*
X211883714Y-82430952D01*
X211836095Y-82478571D01*
X211740857Y-82526190D01*
X211359904Y-82526190D01*
X212693238Y-82478571D02*
X212836095Y-82526190D01*
X212883714Y-82573809D01*
X212931333Y-82669047D01*
X212931333Y-82811904D01*
X212883714Y-82907142D01*
X212836095Y-82954761D01*
X212740857Y-83002380D01*
X212359904Y-83002380D01*
X212359904Y-82002380D01*
X212693238Y-82002380D01*
X212788476Y-82050000D01*
X212836095Y-82097619D01*
X212883714Y-82192857D01*
X212883714Y-82288095D01*
X212836095Y-82383333D01*
X212788476Y-82430952D01*
X212693238Y-82478571D01*
X212359904Y-82478571D01*
X213264666Y-82002380D02*
X213931333Y-82002380D01*
X213502761Y-83002380D01*
X211931333Y-77922380D02*
X211598000Y-77446190D01*
X211359904Y-77922380D02*
X211359904Y-76922380D01*
X211740857Y-76922380D01*
X211836095Y-76970000D01*
X211883714Y-77017619D01*
X211931333Y-77112857D01*
X211931333Y-77255714D01*
X211883714Y-77350952D01*
X211836095Y-77398571D01*
X211740857Y-77446190D01*
X211359904Y-77446190D01*
X212693238Y-77398571D02*
X212836095Y-77446190D01*
X212883714Y-77493809D01*
X212931333Y-77589047D01*
X212931333Y-77731904D01*
X212883714Y-77827142D01*
X212836095Y-77874761D01*
X212740857Y-77922380D01*
X212359904Y-77922380D01*
X212359904Y-76922380D01*
X212693238Y-76922380D01*
X212788476Y-76970000D01*
X212836095Y-77017619D01*
X212883714Y-77112857D01*
X212883714Y-77208095D01*
X212836095Y-77303333D01*
X212788476Y-77350952D01*
X212693238Y-77398571D01*
X212359904Y-77398571D01*
X213788476Y-76922380D02*
X213598000Y-76922380D01*
X213502761Y-76970000D01*
X213455142Y-77017619D01*
X213359904Y-77160476D01*
X213312285Y-77350952D01*
X213312285Y-77731904D01*
X213359904Y-77827142D01*
X213407523Y-77874761D01*
X213502761Y-77922380D01*
X213693238Y-77922380D01*
X213788476Y-77874761D01*
X213836095Y-77827142D01*
X213883714Y-77731904D01*
X213883714Y-77493809D01*
X213836095Y-77398571D01*
X213788476Y-77350952D01*
X213693238Y-77303333D01*
X213502761Y-77303333D01*
X213407523Y-77350952D01*
X213359904Y-77398571D01*
X213312285Y-77493809D01*
X212661523Y-108402380D02*
X212090095Y-108402380D01*
X212375809Y-108402380D02*
X212375809Y-107402380D01*
X212280571Y-107545238D01*
X212185333Y-107640476D01*
X212090095Y-107688095D01*
X213518666Y-107402380D02*
X213328190Y-107402380D01*
X213232952Y-107450000D01*
X213185333Y-107497619D01*
X213090095Y-107640476D01*
X213042476Y-107830952D01*
X213042476Y-108211904D01*
X213090095Y-108307142D01*
X213137714Y-108354761D01*
X213232952Y-108402380D01*
X213423428Y-108402380D01*
X213518666Y-108354761D01*
X213566285Y-108307142D01*
X213613904Y-108211904D01*
X213613904Y-107973809D01*
X213566285Y-107878571D01*
X213518666Y-107830952D01*
X213423428Y-107783333D01*
X213232952Y-107783333D01*
X213137714Y-107830952D01*
X213090095Y-107878571D01*
X213042476Y-107973809D01*
X212883714Y-70302380D02*
X212312285Y-70302380D01*
X212598000Y-70302380D02*
X212598000Y-69302380D01*
X212502761Y-69445238D01*
X212407523Y-69540476D01*
X212312285Y-69588095D01*
X141422380Y-54514666D02*
X140946190Y-54848000D01*
X141422380Y-55086095D02*
X140422380Y-55086095D01*
X140422380Y-54705142D01*
X140470000Y-54609904D01*
X140517619Y-54562285D01*
X140612857Y-54514666D01*
X140755714Y-54514666D01*
X140850952Y-54562285D01*
X140898571Y-54609904D01*
X140946190Y-54705142D01*
X140946190Y-55086095D01*
X140898571Y-53752761D02*
X140946190Y-53609904D01*
X140993809Y-53562285D01*
X141089047Y-53514666D01*
X141231904Y-53514666D01*
X141327142Y-53562285D01*
X141374761Y-53609904D01*
X141422380Y-53705142D01*
X141422380Y-54086095D01*
X140422380Y-54086095D01*
X140422380Y-53752761D01*
X140470000Y-53657523D01*
X140517619Y-53609904D01*
X140612857Y-53562285D01*
X140708095Y-53562285D01*
X140803333Y-53609904D01*
X140850952Y-53657523D01*
X140898571Y-53752761D01*
X140898571Y-54086095D01*
X140422380Y-53181333D02*
X140422380Y-52514666D01*
X141422380Y-52943238D01*
X138628380Y-54514666D02*
X138152190Y-54848000D01*
X138628380Y-55086095D02*
X137628380Y-55086095D01*
X137628380Y-54705142D01*
X137676000Y-54609904D01*
X137723619Y-54562285D01*
X137818857Y-54514666D01*
X137961714Y-54514666D01*
X138056952Y-54562285D01*
X138104571Y-54609904D01*
X138152190Y-54705142D01*
X138152190Y-55086095D01*
X138104571Y-53752761D02*
X138152190Y-53609904D01*
X138199809Y-53562285D01*
X138295047Y-53514666D01*
X138437904Y-53514666D01*
X138533142Y-53562285D01*
X138580761Y-53609904D01*
X138628380Y-53705142D01*
X138628380Y-54086095D01*
X137628380Y-54086095D01*
X137628380Y-53752761D01*
X137676000Y-53657523D01*
X137723619Y-53609904D01*
X137818857Y-53562285D01*
X137914095Y-53562285D01*
X138009333Y-53609904D01*
X138056952Y-53657523D01*
X138104571Y-53752761D01*
X138104571Y-54086095D01*
X137628380Y-52657523D02*
X137628380Y-52848000D01*
X137676000Y-52943238D01*
X137723619Y-52990857D01*
X137866476Y-53086095D01*
X138056952Y-53133714D01*
X138437904Y-53133714D01*
X138533142Y-53086095D01*
X138580761Y-53038476D01*
X138628380Y-52943238D01*
X138628380Y-52752761D01*
X138580761Y-52657523D01*
X138533142Y-52609904D01*
X138437904Y-52562285D01*
X138199809Y-52562285D01*
X138104571Y-52609904D01*
X138056952Y-52657523D01*
X138009333Y-52752761D01*
X138009333Y-52943238D01*
X138056952Y-53038476D01*
X138104571Y-53086095D01*
X138199809Y-53133714D01*
X136088380Y-54514666D02*
X135612190Y-54848000D01*
X136088380Y-55086095D02*
X135088380Y-55086095D01*
X135088380Y-54705142D01*
X135136000Y-54609904D01*
X135183619Y-54562285D01*
X135278857Y-54514666D01*
X135421714Y-54514666D01*
X135516952Y-54562285D01*
X135564571Y-54609904D01*
X135612190Y-54705142D01*
X135612190Y-55086095D01*
X135564571Y-53752761D02*
X135612190Y-53609904D01*
X135659809Y-53562285D01*
X135755047Y-53514666D01*
X135897904Y-53514666D01*
X135993142Y-53562285D01*
X136040761Y-53609904D01*
X136088380Y-53705142D01*
X136088380Y-54086095D01*
X135088380Y-54086095D01*
X135088380Y-53752761D01*
X135136000Y-53657523D01*
X135183619Y-53609904D01*
X135278857Y-53562285D01*
X135374095Y-53562285D01*
X135469333Y-53609904D01*
X135516952Y-53657523D01*
X135564571Y-53752761D01*
X135564571Y-54086095D01*
X135088380Y-52609904D02*
X135088380Y-53086095D01*
X135564571Y-53133714D01*
X135516952Y-53086095D01*
X135469333Y-52990857D01*
X135469333Y-52752761D01*
X135516952Y-52657523D01*
X135564571Y-52609904D01*
X135659809Y-52562285D01*
X135897904Y-52562285D01*
X135993142Y-52609904D01*
X136040761Y-52657523D01*
X136088380Y-52752761D01*
X136088380Y-52990857D01*
X136040761Y-53086095D01*
X135993142Y-53133714D01*
X133548380Y-54514666D02*
X133072190Y-54848000D01*
X133548380Y-55086095D02*
X132548380Y-55086095D01*
X132548380Y-54705142D01*
X132596000Y-54609904D01*
X132643619Y-54562285D01*
X132738857Y-54514666D01*
X132881714Y-54514666D01*
X132976952Y-54562285D01*
X133024571Y-54609904D01*
X133072190Y-54705142D01*
X133072190Y-55086095D01*
X133024571Y-53752761D02*
X133072190Y-53609904D01*
X133119809Y-53562285D01*
X133215047Y-53514666D01*
X133357904Y-53514666D01*
X133453142Y-53562285D01*
X133500761Y-53609904D01*
X133548380Y-53705142D01*
X133548380Y-54086095D01*
X132548380Y-54086095D01*
X132548380Y-53752761D01*
X132596000Y-53657523D01*
X132643619Y-53609904D01*
X132738857Y-53562285D01*
X132834095Y-53562285D01*
X132929333Y-53609904D01*
X132976952Y-53657523D01*
X133024571Y-53752761D01*
X133024571Y-54086095D01*
X132881714Y-52657523D02*
X133548380Y-52657523D01*
X132500761Y-52895619D02*
X133215047Y-53133714D01*
X133215047Y-52514666D01*
X131008380Y-54514666D02*
X130532190Y-54848000D01*
X131008380Y-55086095D02*
X130008380Y-55086095D01*
X130008380Y-54705142D01*
X130056000Y-54609904D01*
X130103619Y-54562285D01*
X130198857Y-54514666D01*
X130341714Y-54514666D01*
X130436952Y-54562285D01*
X130484571Y-54609904D01*
X130532190Y-54705142D01*
X130532190Y-55086095D01*
X130484571Y-53752761D02*
X130532190Y-53609904D01*
X130579809Y-53562285D01*
X130675047Y-53514666D01*
X130817904Y-53514666D01*
X130913142Y-53562285D01*
X130960761Y-53609904D01*
X131008380Y-53705142D01*
X131008380Y-54086095D01*
X130008380Y-54086095D01*
X130008380Y-53752761D01*
X130056000Y-53657523D01*
X130103619Y-53609904D01*
X130198857Y-53562285D01*
X130294095Y-53562285D01*
X130389333Y-53609904D01*
X130436952Y-53657523D01*
X130484571Y-53752761D01*
X130484571Y-54086095D01*
X130008380Y-53181333D02*
X130008380Y-52562285D01*
X130389333Y-52895619D01*
X130389333Y-52752761D01*
X130436952Y-52657523D01*
X130484571Y-52609904D01*
X130579809Y-52562285D01*
X130817904Y-52562285D01*
X130913142Y-52609904D01*
X130960761Y-52657523D01*
X131008380Y-52752761D01*
X131008380Y-53038476D01*
X130960761Y-53133714D01*
X130913142Y-53181333D01*
X128722380Y-54514666D02*
X128246190Y-54848000D01*
X128722380Y-55086095D02*
X127722380Y-55086095D01*
X127722380Y-54705142D01*
X127770000Y-54609904D01*
X127817619Y-54562285D01*
X127912857Y-54514666D01*
X128055714Y-54514666D01*
X128150952Y-54562285D01*
X128198571Y-54609904D01*
X128246190Y-54705142D01*
X128246190Y-55086095D01*
X128198571Y-53752761D02*
X128246190Y-53609904D01*
X128293809Y-53562285D01*
X128389047Y-53514666D01*
X128531904Y-53514666D01*
X128627142Y-53562285D01*
X128674761Y-53609904D01*
X128722380Y-53705142D01*
X128722380Y-54086095D01*
X127722380Y-54086095D01*
X127722380Y-53752761D01*
X127770000Y-53657523D01*
X127817619Y-53609904D01*
X127912857Y-53562285D01*
X128008095Y-53562285D01*
X128103333Y-53609904D01*
X128150952Y-53657523D01*
X128198571Y-53752761D01*
X128198571Y-54086095D01*
X127817619Y-53133714D02*
X127770000Y-53086095D01*
X127722380Y-52990857D01*
X127722380Y-52752761D01*
X127770000Y-52657523D01*
X127817619Y-52609904D01*
X127912857Y-52562285D01*
X128008095Y-52562285D01*
X128150952Y-52609904D01*
X128722380Y-53181333D01*
X128722380Y-52562285D01*
X125928380Y-54514666D02*
X125452190Y-54848000D01*
X125928380Y-55086095D02*
X124928380Y-55086095D01*
X124928380Y-54705142D01*
X124976000Y-54609904D01*
X125023619Y-54562285D01*
X125118857Y-54514666D01*
X125261714Y-54514666D01*
X125356952Y-54562285D01*
X125404571Y-54609904D01*
X125452190Y-54705142D01*
X125452190Y-55086095D01*
X125404571Y-53752761D02*
X125452190Y-53609904D01*
X125499809Y-53562285D01*
X125595047Y-53514666D01*
X125737904Y-53514666D01*
X125833142Y-53562285D01*
X125880761Y-53609904D01*
X125928380Y-53705142D01*
X125928380Y-54086095D01*
X124928380Y-54086095D01*
X124928380Y-53752761D01*
X124976000Y-53657523D01*
X125023619Y-53609904D01*
X125118857Y-53562285D01*
X125214095Y-53562285D01*
X125309333Y-53609904D01*
X125356952Y-53657523D01*
X125404571Y-53752761D01*
X125404571Y-54086095D01*
X125928380Y-52562285D02*
X125928380Y-53133714D01*
X125928380Y-52848000D02*
X124928380Y-52848000D01*
X125071238Y-52943238D01*
X125166476Y-53038476D01*
X125214095Y-53133714D01*
X123642380Y-54514666D02*
X123166190Y-54848000D01*
X123642380Y-55086095D02*
X122642380Y-55086095D01*
X122642380Y-54705142D01*
X122690000Y-54609904D01*
X122737619Y-54562285D01*
X122832857Y-54514666D01*
X122975714Y-54514666D01*
X123070952Y-54562285D01*
X123118571Y-54609904D01*
X123166190Y-54705142D01*
X123166190Y-55086095D01*
X123118571Y-53752761D02*
X123166190Y-53609904D01*
X123213809Y-53562285D01*
X123309047Y-53514666D01*
X123451904Y-53514666D01*
X123547142Y-53562285D01*
X123594761Y-53609904D01*
X123642380Y-53705142D01*
X123642380Y-54086095D01*
X122642380Y-54086095D01*
X122642380Y-53752761D01*
X122690000Y-53657523D01*
X122737619Y-53609904D01*
X122832857Y-53562285D01*
X122928095Y-53562285D01*
X123023333Y-53609904D01*
X123070952Y-53657523D01*
X123118571Y-53752761D01*
X123118571Y-54086095D01*
X122642380Y-52895619D02*
X122642380Y-52800380D01*
X122690000Y-52705142D01*
X122737619Y-52657523D01*
X122832857Y-52609904D01*
X123023333Y-52562285D01*
X123261428Y-52562285D01*
X123451904Y-52609904D01*
X123547142Y-52657523D01*
X123594761Y-52705142D01*
X123642380Y-52800380D01*
X123642380Y-52895619D01*
X123594761Y-52990857D01*
X123547142Y-53038476D01*
X123451904Y-53086095D01*
X123261428Y-53133714D01*
X123023333Y-53133714D01*
X122832857Y-53086095D01*
X122737619Y-53038476D01*
X122690000Y-52990857D01*
X122642380Y-52895619D01*
X129913333Y-47442380D02*
X129913333Y-46442380D01*
X130294285Y-46442380D01*
X130389523Y-46490000D01*
X130437142Y-46537619D01*
X130484761Y-46632857D01*
X130484761Y-46775714D01*
X130437142Y-46870952D01*
X130389523Y-46918571D01*
X130294285Y-46966190D01*
X129913333Y-46966190D01*
X131103809Y-46442380D02*
X131294285Y-46442380D01*
X131389523Y-46490000D01*
X131484761Y-46585238D01*
X131532380Y-46775714D01*
X131532380Y-47109047D01*
X131484761Y-47299523D01*
X131389523Y-47394761D01*
X131294285Y-47442380D01*
X131103809Y-47442380D01*
X131008571Y-47394761D01*
X130913333Y-47299523D01*
X130865714Y-47109047D01*
X130865714Y-46775714D01*
X130913333Y-46585238D01*
X131008571Y-46490000D01*
X131103809Y-46442380D01*
X132532380Y-47442380D02*
X132199047Y-46966190D01*
X131960952Y-47442380D02*
X131960952Y-46442380D01*
X132341904Y-46442380D01*
X132437142Y-46490000D01*
X132484761Y-46537619D01*
X132532380Y-46632857D01*
X132532380Y-46775714D01*
X132484761Y-46870952D01*
X132437142Y-46918571D01*
X132341904Y-46966190D01*
X131960952Y-46966190D01*
X132818095Y-46442380D02*
X133389523Y-46442380D01*
X133103809Y-47442380D02*
X133103809Y-46442380D01*
X134056190Y-46918571D02*
X134199047Y-46966190D01*
X134246666Y-47013809D01*
X134294285Y-47109047D01*
X134294285Y-47251904D01*
X134246666Y-47347142D01*
X134199047Y-47394761D01*
X134103809Y-47442380D01*
X133722857Y-47442380D01*
X133722857Y-46442380D01*
X134056190Y-46442380D01*
X134151428Y-46490000D01*
X134199047Y-46537619D01*
X134246666Y-46632857D01*
X134246666Y-46728095D01*
X134199047Y-46823333D01*
X134151428Y-46870952D01*
X134056190Y-46918571D01*
X133722857Y-46918571D01*
X180792380Y-54260666D02*
X180316190Y-54594000D01*
X180792380Y-54832095D02*
X179792380Y-54832095D01*
X179792380Y-54451142D01*
X179840000Y-54355904D01*
X179887619Y-54308285D01*
X179982857Y-54260666D01*
X180125714Y-54260666D01*
X180220952Y-54308285D01*
X180268571Y-54355904D01*
X180316190Y-54451142D01*
X180316190Y-54832095D01*
X180697142Y-53260666D02*
X180744761Y-53308285D01*
X180792380Y-53451142D01*
X180792380Y-53546380D01*
X180744761Y-53689238D01*
X180649523Y-53784476D01*
X180554285Y-53832095D01*
X180363809Y-53879714D01*
X180220952Y-53879714D01*
X180030476Y-53832095D01*
X179935238Y-53784476D01*
X179840000Y-53689238D01*
X179792380Y-53546380D01*
X179792380Y-53451142D01*
X179840000Y-53308285D01*
X179887619Y-53260666D01*
X179792380Y-52927333D02*
X179792380Y-52260666D01*
X180792380Y-52689238D01*
X178252380Y-54260666D02*
X177776190Y-54594000D01*
X178252380Y-54832095D02*
X177252380Y-54832095D01*
X177252380Y-54451142D01*
X177300000Y-54355904D01*
X177347619Y-54308285D01*
X177442857Y-54260666D01*
X177585714Y-54260666D01*
X177680952Y-54308285D01*
X177728571Y-54355904D01*
X177776190Y-54451142D01*
X177776190Y-54832095D01*
X178157142Y-53260666D02*
X178204761Y-53308285D01*
X178252380Y-53451142D01*
X178252380Y-53546380D01*
X178204761Y-53689238D01*
X178109523Y-53784476D01*
X178014285Y-53832095D01*
X177823809Y-53879714D01*
X177680952Y-53879714D01*
X177490476Y-53832095D01*
X177395238Y-53784476D01*
X177300000Y-53689238D01*
X177252380Y-53546380D01*
X177252380Y-53451142D01*
X177300000Y-53308285D01*
X177347619Y-53260666D01*
X177252380Y-52403523D02*
X177252380Y-52594000D01*
X177300000Y-52689238D01*
X177347619Y-52736857D01*
X177490476Y-52832095D01*
X177680952Y-52879714D01*
X178061904Y-52879714D01*
X178157142Y-52832095D01*
X178204761Y-52784476D01*
X178252380Y-52689238D01*
X178252380Y-52498761D01*
X178204761Y-52403523D01*
X178157142Y-52355904D01*
X178061904Y-52308285D01*
X177823809Y-52308285D01*
X177728571Y-52355904D01*
X177680952Y-52403523D01*
X177633333Y-52498761D01*
X177633333Y-52689238D01*
X177680952Y-52784476D01*
X177728571Y-52832095D01*
X177823809Y-52879714D01*
X175712380Y-54260666D02*
X175236190Y-54594000D01*
X175712380Y-54832095D02*
X174712380Y-54832095D01*
X174712380Y-54451142D01*
X174760000Y-54355904D01*
X174807619Y-54308285D01*
X174902857Y-54260666D01*
X175045714Y-54260666D01*
X175140952Y-54308285D01*
X175188571Y-54355904D01*
X175236190Y-54451142D01*
X175236190Y-54832095D01*
X175617142Y-53260666D02*
X175664761Y-53308285D01*
X175712380Y-53451142D01*
X175712380Y-53546380D01*
X175664761Y-53689238D01*
X175569523Y-53784476D01*
X175474285Y-53832095D01*
X175283809Y-53879714D01*
X175140952Y-53879714D01*
X174950476Y-53832095D01*
X174855238Y-53784476D01*
X174760000Y-53689238D01*
X174712380Y-53546380D01*
X174712380Y-53451142D01*
X174760000Y-53308285D01*
X174807619Y-53260666D01*
X174807619Y-52879714D02*
X174760000Y-52832095D01*
X174712380Y-52736857D01*
X174712380Y-52498761D01*
X174760000Y-52403523D01*
X174807619Y-52355904D01*
X174902857Y-52308285D01*
X174998095Y-52308285D01*
X175140952Y-52355904D01*
X175712380Y-52927333D01*
X175712380Y-52308285D01*
X173172380Y-54260666D02*
X172696190Y-54594000D01*
X173172380Y-54832095D02*
X172172380Y-54832095D01*
X172172380Y-54451142D01*
X172220000Y-54355904D01*
X172267619Y-54308285D01*
X172362857Y-54260666D01*
X172505714Y-54260666D01*
X172600952Y-54308285D01*
X172648571Y-54355904D01*
X172696190Y-54451142D01*
X172696190Y-54832095D01*
X173077142Y-53260666D02*
X173124761Y-53308285D01*
X173172380Y-53451142D01*
X173172380Y-53546380D01*
X173124761Y-53689238D01*
X173029523Y-53784476D01*
X172934285Y-53832095D01*
X172743809Y-53879714D01*
X172600952Y-53879714D01*
X172410476Y-53832095D01*
X172315238Y-53784476D01*
X172220000Y-53689238D01*
X172172380Y-53546380D01*
X172172380Y-53451142D01*
X172220000Y-53308285D01*
X172267619Y-53260666D01*
X173172380Y-52308285D02*
X173172380Y-52879714D01*
X173172380Y-52594000D02*
X172172380Y-52594000D01*
X172315238Y-52689238D01*
X172410476Y-52784476D01*
X172458095Y-52879714D01*
X170632380Y-54260666D02*
X170156190Y-54594000D01*
X170632380Y-54832095D02*
X169632380Y-54832095D01*
X169632380Y-54451142D01*
X169680000Y-54355904D01*
X169727619Y-54308285D01*
X169822857Y-54260666D01*
X169965714Y-54260666D01*
X170060952Y-54308285D01*
X170108571Y-54355904D01*
X170156190Y-54451142D01*
X170156190Y-54832095D01*
X170537142Y-53260666D02*
X170584761Y-53308285D01*
X170632380Y-53451142D01*
X170632380Y-53546380D01*
X170584761Y-53689238D01*
X170489523Y-53784476D01*
X170394285Y-53832095D01*
X170203809Y-53879714D01*
X170060952Y-53879714D01*
X169870476Y-53832095D01*
X169775238Y-53784476D01*
X169680000Y-53689238D01*
X169632380Y-53546380D01*
X169632380Y-53451142D01*
X169680000Y-53308285D01*
X169727619Y-53260666D01*
X169632380Y-52641619D02*
X169632380Y-52546380D01*
X169680000Y-52451142D01*
X169727619Y-52403523D01*
X169822857Y-52355904D01*
X170013333Y-52308285D01*
X170251428Y-52308285D01*
X170441904Y-52355904D01*
X170537142Y-52403523D01*
X170584761Y-52451142D01*
X170632380Y-52546380D01*
X170632380Y-52641619D01*
X170584761Y-52736857D01*
X170537142Y-52784476D01*
X170441904Y-52832095D01*
X170251428Y-52879714D01*
X170013333Y-52879714D01*
X169822857Y-52832095D01*
X169727619Y-52784476D01*
X169680000Y-52736857D01*
X169632380Y-52641619D01*
X173601333Y-47696380D02*
X173601333Y-46696380D01*
X173982285Y-46696380D01*
X174077523Y-46744000D01*
X174125142Y-46791619D01*
X174172761Y-46886857D01*
X174172761Y-47029714D01*
X174125142Y-47124952D01*
X174077523Y-47172571D01*
X173982285Y-47220190D01*
X173601333Y-47220190D01*
X174791809Y-46696380D02*
X174982285Y-46696380D01*
X175077523Y-46744000D01*
X175172761Y-46839238D01*
X175220380Y-47029714D01*
X175220380Y-47363047D01*
X175172761Y-47553523D01*
X175077523Y-47648761D01*
X174982285Y-47696380D01*
X174791809Y-47696380D01*
X174696571Y-47648761D01*
X174601333Y-47553523D01*
X174553714Y-47363047D01*
X174553714Y-47029714D01*
X174601333Y-46839238D01*
X174696571Y-46744000D01*
X174791809Y-46696380D01*
X176220380Y-47696380D02*
X175887047Y-47220190D01*
X175648952Y-47696380D02*
X175648952Y-46696380D01*
X176029904Y-46696380D01*
X176125142Y-46744000D01*
X176172761Y-46791619D01*
X176220380Y-46886857D01*
X176220380Y-47029714D01*
X176172761Y-47124952D01*
X176125142Y-47172571D01*
X176029904Y-47220190D01*
X175648952Y-47220190D01*
X176506095Y-46696380D02*
X177077523Y-46696380D01*
X176791809Y-47696380D02*
X176791809Y-46696380D01*
X177982285Y-47601142D02*
X177934666Y-47648761D01*
X177791809Y-47696380D01*
X177696571Y-47696380D01*
X177553714Y-47648761D01*
X177458476Y-47553523D01*
X177410857Y-47458285D01*
X177363238Y-47267809D01*
X177363238Y-47124952D01*
X177410857Y-46934476D01*
X177458476Y-46839238D01*
X177553714Y-46744000D01*
X177696571Y-46696380D01*
X177791809Y-46696380D01*
X177934666Y-46744000D01*
X177982285Y-46791619D01*
X158535714Y-55903619D02*
X159202380Y-55665523D01*
X158535714Y-55427428D01*
X158535714Y-54617904D02*
X159202380Y-54617904D01*
X158535714Y-55046476D02*
X159059523Y-55046476D01*
X159154761Y-54998857D01*
X159202380Y-54903619D01*
X159202380Y-54760761D01*
X159154761Y-54665523D01*
X159107142Y-54617904D01*
X159154761Y-54189333D02*
X159202380Y-54094095D01*
X159202380Y-53903619D01*
X159154761Y-53808380D01*
X159059523Y-53760761D01*
X159011904Y-53760761D01*
X158916666Y-53808380D01*
X158869047Y-53903619D01*
X158869047Y-54046476D01*
X158821428Y-54141714D01*
X158726190Y-54189333D01*
X158678571Y-54189333D01*
X158583333Y-54141714D01*
X158535714Y-54046476D01*
X158535714Y-53903619D01*
X158583333Y-53808380D01*
X159202380Y-53332190D02*
X158202380Y-53332190D01*
X158583333Y-53332190D02*
X158535714Y-53236952D01*
X158535714Y-53046476D01*
X158583333Y-52951238D01*
X158630952Y-52903619D01*
X158726190Y-52856000D01*
X159011904Y-52856000D01*
X159107142Y-52903619D01*
X159154761Y-52951238D01*
X159202380Y-53046476D01*
X159202380Y-53236952D01*
X159154761Y-53332190D01*
X156662380Y-54474952D02*
X155662380Y-54474952D01*
X155662380Y-54236857D01*
X155710000Y-54094000D01*
X155805238Y-53998761D01*
X155900476Y-53951142D01*
X156090952Y-53903523D01*
X156233809Y-53903523D01*
X156424285Y-53951142D01*
X156519523Y-53998761D01*
X156614761Y-54094000D01*
X156662380Y-54236857D01*
X156662380Y-54474952D01*
X156281428Y-53474952D02*
X156281428Y-52713047D01*
X153868380Y-54474952D02*
X152868380Y-54474952D01*
X152868380Y-54236857D01*
X152916000Y-54094000D01*
X153011238Y-53998761D01*
X153106476Y-53951142D01*
X153296952Y-53903523D01*
X153439809Y-53903523D01*
X153630285Y-53951142D01*
X153725523Y-53998761D01*
X153820761Y-54094000D01*
X153868380Y-54236857D01*
X153868380Y-54474952D01*
X153487428Y-53474952D02*
X153487428Y-52713047D01*
X153868380Y-53094000D02*
X153106476Y-53094000D01*
X154567142Y-47458380D02*
X154900476Y-48458380D01*
X155233809Y-47458380D01*
X155995714Y-47791714D02*
X155995714Y-48458380D01*
X155567142Y-47791714D02*
X155567142Y-48315523D01*
X155614761Y-48410761D01*
X155710000Y-48458380D01*
X155852857Y-48458380D01*
X155948095Y-48410761D01*
X155995714Y-48363142D01*
X156424285Y-48410761D02*
X156519523Y-48458380D01*
X156710000Y-48458380D01*
X156805238Y-48410761D01*
X156852857Y-48315523D01*
X156852857Y-48267904D01*
X156805238Y-48172666D01*
X156710000Y-48125047D01*
X156567142Y-48125047D01*
X156471904Y-48077428D01*
X156424285Y-47982190D01*
X156424285Y-47934571D01*
X156471904Y-47839333D01*
X156567142Y-47791714D01*
X156710000Y-47791714D01*
X156805238Y-47839333D01*
X157281428Y-48458380D02*
X157281428Y-47458380D01*
X157281428Y-47839333D02*
X157376666Y-47791714D01*
X157567142Y-47791714D01*
X157662380Y-47839333D01*
X157710000Y-47886952D01*
X157757619Y-47982190D01*
X157757619Y-48267904D01*
X157710000Y-48363142D01*
X157662380Y-48410761D01*
X157567142Y-48458380D01*
X157376666Y-48458380D01*
X157281428Y-48410761D01*
X188158380Y-120808666D02*
X187682190Y-121142000D01*
X188158380Y-121380095D02*
X187158380Y-121380095D01*
X187158380Y-120999142D01*
X187206000Y-120903904D01*
X187253619Y-120856285D01*
X187348857Y-120808666D01*
X187491714Y-120808666D01*
X187586952Y-120856285D01*
X187634571Y-120903904D01*
X187682190Y-120999142D01*
X187682190Y-121380095D01*
X188158380Y-120380095D02*
X187158380Y-120380095D01*
X187158380Y-120142000D01*
X187206000Y-119999142D01*
X187301238Y-119903904D01*
X187396476Y-119856285D01*
X187586952Y-119808666D01*
X187729809Y-119808666D01*
X187920285Y-119856285D01*
X188015523Y-119903904D01*
X188110761Y-119999142D01*
X188158380Y-120142000D01*
X188158380Y-120380095D01*
X187158380Y-119475333D02*
X187158380Y-118808666D01*
X188158380Y-119237238D01*
X185618380Y-120808666D02*
X185142190Y-121142000D01*
X185618380Y-121380095D02*
X184618380Y-121380095D01*
X184618380Y-120999142D01*
X184666000Y-120903904D01*
X184713619Y-120856285D01*
X184808857Y-120808666D01*
X184951714Y-120808666D01*
X185046952Y-120856285D01*
X185094571Y-120903904D01*
X185142190Y-120999142D01*
X185142190Y-121380095D01*
X185618380Y-120380095D02*
X184618380Y-120380095D01*
X184618380Y-120142000D01*
X184666000Y-119999142D01*
X184761238Y-119903904D01*
X184856476Y-119856285D01*
X185046952Y-119808666D01*
X185189809Y-119808666D01*
X185380285Y-119856285D01*
X185475523Y-119903904D01*
X185570761Y-119999142D01*
X185618380Y-120142000D01*
X185618380Y-120380095D01*
X184618380Y-118951523D02*
X184618380Y-119142000D01*
X184666000Y-119237238D01*
X184713619Y-119284857D01*
X184856476Y-119380095D01*
X185046952Y-119427714D01*
X185427904Y-119427714D01*
X185523142Y-119380095D01*
X185570761Y-119332476D01*
X185618380Y-119237238D01*
X185618380Y-119046761D01*
X185570761Y-118951523D01*
X185523142Y-118903904D01*
X185427904Y-118856285D01*
X185189809Y-118856285D01*
X185094571Y-118903904D01*
X185046952Y-118951523D01*
X184999333Y-119046761D01*
X184999333Y-119237238D01*
X185046952Y-119332476D01*
X185094571Y-119380095D01*
X185189809Y-119427714D01*
X182824380Y-120808666D02*
X182348190Y-121142000D01*
X182824380Y-121380095D02*
X181824380Y-121380095D01*
X181824380Y-120999142D01*
X181872000Y-120903904D01*
X181919619Y-120856285D01*
X182014857Y-120808666D01*
X182157714Y-120808666D01*
X182252952Y-120856285D01*
X182300571Y-120903904D01*
X182348190Y-120999142D01*
X182348190Y-121380095D01*
X182824380Y-120380095D02*
X181824380Y-120380095D01*
X181824380Y-120142000D01*
X181872000Y-119999142D01*
X181967238Y-119903904D01*
X182062476Y-119856285D01*
X182252952Y-119808666D01*
X182395809Y-119808666D01*
X182586285Y-119856285D01*
X182681523Y-119903904D01*
X182776761Y-119999142D01*
X182824380Y-120142000D01*
X182824380Y-120380095D01*
X181824380Y-118903904D02*
X181824380Y-119380095D01*
X182300571Y-119427714D01*
X182252952Y-119380095D01*
X182205333Y-119284857D01*
X182205333Y-119046761D01*
X182252952Y-118951523D01*
X182300571Y-118903904D01*
X182395809Y-118856285D01*
X182633904Y-118856285D01*
X182729142Y-118903904D01*
X182776761Y-118951523D01*
X182824380Y-119046761D01*
X182824380Y-119284857D01*
X182776761Y-119380095D01*
X182729142Y-119427714D01*
X180284380Y-120808666D02*
X179808190Y-121142000D01*
X180284380Y-121380095D02*
X179284380Y-121380095D01*
X179284380Y-120999142D01*
X179332000Y-120903904D01*
X179379619Y-120856285D01*
X179474857Y-120808666D01*
X179617714Y-120808666D01*
X179712952Y-120856285D01*
X179760571Y-120903904D01*
X179808190Y-120999142D01*
X179808190Y-121380095D01*
X180284380Y-120380095D02*
X179284380Y-120380095D01*
X179284380Y-120142000D01*
X179332000Y-119999142D01*
X179427238Y-119903904D01*
X179522476Y-119856285D01*
X179712952Y-119808666D01*
X179855809Y-119808666D01*
X180046285Y-119856285D01*
X180141523Y-119903904D01*
X180236761Y-119999142D01*
X180284380Y-120142000D01*
X180284380Y-120380095D01*
X179617714Y-118951523D02*
X180284380Y-118951523D01*
X179236761Y-119189619D02*
X179951047Y-119427714D01*
X179951047Y-118808666D01*
X177744380Y-120808666D02*
X177268190Y-121142000D01*
X177744380Y-121380095D02*
X176744380Y-121380095D01*
X176744380Y-120999142D01*
X176792000Y-120903904D01*
X176839619Y-120856285D01*
X176934857Y-120808666D01*
X177077714Y-120808666D01*
X177172952Y-120856285D01*
X177220571Y-120903904D01*
X177268190Y-120999142D01*
X177268190Y-121380095D01*
X177744380Y-120380095D02*
X176744380Y-120380095D01*
X176744380Y-120142000D01*
X176792000Y-119999142D01*
X176887238Y-119903904D01*
X176982476Y-119856285D01*
X177172952Y-119808666D01*
X177315809Y-119808666D01*
X177506285Y-119856285D01*
X177601523Y-119903904D01*
X177696761Y-119999142D01*
X177744380Y-120142000D01*
X177744380Y-120380095D01*
X176744380Y-119475333D02*
X176744380Y-118856285D01*
X177125333Y-119189619D01*
X177125333Y-119046761D01*
X177172952Y-118951523D01*
X177220571Y-118903904D01*
X177315809Y-118856285D01*
X177553904Y-118856285D01*
X177649142Y-118903904D01*
X177696761Y-118951523D01*
X177744380Y-119046761D01*
X177744380Y-119332476D01*
X177696761Y-119427714D01*
X177649142Y-119475333D01*
X175204380Y-120808666D02*
X174728190Y-121142000D01*
X175204380Y-121380095D02*
X174204380Y-121380095D01*
X174204380Y-120999142D01*
X174252000Y-120903904D01*
X174299619Y-120856285D01*
X174394857Y-120808666D01*
X174537714Y-120808666D01*
X174632952Y-120856285D01*
X174680571Y-120903904D01*
X174728190Y-120999142D01*
X174728190Y-121380095D01*
X175204380Y-120380095D02*
X174204380Y-120380095D01*
X174204380Y-120142000D01*
X174252000Y-119999142D01*
X174347238Y-119903904D01*
X174442476Y-119856285D01*
X174632952Y-119808666D01*
X174775809Y-119808666D01*
X174966285Y-119856285D01*
X175061523Y-119903904D01*
X175156761Y-119999142D01*
X175204380Y-120142000D01*
X175204380Y-120380095D01*
X174299619Y-119427714D02*
X174252000Y-119380095D01*
X174204380Y-119284857D01*
X174204380Y-119046761D01*
X174252000Y-118951523D01*
X174299619Y-118903904D01*
X174394857Y-118856285D01*
X174490095Y-118856285D01*
X174632952Y-118903904D01*
X175204380Y-119475333D01*
X175204380Y-118856285D01*
X172664380Y-120808666D02*
X172188190Y-121142000D01*
X172664380Y-121380095D02*
X171664380Y-121380095D01*
X171664380Y-120999142D01*
X171712000Y-120903904D01*
X171759619Y-120856285D01*
X171854857Y-120808666D01*
X171997714Y-120808666D01*
X172092952Y-120856285D01*
X172140571Y-120903904D01*
X172188190Y-120999142D01*
X172188190Y-121380095D01*
X172664380Y-120380095D02*
X171664380Y-120380095D01*
X171664380Y-120142000D01*
X171712000Y-119999142D01*
X171807238Y-119903904D01*
X171902476Y-119856285D01*
X172092952Y-119808666D01*
X172235809Y-119808666D01*
X172426285Y-119856285D01*
X172521523Y-119903904D01*
X172616761Y-119999142D01*
X172664380Y-120142000D01*
X172664380Y-120380095D01*
X172664380Y-118856285D02*
X172664380Y-119427714D01*
X172664380Y-119142000D02*
X171664380Y-119142000D01*
X171807238Y-119237238D01*
X171902476Y-119332476D01*
X171950095Y-119427714D01*
X169870380Y-120808666D02*
X169394190Y-121142000D01*
X169870380Y-121380095D02*
X168870380Y-121380095D01*
X168870380Y-120999142D01*
X168918000Y-120903904D01*
X168965619Y-120856285D01*
X169060857Y-120808666D01*
X169203714Y-120808666D01*
X169298952Y-120856285D01*
X169346571Y-120903904D01*
X169394190Y-120999142D01*
X169394190Y-121380095D01*
X169870380Y-120380095D02*
X168870380Y-120380095D01*
X168870380Y-120142000D01*
X168918000Y-119999142D01*
X169013238Y-119903904D01*
X169108476Y-119856285D01*
X169298952Y-119808666D01*
X169441809Y-119808666D01*
X169632285Y-119856285D01*
X169727523Y-119903904D01*
X169822761Y-119999142D01*
X169870380Y-120142000D01*
X169870380Y-120380095D01*
X168870380Y-119189619D02*
X168870380Y-119094380D01*
X168918000Y-118999142D01*
X168965619Y-118951523D01*
X169060857Y-118903904D01*
X169251333Y-118856285D01*
X169489428Y-118856285D01*
X169679904Y-118903904D01*
X169775142Y-118951523D01*
X169822761Y-118999142D01*
X169870380Y-119094380D01*
X169870380Y-119189619D01*
X169822761Y-119284857D01*
X169775142Y-119332476D01*
X169679904Y-119380095D01*
X169489428Y-119427714D01*
X169251333Y-119427714D01*
X169060857Y-119380095D01*
X168965619Y-119332476D01*
X168918000Y-119284857D01*
X168870380Y-119189619D01*
X176903333Y-127452380D02*
X176903333Y-126452380D01*
X177284285Y-126452380D01*
X177379523Y-126500000D01*
X177427142Y-126547619D01*
X177474761Y-126642857D01*
X177474761Y-126785714D01*
X177427142Y-126880952D01*
X177379523Y-126928571D01*
X177284285Y-126976190D01*
X176903333Y-126976190D01*
X178093809Y-126452380D02*
X178284285Y-126452380D01*
X178379523Y-126500000D01*
X178474761Y-126595238D01*
X178522380Y-126785714D01*
X178522380Y-127119047D01*
X178474761Y-127309523D01*
X178379523Y-127404761D01*
X178284285Y-127452380D01*
X178093809Y-127452380D01*
X177998571Y-127404761D01*
X177903333Y-127309523D01*
X177855714Y-127119047D01*
X177855714Y-126785714D01*
X177903333Y-126595238D01*
X177998571Y-126500000D01*
X178093809Y-126452380D01*
X179522380Y-127452380D02*
X179189047Y-126976190D01*
X178950952Y-127452380D02*
X178950952Y-126452380D01*
X179331904Y-126452380D01*
X179427142Y-126500000D01*
X179474761Y-126547619D01*
X179522380Y-126642857D01*
X179522380Y-126785714D01*
X179474761Y-126880952D01*
X179427142Y-126928571D01*
X179331904Y-126976190D01*
X178950952Y-126976190D01*
X179808095Y-126452380D02*
X180379523Y-126452380D01*
X180093809Y-127452380D02*
X180093809Y-126452380D01*
X180712857Y-127452380D02*
X180712857Y-126452380D01*
X180950952Y-126452380D01*
X181093809Y-126500000D01*
X181189047Y-126595238D01*
X181236666Y-126690476D01*
X181284285Y-126880952D01*
X181284285Y-127023809D01*
X181236666Y-127214285D01*
X181189047Y-127309523D01*
X181093809Y-127404761D01*
X180950952Y-127452380D01*
X180712857Y-127452380D01*
X130746761Y-126944380D02*
X130746761Y-125944380D01*
X131127714Y-125944380D01*
X131222952Y-125992000D01*
X131270571Y-126039619D01*
X131318190Y-126134857D01*
X131318190Y-126277714D01*
X131270571Y-126372952D01*
X131222952Y-126420571D01*
X131127714Y-126468190D01*
X130746761Y-126468190D01*
X131937238Y-125944380D02*
X132127714Y-125944380D01*
X132222952Y-125992000D01*
X132318190Y-126087238D01*
X132365809Y-126277714D01*
X132365809Y-126611047D01*
X132318190Y-126801523D01*
X132222952Y-126896761D01*
X132127714Y-126944380D01*
X131937238Y-126944380D01*
X131842000Y-126896761D01*
X131746761Y-126801523D01*
X131699142Y-126611047D01*
X131699142Y-126277714D01*
X131746761Y-126087238D01*
X131842000Y-125992000D01*
X131937238Y-125944380D01*
X133365809Y-126944380D02*
X133032476Y-126468190D01*
X132794380Y-126944380D02*
X132794380Y-125944380D01*
X133175333Y-125944380D01*
X133270571Y-125992000D01*
X133318190Y-126039619D01*
X133365809Y-126134857D01*
X133365809Y-126277714D01*
X133318190Y-126372952D01*
X133270571Y-126420571D01*
X133175333Y-126468190D01*
X132794380Y-126468190D01*
X133651523Y-125944380D02*
X134222952Y-125944380D01*
X133937238Y-126944380D02*
X133937238Y-125944380D01*
X134508666Y-126658666D02*
X134984857Y-126658666D01*
X134413428Y-126944380D02*
X134746761Y-125944380D01*
X135080095Y-126944380D01*
X141422380Y-120991238D02*
X140946190Y-121324571D01*
X141422380Y-121562666D02*
X140422380Y-121562666D01*
X140422380Y-121181714D01*
X140470000Y-121086476D01*
X140517619Y-121038857D01*
X140612857Y-120991238D01*
X140755714Y-120991238D01*
X140850952Y-121038857D01*
X140898571Y-121086476D01*
X140946190Y-121181714D01*
X140946190Y-121562666D01*
X141136666Y-120610285D02*
X141136666Y-120134095D01*
X141422380Y-120705523D02*
X140422380Y-120372190D01*
X141422380Y-120038857D01*
X140422380Y-119800761D02*
X140422380Y-119134095D01*
X141422380Y-119562666D01*
X138882380Y-120991238D02*
X138406190Y-121324571D01*
X138882380Y-121562666D02*
X137882380Y-121562666D01*
X137882380Y-121181714D01*
X137930000Y-121086476D01*
X137977619Y-121038857D01*
X138072857Y-120991238D01*
X138215714Y-120991238D01*
X138310952Y-121038857D01*
X138358571Y-121086476D01*
X138406190Y-121181714D01*
X138406190Y-121562666D01*
X138596666Y-120610285D02*
X138596666Y-120134095D01*
X138882380Y-120705523D02*
X137882380Y-120372190D01*
X138882380Y-120038857D01*
X137882380Y-119276952D02*
X137882380Y-119467428D01*
X137930000Y-119562666D01*
X137977619Y-119610285D01*
X138120476Y-119705523D01*
X138310952Y-119753142D01*
X138691904Y-119753142D01*
X138787142Y-119705523D01*
X138834761Y-119657904D01*
X138882380Y-119562666D01*
X138882380Y-119372190D01*
X138834761Y-119276952D01*
X138787142Y-119229333D01*
X138691904Y-119181714D01*
X138453809Y-119181714D01*
X138358571Y-119229333D01*
X138310952Y-119276952D01*
X138263333Y-119372190D01*
X138263333Y-119562666D01*
X138310952Y-119657904D01*
X138358571Y-119705523D01*
X138453809Y-119753142D01*
X136342380Y-120991238D02*
X135866190Y-121324571D01*
X136342380Y-121562666D02*
X135342380Y-121562666D01*
X135342380Y-121181714D01*
X135390000Y-121086476D01*
X135437619Y-121038857D01*
X135532857Y-120991238D01*
X135675714Y-120991238D01*
X135770952Y-121038857D01*
X135818571Y-121086476D01*
X135866190Y-121181714D01*
X135866190Y-121562666D01*
X136056666Y-120610285D02*
X136056666Y-120134095D01*
X136342380Y-120705523D02*
X135342380Y-120372190D01*
X136342380Y-120038857D01*
X135342380Y-119229333D02*
X135342380Y-119705523D01*
X135818571Y-119753142D01*
X135770952Y-119705523D01*
X135723333Y-119610285D01*
X135723333Y-119372190D01*
X135770952Y-119276952D01*
X135818571Y-119229333D01*
X135913809Y-119181714D01*
X136151904Y-119181714D01*
X136247142Y-119229333D01*
X136294761Y-119276952D01*
X136342380Y-119372190D01*
X136342380Y-119610285D01*
X136294761Y-119705523D01*
X136247142Y-119753142D01*
X133802380Y-120991238D02*
X133326190Y-121324571D01*
X133802380Y-121562666D02*
X132802380Y-121562666D01*
X132802380Y-121181714D01*
X132850000Y-121086476D01*
X132897619Y-121038857D01*
X132992857Y-120991238D01*
X133135714Y-120991238D01*
X133230952Y-121038857D01*
X133278571Y-121086476D01*
X133326190Y-121181714D01*
X133326190Y-121562666D01*
X133516666Y-120610285D02*
X133516666Y-120134095D01*
X133802380Y-120705523D02*
X132802380Y-120372190D01*
X133802380Y-120038857D01*
X133135714Y-119276952D02*
X133802380Y-119276952D01*
X132754761Y-119515047D02*
X133469047Y-119753142D01*
X133469047Y-119134095D01*
X131262380Y-120991238D02*
X130786190Y-121324571D01*
X131262380Y-121562666D02*
X130262380Y-121562666D01*
X130262380Y-121181714D01*
X130310000Y-121086476D01*
X130357619Y-121038857D01*
X130452857Y-120991238D01*
X130595714Y-120991238D01*
X130690952Y-121038857D01*
X130738571Y-121086476D01*
X130786190Y-121181714D01*
X130786190Y-121562666D01*
X130976666Y-120610285D02*
X130976666Y-120134095D01*
X131262380Y-120705523D02*
X130262380Y-120372190D01*
X131262380Y-120038857D01*
X130262380Y-119800761D02*
X130262380Y-119181714D01*
X130643333Y-119515047D01*
X130643333Y-119372190D01*
X130690952Y-119276952D01*
X130738571Y-119229333D01*
X130833809Y-119181714D01*
X131071904Y-119181714D01*
X131167142Y-119229333D01*
X131214761Y-119276952D01*
X131262380Y-119372190D01*
X131262380Y-119657904D01*
X131214761Y-119753142D01*
X131167142Y-119800761D01*
X128722380Y-120991238D02*
X128246190Y-121324571D01*
X128722380Y-121562666D02*
X127722380Y-121562666D01*
X127722380Y-121181714D01*
X127770000Y-121086476D01*
X127817619Y-121038857D01*
X127912857Y-120991238D01*
X128055714Y-120991238D01*
X128150952Y-121038857D01*
X128198571Y-121086476D01*
X128246190Y-121181714D01*
X128246190Y-121562666D01*
X128436666Y-120610285D02*
X128436666Y-120134095D01*
X128722380Y-120705523D02*
X127722380Y-120372190D01*
X128722380Y-120038857D01*
X127817619Y-119753142D02*
X127770000Y-119705523D01*
X127722380Y-119610285D01*
X127722380Y-119372190D01*
X127770000Y-119276952D01*
X127817619Y-119229333D01*
X127912857Y-119181714D01*
X128008095Y-119181714D01*
X128150952Y-119229333D01*
X128722380Y-119800761D01*
X128722380Y-119181714D01*
X126182380Y-120991238D02*
X125706190Y-121324571D01*
X126182380Y-121562666D02*
X125182380Y-121562666D01*
X125182380Y-121181714D01*
X125230000Y-121086476D01*
X125277619Y-121038857D01*
X125372857Y-120991238D01*
X125515714Y-120991238D01*
X125610952Y-121038857D01*
X125658571Y-121086476D01*
X125706190Y-121181714D01*
X125706190Y-121562666D01*
X125896666Y-120610285D02*
X125896666Y-120134095D01*
X126182380Y-120705523D02*
X125182380Y-120372190D01*
X126182380Y-120038857D01*
X126182380Y-119181714D02*
X126182380Y-119753142D01*
X126182380Y-119467428D02*
X125182380Y-119467428D01*
X125325238Y-119562666D01*
X125420476Y-119657904D01*
X125468095Y-119753142D01*
X123388380Y-120991238D02*
X122912190Y-121324571D01*
X123388380Y-121562666D02*
X122388380Y-121562666D01*
X122388380Y-121181714D01*
X122436000Y-121086476D01*
X122483619Y-121038857D01*
X122578857Y-120991238D01*
X122721714Y-120991238D01*
X122816952Y-121038857D01*
X122864571Y-121086476D01*
X122912190Y-121181714D01*
X122912190Y-121562666D01*
X123102666Y-120610285D02*
X123102666Y-120134095D01*
X123388380Y-120705523D02*
X122388380Y-120372190D01*
X123388380Y-120038857D01*
X122388380Y-119515047D02*
X122388380Y-119419809D01*
X122436000Y-119324571D01*
X122483619Y-119276952D01*
X122578857Y-119229333D01*
X122769333Y-119181714D01*
X123007428Y-119181714D01*
X123197904Y-119229333D01*
X123293142Y-119276952D01*
X123340761Y-119324571D01*
X123388380Y-119419809D01*
X123388380Y-119515047D01*
X123340761Y-119610285D01*
X123293142Y-119657904D01*
X123197904Y-119705523D01*
X123007428Y-119753142D01*
X122769333Y-119753142D01*
X122578857Y-119705523D01*
X122483619Y-119657904D01*
X122436000Y-119610285D01*
X122388380Y-119515047D01*
X110434380Y-128261904D02*
X109434380Y-128261904D01*
X109434380Y-127880952D01*
X109482000Y-127785714D01*
X109529619Y-127738095D01*
X109624857Y-127690476D01*
X109767714Y-127690476D01*
X109862952Y-127738095D01*
X109910571Y-127785714D01*
X109958190Y-127880952D01*
X109958190Y-128261904D01*
X109482000Y-126738095D02*
X109434380Y-126833333D01*
X109434380Y-126976190D01*
X109482000Y-127119047D01*
X109577238Y-127214285D01*
X109672476Y-127261904D01*
X109862952Y-127309523D01*
X110005809Y-127309523D01*
X110196285Y-127261904D01*
X110291523Y-127214285D01*
X110386761Y-127119047D01*
X110434380Y-126976190D01*
X110434380Y-126880952D01*
X110386761Y-126738095D01*
X110339142Y-126690476D01*
X110005809Y-126690476D01*
X110005809Y-126880952D01*
X110339142Y-125690476D02*
X110386761Y-125738095D01*
X110434380Y-125880952D01*
X110434380Y-125976190D01*
X110386761Y-126119047D01*
X110291523Y-126214285D01*
X110196285Y-126261904D01*
X110005809Y-126309523D01*
X109862952Y-126309523D01*
X109672476Y-126261904D01*
X109577238Y-126214285D01*
X109482000Y-126119047D01*
X109434380Y-125976190D01*
X109434380Y-125880952D01*
X109482000Y-125738095D01*
X109529619Y-125690476D01*
X107894380Y-128261904D02*
X106894380Y-128261904D01*
X106894380Y-127880952D01*
X106942000Y-127785714D01*
X106989619Y-127738095D01*
X107084857Y-127690476D01*
X107227714Y-127690476D01*
X107322952Y-127738095D01*
X107370571Y-127785714D01*
X107418190Y-127880952D01*
X107418190Y-128261904D01*
X106942000Y-126738095D02*
X106894380Y-126833333D01*
X106894380Y-126976190D01*
X106942000Y-127119047D01*
X107037238Y-127214285D01*
X107132476Y-127261904D01*
X107322952Y-127309523D01*
X107465809Y-127309523D01*
X107656285Y-127261904D01*
X107751523Y-127214285D01*
X107846761Y-127119047D01*
X107894380Y-126976190D01*
X107894380Y-126880952D01*
X107846761Y-126738095D01*
X107799142Y-126690476D01*
X107465809Y-126690476D01*
X107465809Y-126880952D01*
X107894380Y-126261904D02*
X106894380Y-126261904D01*
X106894380Y-126023809D01*
X106942000Y-125880952D01*
X107037238Y-125785714D01*
X107132476Y-125738095D01*
X107322952Y-125690476D01*
X107465809Y-125690476D01*
X107656285Y-125738095D01*
X107751523Y-125785714D01*
X107846761Y-125880952D01*
X107894380Y-126023809D01*
X107894380Y-126261904D01*
X104148000Y-127761904D02*
X104100380Y-127857142D01*
X104100380Y-128000000D01*
X104148000Y-128142857D01*
X104243238Y-128238095D01*
X104338476Y-128285714D01*
X104528952Y-128333333D01*
X104671809Y-128333333D01*
X104862285Y-128285714D01*
X104957523Y-128238095D01*
X105052761Y-128142857D01*
X105100380Y-128000000D01*
X105100380Y-127904761D01*
X105052761Y-127761904D01*
X105005142Y-127714285D01*
X104671809Y-127714285D01*
X104671809Y-127904761D01*
X105100380Y-127285714D02*
X104100380Y-127285714D01*
X105100380Y-126714285D01*
X104100380Y-126714285D01*
X105100380Y-126238095D02*
X104100380Y-126238095D01*
X104100380Y-126000000D01*
X104148000Y-125857142D01*
X104243238Y-125761904D01*
X104338476Y-125714285D01*
X104528952Y-125666666D01*
X104671809Y-125666666D01*
X104862285Y-125714285D01*
X104957523Y-125761904D01*
X105052761Y-125857142D01*
X105100380Y-126000000D01*
X105100380Y-126238095D01*
X101560380Y-128333333D02*
X102560380Y-128000000D01*
X101560380Y-127666666D01*
X102560380Y-127333333D02*
X101560380Y-127333333D01*
X101560380Y-127095238D01*
X101608000Y-126952380D01*
X101703238Y-126857142D01*
X101798476Y-126809523D01*
X101988952Y-126761904D01*
X102131809Y-126761904D01*
X102322285Y-126809523D01*
X102417523Y-126857142D01*
X102512761Y-126952380D01*
X102560380Y-127095238D01*
X102560380Y-127333333D01*
X102560380Y-126333333D02*
X101560380Y-126333333D01*
X101560380Y-126095238D01*
X101608000Y-125952380D01*
X101703238Y-125857142D01*
X101798476Y-125809523D01*
X101988952Y-125761904D01*
X102131809Y-125761904D01*
X102322285Y-125809523D01*
X102417523Y-125857142D01*
X102512761Y-125952380D01*
X102560380Y-126095238D01*
X102560380Y-126333333D01*
D11*
X99020380Y-128547333D02*
X100020380Y-128214000D01*
X99020380Y-127880666D01*
X100020380Y-127547333D02*
X99020380Y-127547333D01*
X99020380Y-127166380D01*
X99068000Y-127071142D01*
X99115619Y-127023523D01*
X99210857Y-126975904D01*
X99353714Y-126975904D01*
X99448952Y-127023523D01*
X99496571Y-127071142D01*
X99544190Y-127166380D01*
X99544190Y-127547333D01*
X100020380Y-126547333D02*
X99020380Y-126547333D01*
X99020380Y-126166380D01*
X99068000Y-126071142D01*
X99115619Y-126023523D01*
X99210857Y-125975904D01*
X99353714Y-125975904D01*
X99448952Y-126023523D01*
X99496571Y-126071142D01*
X99544190Y-126166380D01*
X99544190Y-126547333D01*
X98972761Y-124833047D02*
X100258476Y-125690190D01*
X100020380Y-124499714D02*
X99020380Y-124499714D01*
X99734666Y-124166380D01*
X99020380Y-123833047D01*
X100020380Y-123833047D01*
X99925142Y-122785428D02*
X99972761Y-122833047D01*
X100020380Y-122975904D01*
X100020380Y-123071142D01*
X99972761Y-123214000D01*
X99877523Y-123309238D01*
X99782285Y-123356857D01*
X99591809Y-123404476D01*
X99448952Y-123404476D01*
X99258476Y-123356857D01*
X99163238Y-123309238D01*
X99068000Y-123214000D01*
X99020380Y-123071142D01*
X99020380Y-122975904D01*
X99068000Y-122833047D01*
X99115619Y-122785428D01*
X100020380Y-121880666D02*
X100020380Y-122356857D01*
X99020380Y-122356857D01*
X100020380Y-120975904D02*
X99544190Y-121309238D01*
X100020380Y-121547333D02*
X99020380Y-121547333D01*
X99020380Y-121166380D01*
X99068000Y-121071142D01*
X99115619Y-121023523D01*
X99210857Y-120975904D01*
X99353714Y-120975904D01*
X99448952Y-121023523D01*
X99496571Y-121071142D01*
X99544190Y-121166380D01*
X99544190Y-121547333D01*
D12*
X104649225Y-109527000D02*
X104649225Y-110027000D01*
X104399225Y-109777000D02*
X104899225Y-109777000D01*
X109805000Y-110968000D02*
X109805000Y-111536000D01*
X109765000Y-110734000D02*
X109765000Y-111770000D01*
X109725000Y-110575000D02*
X109725000Y-111929000D01*
X109685000Y-110447000D02*
X109685000Y-112057000D01*
X109645000Y-110337000D02*
X109645000Y-112167000D01*
X109605000Y-110241000D02*
X109605000Y-112263000D01*
X109565000Y-110154000D02*
X109565000Y-112350000D01*
X109525000Y-110074000D02*
X109525000Y-112430000D01*
X109485000Y-110001000D02*
X109485000Y-112503000D01*
X109445000Y-109933000D02*
X109445000Y-112571000D01*
X109405000Y-109869000D02*
X109405000Y-112635000D01*
X109365000Y-109809000D02*
X109365000Y-112695000D01*
X109325000Y-109752000D02*
X109325000Y-112752000D01*
X109285000Y-109698000D02*
X109285000Y-112806000D01*
X109245000Y-109647000D02*
X109245000Y-112857000D01*
X109205000Y-112292000D02*
X109205000Y-112905000D01*
X109205000Y-109599000D02*
X109205000Y-110212000D01*
X109165000Y-112292000D02*
X109165000Y-112951000D01*
X109165000Y-109553000D02*
X109165000Y-110212000D01*
X109125000Y-112292000D02*
X109125000Y-112995000D01*
X109125000Y-109509000D02*
X109125000Y-110212000D01*
X109085000Y-112292000D02*
X109085000Y-113037000D01*
X109085000Y-109467000D02*
X109085000Y-110212000D01*
X109045000Y-112292000D02*
X109045000Y-113078000D01*
X109045000Y-109426000D02*
X109045000Y-110212000D01*
X109005000Y-112292000D02*
X109005000Y-113116000D01*
X109005000Y-109388000D02*
X109005000Y-110212000D01*
X108965000Y-112292000D02*
X108965000Y-113153000D01*
X108965000Y-109351000D02*
X108965000Y-110212000D01*
X108925000Y-112292000D02*
X108925000Y-113189000D01*
X108925000Y-109315000D02*
X108925000Y-110212000D01*
X108885000Y-112292000D02*
X108885000Y-113223000D01*
X108885000Y-109281000D02*
X108885000Y-110212000D01*
X108845000Y-112292000D02*
X108845000Y-113256000D01*
X108845000Y-109248000D02*
X108845000Y-110212000D01*
X108805000Y-112292000D02*
X108805000Y-113287000D01*
X108805000Y-109217000D02*
X108805000Y-110212000D01*
X108765000Y-112292000D02*
X108765000Y-113317000D01*
X108765000Y-109187000D02*
X108765000Y-110212000D01*
X108725000Y-112292000D02*
X108725000Y-113347000D01*
X108725000Y-109157000D02*
X108725000Y-110212000D01*
X108685000Y-112292000D02*
X108685000Y-113374000D01*
X108685000Y-109130000D02*
X108685000Y-110212000D01*
X108645000Y-112292000D02*
X108645000Y-113401000D01*
X108645000Y-109103000D02*
X108645000Y-110212000D01*
X108605000Y-112292000D02*
X108605000Y-113427000D01*
X108605000Y-109077000D02*
X108605000Y-110212000D01*
X108565000Y-112292000D02*
X108565000Y-113452000D01*
X108565000Y-109052000D02*
X108565000Y-110212000D01*
X108525000Y-112292000D02*
X108525000Y-113476000D01*
X108525000Y-109028000D02*
X108525000Y-110212000D01*
X108485000Y-112292000D02*
X108485000Y-113499000D01*
X108485000Y-109005000D02*
X108485000Y-110212000D01*
X108445000Y-112292000D02*
X108445000Y-113520000D01*
X108445000Y-108984000D02*
X108445000Y-110212000D01*
X108405000Y-112292000D02*
X108405000Y-113542000D01*
X108405000Y-108962000D02*
X108405000Y-110212000D01*
X108365000Y-112292000D02*
X108365000Y-113562000D01*
X108365000Y-108942000D02*
X108365000Y-110212000D01*
X108325000Y-112292000D02*
X108325000Y-113581000D01*
X108325000Y-108923000D02*
X108325000Y-110212000D01*
X108285000Y-112292000D02*
X108285000Y-113600000D01*
X108285000Y-108904000D02*
X108285000Y-110212000D01*
X108245000Y-112292000D02*
X108245000Y-113617000D01*
X108245000Y-108887000D02*
X108245000Y-110212000D01*
X108205000Y-112292000D02*
X108205000Y-113634000D01*
X108205000Y-108870000D02*
X108205000Y-110212000D01*
X108165000Y-112292000D02*
X108165000Y-113650000D01*
X108165000Y-108854000D02*
X108165000Y-110212000D01*
X108125000Y-112292000D02*
X108125000Y-113666000D01*
X108125000Y-108838000D02*
X108125000Y-110212000D01*
X108085000Y-112292000D02*
X108085000Y-113680000D01*
X108085000Y-108824000D02*
X108085000Y-110212000D01*
X108045000Y-112292000D02*
X108045000Y-113694000D01*
X108045000Y-108810000D02*
X108045000Y-110212000D01*
X108005000Y-112292000D02*
X108005000Y-113707000D01*
X108005000Y-108797000D02*
X108005000Y-110212000D01*
X107965000Y-112292000D02*
X107965000Y-113720000D01*
X107965000Y-108784000D02*
X107965000Y-110212000D01*
X107925000Y-112292000D02*
X107925000Y-113732000D01*
X107925000Y-108772000D02*
X107925000Y-110212000D01*
X107884000Y-112292000D02*
X107884000Y-113743000D01*
X107884000Y-108761000D02*
X107884000Y-110212000D01*
X107844000Y-112292000D02*
X107844000Y-113753000D01*
X107844000Y-108751000D02*
X107844000Y-110212000D01*
X107804000Y-112292000D02*
X107804000Y-113763000D01*
X107804000Y-108741000D02*
X107804000Y-110212000D01*
X107764000Y-112292000D02*
X107764000Y-113772000D01*
X107764000Y-108732000D02*
X107764000Y-110212000D01*
X107724000Y-112292000D02*
X107724000Y-113780000D01*
X107724000Y-108724000D02*
X107724000Y-110212000D01*
X107684000Y-112292000D02*
X107684000Y-113788000D01*
X107684000Y-108716000D02*
X107684000Y-110212000D01*
X107644000Y-112292000D02*
X107644000Y-113795000D01*
X107644000Y-108709000D02*
X107644000Y-110212000D01*
X107604000Y-112292000D02*
X107604000Y-113802000D01*
X107604000Y-108702000D02*
X107604000Y-110212000D01*
X107564000Y-112292000D02*
X107564000Y-113808000D01*
X107564000Y-108696000D02*
X107564000Y-110212000D01*
X107524000Y-112292000D02*
X107524000Y-113813000D01*
X107524000Y-108691000D02*
X107524000Y-110212000D01*
X107484000Y-112292000D02*
X107484000Y-113817000D01*
X107484000Y-108687000D02*
X107484000Y-110212000D01*
X107444000Y-112292000D02*
X107444000Y-113821000D01*
X107444000Y-108683000D02*
X107444000Y-110212000D01*
X107404000Y-112292000D02*
X107404000Y-113825000D01*
X107404000Y-108679000D02*
X107404000Y-110212000D01*
X107364000Y-112292000D02*
X107364000Y-113828000D01*
X107364000Y-108676000D02*
X107364000Y-110212000D01*
X107324000Y-112292000D02*
X107324000Y-113830000D01*
X107324000Y-108674000D02*
X107324000Y-110212000D01*
X107284000Y-112292000D02*
X107284000Y-113831000D01*
X107284000Y-108673000D02*
X107284000Y-110212000D01*
X107244000Y-108672000D02*
X107244000Y-110212000D01*
X107244000Y-112292000D02*
X107244000Y-113832000D01*
X107204000Y-108672000D02*
X107204000Y-110212000D01*
X107204000Y-112292000D02*
X107204000Y-113832000D01*
X109824000Y-111252000D02*
G75*
G03X109824000Y-111252000I-2620000J0D01*
G01*
X117412000Y-111252000D02*
G75*
G03X117412000Y-111252000I-2620000J0D01*
G01*
X114792000Y-112292000D02*
X114792000Y-113832000D01*
X114792000Y-108672000D02*
X114792000Y-110212000D01*
X114832000Y-112292000D02*
X114832000Y-113832000D01*
X114832000Y-108672000D02*
X114832000Y-110212000D01*
X114872000Y-108673000D02*
X114872000Y-110212000D01*
X114872000Y-112292000D02*
X114872000Y-113831000D01*
X114912000Y-108674000D02*
X114912000Y-110212000D01*
X114912000Y-112292000D02*
X114912000Y-113830000D01*
X114952000Y-108676000D02*
X114952000Y-110212000D01*
X114952000Y-112292000D02*
X114952000Y-113828000D01*
X114992000Y-108679000D02*
X114992000Y-110212000D01*
X114992000Y-112292000D02*
X114992000Y-113825000D01*
X115032000Y-108683000D02*
X115032000Y-110212000D01*
X115032000Y-112292000D02*
X115032000Y-113821000D01*
X115072000Y-108687000D02*
X115072000Y-110212000D01*
X115072000Y-112292000D02*
X115072000Y-113817000D01*
X115112000Y-108691000D02*
X115112000Y-110212000D01*
X115112000Y-112292000D02*
X115112000Y-113813000D01*
X115152000Y-108696000D02*
X115152000Y-110212000D01*
X115152000Y-112292000D02*
X115152000Y-113808000D01*
X115192000Y-108702000D02*
X115192000Y-110212000D01*
X115192000Y-112292000D02*
X115192000Y-113802000D01*
X115232000Y-108709000D02*
X115232000Y-110212000D01*
X115232000Y-112292000D02*
X115232000Y-113795000D01*
X115272000Y-108716000D02*
X115272000Y-110212000D01*
X115272000Y-112292000D02*
X115272000Y-113788000D01*
X115312000Y-108724000D02*
X115312000Y-110212000D01*
X115312000Y-112292000D02*
X115312000Y-113780000D01*
X115352000Y-108732000D02*
X115352000Y-110212000D01*
X115352000Y-112292000D02*
X115352000Y-113772000D01*
X115392000Y-108741000D02*
X115392000Y-110212000D01*
X115392000Y-112292000D02*
X115392000Y-113763000D01*
X115432000Y-108751000D02*
X115432000Y-110212000D01*
X115432000Y-112292000D02*
X115432000Y-113753000D01*
X115472000Y-108761000D02*
X115472000Y-110212000D01*
X115472000Y-112292000D02*
X115472000Y-113743000D01*
X115513000Y-108772000D02*
X115513000Y-110212000D01*
X115513000Y-112292000D02*
X115513000Y-113732000D01*
X115553000Y-108784000D02*
X115553000Y-110212000D01*
X115553000Y-112292000D02*
X115553000Y-113720000D01*
X115593000Y-108797000D02*
X115593000Y-110212000D01*
X115593000Y-112292000D02*
X115593000Y-113707000D01*
X115633000Y-108810000D02*
X115633000Y-110212000D01*
X115633000Y-112292000D02*
X115633000Y-113694000D01*
X115673000Y-108824000D02*
X115673000Y-110212000D01*
X115673000Y-112292000D02*
X115673000Y-113680000D01*
X115713000Y-108838000D02*
X115713000Y-110212000D01*
X115713000Y-112292000D02*
X115713000Y-113666000D01*
X115753000Y-108854000D02*
X115753000Y-110212000D01*
X115753000Y-112292000D02*
X115753000Y-113650000D01*
X115793000Y-108870000D02*
X115793000Y-110212000D01*
X115793000Y-112292000D02*
X115793000Y-113634000D01*
X115833000Y-108887000D02*
X115833000Y-110212000D01*
X115833000Y-112292000D02*
X115833000Y-113617000D01*
X115873000Y-108904000D02*
X115873000Y-110212000D01*
X115873000Y-112292000D02*
X115873000Y-113600000D01*
X115913000Y-108923000D02*
X115913000Y-110212000D01*
X115913000Y-112292000D02*
X115913000Y-113581000D01*
X115953000Y-108942000D02*
X115953000Y-110212000D01*
X115953000Y-112292000D02*
X115953000Y-113562000D01*
X115993000Y-108962000D02*
X115993000Y-110212000D01*
X115993000Y-112292000D02*
X115993000Y-113542000D01*
X116033000Y-108984000D02*
X116033000Y-110212000D01*
X116033000Y-112292000D02*
X116033000Y-113520000D01*
X116073000Y-109005000D02*
X116073000Y-110212000D01*
X116073000Y-112292000D02*
X116073000Y-113499000D01*
X116113000Y-109028000D02*
X116113000Y-110212000D01*
X116113000Y-112292000D02*
X116113000Y-113476000D01*
X116153000Y-109052000D02*
X116153000Y-110212000D01*
X116153000Y-112292000D02*
X116153000Y-113452000D01*
X116193000Y-109077000D02*
X116193000Y-110212000D01*
X116193000Y-112292000D02*
X116193000Y-113427000D01*
X116233000Y-109103000D02*
X116233000Y-110212000D01*
X116233000Y-112292000D02*
X116233000Y-113401000D01*
X116273000Y-109130000D02*
X116273000Y-110212000D01*
X116273000Y-112292000D02*
X116273000Y-113374000D01*
X116313000Y-109157000D02*
X116313000Y-110212000D01*
X116313000Y-112292000D02*
X116313000Y-113347000D01*
X116353000Y-109187000D02*
X116353000Y-110212000D01*
X116353000Y-112292000D02*
X116353000Y-113317000D01*
X116393000Y-109217000D02*
X116393000Y-110212000D01*
X116393000Y-112292000D02*
X116393000Y-113287000D01*
X116433000Y-109248000D02*
X116433000Y-110212000D01*
X116433000Y-112292000D02*
X116433000Y-113256000D01*
X116473000Y-109281000D02*
X116473000Y-110212000D01*
X116473000Y-112292000D02*
X116473000Y-113223000D01*
X116513000Y-109315000D02*
X116513000Y-110212000D01*
X116513000Y-112292000D02*
X116513000Y-113189000D01*
X116553000Y-109351000D02*
X116553000Y-110212000D01*
X116553000Y-112292000D02*
X116553000Y-113153000D01*
X116593000Y-109388000D02*
X116593000Y-110212000D01*
X116593000Y-112292000D02*
X116593000Y-113116000D01*
X116633000Y-109426000D02*
X116633000Y-110212000D01*
X116633000Y-112292000D02*
X116633000Y-113078000D01*
X116673000Y-109467000D02*
X116673000Y-110212000D01*
X116673000Y-112292000D02*
X116673000Y-113037000D01*
X116713000Y-109509000D02*
X116713000Y-110212000D01*
X116713000Y-112292000D02*
X116713000Y-112995000D01*
X116753000Y-109553000D02*
X116753000Y-110212000D01*
X116753000Y-112292000D02*
X116753000Y-112951000D01*
X116793000Y-109599000D02*
X116793000Y-110212000D01*
X116793000Y-112292000D02*
X116793000Y-112905000D01*
X116833000Y-109647000D02*
X116833000Y-112857000D01*
X116873000Y-109698000D02*
X116873000Y-112806000D01*
X116913000Y-109752000D02*
X116913000Y-112752000D01*
X116953000Y-109809000D02*
X116953000Y-112695000D01*
X116993000Y-109869000D02*
X116993000Y-112635000D01*
X117033000Y-109933000D02*
X117033000Y-112571000D01*
X117073000Y-110001000D02*
X117073000Y-112503000D01*
X117113000Y-110074000D02*
X117113000Y-112430000D01*
X117153000Y-110154000D02*
X117153000Y-112350000D01*
X117193000Y-110241000D02*
X117193000Y-112263000D01*
X117233000Y-110337000D02*
X117233000Y-112167000D01*
X117273000Y-110447000D02*
X117273000Y-112057000D01*
X117313000Y-110575000D02*
X117313000Y-111929000D01*
X117353000Y-110734000D02*
X117353000Y-111770000D01*
X117393000Y-110968000D02*
X117393000Y-111536000D01*
X111987225Y-109777000D02*
X112487225Y-109777000D01*
X112237225Y-109527000D02*
X112237225Y-110027000D01*
X86146000Y-111545000D02*
X86146000Y-111860000D01*
X86146000Y-109120000D02*
X86146000Y-109435000D01*
X80906000Y-111545000D02*
X80906000Y-111860000D01*
X80906000Y-109120000D02*
X80906000Y-109435000D01*
X80906000Y-111860000D02*
X86146000Y-111860000D01*
X80906000Y-109120000D02*
X86146000Y-109120000D01*
X90558000Y-109628000D02*
X95798000Y-109628000D01*
X90558000Y-112368000D02*
X95798000Y-112368000D01*
X90558000Y-109628000D02*
X90558000Y-109943000D01*
X90558000Y-112053000D02*
X90558000Y-112368000D01*
X95798000Y-109628000D02*
X95798000Y-109943000D01*
X95798000Y-112053000D02*
X95798000Y-112368000D01*
X186584335Y-86043392D02*
G75*
G03X183352000Y-85886484I-1672335J-1078608D01*
G01*
X186584335Y-88200608D02*
G75*
G02X183352000Y-88357516I-1672335J1078608D01*
G01*
X185953130Y-86042163D02*
G75*
G03X183871039Y-86042000I-1041130J-1079837D01*
G01*
X185953130Y-88201837D02*
G75*
G02X183871039Y-88202000I-1041130J1079837D01*
G01*
X183352000Y-85886000D02*
X183352000Y-86042000D01*
X183352000Y-88202000D02*
X183352000Y-88358000D01*
X183352000Y-83376000D02*
X183352000Y-83532000D01*
X183352000Y-81060000D02*
X183352000Y-81216000D01*
X185953130Y-83375837D02*
G75*
G02X183871039Y-83376000I-1041130J1079837D01*
G01*
X185953130Y-81216163D02*
G75*
G03X183871039Y-81216000I-1041130J-1079837D01*
G01*
X186584335Y-83374608D02*
G75*
G02X183352000Y-83531516I-1672335J1078608D01*
G01*
X186584335Y-81217392D02*
G75*
G03X183352000Y-81060484I-1672335J-1078608D01*
G01*
X113598000Y-131886000D02*
X113598000Y-129226000D01*
X100838000Y-131886000D02*
X113598000Y-131886000D01*
X100838000Y-129226000D02*
X113598000Y-129226000D01*
X100838000Y-131886000D02*
X100838000Y-129226000D01*
X99568000Y-131886000D02*
X98238000Y-131886000D01*
X98238000Y-131886000D02*
X98238000Y-130556000D01*
X160750000Y-65378000D02*
X160750000Y-65048000D01*
X154210000Y-65378000D02*
X160750000Y-65378000D01*
X154210000Y-65048000D02*
X154210000Y-65378000D01*
X160750000Y-62638000D02*
X160750000Y-62968000D01*
X154210000Y-62638000D02*
X160750000Y-62638000D01*
X154210000Y-62968000D02*
X154210000Y-62638000D01*
X170942000Y-125028000D02*
X170942000Y-122368000D01*
X170942000Y-125028000D02*
X188782000Y-125028000D01*
X188782000Y-125028000D02*
X188782000Y-122368000D01*
X170942000Y-122368000D02*
X188782000Y-122368000D01*
X168342000Y-122368000D02*
X169672000Y-122368000D01*
X168342000Y-123698000D02*
X168342000Y-122368000D01*
X216094000Y-70866000D02*
X218754000Y-70866000D01*
X216094000Y-70866000D02*
X216094000Y-109026000D01*
X216094000Y-109026000D02*
X218754000Y-109026000D01*
X218754000Y-70866000D02*
X218754000Y-109026000D01*
X218754000Y-68266000D02*
X218754000Y-69596000D01*
X217424000Y-68266000D02*
X218754000Y-68266000D01*
X196120000Y-77954000D02*
X196120000Y-77624000D01*
X196120000Y-77624000D02*
X202660000Y-77624000D01*
X202660000Y-77624000D02*
X202660000Y-77954000D01*
X196120000Y-80034000D02*
X196120000Y-80364000D01*
X196120000Y-80364000D02*
X202660000Y-80364000D01*
X202660000Y-80364000D02*
X202660000Y-80034000D01*
X122876000Y-75836000D02*
X122876000Y-81296000D01*
X173796000Y-75836000D02*
X122876000Y-75836000D01*
X173796000Y-88756000D02*
X173796000Y-75836000D01*
X122876000Y-88756000D02*
X173796000Y-88756000D01*
X122876000Y-83296000D02*
X122876000Y-88756000D01*
X122876000Y-81296000D02*
G75*
G02X122876000Y-83296000I0J-1000000D01*
G01*
X202660000Y-83920000D02*
X202660000Y-83590000D01*
X196120000Y-83920000D02*
X202660000Y-83920000D01*
X196120000Y-83590000D02*
X196120000Y-83920000D01*
X202660000Y-81180000D02*
X202660000Y-81510000D01*
X196120000Y-81180000D02*
X202660000Y-81180000D01*
X196120000Y-81510000D02*
X196120000Y-81180000D01*
X136874000Y-114400000D02*
X136874000Y-114070000D01*
X130334000Y-114400000D02*
X136874000Y-114400000D01*
X130334000Y-114070000D02*
X130334000Y-114400000D01*
X136874000Y-111660000D02*
X136874000Y-111990000D01*
X130334000Y-111660000D02*
X136874000Y-111660000D01*
X130334000Y-111990000D02*
X130334000Y-111660000D01*
X202660000Y-94588000D02*
X202660000Y-94258000D01*
X196120000Y-94588000D02*
X202660000Y-94588000D01*
X196120000Y-94258000D02*
X196120000Y-94588000D01*
X202660000Y-91848000D02*
X202660000Y-92178000D01*
X196120000Y-91848000D02*
X202660000Y-91848000D01*
X196120000Y-92178000D02*
X196120000Y-91848000D01*
X121606000Y-50292000D02*
X121606000Y-48962000D01*
X121606000Y-48962000D02*
X122936000Y-48962000D01*
X124206000Y-48962000D02*
X142046000Y-48962000D01*
X142046000Y-51622000D02*
X142046000Y-48962000D01*
X124206000Y-51622000D02*
X142046000Y-51622000D01*
X124206000Y-51622000D02*
X124206000Y-48962000D01*
X196120000Y-88368000D02*
X196120000Y-88038000D01*
X196120000Y-88038000D02*
X202660000Y-88038000D01*
X202660000Y-88038000D02*
X202660000Y-88368000D01*
X196120000Y-90448000D02*
X196120000Y-90778000D01*
X196120000Y-90778000D02*
X202660000Y-90778000D01*
X202660000Y-90778000D02*
X202660000Y-90448000D01*
X196374000Y-103608000D02*
X196374000Y-103278000D01*
X196374000Y-103278000D02*
X202914000Y-103278000D01*
X202914000Y-103278000D02*
X202914000Y-103608000D01*
X196374000Y-105688000D02*
X196374000Y-106018000D01*
X196374000Y-106018000D02*
X202914000Y-106018000D01*
X202914000Y-106018000D02*
X202914000Y-105688000D01*
X90820000Y-93884000D02*
X90820000Y-92044000D01*
X90820000Y-92044000D02*
X86980000Y-92044000D01*
X86980000Y-92044000D02*
X86980000Y-93884000D01*
X86980000Y-93884000D02*
X90820000Y-93884000D01*
X91770000Y-92964000D02*
X90820000Y-92964000D01*
X86030000Y-92964000D02*
X86980000Y-92964000D01*
X108966000Y-55880000D02*
X103632000Y-55880000D01*
X103632000Y-55880000D02*
X103632000Y-45212000D01*
X103632000Y-45212000D02*
X108966000Y-45212000D01*
X108966000Y-45212000D02*
X108966000Y-45212000D01*
X106426000Y-55372000D02*
X106426000Y-53086000D01*
X106426000Y-53086000D02*
X108712000Y-53086000D01*
X108712000Y-53086000D02*
X108712000Y-53086000D01*
X109296000Y-56456000D02*
X80096000Y-56456000D01*
X80096000Y-56456000D02*
X80096000Y-41006000D01*
X80096000Y-41006000D02*
X109296000Y-41006000D01*
X109296000Y-41006000D02*
X109296000Y-56456000D01*
X109296000Y-56456000D02*
X109296000Y-56456000D01*
X108966000Y-45212000D02*
X108966000Y-55880000D01*
X108966000Y-55880000D02*
X108966000Y-55880000D01*
X154686000Y-116646000D02*
X154686000Y-113986000D01*
X154686000Y-116646000D02*
X159826000Y-116646000D01*
X159826000Y-116646000D02*
X159826000Y-113986000D01*
X154686000Y-113986000D02*
X159826000Y-113986000D01*
X152086000Y-113986000D02*
X153416000Y-113986000D01*
X152086000Y-115316000D02*
X152086000Y-113986000D01*
X196120000Y-84812000D02*
X196120000Y-84482000D01*
X196120000Y-84482000D02*
X202660000Y-84482000D01*
X202660000Y-84482000D02*
X202660000Y-84812000D01*
X196120000Y-86892000D02*
X196120000Y-87222000D01*
X196120000Y-87222000D02*
X202660000Y-87222000D01*
X202660000Y-87222000D02*
X202660000Y-86892000D01*
X124460000Y-125028000D02*
X124460000Y-122368000D01*
X124460000Y-125028000D02*
X142300000Y-125028000D01*
X142300000Y-125028000D02*
X142300000Y-122368000D01*
X124460000Y-122368000D02*
X142300000Y-122368000D01*
X121860000Y-122368000D02*
X123190000Y-122368000D01*
X121860000Y-123698000D02*
X121860000Y-122368000D01*
X130334000Y-108688000D02*
X130334000Y-108358000D01*
X130334000Y-108358000D02*
X136874000Y-108358000D01*
X136874000Y-108358000D02*
X136874000Y-108688000D01*
X130334000Y-110768000D02*
X130334000Y-111098000D01*
X130334000Y-111098000D02*
X136874000Y-111098000D01*
X136874000Y-111098000D02*
X136874000Y-110768000D01*
X171450000Y-51622000D02*
X171450000Y-48962000D01*
X171450000Y-51622000D02*
X181670000Y-51622000D01*
X181670000Y-51622000D02*
X181670000Y-48962000D01*
X171450000Y-48962000D02*
X181670000Y-48962000D01*
X168850000Y-48962000D02*
X170180000Y-48962000D01*
X168850000Y-50292000D02*
X168850000Y-48962000D01*
X183352000Y-93028000D02*
X183352000Y-93184000D01*
X183352000Y-90712000D02*
X183352000Y-90868000D01*
X185953130Y-93027837D02*
G75*
G02X183871039Y-93028000I-1041130J1079837D01*
G01*
X185953130Y-90868163D02*
G75*
G03X183871039Y-90868000I-1041130J-1079837D01*
G01*
X186584335Y-93026608D02*
G75*
G02X183352000Y-93183516I-1672335J1078608D01*
G01*
X186584335Y-90869392D02*
G75*
G03X183352000Y-90712484I-1672335J-1078608D01*
G01*
X186584335Y-95441392D02*
G75*
G03X183352000Y-95284484I-1672335J-1078608D01*
G01*
X186584335Y-97598608D02*
G75*
G02X183352000Y-97755516I-1672335J1078608D01*
G01*
X185953130Y-95440163D02*
G75*
G03X183871039Y-95440000I-1041130J-1079837D01*
G01*
X185953130Y-97599837D02*
G75*
G02X183871039Y-97600000I-1041130J1079837D01*
G01*
X183352000Y-95284000D02*
X183352000Y-95440000D01*
X183352000Y-97600000D02*
X183352000Y-97756000D01*
X130334000Y-115546000D02*
X130334000Y-115216000D01*
X130334000Y-115216000D02*
X136874000Y-115216000D01*
X136874000Y-115216000D02*
X136874000Y-115546000D01*
X130334000Y-117626000D02*
X130334000Y-117956000D01*
X130334000Y-117956000D02*
X136874000Y-117956000D01*
X136874000Y-117956000D02*
X136874000Y-117626000D01*
X112341000Y-100362000D02*
X112341000Y-101872000D01*
X108640000Y-100362000D02*
X108640000Y-101872000D01*
X105370000Y-101872000D02*
X115610000Y-101872000D01*
X115610000Y-100362000D02*
X115610000Y-105003000D01*
X105370000Y-100362000D02*
X105370000Y-105003000D01*
X105370000Y-105003000D02*
X115610000Y-105003000D01*
X105370000Y-100362000D02*
X115610000Y-100362000D01*
X103760000Y-61898000D02*
X114680000Y-61898000D01*
X103760000Y-73738000D02*
X114680000Y-73738000D01*
X103760000Y-61898000D02*
X103760000Y-73738000D01*
X114680000Y-61898000D02*
X114680000Y-73738000D01*
X103520000Y-61658000D02*
X104903000Y-61658000D01*
X103520000Y-61658000D02*
X103520000Y-63041000D01*
X101900000Y-63198000D02*
X103760000Y-63198000D01*
X101900000Y-64818000D02*
X103760000Y-64818000D01*
X101900000Y-63198000D02*
X101900000Y-64818000D01*
X103760000Y-63198000D02*
X103760000Y-64818000D01*
X101900000Y-65738000D02*
X103760000Y-65738000D01*
X101900000Y-67358000D02*
X103760000Y-67358000D01*
X101900000Y-65738000D02*
X101900000Y-67358000D01*
X103760000Y-65738000D02*
X103760000Y-67358000D01*
X101900000Y-68278000D02*
X103760000Y-68278000D01*
X101900000Y-69898000D02*
X103760000Y-69898000D01*
X101900000Y-68278000D02*
X101900000Y-69898000D01*
X103760000Y-68278000D02*
X103760000Y-69898000D01*
X101900000Y-70818000D02*
X103760000Y-70818000D01*
X101900000Y-72438000D02*
X103760000Y-72438000D01*
X101900000Y-70818000D02*
X101900000Y-72438000D01*
X103760000Y-70818000D02*
X103760000Y-72438000D01*
X136874000Y-107542000D02*
X136874000Y-107212000D01*
X130334000Y-107542000D02*
X136874000Y-107542000D01*
X130334000Y-107212000D02*
X130334000Y-107542000D01*
X136874000Y-104802000D02*
X136874000Y-105132000D01*
X130334000Y-104802000D02*
X136874000Y-104802000D01*
X130334000Y-105132000D02*
X130334000Y-104802000D01*
X83526000Y-100362000D02*
X93766000Y-100362000D01*
X83526000Y-105003000D02*
X93766000Y-105003000D01*
X83526000Y-100362000D02*
X83526000Y-105003000D01*
X93766000Y-100362000D02*
X93766000Y-105003000D01*
X83526000Y-101872000D02*
X93766000Y-101872000D01*
X86796000Y-100362000D02*
X86796000Y-101872000D01*
X90497000Y-100362000D02*
X90497000Y-101872000D01*
X202660000Y-76808000D02*
X202660000Y-76478000D01*
X196120000Y-76808000D02*
X202660000Y-76808000D01*
X196120000Y-76478000D02*
X196120000Y-76808000D01*
X202660000Y-74068000D02*
X202660000Y-74398000D01*
X196120000Y-74068000D02*
X202660000Y-74068000D01*
X196120000Y-74398000D02*
X196120000Y-74068000D01*
X152086000Y-50800000D02*
X152086000Y-49470000D01*
X152086000Y-49470000D02*
X153416000Y-49470000D01*
X154686000Y-49470000D02*
X159826000Y-49470000D01*
X159826000Y-52130000D02*
X159826000Y-49470000D01*
X154686000Y-52130000D02*
X159826000Y-52130000D01*
X154686000Y-52130000D02*
X154686000Y-49470000D01*
X128270000Y-63052000D02*
X128270000Y-60392000D01*
X128270000Y-63052000D02*
X141030000Y-63052000D01*
X141030000Y-63052000D02*
X141030000Y-60392000D01*
X128270000Y-60392000D02*
X141030000Y-60392000D01*
X125670000Y-60392000D02*
X127000000Y-60392000D01*
X125670000Y-61722000D02*
X125670000Y-60392000D01*
X166430000Y-132394000D02*
X166430000Y-129734000D01*
X148590000Y-132394000D02*
X166430000Y-132394000D01*
X148590000Y-129734000D02*
X166430000Y-129734000D01*
X148590000Y-132394000D02*
X148590000Y-129734000D01*
X147320000Y-132394000D02*
X145990000Y-132394000D01*
X145990000Y-132394000D02*
X145990000Y-131064000D01*
X213862000Y-123698000D02*
G75*
G03X213862000Y-123698000I-6100000J0D01*
G01*
X153956000Y-59158000D02*
X153956000Y-58828000D01*
X153956000Y-58828000D02*
X160496000Y-58828000D01*
X160496000Y-58828000D02*
X160496000Y-59158000D01*
X153956000Y-61238000D02*
X153956000Y-61568000D01*
X153956000Y-61568000D02*
X160496000Y-61568000D01*
X160496000Y-61568000D02*
X160496000Y-61238000D01*
X87912000Y-124580000D02*
X87912000Y-133080000D01*
X87912000Y-133080000D02*
X78712000Y-133080000D01*
X78712000Y-133080000D02*
X78712000Y-118380000D01*
X85812000Y-118380000D02*
X87912000Y-118380000D01*
X87912000Y-118380000D02*
X87912000Y-120180000D01*
X80112000Y-118080000D02*
X78412000Y-118080000D01*
X78412000Y-118080000D02*
X78412000Y-119680000D01*
X78712000Y-118380000D02*
X80812000Y-118380000D01*
X196790000Y-44684000D02*
X205860000Y-44684000D01*
X196790000Y-57424000D02*
X205860000Y-57424000D01*
X196790000Y-44684000D02*
X196790000Y-57424000D01*
X205860000Y-44684000D02*
X205860000Y-57424000D01*
X205860000Y-47759000D02*
X212210000Y-47759000D01*
X205860000Y-54349000D02*
X212210000Y-54349000D01*
X205860000Y-47759000D02*
X205860000Y-54349000D01*
X212210000Y-47759000D02*
X212210000Y-54349000D01*
X212210000Y-49350000D02*
X218660000Y-49350000D01*
X212210000Y-52759000D02*
X218660000Y-52759000D01*
X212210000Y-49350000D02*
X212210000Y-52759000D01*
X218660000Y-49350000D02*
X218660000Y-52759000D01*
D10*
X107037333Y-107859142D02*
X106989714Y-107906761D01*
X106846857Y-107954380D01*
X106751619Y-107954380D01*
X106608761Y-107906761D01*
X106513523Y-107811523D01*
X106465904Y-107716285D01*
X106418285Y-107525809D01*
X106418285Y-107382952D01*
X106465904Y-107192476D01*
X106513523Y-107097238D01*
X106608761Y-107002000D01*
X106751619Y-106954380D01*
X106846857Y-106954380D01*
X106989714Y-107002000D01*
X107037333Y-107049619D01*
X107370666Y-106954380D02*
X107989714Y-106954380D01*
X107656380Y-107335333D01*
X107799238Y-107335333D01*
X107894476Y-107382952D01*
X107942095Y-107430571D01*
X107989714Y-107525809D01*
X107989714Y-107763904D01*
X107942095Y-107859142D01*
X107894476Y-107906761D01*
X107799238Y-107954380D01*
X107513523Y-107954380D01*
X107418285Y-107906761D01*
X107370666Y-107859142D01*
X114625333Y-107859142D02*
X114577714Y-107906761D01*
X114434857Y-107954380D01*
X114339619Y-107954380D01*
X114196761Y-107906761D01*
X114101523Y-107811523D01*
X114053904Y-107716285D01*
X114006285Y-107525809D01*
X114006285Y-107382952D01*
X114053904Y-107192476D01*
X114101523Y-107097238D01*
X114196761Y-107002000D01*
X114339619Y-106954380D01*
X114434857Y-106954380D01*
X114577714Y-107002000D01*
X114625333Y-107049619D01*
X115482476Y-107287714D02*
X115482476Y-107954380D01*
X115244380Y-106906761D02*
X115006285Y-107621047D01*
X115625333Y-107621047D01*
X83359333Y-108347142D02*
X83311714Y-108394761D01*
X83168857Y-108442380D01*
X83073619Y-108442380D01*
X82930761Y-108394761D01*
X82835523Y-108299523D01*
X82787904Y-108204285D01*
X82740285Y-108013809D01*
X82740285Y-107870952D01*
X82787904Y-107680476D01*
X82835523Y-107585238D01*
X82930761Y-107490000D01*
X83073619Y-107442380D01*
X83168857Y-107442380D01*
X83311714Y-107490000D01*
X83359333Y-107537619D01*
X84311714Y-108442380D02*
X83740285Y-108442380D01*
X84026000Y-108442380D02*
X84026000Y-107442380D01*
X83930761Y-107585238D01*
X83835523Y-107680476D01*
X83740285Y-107728095D01*
X93011333Y-108855142D02*
X92963714Y-108902761D01*
X92820857Y-108950380D01*
X92725619Y-108950380D01*
X92582761Y-108902761D01*
X92487523Y-108807523D01*
X92439904Y-108712285D01*
X92392285Y-108521809D01*
X92392285Y-108378952D01*
X92439904Y-108188476D01*
X92487523Y-108093238D01*
X92582761Y-107998000D01*
X92725619Y-107950380D01*
X92820857Y-107950380D01*
X92963714Y-107998000D01*
X93011333Y-108045619D01*
X93392285Y-108045619D02*
X93439904Y-107998000D01*
X93535142Y-107950380D01*
X93773238Y-107950380D01*
X93868476Y-107998000D01*
X93916095Y-108045619D01*
X93963714Y-108140857D01*
X93963714Y-108236095D01*
X93916095Y-108378952D01*
X93344666Y-108950380D01*
X93963714Y-108950380D01*
X121328380Y-83057904D02*
X122137904Y-83057904D01*
X122233142Y-83010285D01*
X122280761Y-82962666D01*
X122328380Y-82867428D01*
X122328380Y-82676952D01*
X122280761Y-82581714D01*
X122233142Y-82534095D01*
X122137904Y-82486476D01*
X121328380Y-82486476D01*
X121328380Y-82105523D02*
X121328380Y-81486476D01*
X121709333Y-81819809D01*
X121709333Y-81676952D01*
X121756952Y-81581714D01*
X121804571Y-81534095D01*
X121899809Y-81486476D01*
X122137904Y-81486476D01*
X122233142Y-81534095D01*
X122280761Y-81581714D01*
X122328380Y-81676952D01*
X122328380Y-81962666D01*
X122280761Y-82057904D01*
X122233142Y-82105523D01*
X88161904Y-95336380D02*
X88161904Y-94336380D01*
X88400000Y-94336380D01*
X88542857Y-94384000D01*
X88638095Y-94479238D01*
X88685714Y-94574476D01*
X88733333Y-94764952D01*
X88733333Y-94907809D01*
X88685714Y-95098285D01*
X88638095Y-95193523D01*
X88542857Y-95288761D01*
X88400000Y-95336380D01*
X88161904Y-95336380D01*
X89638095Y-94336380D02*
X89161904Y-94336380D01*
X89114285Y-94812571D01*
X89161904Y-94764952D01*
X89257142Y-94717333D01*
X89495238Y-94717333D01*
X89590476Y-94764952D01*
X89638095Y-94812571D01*
X89685714Y-94907809D01*
X89685714Y-95145904D01*
X89638095Y-95241142D01*
X89590476Y-95288761D01*
X89495238Y-95336380D01*
X89257142Y-95336380D01*
X89161904Y-95288761D01*
X89114285Y-95241142D01*
X150098380Y-116125523D02*
X150812666Y-116125523D01*
X150955523Y-116173142D01*
X151050761Y-116268380D01*
X151098380Y-116411238D01*
X151098380Y-116506476D01*
X151098380Y-115125523D02*
X151098380Y-115696952D01*
X151098380Y-115411238D02*
X150098380Y-115411238D01*
X150241238Y-115506476D01*
X150336476Y-115601714D01*
X150384095Y-115696952D01*
X151098380Y-114173142D02*
X151098380Y-114744571D01*
X151098380Y-114458857D02*
X150098380Y-114458857D01*
X150241238Y-114554095D01*
X150336476Y-114649333D01*
X150384095Y-114744571D01*
X109728095Y-98814380D02*
X109728095Y-99623904D01*
X109775714Y-99719142D01*
X109823333Y-99766761D01*
X109918571Y-99814380D01*
X110109047Y-99814380D01*
X110204285Y-99766761D01*
X110251904Y-99719142D01*
X110299523Y-99623904D01*
X110299523Y-98814380D01*
X111204285Y-99147714D02*
X111204285Y-99814380D01*
X110966190Y-98766761D02*
X110728095Y-99481047D01*
X111347142Y-99481047D01*
X107886666Y-61302761D02*
X108029523Y-61350380D01*
X108267619Y-61350380D01*
X108362857Y-61302761D01*
X108410476Y-61255142D01*
X108458095Y-61159904D01*
X108458095Y-61064666D01*
X108410476Y-60969428D01*
X108362857Y-60921809D01*
X108267619Y-60874190D01*
X108077142Y-60826571D01*
X107981904Y-60778952D01*
X107934285Y-60731333D01*
X107886666Y-60636095D01*
X107886666Y-60540857D01*
X107934285Y-60445619D01*
X107981904Y-60398000D01*
X108077142Y-60350380D01*
X108315238Y-60350380D01*
X108458095Y-60398000D01*
X108791428Y-60350380D02*
X109029523Y-61350380D01*
X109220000Y-60636095D01*
X109410476Y-61350380D01*
X109648571Y-60350380D01*
X110553333Y-61350380D02*
X109981904Y-61350380D01*
X110267619Y-61350380D02*
X110267619Y-60350380D01*
X110172380Y-60493238D01*
X110077142Y-60588476D01*
X109981904Y-60636095D01*
X87884095Y-98814380D02*
X87884095Y-99623904D01*
X87931714Y-99719142D01*
X87979333Y-99766761D01*
X88074571Y-99814380D01*
X88265047Y-99814380D01*
X88360285Y-99766761D01*
X88407904Y-99719142D01*
X88455523Y-99623904D01*
X88455523Y-98814380D01*
X88884095Y-98909619D02*
X88931714Y-98862000D01*
X89026952Y-98814380D01*
X89265047Y-98814380D01*
X89360285Y-98862000D01*
X89407904Y-98909619D01*
X89455523Y-99004857D01*
X89455523Y-99100095D01*
X89407904Y-99242952D01*
X88836476Y-99814380D01*
X89455523Y-99814380D01*
X123682380Y-62055333D02*
X124396666Y-62055333D01*
X124539523Y-62102952D01*
X124634761Y-62198190D01*
X124682380Y-62341047D01*
X124682380Y-62436285D01*
X123682380Y-61102952D02*
X123682380Y-61579142D01*
X124158571Y-61626761D01*
X124110952Y-61579142D01*
X124063333Y-61483904D01*
X124063333Y-61245809D01*
X124110952Y-61150571D01*
X124158571Y-61102952D01*
X124253809Y-61055333D01*
X124491904Y-61055333D01*
X124587142Y-61102952D01*
X124634761Y-61150571D01*
X124682380Y-61245809D01*
X124682380Y-61483904D01*
X124634761Y-61579142D01*
X124587142Y-61626761D01*
X206881047Y-116426571D02*
X207023904Y-116474190D01*
X207071523Y-116521809D01*
X207119142Y-116617047D01*
X207119142Y-116759904D01*
X207071523Y-116855142D01*
X207023904Y-116902761D01*
X206928666Y-116950380D01*
X206547714Y-116950380D01*
X206547714Y-115950380D01*
X206881047Y-115950380D01*
X206976285Y-115998000D01*
X207023904Y-116045619D01*
X207071523Y-116140857D01*
X207071523Y-116236095D01*
X207023904Y-116331333D01*
X206976285Y-116378952D01*
X206881047Y-116426571D01*
X206547714Y-116426571D01*
X207452476Y-115950380D02*
X208119142Y-115950380D01*
X207452476Y-116950380D01*
X208119142Y-116950380D01*
X209023904Y-116950380D02*
X208452476Y-116950380D01*
X208738190Y-116950380D02*
X208738190Y-115950380D01*
X208642952Y-116093238D01*
X208547714Y-116188476D01*
X208452476Y-116236095D01*
X203571047Y-121229428D02*
X204332952Y-121229428D01*
X203952000Y-121610380D02*
X203952000Y-120848476D01*
X82978666Y-116332380D02*
X82978666Y-117046666D01*
X82931047Y-117189523D01*
X82835809Y-117284761D01*
X82692952Y-117332380D01*
X82597714Y-117332380D01*
X83407238Y-116427619D02*
X83454857Y-116380000D01*
X83550095Y-116332380D01*
X83788190Y-116332380D01*
X83883428Y-116380000D01*
X83931047Y-116427619D01*
X83978666Y-116522857D01*
X83978666Y-116618095D01*
X83931047Y-116760952D01*
X83359619Y-117332380D01*
X83978666Y-117332380D01*
X200064761Y-44006380D02*
X199731428Y-43530190D01*
X199493333Y-44006380D02*
X199493333Y-43006380D01*
X199874285Y-43006380D01*
X199969523Y-43054000D01*
X200017142Y-43101619D01*
X200064761Y-43196857D01*
X200064761Y-43339714D01*
X200017142Y-43434952D01*
X199969523Y-43482571D01*
X199874285Y-43530190D01*
X199493333Y-43530190D01*
X200350476Y-43006380D02*
X200683809Y-44006380D01*
X201017142Y-43006380D01*
X201874285Y-44006380D02*
X201302857Y-44006380D01*
X201588571Y-44006380D02*
X201588571Y-43006380D01*
X201493333Y-43149238D01*
X201398095Y-43244476D01*
X201302857Y-43292095D01*
M02*
