G04 #@! TF.GenerationSoftware,KiCad,Pcbnew,5.1.1-8be2ce7~80~ubuntu18.04.1*
G04 #@! TF.CreationDate,2019-04-29T20:02:52-05:00*
G04 #@! TF.ProjectId,Proyecto,50726f79-6563-4746-9f2e-6b696361645f,rev?*
G04 #@! TF.SameCoordinates,Original*
G04 #@! TF.FileFunction,Legend,Top*
G04 #@! TF.FilePolarity,Positive*
%FSLAX46Y46*%
G04 Gerber Fmt 4.6, Leading zero omitted, Abs format (unit mm)*
G04 Created by KiCad (PCBNEW 5.1.1-8be2ce7~80~ubuntu18.04.1) date 2019-04-29 20:02:52*
%MOMM*%
%LPD*%
G04 APERTURE LIST*
%ADD10C,0.150000*%
%ADD11C,0.100000*%
%ADD12C,0.120000*%
G04 APERTURE END LIST*
D10*
X139232285Y-128722380D02*
X139232285Y-127722380D01*
X139613238Y-127722380D01*
X139708476Y-127770000D01*
X139756095Y-127817619D01*
X139803714Y-127912857D01*
X139803714Y-128055714D01*
X139756095Y-128150952D01*
X139708476Y-128198571D01*
X139613238Y-128246190D01*
X139232285Y-128246190D01*
X140232285Y-128722380D02*
X140232285Y-127722380D01*
X141279904Y-128627142D02*
X141232285Y-128674761D01*
X141089428Y-128722380D01*
X140994190Y-128722380D01*
X140851333Y-128674761D01*
X140756095Y-128579523D01*
X140708476Y-128484285D01*
X140660857Y-128293809D01*
X140660857Y-128150952D01*
X140708476Y-127960476D01*
X140756095Y-127865238D01*
X140851333Y-127770000D01*
X140994190Y-127722380D01*
X141089428Y-127722380D01*
X141232285Y-127770000D01*
X141279904Y-127817619D01*
X142232285Y-128722380D02*
X141660857Y-128722380D01*
X141946571Y-128722380D02*
X141946571Y-127722380D01*
X141851333Y-127865238D01*
X141756095Y-127960476D01*
X141660857Y-128008095D01*
X142803714Y-128150952D02*
X142708476Y-128103333D01*
X142660857Y-128055714D01*
X142613238Y-127960476D01*
X142613238Y-127912857D01*
X142660857Y-127817619D01*
X142708476Y-127770000D01*
X142803714Y-127722380D01*
X142994190Y-127722380D01*
X143089428Y-127770000D01*
X143137047Y-127817619D01*
X143184666Y-127912857D01*
X143184666Y-127960476D01*
X143137047Y-128055714D01*
X143089428Y-128103333D01*
X142994190Y-128150952D01*
X142803714Y-128150952D01*
X142708476Y-128198571D01*
X142660857Y-128246190D01*
X142613238Y-128341428D01*
X142613238Y-128531904D01*
X142660857Y-128627142D01*
X142708476Y-128674761D01*
X142803714Y-128722380D01*
X142994190Y-128722380D01*
X143089428Y-128674761D01*
X143137047Y-128627142D01*
X143184666Y-128531904D01*
X143184666Y-128341428D01*
X143137047Y-128246190D01*
X143089428Y-128198571D01*
X142994190Y-128150952D01*
X143946571Y-128198571D02*
X143613238Y-128198571D01*
X143613238Y-128722380D02*
X143613238Y-127722380D01*
X144089428Y-127722380D01*
X144898952Y-128055714D02*
X144898952Y-128722380D01*
X144660857Y-127674761D02*
X144422761Y-128389047D01*
X145041809Y-128389047D01*
X145898952Y-127722380D02*
X145422761Y-127722380D01*
X145375142Y-128198571D01*
X145422761Y-128150952D01*
X145518000Y-128103333D01*
X145756095Y-128103333D01*
X145851333Y-128150952D01*
X145898952Y-128198571D01*
X145946571Y-128293809D01*
X145946571Y-128531904D01*
X145898952Y-128627142D01*
X145851333Y-128674761D01*
X145756095Y-128722380D01*
X145518000Y-128722380D01*
X145422761Y-128674761D01*
X145375142Y-128627142D01*
X146375142Y-128722380D02*
X146375142Y-127722380D01*
X146946571Y-128722380D02*
X146518000Y-128150952D01*
X146946571Y-127722380D02*
X146375142Y-128293809D01*
X147851333Y-127722380D02*
X147375142Y-127722380D01*
X147327523Y-128198571D01*
X147375142Y-128150952D01*
X147470380Y-128103333D01*
X147708476Y-128103333D01*
X147803714Y-128150952D01*
X147851333Y-128198571D01*
X147898952Y-128293809D01*
X147898952Y-128531904D01*
X147851333Y-128627142D01*
X147803714Y-128674761D01*
X147708476Y-128722380D01*
X147470380Y-128722380D01*
X147375142Y-128674761D01*
X147327523Y-128627142D01*
X148518000Y-127722380D02*
X148613238Y-127722380D01*
X148708476Y-127770000D01*
X148756095Y-127817619D01*
X148803714Y-127912857D01*
X148851333Y-128103333D01*
X148851333Y-128341428D01*
X148803714Y-128531904D01*
X148756095Y-128627142D01*
X148708476Y-128674761D01*
X148613238Y-128722380D01*
X148518000Y-128722380D01*
X148422761Y-128674761D01*
X148375142Y-128627142D01*
X148327523Y-128531904D01*
X148279904Y-128341428D01*
X148279904Y-128103333D01*
X148327523Y-127912857D01*
X148375142Y-127817619D01*
X148422761Y-127770000D01*
X148518000Y-127722380D01*
X159170952Y-121610380D02*
X159170952Y-120610380D01*
X159551904Y-120610380D01*
X159647142Y-120658000D01*
X159694761Y-120705619D01*
X159742380Y-120800857D01*
X159742380Y-120943714D01*
X159694761Y-121038952D01*
X159647142Y-121086571D01*
X159551904Y-121134190D01*
X159170952Y-121134190D01*
X160361428Y-120610380D02*
X160551904Y-120610380D01*
X160647142Y-120658000D01*
X160742380Y-120753238D01*
X160790000Y-120943714D01*
X160790000Y-121277047D01*
X160742380Y-121467523D01*
X160647142Y-121562761D01*
X160551904Y-121610380D01*
X160361428Y-121610380D01*
X160266190Y-121562761D01*
X160170952Y-121467523D01*
X160123333Y-121277047D01*
X160123333Y-120943714D01*
X160170952Y-120753238D01*
X160266190Y-120658000D01*
X160361428Y-120610380D01*
X161790000Y-121610380D02*
X161456666Y-121134190D01*
X161218571Y-121610380D02*
X161218571Y-120610380D01*
X161599523Y-120610380D01*
X161694761Y-120658000D01*
X161742380Y-120705619D01*
X161790000Y-120800857D01*
X161790000Y-120943714D01*
X161742380Y-121038952D01*
X161694761Y-121086571D01*
X161599523Y-121134190D01*
X161218571Y-121134190D01*
X162075714Y-120610380D02*
X162647142Y-120610380D01*
X162361428Y-121610380D02*
X162361428Y-120610380D01*
X162980476Y-121086571D02*
X163313809Y-121086571D01*
X163456666Y-121610380D02*
X162980476Y-121610380D01*
X162980476Y-120610380D01*
X163456666Y-120610380D01*
X134564380Y-132238666D02*
X134088190Y-132572000D01*
X134564380Y-132810095D02*
X133564380Y-132810095D01*
X133564380Y-132429142D01*
X133612000Y-132333904D01*
X133659619Y-132286285D01*
X133754857Y-132238666D01*
X133897714Y-132238666D01*
X133992952Y-132286285D01*
X134040571Y-132333904D01*
X134088190Y-132429142D01*
X134088190Y-132810095D01*
X134469142Y-131238666D02*
X134516761Y-131286285D01*
X134564380Y-131429142D01*
X134564380Y-131524380D01*
X134516761Y-131667238D01*
X134421523Y-131762476D01*
X134326285Y-131810095D01*
X134135809Y-131857714D01*
X133992952Y-131857714D01*
X133802476Y-131810095D01*
X133707238Y-131762476D01*
X133612000Y-131667238D01*
X133564380Y-131524380D01*
X133564380Y-131429142D01*
X133612000Y-131286285D01*
X133659619Y-131238666D01*
X133564380Y-130905333D02*
X133564380Y-130238666D01*
X134564380Y-130667238D01*
X128722380Y-132238666D02*
X128246190Y-132572000D01*
X128722380Y-132810095D02*
X127722380Y-132810095D01*
X127722380Y-132429142D01*
X127770000Y-132333904D01*
X127817619Y-132286285D01*
X127912857Y-132238666D01*
X128055714Y-132238666D01*
X128150952Y-132286285D01*
X128198571Y-132333904D01*
X128246190Y-132429142D01*
X128246190Y-132810095D01*
X128627142Y-131238666D02*
X128674761Y-131286285D01*
X128722380Y-131429142D01*
X128722380Y-131524380D01*
X128674761Y-131667238D01*
X128579523Y-131762476D01*
X128484285Y-131810095D01*
X128293809Y-131857714D01*
X128150952Y-131857714D01*
X127960476Y-131810095D01*
X127865238Y-131762476D01*
X127770000Y-131667238D01*
X127722380Y-131524380D01*
X127722380Y-131429142D01*
X127770000Y-131286285D01*
X127817619Y-131238666D01*
X127817619Y-130857714D02*
X127770000Y-130810095D01*
X127722380Y-130714857D01*
X127722380Y-130476761D01*
X127770000Y-130381523D01*
X127817619Y-130333904D01*
X127912857Y-130286285D01*
X128008095Y-130286285D01*
X128150952Y-130333904D01*
X128722380Y-130905333D01*
X128722380Y-130286285D01*
X123134380Y-132191047D02*
X122658190Y-132524380D01*
X123134380Y-132762476D02*
X122134380Y-132762476D01*
X122134380Y-132381523D01*
X122182000Y-132286285D01*
X122229619Y-132238666D01*
X122324857Y-132191047D01*
X122467714Y-132191047D01*
X122562952Y-132238666D01*
X122610571Y-132286285D01*
X122658190Y-132381523D01*
X122658190Y-132762476D01*
X122610571Y-131762476D02*
X122610571Y-131429142D01*
X123134380Y-131286285D02*
X123134380Y-131762476D01*
X122134380Y-131762476D01*
X122134380Y-131286285D01*
X123134380Y-130333904D02*
X123134380Y-130905333D01*
X123134380Y-130619619D02*
X122134380Y-130619619D01*
X122277238Y-130714857D01*
X122372476Y-130810095D01*
X122420095Y-130905333D01*
X117292380Y-132191047D02*
X116816190Y-132524380D01*
X117292380Y-132762476D02*
X116292380Y-132762476D01*
X116292380Y-132381523D01*
X116340000Y-132286285D01*
X116387619Y-132238666D01*
X116482857Y-132191047D01*
X116625714Y-132191047D01*
X116720952Y-132238666D01*
X116768571Y-132286285D01*
X116816190Y-132381523D01*
X116816190Y-132762476D01*
X116768571Y-131762476D02*
X116768571Y-131429142D01*
X117292380Y-131286285D02*
X117292380Y-131762476D01*
X116292380Y-131762476D01*
X116292380Y-131286285D01*
X116292380Y-130667238D02*
X116292380Y-130572000D01*
X116340000Y-130476761D01*
X116387619Y-130429142D01*
X116482857Y-130381523D01*
X116673333Y-130333904D01*
X116911428Y-130333904D01*
X117101904Y-130381523D01*
X117197142Y-130429142D01*
X117244761Y-130476761D01*
X117292380Y-130572000D01*
X117292380Y-130667238D01*
X117244761Y-130762476D01*
X117197142Y-130810095D01*
X117101904Y-130857714D01*
X116911428Y-130905333D01*
X116673333Y-130905333D01*
X116482857Y-130857714D01*
X116387619Y-130810095D01*
X116340000Y-130762476D01*
X116292380Y-130667238D01*
X164028380Y-128381047D02*
X163552190Y-128714380D01*
X164028380Y-128952476D02*
X163028380Y-128952476D01*
X163028380Y-128571523D01*
X163076000Y-128476285D01*
X163123619Y-128428666D01*
X163218857Y-128381047D01*
X163361714Y-128381047D01*
X163456952Y-128428666D01*
X163504571Y-128476285D01*
X163552190Y-128571523D01*
X163552190Y-128952476D01*
X163504571Y-127952476D02*
X163504571Y-127619142D01*
X164028380Y-127476285D02*
X164028380Y-127952476D01*
X163028380Y-127952476D01*
X163028380Y-127476285D01*
X163123619Y-127095333D02*
X163076000Y-127047714D01*
X163028380Y-126952476D01*
X163028380Y-126714380D01*
X163076000Y-126619142D01*
X163123619Y-126571523D01*
X163218857Y-126523904D01*
X163314095Y-126523904D01*
X163456952Y-126571523D01*
X164028380Y-127142952D01*
X164028380Y-126523904D01*
X161488380Y-128381047D02*
X161012190Y-128714380D01*
X161488380Y-128952476D02*
X160488380Y-128952476D01*
X160488380Y-128571523D01*
X160536000Y-128476285D01*
X160583619Y-128428666D01*
X160678857Y-128381047D01*
X160821714Y-128381047D01*
X160916952Y-128428666D01*
X160964571Y-128476285D01*
X161012190Y-128571523D01*
X161012190Y-128952476D01*
X160964571Y-127952476D02*
X160964571Y-127619142D01*
X161488380Y-127476285D02*
X161488380Y-127952476D01*
X160488380Y-127952476D01*
X160488380Y-127476285D01*
X161488380Y-126523904D02*
X161488380Y-127095333D01*
X161488380Y-126809619D02*
X160488380Y-126809619D01*
X160631238Y-126904857D01*
X160726476Y-127000095D01*
X160774095Y-127095333D01*
X158694380Y-128381047D02*
X158218190Y-128714380D01*
X158694380Y-128952476D02*
X157694380Y-128952476D01*
X157694380Y-128571523D01*
X157742000Y-128476285D01*
X157789619Y-128428666D01*
X157884857Y-128381047D01*
X158027714Y-128381047D01*
X158122952Y-128428666D01*
X158170571Y-128476285D01*
X158218190Y-128571523D01*
X158218190Y-128952476D01*
X158170571Y-127952476D02*
X158170571Y-127619142D01*
X158694380Y-127476285D02*
X158694380Y-127952476D01*
X157694380Y-127952476D01*
X157694380Y-127476285D01*
X157694380Y-126857238D02*
X157694380Y-126762000D01*
X157742000Y-126666761D01*
X157789619Y-126619142D01*
X157884857Y-126571523D01*
X158075333Y-126523904D01*
X158313428Y-126523904D01*
X158503904Y-126571523D01*
X158599142Y-126619142D01*
X158646761Y-126666761D01*
X158694380Y-126762000D01*
X158694380Y-126857238D01*
X158646761Y-126952476D01*
X158599142Y-127000095D01*
X158503904Y-127047714D01*
X158313428Y-127095333D01*
X158075333Y-127095333D01*
X157884857Y-127047714D01*
X157789619Y-127000095D01*
X157742000Y-126952476D01*
X157694380Y-126857238D01*
X161266666Y-62428380D02*
X161266666Y-61428380D01*
X161266666Y-61904571D02*
X161838095Y-61904571D01*
X161838095Y-62428380D02*
X161838095Y-61428380D01*
X162885714Y-62333142D02*
X162838095Y-62380761D01*
X162695238Y-62428380D01*
X162600000Y-62428380D01*
X162457142Y-62380761D01*
X162361904Y-62285523D01*
X162314285Y-62190285D01*
X162266666Y-61999809D01*
X162266666Y-61856952D01*
X162314285Y-61666476D01*
X162361904Y-61571238D01*
X162457142Y-61476000D01*
X162600000Y-61428380D01*
X162695238Y-61428380D01*
X162838095Y-61476000D01*
X162885714Y-61523619D01*
X163314285Y-62047428D02*
X164076190Y-62047428D01*
X164742857Y-61428380D02*
X164838095Y-61428380D01*
X164933333Y-61476000D01*
X164980952Y-61523619D01*
X165028571Y-61618857D01*
X165076190Y-61809333D01*
X165076190Y-62047428D01*
X165028571Y-62237904D01*
X164980952Y-62333142D01*
X164933333Y-62380761D01*
X164838095Y-62428380D01*
X164742857Y-62428380D01*
X164647619Y-62380761D01*
X164600000Y-62333142D01*
X164552380Y-62237904D01*
X164504761Y-62047428D01*
X164504761Y-61809333D01*
X164552380Y-61618857D01*
X164600000Y-61523619D01*
X164647619Y-61476000D01*
X164742857Y-61428380D01*
X165980952Y-61428380D02*
X165504761Y-61428380D01*
X165457142Y-61904571D01*
X165504761Y-61856952D01*
X165600000Y-61809333D01*
X165838095Y-61809333D01*
X165933333Y-61856952D01*
X165980952Y-61904571D01*
X166028571Y-61999809D01*
X166028571Y-62237904D01*
X165980952Y-62333142D01*
X165933333Y-62380761D01*
X165838095Y-62428380D01*
X165600000Y-62428380D01*
X165504761Y-62380761D01*
X165457142Y-62333142D01*
X167171428Y-61380761D02*
X166314285Y-62666476D01*
X167695238Y-61428380D02*
X167790476Y-61428380D01*
X167885714Y-61476000D01*
X167933333Y-61523619D01*
X167980952Y-61618857D01*
X168028571Y-61809333D01*
X168028571Y-62047428D01*
X167980952Y-62237904D01*
X167933333Y-62333142D01*
X167885714Y-62380761D01*
X167790476Y-62428380D01*
X167695238Y-62428380D01*
X167600000Y-62380761D01*
X167552380Y-62333142D01*
X167504761Y-62237904D01*
X167457142Y-62047428D01*
X167457142Y-61809333D01*
X167504761Y-61618857D01*
X167552380Y-61523619D01*
X167600000Y-61476000D01*
X167695238Y-61428380D01*
X168885714Y-61428380D02*
X168695238Y-61428380D01*
X168600000Y-61476000D01*
X168552380Y-61523619D01*
X168457142Y-61666476D01*
X168409523Y-61856952D01*
X168409523Y-62237904D01*
X168457142Y-62333142D01*
X168504761Y-62380761D01*
X168600000Y-62428380D01*
X168790476Y-62428380D01*
X168885714Y-62380761D01*
X168933333Y-62333142D01*
X168980952Y-62237904D01*
X168980952Y-61999809D01*
X168933333Y-61904571D01*
X168885714Y-61856952D01*
X168790476Y-61809333D01*
X168600000Y-61809333D01*
X168504761Y-61856952D01*
X168457142Y-61904571D01*
X168409523Y-61999809D01*
X161234380Y-69500666D02*
X160758190Y-69834000D01*
X161234380Y-70072095D02*
X160234380Y-70072095D01*
X160234380Y-69691142D01*
X160282000Y-69595904D01*
X160329619Y-69548285D01*
X160424857Y-69500666D01*
X160567714Y-69500666D01*
X160662952Y-69548285D01*
X160710571Y-69595904D01*
X160758190Y-69691142D01*
X160758190Y-70072095D01*
X160234380Y-69167333D02*
X161234380Y-68500666D01*
X160234380Y-68500666D02*
X161234380Y-69167333D01*
X161234380Y-68119714D02*
X160234380Y-68119714D01*
X160234380Y-67881619D01*
X160282000Y-67738761D01*
X160377238Y-67643523D01*
X160472476Y-67595904D01*
X160662952Y-67548285D01*
X160805809Y-67548285D01*
X160996285Y-67595904D01*
X161091523Y-67643523D01*
X161186761Y-67738761D01*
X161234380Y-67881619D01*
X161234380Y-68119714D01*
X163028380Y-70095904D02*
X163028380Y-69524476D01*
X164028380Y-69810190D02*
X163028380Y-69810190D01*
X163028380Y-69286380D02*
X164028380Y-68619714D01*
X163028380Y-68619714D02*
X164028380Y-69286380D01*
X164028380Y-68238761D02*
X163028380Y-68238761D01*
X163028380Y-68000666D01*
X163076000Y-67857809D01*
X163171238Y-67762571D01*
X163266476Y-67714952D01*
X163456952Y-67667333D01*
X163599809Y-67667333D01*
X163790285Y-67714952D01*
X163885523Y-67762571D01*
X163980761Y-67857809D01*
X164028380Y-68000666D01*
X164028380Y-68238761D01*
X165616000Y-69595904D02*
X165568380Y-69691142D01*
X165568380Y-69834000D01*
X165616000Y-69976857D01*
X165711238Y-70072095D01*
X165806476Y-70119714D01*
X165996952Y-70167333D01*
X166139809Y-70167333D01*
X166330285Y-70119714D01*
X166425523Y-70072095D01*
X166520761Y-69976857D01*
X166568380Y-69834000D01*
X166568380Y-69738761D01*
X166520761Y-69595904D01*
X166473142Y-69548285D01*
X166139809Y-69548285D01*
X166139809Y-69738761D01*
X166568380Y-69119714D02*
X165568380Y-69119714D01*
X166568380Y-68548285D01*
X165568380Y-68548285D01*
X166568380Y-68072095D02*
X165568380Y-68072095D01*
X165568380Y-67834000D01*
X165616000Y-67691142D01*
X165711238Y-67595904D01*
X165806476Y-67548285D01*
X165996952Y-67500666D01*
X166139809Y-67500666D01*
X166330285Y-67548285D01*
X166425523Y-67595904D01*
X166520761Y-67691142D01*
X166568380Y-67834000D01*
X166568380Y-68072095D01*
X167854380Y-70167333D02*
X168854380Y-69834000D01*
X167854380Y-69500666D01*
X168759142Y-68595904D02*
X168806761Y-68643523D01*
X168854380Y-68786380D01*
X168854380Y-68881619D01*
X168806761Y-69024476D01*
X168711523Y-69119714D01*
X168616285Y-69167333D01*
X168425809Y-69214952D01*
X168282952Y-69214952D01*
X168092476Y-69167333D01*
X167997238Y-69119714D01*
X167902000Y-69024476D01*
X167854380Y-68881619D01*
X167854380Y-68786380D01*
X167902000Y-68643523D01*
X167949619Y-68595904D01*
X168759142Y-67595904D02*
X168806761Y-67643523D01*
X168854380Y-67786380D01*
X168854380Y-67881619D01*
X168806761Y-68024476D01*
X168711523Y-68119714D01*
X168616285Y-68167333D01*
X168425809Y-68214952D01*
X168282952Y-68214952D01*
X168092476Y-68167333D01*
X167997238Y-68119714D01*
X167902000Y-68024476D01*
X167854380Y-67881619D01*
X167854380Y-67786380D01*
X167902000Y-67643523D01*
X167949619Y-67595904D01*
X97877333Y-92051142D02*
X97829714Y-92098761D01*
X97686857Y-92146380D01*
X97591619Y-92146380D01*
X97448761Y-92098761D01*
X97353523Y-92003523D01*
X97305904Y-91908285D01*
X97258285Y-91717809D01*
X97258285Y-91574952D01*
X97305904Y-91384476D01*
X97353523Y-91289238D01*
X97448761Y-91194000D01*
X97591619Y-91146380D01*
X97686857Y-91146380D01*
X97829714Y-91194000D01*
X97877333Y-91241619D01*
X98734476Y-91479714D02*
X98734476Y-92146380D01*
X98496380Y-91098761D02*
X98258285Y-91813047D01*
X98877333Y-91813047D01*
X97877333Y-84685142D02*
X97829714Y-84732761D01*
X97686857Y-84780380D01*
X97591619Y-84780380D01*
X97448761Y-84732761D01*
X97353523Y-84637523D01*
X97305904Y-84542285D01*
X97258285Y-84351809D01*
X97258285Y-84208952D01*
X97305904Y-84018476D01*
X97353523Y-83923238D01*
X97448761Y-83828000D01*
X97591619Y-83780380D01*
X97686857Y-83780380D01*
X97829714Y-83828000D01*
X97877333Y-83875619D01*
X98829714Y-84780380D02*
X98258285Y-84780380D01*
X98544000Y-84780380D02*
X98544000Y-83780380D01*
X98448761Y-83923238D01*
X98353523Y-84018476D01*
X98258285Y-84066095D01*
X97710666Y-102036571D02*
X97377333Y-102036571D01*
X97377333Y-102560380D02*
X97377333Y-101560380D01*
X97853523Y-101560380D01*
X98663047Y-101893714D02*
X98663047Y-102560380D01*
X98424952Y-101512761D02*
X98186857Y-102227047D01*
X98805904Y-102227047D01*
X97710666Y-94162571D02*
X97377333Y-94162571D01*
X97377333Y-94686380D02*
X97377333Y-93686380D01*
X97853523Y-93686380D01*
X98758285Y-94686380D02*
X98186857Y-94686380D01*
X98472571Y-94686380D02*
X98472571Y-93686380D01*
X98377333Y-93829238D01*
X98282095Y-93924476D01*
X98186857Y-93972095D01*
X115308190Y-64968380D02*
X115308190Y-63968380D01*
X116355809Y-64968380D02*
X116022476Y-64492190D01*
X115784380Y-64968380D02*
X115784380Y-63968380D01*
X116165333Y-63968380D01*
X116260571Y-64016000D01*
X116308190Y-64063619D01*
X116355809Y-64158857D01*
X116355809Y-64301714D01*
X116308190Y-64396952D01*
X116260571Y-64444571D01*
X116165333Y-64492190D01*
X115784380Y-64492190D01*
X117451047Y-65063619D02*
X117355809Y-65016000D01*
X117260571Y-64920761D01*
X117117714Y-64777904D01*
X117022476Y-64730285D01*
X116927238Y-64730285D01*
X116974857Y-64968380D02*
X116879619Y-64920761D01*
X116784380Y-64825523D01*
X116736761Y-64635047D01*
X116736761Y-64301714D01*
X116784380Y-64111238D01*
X116879619Y-64016000D01*
X116974857Y-63968380D01*
X117165333Y-63968380D01*
X117260571Y-64016000D01*
X117355809Y-64111238D01*
X117403428Y-64301714D01*
X117403428Y-64635047D01*
X117355809Y-64825523D01*
X117260571Y-64920761D01*
X117165333Y-64968380D01*
X116974857Y-64968380D01*
X124666571Y-64968380D02*
X124666571Y-63968380D01*
X124999904Y-64682666D01*
X125333238Y-63968380D01*
X125333238Y-64968380D01*
X125809428Y-64968380D02*
X125809428Y-63968380D01*
X126238000Y-64920761D02*
X126380857Y-64968380D01*
X126618952Y-64968380D01*
X126714190Y-64920761D01*
X126761809Y-64873142D01*
X126809428Y-64777904D01*
X126809428Y-64682666D01*
X126761809Y-64587428D01*
X126714190Y-64539809D01*
X126618952Y-64492190D01*
X126428476Y-64444571D01*
X126333238Y-64396952D01*
X126285619Y-64349333D01*
X126238000Y-64254095D01*
X126238000Y-64158857D01*
X126285619Y-64063619D01*
X126333238Y-64016000D01*
X126428476Y-63968380D01*
X126666571Y-63968380D01*
X126809428Y-64016000D01*
X127428476Y-63968380D02*
X127618952Y-63968380D01*
X127714190Y-64016000D01*
X127809428Y-64111238D01*
X127857047Y-64301714D01*
X127857047Y-64635047D01*
X127809428Y-64825523D01*
X127714190Y-64920761D01*
X127618952Y-64968380D01*
X127428476Y-64968380D01*
X127333238Y-64920761D01*
X127238000Y-64825523D01*
X127190380Y-64635047D01*
X127190380Y-64301714D01*
X127238000Y-64111238D01*
X127333238Y-64016000D01*
X127428476Y-63968380D01*
X114506571Y-67508380D02*
X114506571Y-66508380D01*
X114839904Y-67222666D01*
X115173238Y-66508380D01*
X115173238Y-67508380D01*
X115839904Y-66508380D02*
X116030380Y-66508380D01*
X116125619Y-66556000D01*
X116220857Y-66651238D01*
X116268476Y-66841714D01*
X116268476Y-67175047D01*
X116220857Y-67365523D01*
X116125619Y-67460761D01*
X116030380Y-67508380D01*
X115839904Y-67508380D01*
X115744666Y-67460761D01*
X115649428Y-67365523D01*
X115601809Y-67175047D01*
X115601809Y-66841714D01*
X115649428Y-66651238D01*
X115744666Y-66556000D01*
X115839904Y-66508380D01*
X116649428Y-67460761D02*
X116792285Y-67508380D01*
X117030380Y-67508380D01*
X117125619Y-67460761D01*
X117173238Y-67413142D01*
X117220857Y-67317904D01*
X117220857Y-67222666D01*
X117173238Y-67127428D01*
X117125619Y-67079809D01*
X117030380Y-67032190D01*
X116839904Y-66984571D01*
X116744666Y-66936952D01*
X116697047Y-66889333D01*
X116649428Y-66794095D01*
X116649428Y-66698857D01*
X116697047Y-66603619D01*
X116744666Y-66556000D01*
X116839904Y-66508380D01*
X117078000Y-66508380D01*
X117220857Y-66556000D01*
X117649428Y-67508380D02*
X117649428Y-66508380D01*
X125571333Y-67413142D02*
X125523714Y-67460761D01*
X125380857Y-67508380D01*
X125285619Y-67508380D01*
X125142761Y-67460761D01*
X125047523Y-67365523D01*
X124999904Y-67270285D01*
X124952285Y-67079809D01*
X124952285Y-66936952D01*
X124999904Y-66746476D01*
X125047523Y-66651238D01*
X125142761Y-66556000D01*
X125285619Y-66508380D01*
X125380857Y-66508380D01*
X125523714Y-66556000D01*
X125571333Y-66603619D01*
X125952285Y-67460761D02*
X126095142Y-67508380D01*
X126333238Y-67508380D01*
X126428476Y-67460761D01*
X126476095Y-67413142D01*
X126523714Y-67317904D01*
X126523714Y-67222666D01*
X126476095Y-67127428D01*
X126428476Y-67079809D01*
X126333238Y-67032190D01*
X126142761Y-66984571D01*
X126047523Y-66936952D01*
X125999904Y-66889333D01*
X125952285Y-66794095D01*
X125952285Y-66698857D01*
X125999904Y-66603619D01*
X126047523Y-66556000D01*
X126142761Y-66508380D01*
X126380857Y-66508380D01*
X126523714Y-66556000D01*
X126952285Y-67508380D02*
X126952285Y-66508380D01*
X127523714Y-67508380D02*
X127095142Y-66936952D01*
X127523714Y-66508380D02*
X126952285Y-67079809D01*
X115641523Y-69953142D02*
X115593904Y-70000761D01*
X115451047Y-70048380D01*
X115355809Y-70048380D01*
X115212952Y-70000761D01*
X115117714Y-69905523D01*
X115070095Y-69810285D01*
X115022476Y-69619809D01*
X115022476Y-69476952D01*
X115070095Y-69286476D01*
X115117714Y-69191238D01*
X115212952Y-69096000D01*
X115355809Y-69048380D01*
X115451047Y-69048380D01*
X115593904Y-69096000D01*
X115641523Y-69143619D01*
X116022476Y-70000761D02*
X116165333Y-70048380D01*
X116403428Y-70048380D01*
X116498666Y-70000761D01*
X116546285Y-69953142D01*
X116593904Y-69857904D01*
X116593904Y-69762666D01*
X116546285Y-69667428D01*
X116498666Y-69619809D01*
X116403428Y-69572190D01*
X116212952Y-69524571D01*
X116117714Y-69476952D01*
X116070095Y-69429333D01*
X116022476Y-69334095D01*
X116022476Y-69238857D01*
X116070095Y-69143619D01*
X116117714Y-69096000D01*
X116212952Y-69048380D01*
X116451047Y-69048380D01*
X116593904Y-69096000D01*
X117022476Y-70048380D02*
X117022476Y-69048380D01*
X117593904Y-70048380D01*
X117593904Y-69048380D01*
X125587142Y-70207142D02*
X125539523Y-70254761D01*
X125396666Y-70302380D01*
X125301428Y-70302380D01*
X125158571Y-70254761D01*
X125063333Y-70159523D01*
X125015714Y-70064285D01*
X124968095Y-69873809D01*
X124968095Y-69730952D01*
X125015714Y-69540476D01*
X125063333Y-69445238D01*
X125158571Y-69350000D01*
X125301428Y-69302380D01*
X125396666Y-69302380D01*
X125539523Y-69350000D01*
X125587142Y-69397619D01*
X126015714Y-69778571D02*
X126349047Y-69778571D01*
X126491904Y-70302380D02*
X126015714Y-70302380D01*
X126015714Y-69302380D01*
X126491904Y-69302380D01*
X114998666Y-71842380D02*
X115332000Y-72842380D01*
X115665333Y-71842380D01*
X116570095Y-72747142D02*
X116522476Y-72794761D01*
X116379619Y-72842380D01*
X116284380Y-72842380D01*
X116141523Y-72794761D01*
X116046285Y-72699523D01*
X115998666Y-72604285D01*
X115951047Y-72413809D01*
X115951047Y-72270952D01*
X115998666Y-72080476D01*
X116046285Y-71985238D01*
X116141523Y-71890000D01*
X116284380Y-71842380D01*
X116379619Y-71842380D01*
X116522476Y-71890000D01*
X116570095Y-71937619D01*
X117570095Y-72747142D02*
X117522476Y-72794761D01*
X117379619Y-72842380D01*
X117284380Y-72842380D01*
X117141523Y-72794761D01*
X117046285Y-72699523D01*
X116998666Y-72604285D01*
X116951047Y-72413809D01*
X116951047Y-72270952D01*
X116998666Y-72080476D01*
X117046285Y-71985238D01*
X117141523Y-71890000D01*
X117284380Y-71842380D01*
X117379619Y-71842380D01*
X117522476Y-71890000D01*
X117570095Y-71937619D01*
X125476095Y-71890000D02*
X125380857Y-71842380D01*
X125238000Y-71842380D01*
X125095142Y-71890000D01*
X124999904Y-71985238D01*
X124952285Y-72080476D01*
X124904666Y-72270952D01*
X124904666Y-72413809D01*
X124952285Y-72604285D01*
X124999904Y-72699523D01*
X125095142Y-72794761D01*
X125238000Y-72842380D01*
X125333238Y-72842380D01*
X125476095Y-72794761D01*
X125523714Y-72747142D01*
X125523714Y-72413809D01*
X125333238Y-72413809D01*
X125952285Y-72842380D02*
X125952285Y-71842380D01*
X126523714Y-72842380D01*
X126523714Y-71842380D01*
X126999904Y-72842380D02*
X126999904Y-71842380D01*
X127238000Y-71842380D01*
X127380857Y-71890000D01*
X127476095Y-71985238D01*
X127523714Y-72080476D01*
X127571333Y-72270952D01*
X127571333Y-72413809D01*
X127523714Y-72604285D01*
X127476095Y-72699523D01*
X127380857Y-72794761D01*
X127238000Y-72842380D01*
X126999904Y-72842380D01*
X181197333Y-107894380D02*
X180864000Y-107418190D01*
X180625904Y-107894380D02*
X180625904Y-106894380D01*
X181006857Y-106894380D01*
X181102095Y-106942000D01*
X181149714Y-106989619D01*
X181197333Y-107084857D01*
X181197333Y-107227714D01*
X181149714Y-107322952D01*
X181102095Y-107370571D01*
X181006857Y-107418190D01*
X180625904Y-107418190D01*
X181625904Y-107894380D02*
X181625904Y-106894380D01*
X181864000Y-106894380D01*
X182006857Y-106942000D01*
X182102095Y-107037238D01*
X182149714Y-107132476D01*
X182197333Y-107322952D01*
X182197333Y-107465809D01*
X182149714Y-107656285D01*
X182102095Y-107751523D01*
X182006857Y-107846761D01*
X181864000Y-107894380D01*
X181625904Y-107894380D01*
X182530666Y-106894380D02*
X183197333Y-106894380D01*
X182768761Y-107894380D01*
X181197333Y-105354380D02*
X180864000Y-104878190D01*
X180625904Y-105354380D02*
X180625904Y-104354380D01*
X181006857Y-104354380D01*
X181102095Y-104402000D01*
X181149714Y-104449619D01*
X181197333Y-104544857D01*
X181197333Y-104687714D01*
X181149714Y-104782952D01*
X181102095Y-104830571D01*
X181006857Y-104878190D01*
X180625904Y-104878190D01*
X181625904Y-105354380D02*
X181625904Y-104354380D01*
X181864000Y-104354380D01*
X182006857Y-104402000D01*
X182102095Y-104497238D01*
X182149714Y-104592476D01*
X182197333Y-104782952D01*
X182197333Y-104925809D01*
X182149714Y-105116285D01*
X182102095Y-105211523D01*
X182006857Y-105306761D01*
X181864000Y-105354380D01*
X181625904Y-105354380D01*
X183054476Y-104354380D02*
X182864000Y-104354380D01*
X182768761Y-104402000D01*
X182721142Y-104449619D01*
X182625904Y-104592476D01*
X182578285Y-104782952D01*
X182578285Y-105163904D01*
X182625904Y-105259142D01*
X182673523Y-105306761D01*
X182768761Y-105354380D01*
X182959238Y-105354380D01*
X183054476Y-105306761D01*
X183102095Y-105259142D01*
X183149714Y-105163904D01*
X183149714Y-104925809D01*
X183102095Y-104830571D01*
X183054476Y-104782952D01*
X182959238Y-104735333D01*
X182768761Y-104735333D01*
X182673523Y-104782952D01*
X182625904Y-104830571D01*
X182578285Y-104925809D01*
X181197333Y-102814380D02*
X180864000Y-102338190D01*
X180625904Y-102814380D02*
X180625904Y-101814380D01*
X181006857Y-101814380D01*
X181102095Y-101862000D01*
X181149714Y-101909619D01*
X181197333Y-102004857D01*
X181197333Y-102147714D01*
X181149714Y-102242952D01*
X181102095Y-102290571D01*
X181006857Y-102338190D01*
X180625904Y-102338190D01*
X181625904Y-102814380D02*
X181625904Y-101814380D01*
X181864000Y-101814380D01*
X182006857Y-101862000D01*
X182102095Y-101957238D01*
X182149714Y-102052476D01*
X182197333Y-102242952D01*
X182197333Y-102385809D01*
X182149714Y-102576285D01*
X182102095Y-102671523D01*
X182006857Y-102766761D01*
X181864000Y-102814380D01*
X181625904Y-102814380D01*
X183102095Y-101814380D02*
X182625904Y-101814380D01*
X182578285Y-102290571D01*
X182625904Y-102242952D01*
X182721142Y-102195333D01*
X182959238Y-102195333D01*
X183054476Y-102242952D01*
X183102095Y-102290571D01*
X183149714Y-102385809D01*
X183149714Y-102623904D01*
X183102095Y-102719142D01*
X183054476Y-102766761D01*
X182959238Y-102814380D01*
X182721142Y-102814380D01*
X182625904Y-102766761D01*
X182578285Y-102719142D01*
X181197333Y-100020380D02*
X180864000Y-99544190D01*
X180625904Y-100020380D02*
X180625904Y-99020380D01*
X181006857Y-99020380D01*
X181102095Y-99068000D01*
X181149714Y-99115619D01*
X181197333Y-99210857D01*
X181197333Y-99353714D01*
X181149714Y-99448952D01*
X181102095Y-99496571D01*
X181006857Y-99544190D01*
X180625904Y-99544190D01*
X181625904Y-100020380D02*
X181625904Y-99020380D01*
X181864000Y-99020380D01*
X182006857Y-99068000D01*
X182102095Y-99163238D01*
X182149714Y-99258476D01*
X182197333Y-99448952D01*
X182197333Y-99591809D01*
X182149714Y-99782285D01*
X182102095Y-99877523D01*
X182006857Y-99972761D01*
X181864000Y-100020380D01*
X181625904Y-100020380D01*
X183054476Y-99353714D02*
X183054476Y-100020380D01*
X182816380Y-98972761D02*
X182578285Y-99687047D01*
X183197333Y-99687047D01*
X181197333Y-87320380D02*
X180864000Y-86844190D01*
X180625904Y-87320380D02*
X180625904Y-86320380D01*
X181006857Y-86320380D01*
X181102095Y-86368000D01*
X181149714Y-86415619D01*
X181197333Y-86510857D01*
X181197333Y-86653714D01*
X181149714Y-86748952D01*
X181102095Y-86796571D01*
X181006857Y-86844190D01*
X180625904Y-86844190D01*
X181959238Y-86796571D02*
X182102095Y-86844190D01*
X182149714Y-86891809D01*
X182197333Y-86987047D01*
X182197333Y-87129904D01*
X182149714Y-87225142D01*
X182102095Y-87272761D01*
X182006857Y-87320380D01*
X181625904Y-87320380D01*
X181625904Y-86320380D01*
X181959238Y-86320380D01*
X182054476Y-86368000D01*
X182102095Y-86415619D01*
X182149714Y-86510857D01*
X182149714Y-86606095D01*
X182102095Y-86701333D01*
X182054476Y-86748952D01*
X181959238Y-86796571D01*
X181625904Y-86796571D01*
X182530666Y-86320380D02*
X183197333Y-86320380D01*
X182768761Y-87320380D01*
X181197333Y-82240380D02*
X180864000Y-81764190D01*
X180625904Y-82240380D02*
X180625904Y-81240380D01*
X181006857Y-81240380D01*
X181102095Y-81288000D01*
X181149714Y-81335619D01*
X181197333Y-81430857D01*
X181197333Y-81573714D01*
X181149714Y-81668952D01*
X181102095Y-81716571D01*
X181006857Y-81764190D01*
X180625904Y-81764190D01*
X181959238Y-81716571D02*
X182102095Y-81764190D01*
X182149714Y-81811809D01*
X182197333Y-81907047D01*
X182197333Y-82049904D01*
X182149714Y-82145142D01*
X182102095Y-82192761D01*
X182006857Y-82240380D01*
X181625904Y-82240380D01*
X181625904Y-81240380D01*
X181959238Y-81240380D01*
X182054476Y-81288000D01*
X182102095Y-81335619D01*
X182149714Y-81430857D01*
X182149714Y-81526095D01*
X182102095Y-81621333D01*
X182054476Y-81668952D01*
X181959238Y-81716571D01*
X181625904Y-81716571D01*
X183054476Y-81240380D02*
X182864000Y-81240380D01*
X182768761Y-81288000D01*
X182721142Y-81335619D01*
X182625904Y-81478476D01*
X182578285Y-81668952D01*
X182578285Y-82049904D01*
X182625904Y-82145142D01*
X182673523Y-82192761D01*
X182768761Y-82240380D01*
X182959238Y-82240380D01*
X183054476Y-82192761D01*
X183102095Y-82145142D01*
X183149714Y-82049904D01*
X183149714Y-81811809D01*
X183102095Y-81716571D01*
X183054476Y-81668952D01*
X182959238Y-81621333D01*
X182768761Y-81621333D01*
X182673523Y-81668952D01*
X182625904Y-81716571D01*
X182578285Y-81811809D01*
X181927523Y-112720380D02*
X181356095Y-112720380D01*
X181641809Y-112720380D02*
X181641809Y-111720380D01*
X181546571Y-111863238D01*
X181451333Y-111958476D01*
X181356095Y-112006095D01*
X182784666Y-111720380D02*
X182594190Y-111720380D01*
X182498952Y-111768000D01*
X182451333Y-111815619D01*
X182356095Y-111958476D01*
X182308476Y-112148952D01*
X182308476Y-112529904D01*
X182356095Y-112625142D01*
X182403714Y-112672761D01*
X182498952Y-112720380D01*
X182689428Y-112720380D01*
X182784666Y-112672761D01*
X182832285Y-112625142D01*
X182879904Y-112529904D01*
X182879904Y-112291809D01*
X182832285Y-112196571D01*
X182784666Y-112148952D01*
X182689428Y-112101333D01*
X182498952Y-112101333D01*
X182403714Y-112148952D01*
X182356095Y-112196571D01*
X182308476Y-112291809D01*
X182149714Y-74620380D02*
X181578285Y-74620380D01*
X181864000Y-74620380D02*
X181864000Y-73620380D01*
X181768761Y-73763238D01*
X181673523Y-73858476D01*
X181578285Y-73906095D01*
X157575333Y-95956380D02*
X157242000Y-95480190D01*
X157003904Y-95956380D02*
X157003904Y-94956380D01*
X157384857Y-94956380D01*
X157480095Y-95004000D01*
X157527714Y-95051619D01*
X157575333Y-95146857D01*
X157575333Y-95289714D01*
X157527714Y-95384952D01*
X157480095Y-95432571D01*
X157384857Y-95480190D01*
X157003904Y-95480190D01*
X158337238Y-95432571D02*
X158480095Y-95480190D01*
X158527714Y-95527809D01*
X158575333Y-95623047D01*
X158575333Y-95765904D01*
X158527714Y-95861142D01*
X158480095Y-95908761D01*
X158384857Y-95956380D01*
X158003904Y-95956380D01*
X158003904Y-94956380D01*
X158337238Y-94956380D01*
X158432476Y-95004000D01*
X158480095Y-95051619D01*
X158527714Y-95146857D01*
X158527714Y-95242095D01*
X158480095Y-95337333D01*
X158432476Y-95384952D01*
X158337238Y-95432571D01*
X158003904Y-95432571D01*
X158908666Y-94956380D02*
X159575333Y-94956380D01*
X159146761Y-95956380D01*
X157575333Y-93162380D02*
X157242000Y-92686190D01*
X157003904Y-93162380D02*
X157003904Y-92162380D01*
X157384857Y-92162380D01*
X157480095Y-92210000D01*
X157527714Y-92257619D01*
X157575333Y-92352857D01*
X157575333Y-92495714D01*
X157527714Y-92590952D01*
X157480095Y-92638571D01*
X157384857Y-92686190D01*
X157003904Y-92686190D01*
X158337238Y-92638571D02*
X158480095Y-92686190D01*
X158527714Y-92733809D01*
X158575333Y-92829047D01*
X158575333Y-92971904D01*
X158527714Y-93067142D01*
X158480095Y-93114761D01*
X158384857Y-93162380D01*
X158003904Y-93162380D01*
X158003904Y-92162380D01*
X158337238Y-92162380D01*
X158432476Y-92210000D01*
X158480095Y-92257619D01*
X158527714Y-92352857D01*
X158527714Y-92448095D01*
X158480095Y-92543333D01*
X158432476Y-92590952D01*
X158337238Y-92638571D01*
X158003904Y-92638571D01*
X159432476Y-92162380D02*
X159242000Y-92162380D01*
X159146761Y-92210000D01*
X159099142Y-92257619D01*
X159003904Y-92400476D01*
X158956285Y-92590952D01*
X158956285Y-92971904D01*
X159003904Y-93067142D01*
X159051523Y-93114761D01*
X159146761Y-93162380D01*
X159337238Y-93162380D01*
X159432476Y-93114761D01*
X159480095Y-93067142D01*
X159527714Y-92971904D01*
X159527714Y-92733809D01*
X159480095Y-92638571D01*
X159432476Y-92590952D01*
X159337238Y-92543333D01*
X159146761Y-92543333D01*
X159051523Y-92590952D01*
X159003904Y-92638571D01*
X158956285Y-92733809D01*
X157575333Y-90622380D02*
X157242000Y-90146190D01*
X157003904Y-90622380D02*
X157003904Y-89622380D01*
X157384857Y-89622380D01*
X157480095Y-89670000D01*
X157527714Y-89717619D01*
X157575333Y-89812857D01*
X157575333Y-89955714D01*
X157527714Y-90050952D01*
X157480095Y-90098571D01*
X157384857Y-90146190D01*
X157003904Y-90146190D01*
X158337238Y-90098571D02*
X158480095Y-90146190D01*
X158527714Y-90193809D01*
X158575333Y-90289047D01*
X158575333Y-90431904D01*
X158527714Y-90527142D01*
X158480095Y-90574761D01*
X158384857Y-90622380D01*
X158003904Y-90622380D01*
X158003904Y-89622380D01*
X158337238Y-89622380D01*
X158432476Y-89670000D01*
X158480095Y-89717619D01*
X158527714Y-89812857D01*
X158527714Y-89908095D01*
X158480095Y-90003333D01*
X158432476Y-90050952D01*
X158337238Y-90098571D01*
X158003904Y-90098571D01*
X159480095Y-89622380D02*
X159003904Y-89622380D01*
X158956285Y-90098571D01*
X159003904Y-90050952D01*
X159099142Y-90003333D01*
X159337238Y-90003333D01*
X159432476Y-90050952D01*
X159480095Y-90098571D01*
X159527714Y-90193809D01*
X159527714Y-90431904D01*
X159480095Y-90527142D01*
X159432476Y-90574761D01*
X159337238Y-90622380D01*
X159099142Y-90622380D01*
X159003904Y-90574761D01*
X158956285Y-90527142D01*
X157575333Y-88082380D02*
X157242000Y-87606190D01*
X157003904Y-88082380D02*
X157003904Y-87082380D01*
X157384857Y-87082380D01*
X157480095Y-87130000D01*
X157527714Y-87177619D01*
X157575333Y-87272857D01*
X157575333Y-87415714D01*
X157527714Y-87510952D01*
X157480095Y-87558571D01*
X157384857Y-87606190D01*
X157003904Y-87606190D01*
X158337238Y-87558571D02*
X158480095Y-87606190D01*
X158527714Y-87653809D01*
X158575333Y-87749047D01*
X158575333Y-87891904D01*
X158527714Y-87987142D01*
X158480095Y-88034761D01*
X158384857Y-88082380D01*
X158003904Y-88082380D01*
X158003904Y-87082380D01*
X158337238Y-87082380D01*
X158432476Y-87130000D01*
X158480095Y-87177619D01*
X158527714Y-87272857D01*
X158527714Y-87368095D01*
X158480095Y-87463333D01*
X158432476Y-87510952D01*
X158337238Y-87558571D01*
X158003904Y-87558571D01*
X159432476Y-87415714D02*
X159432476Y-88082380D01*
X159194380Y-87034761D02*
X158956285Y-87749047D01*
X159575333Y-87749047D01*
X157575333Y-85542380D02*
X157242000Y-85066190D01*
X157003904Y-85542380D02*
X157003904Y-84542380D01*
X157384857Y-84542380D01*
X157480095Y-84590000D01*
X157527714Y-84637619D01*
X157575333Y-84732857D01*
X157575333Y-84875714D01*
X157527714Y-84970952D01*
X157480095Y-85018571D01*
X157384857Y-85066190D01*
X157003904Y-85066190D01*
X158337238Y-85018571D02*
X158480095Y-85066190D01*
X158527714Y-85113809D01*
X158575333Y-85209047D01*
X158575333Y-85351904D01*
X158527714Y-85447142D01*
X158480095Y-85494761D01*
X158384857Y-85542380D01*
X158003904Y-85542380D01*
X158003904Y-84542380D01*
X158337238Y-84542380D01*
X158432476Y-84590000D01*
X158480095Y-84637619D01*
X158527714Y-84732857D01*
X158527714Y-84828095D01*
X158480095Y-84923333D01*
X158432476Y-84970952D01*
X158337238Y-85018571D01*
X158003904Y-85018571D01*
X158908666Y-84542380D02*
X159527714Y-84542380D01*
X159194380Y-84923333D01*
X159337238Y-84923333D01*
X159432476Y-84970952D01*
X159480095Y-85018571D01*
X159527714Y-85113809D01*
X159527714Y-85351904D01*
X159480095Y-85447142D01*
X159432476Y-85494761D01*
X159337238Y-85542380D01*
X159051523Y-85542380D01*
X158956285Y-85494761D01*
X158908666Y-85447142D01*
X157575333Y-83256380D02*
X157242000Y-82780190D01*
X157003904Y-83256380D02*
X157003904Y-82256380D01*
X157384857Y-82256380D01*
X157480095Y-82304000D01*
X157527714Y-82351619D01*
X157575333Y-82446857D01*
X157575333Y-82589714D01*
X157527714Y-82684952D01*
X157480095Y-82732571D01*
X157384857Y-82780190D01*
X157003904Y-82780190D01*
X158337238Y-82732571D02*
X158480095Y-82780190D01*
X158527714Y-82827809D01*
X158575333Y-82923047D01*
X158575333Y-83065904D01*
X158527714Y-83161142D01*
X158480095Y-83208761D01*
X158384857Y-83256380D01*
X158003904Y-83256380D01*
X158003904Y-82256380D01*
X158337238Y-82256380D01*
X158432476Y-82304000D01*
X158480095Y-82351619D01*
X158527714Y-82446857D01*
X158527714Y-82542095D01*
X158480095Y-82637333D01*
X158432476Y-82684952D01*
X158337238Y-82732571D01*
X158003904Y-82732571D01*
X158956285Y-82351619D02*
X159003904Y-82304000D01*
X159099142Y-82256380D01*
X159337238Y-82256380D01*
X159432476Y-82304000D01*
X159480095Y-82351619D01*
X159527714Y-82446857D01*
X159527714Y-82542095D01*
X159480095Y-82684952D01*
X158908666Y-83256380D01*
X159527714Y-83256380D01*
X157575333Y-80462380D02*
X157242000Y-79986190D01*
X157003904Y-80462380D02*
X157003904Y-79462380D01*
X157384857Y-79462380D01*
X157480095Y-79510000D01*
X157527714Y-79557619D01*
X157575333Y-79652857D01*
X157575333Y-79795714D01*
X157527714Y-79890952D01*
X157480095Y-79938571D01*
X157384857Y-79986190D01*
X157003904Y-79986190D01*
X158337238Y-79938571D02*
X158480095Y-79986190D01*
X158527714Y-80033809D01*
X158575333Y-80129047D01*
X158575333Y-80271904D01*
X158527714Y-80367142D01*
X158480095Y-80414761D01*
X158384857Y-80462380D01*
X158003904Y-80462380D01*
X158003904Y-79462380D01*
X158337238Y-79462380D01*
X158432476Y-79510000D01*
X158480095Y-79557619D01*
X158527714Y-79652857D01*
X158527714Y-79748095D01*
X158480095Y-79843333D01*
X158432476Y-79890952D01*
X158337238Y-79938571D01*
X158003904Y-79938571D01*
X159527714Y-80462380D02*
X158956285Y-80462380D01*
X159242000Y-80462380D02*
X159242000Y-79462380D01*
X159146761Y-79605238D01*
X159051523Y-79700476D01*
X158956285Y-79748095D01*
X157575333Y-78176380D02*
X157242000Y-77700190D01*
X157003904Y-78176380D02*
X157003904Y-77176380D01*
X157384857Y-77176380D01*
X157480095Y-77224000D01*
X157527714Y-77271619D01*
X157575333Y-77366857D01*
X157575333Y-77509714D01*
X157527714Y-77604952D01*
X157480095Y-77652571D01*
X157384857Y-77700190D01*
X157003904Y-77700190D01*
X158337238Y-77652571D02*
X158480095Y-77700190D01*
X158527714Y-77747809D01*
X158575333Y-77843047D01*
X158575333Y-77985904D01*
X158527714Y-78081142D01*
X158480095Y-78128761D01*
X158384857Y-78176380D01*
X158003904Y-78176380D01*
X158003904Y-77176380D01*
X158337238Y-77176380D01*
X158432476Y-77224000D01*
X158480095Y-77271619D01*
X158527714Y-77366857D01*
X158527714Y-77462095D01*
X158480095Y-77557333D01*
X158432476Y-77604952D01*
X158337238Y-77652571D01*
X158003904Y-77652571D01*
X159194380Y-77176380D02*
X159289619Y-77176380D01*
X159384857Y-77224000D01*
X159432476Y-77271619D01*
X159480095Y-77366857D01*
X159527714Y-77557333D01*
X159527714Y-77795428D01*
X159480095Y-77985904D01*
X159432476Y-78081142D01*
X159384857Y-78128761D01*
X159289619Y-78176380D01*
X159194380Y-78176380D01*
X159099142Y-78128761D01*
X159051523Y-78081142D01*
X159003904Y-77985904D01*
X158956285Y-77795428D01*
X158956285Y-77557333D01*
X159003904Y-77366857D01*
X159051523Y-77271619D01*
X159099142Y-77224000D01*
X159194380Y-77176380D01*
X164647619Y-84447333D02*
X165647619Y-84447333D01*
X165647619Y-84828285D01*
X165600000Y-84923523D01*
X165552380Y-84971142D01*
X165457142Y-85018761D01*
X165314285Y-85018761D01*
X165219047Y-84971142D01*
X165171428Y-84923523D01*
X165123809Y-84828285D01*
X165123809Y-84447333D01*
X165647619Y-85637809D02*
X165647619Y-85828285D01*
X165600000Y-85923523D01*
X165504761Y-86018761D01*
X165314285Y-86066380D01*
X164980952Y-86066380D01*
X164790476Y-86018761D01*
X164695238Y-85923523D01*
X164647619Y-85828285D01*
X164647619Y-85637809D01*
X164695238Y-85542571D01*
X164790476Y-85447333D01*
X164980952Y-85399714D01*
X165314285Y-85399714D01*
X165504761Y-85447333D01*
X165600000Y-85542571D01*
X165647619Y-85637809D01*
X164647619Y-87066380D02*
X165123809Y-86733047D01*
X164647619Y-86494952D02*
X165647619Y-86494952D01*
X165647619Y-86875904D01*
X165600000Y-86971142D01*
X165552380Y-87018761D01*
X165457142Y-87066380D01*
X165314285Y-87066380D01*
X165219047Y-87018761D01*
X165171428Y-86971142D01*
X165123809Y-86875904D01*
X165123809Y-86494952D01*
X165647619Y-87352095D02*
X165647619Y-87923523D01*
X164647619Y-87637809D02*
X165647619Y-87637809D01*
X165171428Y-88590190D02*
X165123809Y-88733047D01*
X165076190Y-88780666D01*
X164980952Y-88828285D01*
X164838095Y-88828285D01*
X164742857Y-88780666D01*
X164695238Y-88733047D01*
X164647619Y-88637809D01*
X164647619Y-88256857D01*
X165647619Y-88256857D01*
X165647619Y-88590190D01*
X165600000Y-88685428D01*
X165552380Y-88733047D01*
X165457142Y-88780666D01*
X165361904Y-88780666D01*
X165266666Y-88733047D01*
X165219047Y-88685428D01*
X165171428Y-88590190D01*
X165171428Y-88256857D01*
X157829333Y-117038380D02*
X157496000Y-116562190D01*
X157257904Y-117038380D02*
X157257904Y-116038380D01*
X157638857Y-116038380D01*
X157734095Y-116086000D01*
X157781714Y-116133619D01*
X157829333Y-116228857D01*
X157829333Y-116371714D01*
X157781714Y-116466952D01*
X157734095Y-116514571D01*
X157638857Y-116562190D01*
X157257904Y-116562190D01*
X158829333Y-116943142D02*
X158781714Y-116990761D01*
X158638857Y-117038380D01*
X158543619Y-117038380D01*
X158400761Y-116990761D01*
X158305523Y-116895523D01*
X158257904Y-116800285D01*
X158210285Y-116609809D01*
X158210285Y-116466952D01*
X158257904Y-116276476D01*
X158305523Y-116181238D01*
X158400761Y-116086000D01*
X158543619Y-116038380D01*
X158638857Y-116038380D01*
X158781714Y-116086000D01*
X158829333Y-116133619D01*
X159162666Y-116038380D02*
X159829333Y-116038380D01*
X159400761Y-117038380D01*
X157829333Y-114498380D02*
X157496000Y-114022190D01*
X157257904Y-114498380D02*
X157257904Y-113498380D01*
X157638857Y-113498380D01*
X157734095Y-113546000D01*
X157781714Y-113593619D01*
X157829333Y-113688857D01*
X157829333Y-113831714D01*
X157781714Y-113926952D01*
X157734095Y-113974571D01*
X157638857Y-114022190D01*
X157257904Y-114022190D01*
X158829333Y-114403142D02*
X158781714Y-114450761D01*
X158638857Y-114498380D01*
X158543619Y-114498380D01*
X158400761Y-114450761D01*
X158305523Y-114355523D01*
X158257904Y-114260285D01*
X158210285Y-114069809D01*
X158210285Y-113926952D01*
X158257904Y-113736476D01*
X158305523Y-113641238D01*
X158400761Y-113546000D01*
X158543619Y-113498380D01*
X158638857Y-113498380D01*
X158781714Y-113546000D01*
X158829333Y-113593619D01*
X159686476Y-113498380D02*
X159496000Y-113498380D01*
X159400761Y-113546000D01*
X159353142Y-113593619D01*
X159257904Y-113736476D01*
X159210285Y-113926952D01*
X159210285Y-114307904D01*
X159257904Y-114403142D01*
X159305523Y-114450761D01*
X159400761Y-114498380D01*
X159591238Y-114498380D01*
X159686476Y-114450761D01*
X159734095Y-114403142D01*
X159781714Y-114307904D01*
X159781714Y-114069809D01*
X159734095Y-113974571D01*
X159686476Y-113926952D01*
X159591238Y-113879333D01*
X159400761Y-113879333D01*
X159305523Y-113926952D01*
X159257904Y-113974571D01*
X159210285Y-114069809D01*
X157829333Y-111958380D02*
X157496000Y-111482190D01*
X157257904Y-111958380D02*
X157257904Y-110958380D01*
X157638857Y-110958380D01*
X157734095Y-111006000D01*
X157781714Y-111053619D01*
X157829333Y-111148857D01*
X157829333Y-111291714D01*
X157781714Y-111386952D01*
X157734095Y-111434571D01*
X157638857Y-111482190D01*
X157257904Y-111482190D01*
X158829333Y-111863142D02*
X158781714Y-111910761D01*
X158638857Y-111958380D01*
X158543619Y-111958380D01*
X158400761Y-111910761D01*
X158305523Y-111815523D01*
X158257904Y-111720285D01*
X158210285Y-111529809D01*
X158210285Y-111386952D01*
X158257904Y-111196476D01*
X158305523Y-111101238D01*
X158400761Y-111006000D01*
X158543619Y-110958380D01*
X158638857Y-110958380D01*
X158781714Y-111006000D01*
X158829333Y-111053619D01*
X159210285Y-111053619D02*
X159257904Y-111006000D01*
X159353142Y-110958380D01*
X159591238Y-110958380D01*
X159686476Y-111006000D01*
X159734095Y-111053619D01*
X159781714Y-111148857D01*
X159781714Y-111244095D01*
X159734095Y-111386952D01*
X159162666Y-111958380D01*
X159781714Y-111958380D01*
X157829333Y-109418380D02*
X157496000Y-108942190D01*
X157257904Y-109418380D02*
X157257904Y-108418380D01*
X157638857Y-108418380D01*
X157734095Y-108466000D01*
X157781714Y-108513619D01*
X157829333Y-108608857D01*
X157829333Y-108751714D01*
X157781714Y-108846952D01*
X157734095Y-108894571D01*
X157638857Y-108942190D01*
X157257904Y-108942190D01*
X158829333Y-109323142D02*
X158781714Y-109370761D01*
X158638857Y-109418380D01*
X158543619Y-109418380D01*
X158400761Y-109370761D01*
X158305523Y-109275523D01*
X158257904Y-109180285D01*
X158210285Y-108989809D01*
X158210285Y-108846952D01*
X158257904Y-108656476D01*
X158305523Y-108561238D01*
X158400761Y-108466000D01*
X158543619Y-108418380D01*
X158638857Y-108418380D01*
X158781714Y-108466000D01*
X158829333Y-108513619D01*
X159781714Y-109418380D02*
X159210285Y-109418380D01*
X159496000Y-109418380D02*
X159496000Y-108418380D01*
X159400761Y-108561238D01*
X159305523Y-108656476D01*
X159210285Y-108704095D01*
X157829333Y-106878380D02*
X157496000Y-106402190D01*
X157257904Y-106878380D02*
X157257904Y-105878380D01*
X157638857Y-105878380D01*
X157734095Y-105926000D01*
X157781714Y-105973619D01*
X157829333Y-106068857D01*
X157829333Y-106211714D01*
X157781714Y-106306952D01*
X157734095Y-106354571D01*
X157638857Y-106402190D01*
X157257904Y-106402190D01*
X158829333Y-106783142D02*
X158781714Y-106830761D01*
X158638857Y-106878380D01*
X158543619Y-106878380D01*
X158400761Y-106830761D01*
X158305523Y-106735523D01*
X158257904Y-106640285D01*
X158210285Y-106449809D01*
X158210285Y-106306952D01*
X158257904Y-106116476D01*
X158305523Y-106021238D01*
X158400761Y-105926000D01*
X158543619Y-105878380D01*
X158638857Y-105878380D01*
X158781714Y-105926000D01*
X158829333Y-105973619D01*
X159448380Y-105878380D02*
X159543619Y-105878380D01*
X159638857Y-105926000D01*
X159686476Y-105973619D01*
X159734095Y-106068857D01*
X159781714Y-106259333D01*
X159781714Y-106497428D01*
X159734095Y-106687904D01*
X159686476Y-106783142D01*
X159638857Y-106830761D01*
X159543619Y-106878380D01*
X159448380Y-106878380D01*
X159353142Y-106830761D01*
X159305523Y-106783142D01*
X159257904Y-106687904D01*
X159210285Y-106497428D01*
X159210285Y-106259333D01*
X159257904Y-106068857D01*
X159305523Y-105973619D01*
X159353142Y-105926000D01*
X159448380Y-105878380D01*
X164393619Y-109847333D02*
X165393619Y-109847333D01*
X165393619Y-110228285D01*
X165346000Y-110323523D01*
X165298380Y-110371142D01*
X165203142Y-110418761D01*
X165060285Y-110418761D01*
X164965047Y-110371142D01*
X164917428Y-110323523D01*
X164869809Y-110228285D01*
X164869809Y-109847333D01*
X165393619Y-111037809D02*
X165393619Y-111228285D01*
X165346000Y-111323523D01*
X165250761Y-111418761D01*
X165060285Y-111466380D01*
X164726952Y-111466380D01*
X164536476Y-111418761D01*
X164441238Y-111323523D01*
X164393619Y-111228285D01*
X164393619Y-111037809D01*
X164441238Y-110942571D01*
X164536476Y-110847333D01*
X164726952Y-110799714D01*
X165060285Y-110799714D01*
X165250761Y-110847333D01*
X165346000Y-110942571D01*
X165393619Y-111037809D01*
X164393619Y-112466380D02*
X164869809Y-112133047D01*
X164393619Y-111894952D02*
X165393619Y-111894952D01*
X165393619Y-112275904D01*
X165346000Y-112371142D01*
X165298380Y-112418761D01*
X165203142Y-112466380D01*
X165060285Y-112466380D01*
X164965047Y-112418761D01*
X164917428Y-112371142D01*
X164869809Y-112275904D01*
X164869809Y-111894952D01*
X165393619Y-112752095D02*
X165393619Y-113323523D01*
X164393619Y-113037809D02*
X165393619Y-113037809D01*
X164488857Y-114228285D02*
X164441238Y-114180666D01*
X164393619Y-114037809D01*
X164393619Y-113942571D01*
X164441238Y-113799714D01*
X164536476Y-113704476D01*
X164631714Y-113656857D01*
X164822190Y-113609238D01*
X164965047Y-113609238D01*
X165155523Y-113656857D01*
X165250761Y-113704476D01*
X165346000Y-113799714D01*
X165393619Y-113942571D01*
X165393619Y-114037809D01*
X165346000Y-114180666D01*
X165298380Y-114228285D01*
X110212380Y-115355714D02*
X110450476Y-116022380D01*
X110688571Y-115355714D01*
X111498095Y-115355714D02*
X111498095Y-116022380D01*
X111069523Y-115355714D02*
X111069523Y-115879523D01*
X111117142Y-115974761D01*
X111212380Y-116022380D01*
X111355238Y-116022380D01*
X111450476Y-115974761D01*
X111498095Y-115927142D01*
X111926666Y-115974761D02*
X112021904Y-116022380D01*
X112212380Y-116022380D01*
X112307619Y-115974761D01*
X112355238Y-115879523D01*
X112355238Y-115831904D01*
X112307619Y-115736666D01*
X112212380Y-115689047D01*
X112069523Y-115689047D01*
X111974285Y-115641428D01*
X111926666Y-115546190D01*
X111926666Y-115498571D01*
X111974285Y-115403333D01*
X112069523Y-115355714D01*
X112212380Y-115355714D01*
X112307619Y-115403333D01*
X112783809Y-116022380D02*
X112783809Y-115022380D01*
X112783809Y-115403333D02*
X112879047Y-115355714D01*
X113069523Y-115355714D01*
X113164761Y-115403333D01*
X113212380Y-115450952D01*
X113260000Y-115546190D01*
X113260000Y-115831904D01*
X113212380Y-115927142D01*
X113164761Y-115974761D01*
X113069523Y-116022380D01*
X112879047Y-116022380D01*
X112783809Y-115974761D01*
X111641047Y-113482380D02*
X111641047Y-112482380D01*
X111879142Y-112482380D01*
X112022000Y-112530000D01*
X112117238Y-112625238D01*
X112164857Y-112720476D01*
X112212476Y-112910952D01*
X112212476Y-113053809D01*
X112164857Y-113244285D01*
X112117238Y-113339523D01*
X112022000Y-113434761D01*
X111879142Y-113482380D01*
X111641047Y-113482380D01*
X112641047Y-113101428D02*
X113402952Y-113101428D01*
X111641047Y-110688380D02*
X111641047Y-109688380D01*
X111879142Y-109688380D01*
X112022000Y-109736000D01*
X112117238Y-109831238D01*
X112164857Y-109926476D01*
X112212476Y-110116952D01*
X112212476Y-110259809D01*
X112164857Y-110450285D01*
X112117238Y-110545523D01*
X112022000Y-110640761D01*
X111879142Y-110688380D01*
X111641047Y-110688380D01*
X112641047Y-110307428D02*
X113402952Y-110307428D01*
X113022000Y-110688380D02*
X113022000Y-109926476D01*
X118657619Y-111387142D02*
X117657619Y-111720476D01*
X118657619Y-112053809D01*
X118324285Y-112815714D02*
X117657619Y-112815714D01*
X118324285Y-112387142D02*
X117800476Y-112387142D01*
X117705238Y-112434761D01*
X117657619Y-112530000D01*
X117657619Y-112672857D01*
X117705238Y-112768095D01*
X117752857Y-112815714D01*
X117705238Y-113244285D02*
X117657619Y-113339523D01*
X117657619Y-113530000D01*
X117705238Y-113625238D01*
X117800476Y-113672857D01*
X117848095Y-113672857D01*
X117943333Y-113625238D01*
X117990952Y-113530000D01*
X117990952Y-113387142D01*
X118038571Y-113291904D01*
X118133809Y-113244285D01*
X118181428Y-113244285D01*
X118276666Y-113291904D01*
X118324285Y-113387142D01*
X118324285Y-113530000D01*
X118276666Y-113625238D01*
X117657619Y-114101428D02*
X118657619Y-114101428D01*
X118276666Y-114101428D02*
X118324285Y-114196666D01*
X118324285Y-114387142D01*
X118276666Y-114482380D01*
X118229047Y-114530000D01*
X118133809Y-114577619D01*
X117848095Y-114577619D01*
X117752857Y-114530000D01*
X117705238Y-114482380D01*
X117657619Y-114387142D01*
X117657619Y-114196666D01*
X117705238Y-114101428D01*
X128365333Y-124912380D02*
X128032000Y-124436190D01*
X127793904Y-124912380D02*
X127793904Y-123912380D01*
X128174857Y-123912380D01*
X128270095Y-123960000D01*
X128317714Y-124007619D01*
X128365333Y-124102857D01*
X128365333Y-124245714D01*
X128317714Y-124340952D01*
X128270095Y-124388571D01*
X128174857Y-124436190D01*
X127793904Y-124436190D01*
X128793904Y-124912380D02*
X128793904Y-123912380D01*
X129032000Y-123912380D01*
X129174857Y-123960000D01*
X129270095Y-124055238D01*
X129317714Y-124150476D01*
X129365333Y-124340952D01*
X129365333Y-124483809D01*
X129317714Y-124674285D01*
X129270095Y-124769523D01*
X129174857Y-124864761D01*
X129032000Y-124912380D01*
X128793904Y-124912380D01*
X129698666Y-123912380D02*
X130365333Y-123912380D01*
X129936761Y-124912380D01*
X128365333Y-122372380D02*
X128032000Y-121896190D01*
X127793904Y-122372380D02*
X127793904Y-121372380D01*
X128174857Y-121372380D01*
X128270095Y-121420000D01*
X128317714Y-121467619D01*
X128365333Y-121562857D01*
X128365333Y-121705714D01*
X128317714Y-121800952D01*
X128270095Y-121848571D01*
X128174857Y-121896190D01*
X127793904Y-121896190D01*
X128793904Y-122372380D02*
X128793904Y-121372380D01*
X129032000Y-121372380D01*
X129174857Y-121420000D01*
X129270095Y-121515238D01*
X129317714Y-121610476D01*
X129365333Y-121800952D01*
X129365333Y-121943809D01*
X129317714Y-122134285D01*
X129270095Y-122229523D01*
X129174857Y-122324761D01*
X129032000Y-122372380D01*
X128793904Y-122372380D01*
X130222476Y-121372380D02*
X130032000Y-121372380D01*
X129936761Y-121420000D01*
X129889142Y-121467619D01*
X129793904Y-121610476D01*
X129746285Y-121800952D01*
X129746285Y-122181904D01*
X129793904Y-122277142D01*
X129841523Y-122324761D01*
X129936761Y-122372380D01*
X130127238Y-122372380D01*
X130222476Y-122324761D01*
X130270095Y-122277142D01*
X130317714Y-122181904D01*
X130317714Y-121943809D01*
X130270095Y-121848571D01*
X130222476Y-121800952D01*
X130127238Y-121753333D01*
X129936761Y-121753333D01*
X129841523Y-121800952D01*
X129793904Y-121848571D01*
X129746285Y-121943809D01*
X128365333Y-119578380D02*
X128032000Y-119102190D01*
X127793904Y-119578380D02*
X127793904Y-118578380D01*
X128174857Y-118578380D01*
X128270095Y-118626000D01*
X128317714Y-118673619D01*
X128365333Y-118768857D01*
X128365333Y-118911714D01*
X128317714Y-119006952D01*
X128270095Y-119054571D01*
X128174857Y-119102190D01*
X127793904Y-119102190D01*
X128793904Y-119578380D02*
X128793904Y-118578380D01*
X129032000Y-118578380D01*
X129174857Y-118626000D01*
X129270095Y-118721238D01*
X129317714Y-118816476D01*
X129365333Y-119006952D01*
X129365333Y-119149809D01*
X129317714Y-119340285D01*
X129270095Y-119435523D01*
X129174857Y-119530761D01*
X129032000Y-119578380D01*
X128793904Y-119578380D01*
X130270095Y-118578380D02*
X129793904Y-118578380D01*
X129746285Y-119054571D01*
X129793904Y-119006952D01*
X129889142Y-118959333D01*
X130127238Y-118959333D01*
X130222476Y-119006952D01*
X130270095Y-119054571D01*
X130317714Y-119149809D01*
X130317714Y-119387904D01*
X130270095Y-119483142D01*
X130222476Y-119530761D01*
X130127238Y-119578380D01*
X129889142Y-119578380D01*
X129793904Y-119530761D01*
X129746285Y-119483142D01*
X128365333Y-117038380D02*
X128032000Y-116562190D01*
X127793904Y-117038380D02*
X127793904Y-116038380D01*
X128174857Y-116038380D01*
X128270095Y-116086000D01*
X128317714Y-116133619D01*
X128365333Y-116228857D01*
X128365333Y-116371714D01*
X128317714Y-116466952D01*
X128270095Y-116514571D01*
X128174857Y-116562190D01*
X127793904Y-116562190D01*
X128793904Y-117038380D02*
X128793904Y-116038380D01*
X129032000Y-116038380D01*
X129174857Y-116086000D01*
X129270095Y-116181238D01*
X129317714Y-116276476D01*
X129365333Y-116466952D01*
X129365333Y-116609809D01*
X129317714Y-116800285D01*
X129270095Y-116895523D01*
X129174857Y-116990761D01*
X129032000Y-117038380D01*
X128793904Y-117038380D01*
X130222476Y-116371714D02*
X130222476Y-117038380D01*
X129984380Y-115990761D02*
X129746285Y-116705047D01*
X130365333Y-116705047D01*
X128365333Y-114498380D02*
X128032000Y-114022190D01*
X127793904Y-114498380D02*
X127793904Y-113498380D01*
X128174857Y-113498380D01*
X128270095Y-113546000D01*
X128317714Y-113593619D01*
X128365333Y-113688857D01*
X128365333Y-113831714D01*
X128317714Y-113926952D01*
X128270095Y-113974571D01*
X128174857Y-114022190D01*
X127793904Y-114022190D01*
X128793904Y-114498380D02*
X128793904Y-113498380D01*
X129032000Y-113498380D01*
X129174857Y-113546000D01*
X129270095Y-113641238D01*
X129317714Y-113736476D01*
X129365333Y-113926952D01*
X129365333Y-114069809D01*
X129317714Y-114260285D01*
X129270095Y-114355523D01*
X129174857Y-114450761D01*
X129032000Y-114498380D01*
X128793904Y-114498380D01*
X129698666Y-113498380D02*
X130317714Y-113498380D01*
X129984380Y-113879333D01*
X130127238Y-113879333D01*
X130222476Y-113926952D01*
X130270095Y-113974571D01*
X130317714Y-114069809D01*
X130317714Y-114307904D01*
X130270095Y-114403142D01*
X130222476Y-114450761D01*
X130127238Y-114498380D01*
X129841523Y-114498380D01*
X129746285Y-114450761D01*
X129698666Y-114403142D01*
X128365333Y-111958380D02*
X128032000Y-111482190D01*
X127793904Y-111958380D02*
X127793904Y-110958380D01*
X128174857Y-110958380D01*
X128270095Y-111006000D01*
X128317714Y-111053619D01*
X128365333Y-111148857D01*
X128365333Y-111291714D01*
X128317714Y-111386952D01*
X128270095Y-111434571D01*
X128174857Y-111482190D01*
X127793904Y-111482190D01*
X128793904Y-111958380D02*
X128793904Y-110958380D01*
X129032000Y-110958380D01*
X129174857Y-111006000D01*
X129270095Y-111101238D01*
X129317714Y-111196476D01*
X129365333Y-111386952D01*
X129365333Y-111529809D01*
X129317714Y-111720285D01*
X129270095Y-111815523D01*
X129174857Y-111910761D01*
X129032000Y-111958380D01*
X128793904Y-111958380D01*
X129746285Y-111053619D02*
X129793904Y-111006000D01*
X129889142Y-110958380D01*
X130127238Y-110958380D01*
X130222476Y-111006000D01*
X130270095Y-111053619D01*
X130317714Y-111148857D01*
X130317714Y-111244095D01*
X130270095Y-111386952D01*
X129698666Y-111958380D01*
X130317714Y-111958380D01*
X128365333Y-109418380D02*
X128032000Y-108942190D01*
X127793904Y-109418380D02*
X127793904Y-108418380D01*
X128174857Y-108418380D01*
X128270095Y-108466000D01*
X128317714Y-108513619D01*
X128365333Y-108608857D01*
X128365333Y-108751714D01*
X128317714Y-108846952D01*
X128270095Y-108894571D01*
X128174857Y-108942190D01*
X127793904Y-108942190D01*
X128793904Y-109418380D02*
X128793904Y-108418380D01*
X129032000Y-108418380D01*
X129174857Y-108466000D01*
X129270095Y-108561238D01*
X129317714Y-108656476D01*
X129365333Y-108846952D01*
X129365333Y-108989809D01*
X129317714Y-109180285D01*
X129270095Y-109275523D01*
X129174857Y-109370761D01*
X129032000Y-109418380D01*
X128793904Y-109418380D01*
X130317714Y-109418380D02*
X129746285Y-109418380D01*
X130032000Y-109418380D02*
X130032000Y-108418380D01*
X129936761Y-108561238D01*
X129841523Y-108656476D01*
X129746285Y-108704095D01*
X128365333Y-106624380D02*
X128032000Y-106148190D01*
X127793904Y-106624380D02*
X127793904Y-105624380D01*
X128174857Y-105624380D01*
X128270095Y-105672000D01*
X128317714Y-105719619D01*
X128365333Y-105814857D01*
X128365333Y-105957714D01*
X128317714Y-106052952D01*
X128270095Y-106100571D01*
X128174857Y-106148190D01*
X127793904Y-106148190D01*
X128793904Y-106624380D02*
X128793904Y-105624380D01*
X129032000Y-105624380D01*
X129174857Y-105672000D01*
X129270095Y-105767238D01*
X129317714Y-105862476D01*
X129365333Y-106052952D01*
X129365333Y-106195809D01*
X129317714Y-106386285D01*
X129270095Y-106481523D01*
X129174857Y-106576761D01*
X129032000Y-106624380D01*
X128793904Y-106624380D01*
X129984380Y-105624380D02*
X130079619Y-105624380D01*
X130174857Y-105672000D01*
X130222476Y-105719619D01*
X130270095Y-105814857D01*
X130317714Y-106005333D01*
X130317714Y-106243428D01*
X130270095Y-106433904D01*
X130222476Y-106529142D01*
X130174857Y-106576761D01*
X130079619Y-106624380D01*
X129984380Y-106624380D01*
X129889142Y-106576761D01*
X129841523Y-106529142D01*
X129793904Y-106433904D01*
X129746285Y-106243428D01*
X129746285Y-106005333D01*
X129793904Y-105814857D01*
X129841523Y-105719619D01*
X129889142Y-105672000D01*
X129984380Y-105624380D01*
X121721619Y-113657333D02*
X122721619Y-113657333D01*
X122721619Y-114038285D01*
X122674000Y-114133523D01*
X122626380Y-114181142D01*
X122531142Y-114228761D01*
X122388285Y-114228761D01*
X122293047Y-114181142D01*
X122245428Y-114133523D01*
X122197809Y-114038285D01*
X122197809Y-113657333D01*
X122721619Y-114847809D02*
X122721619Y-115038285D01*
X122674000Y-115133523D01*
X122578761Y-115228761D01*
X122388285Y-115276380D01*
X122054952Y-115276380D01*
X121864476Y-115228761D01*
X121769238Y-115133523D01*
X121721619Y-115038285D01*
X121721619Y-114847809D01*
X121769238Y-114752571D01*
X121864476Y-114657333D01*
X122054952Y-114609714D01*
X122388285Y-114609714D01*
X122578761Y-114657333D01*
X122674000Y-114752571D01*
X122721619Y-114847809D01*
X121721619Y-116276380D02*
X122197809Y-115943047D01*
X121721619Y-115704952D02*
X122721619Y-115704952D01*
X122721619Y-116085904D01*
X122674000Y-116181142D01*
X122626380Y-116228761D01*
X122531142Y-116276380D01*
X122388285Y-116276380D01*
X122293047Y-116228761D01*
X122245428Y-116181142D01*
X122197809Y-116085904D01*
X122197809Y-115704952D01*
X122721619Y-116562095D02*
X122721619Y-117133523D01*
X121721619Y-116847809D02*
X122721619Y-116847809D01*
X121721619Y-117466857D02*
X122721619Y-117466857D01*
X122721619Y-117704952D01*
X122674000Y-117847809D01*
X122578761Y-117943047D01*
X122483523Y-117990666D01*
X122293047Y-118038285D01*
X122150190Y-118038285D01*
X121959714Y-117990666D01*
X121864476Y-117943047D01*
X121769238Y-117847809D01*
X121721619Y-117704952D01*
X121721619Y-117466857D01*
X122229619Y-85026761D02*
X123229619Y-85026761D01*
X123229619Y-85407714D01*
X123182000Y-85502952D01*
X123134380Y-85550571D01*
X123039142Y-85598190D01*
X122896285Y-85598190D01*
X122801047Y-85550571D01*
X122753428Y-85502952D01*
X122705809Y-85407714D01*
X122705809Y-85026761D01*
X123229619Y-86217238D02*
X123229619Y-86407714D01*
X123182000Y-86502952D01*
X123086761Y-86598190D01*
X122896285Y-86645809D01*
X122562952Y-86645809D01*
X122372476Y-86598190D01*
X122277238Y-86502952D01*
X122229619Y-86407714D01*
X122229619Y-86217238D01*
X122277238Y-86122000D01*
X122372476Y-86026761D01*
X122562952Y-85979142D01*
X122896285Y-85979142D01*
X123086761Y-86026761D01*
X123182000Y-86122000D01*
X123229619Y-86217238D01*
X122229619Y-87645809D02*
X122705809Y-87312476D01*
X122229619Y-87074380D02*
X123229619Y-87074380D01*
X123229619Y-87455333D01*
X123182000Y-87550571D01*
X123134380Y-87598190D01*
X123039142Y-87645809D01*
X122896285Y-87645809D01*
X122801047Y-87598190D01*
X122753428Y-87550571D01*
X122705809Y-87455333D01*
X122705809Y-87074380D01*
X123229619Y-87931523D02*
X123229619Y-88502952D01*
X122229619Y-88217238D02*
X123229619Y-88217238D01*
X122515333Y-88788666D02*
X122515333Y-89264857D01*
X122229619Y-88693428D02*
X123229619Y-89026761D01*
X122229619Y-89360095D01*
X128182761Y-95702380D02*
X127849428Y-95226190D01*
X127611333Y-95702380D02*
X127611333Y-94702380D01*
X127992285Y-94702380D01*
X128087523Y-94750000D01*
X128135142Y-94797619D01*
X128182761Y-94892857D01*
X128182761Y-95035714D01*
X128135142Y-95130952D01*
X128087523Y-95178571D01*
X127992285Y-95226190D01*
X127611333Y-95226190D01*
X128563714Y-95416666D02*
X129039904Y-95416666D01*
X128468476Y-95702380D02*
X128801809Y-94702380D01*
X129135142Y-95702380D01*
X129373238Y-94702380D02*
X130039904Y-94702380D01*
X129611333Y-95702380D01*
X128182761Y-93162380D02*
X127849428Y-92686190D01*
X127611333Y-93162380D02*
X127611333Y-92162380D01*
X127992285Y-92162380D01*
X128087523Y-92210000D01*
X128135142Y-92257619D01*
X128182761Y-92352857D01*
X128182761Y-92495714D01*
X128135142Y-92590952D01*
X128087523Y-92638571D01*
X127992285Y-92686190D01*
X127611333Y-92686190D01*
X128563714Y-92876666D02*
X129039904Y-92876666D01*
X128468476Y-93162380D02*
X128801809Y-92162380D01*
X129135142Y-93162380D01*
X129897047Y-92162380D02*
X129706571Y-92162380D01*
X129611333Y-92210000D01*
X129563714Y-92257619D01*
X129468476Y-92400476D01*
X129420857Y-92590952D01*
X129420857Y-92971904D01*
X129468476Y-93067142D01*
X129516095Y-93114761D01*
X129611333Y-93162380D01*
X129801809Y-93162380D01*
X129897047Y-93114761D01*
X129944666Y-93067142D01*
X129992285Y-92971904D01*
X129992285Y-92733809D01*
X129944666Y-92638571D01*
X129897047Y-92590952D01*
X129801809Y-92543333D01*
X129611333Y-92543333D01*
X129516095Y-92590952D01*
X129468476Y-92638571D01*
X129420857Y-92733809D01*
X128182761Y-90622380D02*
X127849428Y-90146190D01*
X127611333Y-90622380D02*
X127611333Y-89622380D01*
X127992285Y-89622380D01*
X128087523Y-89670000D01*
X128135142Y-89717619D01*
X128182761Y-89812857D01*
X128182761Y-89955714D01*
X128135142Y-90050952D01*
X128087523Y-90098571D01*
X127992285Y-90146190D01*
X127611333Y-90146190D01*
X128563714Y-90336666D02*
X129039904Y-90336666D01*
X128468476Y-90622380D02*
X128801809Y-89622380D01*
X129135142Y-90622380D01*
X129944666Y-89622380D02*
X129468476Y-89622380D01*
X129420857Y-90098571D01*
X129468476Y-90050952D01*
X129563714Y-90003333D01*
X129801809Y-90003333D01*
X129897047Y-90050952D01*
X129944666Y-90098571D01*
X129992285Y-90193809D01*
X129992285Y-90431904D01*
X129944666Y-90527142D01*
X129897047Y-90574761D01*
X129801809Y-90622380D01*
X129563714Y-90622380D01*
X129468476Y-90574761D01*
X129420857Y-90527142D01*
X128182761Y-88082380D02*
X127849428Y-87606190D01*
X127611333Y-88082380D02*
X127611333Y-87082380D01*
X127992285Y-87082380D01*
X128087523Y-87130000D01*
X128135142Y-87177619D01*
X128182761Y-87272857D01*
X128182761Y-87415714D01*
X128135142Y-87510952D01*
X128087523Y-87558571D01*
X127992285Y-87606190D01*
X127611333Y-87606190D01*
X128563714Y-87796666D02*
X129039904Y-87796666D01*
X128468476Y-88082380D02*
X128801809Y-87082380D01*
X129135142Y-88082380D01*
X129897047Y-87415714D02*
X129897047Y-88082380D01*
X129658952Y-87034761D02*
X129420857Y-87749047D01*
X130039904Y-87749047D01*
X128182761Y-85542380D02*
X127849428Y-85066190D01*
X127611333Y-85542380D02*
X127611333Y-84542380D01*
X127992285Y-84542380D01*
X128087523Y-84590000D01*
X128135142Y-84637619D01*
X128182761Y-84732857D01*
X128182761Y-84875714D01*
X128135142Y-84970952D01*
X128087523Y-85018571D01*
X127992285Y-85066190D01*
X127611333Y-85066190D01*
X128563714Y-85256666D02*
X129039904Y-85256666D01*
X128468476Y-85542380D02*
X128801809Y-84542380D01*
X129135142Y-85542380D01*
X129373238Y-84542380D02*
X129992285Y-84542380D01*
X129658952Y-84923333D01*
X129801809Y-84923333D01*
X129897047Y-84970952D01*
X129944666Y-85018571D01*
X129992285Y-85113809D01*
X129992285Y-85351904D01*
X129944666Y-85447142D01*
X129897047Y-85494761D01*
X129801809Y-85542380D01*
X129516095Y-85542380D01*
X129420857Y-85494761D01*
X129373238Y-85447142D01*
X128182761Y-83002380D02*
X127849428Y-82526190D01*
X127611333Y-83002380D02*
X127611333Y-82002380D01*
X127992285Y-82002380D01*
X128087523Y-82050000D01*
X128135142Y-82097619D01*
X128182761Y-82192857D01*
X128182761Y-82335714D01*
X128135142Y-82430952D01*
X128087523Y-82478571D01*
X127992285Y-82526190D01*
X127611333Y-82526190D01*
X128563714Y-82716666D02*
X129039904Y-82716666D01*
X128468476Y-83002380D02*
X128801809Y-82002380D01*
X129135142Y-83002380D01*
X129420857Y-82097619D02*
X129468476Y-82050000D01*
X129563714Y-82002380D01*
X129801809Y-82002380D01*
X129897047Y-82050000D01*
X129944666Y-82097619D01*
X129992285Y-82192857D01*
X129992285Y-82288095D01*
X129944666Y-82430952D01*
X129373238Y-83002380D01*
X129992285Y-83002380D01*
X128182761Y-80462380D02*
X127849428Y-79986190D01*
X127611333Y-80462380D02*
X127611333Y-79462380D01*
X127992285Y-79462380D01*
X128087523Y-79510000D01*
X128135142Y-79557619D01*
X128182761Y-79652857D01*
X128182761Y-79795714D01*
X128135142Y-79890952D01*
X128087523Y-79938571D01*
X127992285Y-79986190D01*
X127611333Y-79986190D01*
X128563714Y-80176666D02*
X129039904Y-80176666D01*
X128468476Y-80462380D02*
X128801809Y-79462380D01*
X129135142Y-80462380D01*
X129992285Y-80462380D02*
X129420857Y-80462380D01*
X129706571Y-80462380D02*
X129706571Y-79462380D01*
X129611333Y-79605238D01*
X129516095Y-79700476D01*
X129420857Y-79748095D01*
X128182761Y-77668380D02*
X127849428Y-77192190D01*
X127611333Y-77668380D02*
X127611333Y-76668380D01*
X127992285Y-76668380D01*
X128087523Y-76716000D01*
X128135142Y-76763619D01*
X128182761Y-76858857D01*
X128182761Y-77001714D01*
X128135142Y-77096952D01*
X128087523Y-77144571D01*
X127992285Y-77192190D01*
X127611333Y-77192190D01*
X128563714Y-77382666D02*
X129039904Y-77382666D01*
X128468476Y-77668380D02*
X128801809Y-76668380D01*
X129135142Y-77668380D01*
X129658952Y-76668380D02*
X129754190Y-76668380D01*
X129849428Y-76716000D01*
X129897047Y-76763619D01*
X129944666Y-76858857D01*
X129992285Y-77049333D01*
X129992285Y-77287428D01*
X129944666Y-77477904D01*
X129897047Y-77573142D01*
X129849428Y-77620761D01*
X129754190Y-77668380D01*
X129658952Y-77668380D01*
X129563714Y-77620761D01*
X129516095Y-77573142D01*
X129468476Y-77477904D01*
X129420857Y-77287428D01*
X129420857Y-77049333D01*
X129468476Y-76858857D01*
X129516095Y-76763619D01*
X129563714Y-76716000D01*
X129658952Y-76668380D01*
X128468380Y-148581904D02*
X127468380Y-148581904D01*
X127468380Y-148200952D01*
X127516000Y-148105714D01*
X127563619Y-148058095D01*
X127658857Y-148010476D01*
X127801714Y-148010476D01*
X127896952Y-148058095D01*
X127944571Y-148105714D01*
X127992190Y-148200952D01*
X127992190Y-148581904D01*
X127516000Y-147058095D02*
X127468380Y-147153333D01*
X127468380Y-147296190D01*
X127516000Y-147439047D01*
X127611238Y-147534285D01*
X127706476Y-147581904D01*
X127896952Y-147629523D01*
X128039809Y-147629523D01*
X128230285Y-147581904D01*
X128325523Y-147534285D01*
X128420761Y-147439047D01*
X128468380Y-147296190D01*
X128468380Y-147200952D01*
X128420761Y-147058095D01*
X128373142Y-147010476D01*
X128039809Y-147010476D01*
X128039809Y-147200952D01*
X128373142Y-146010476D02*
X128420761Y-146058095D01*
X128468380Y-146200952D01*
X128468380Y-146296190D01*
X128420761Y-146439047D01*
X128325523Y-146534285D01*
X128230285Y-146581904D01*
X128039809Y-146629523D01*
X127896952Y-146629523D01*
X127706476Y-146581904D01*
X127611238Y-146534285D01*
X127516000Y-146439047D01*
X127468380Y-146296190D01*
X127468380Y-146200952D01*
X127516000Y-146058095D01*
X127563619Y-146010476D01*
X125928380Y-148581904D02*
X124928380Y-148581904D01*
X124928380Y-148200952D01*
X124976000Y-148105714D01*
X125023619Y-148058095D01*
X125118857Y-148010476D01*
X125261714Y-148010476D01*
X125356952Y-148058095D01*
X125404571Y-148105714D01*
X125452190Y-148200952D01*
X125452190Y-148581904D01*
X124976000Y-147058095D02*
X124928380Y-147153333D01*
X124928380Y-147296190D01*
X124976000Y-147439047D01*
X125071238Y-147534285D01*
X125166476Y-147581904D01*
X125356952Y-147629523D01*
X125499809Y-147629523D01*
X125690285Y-147581904D01*
X125785523Y-147534285D01*
X125880761Y-147439047D01*
X125928380Y-147296190D01*
X125928380Y-147200952D01*
X125880761Y-147058095D01*
X125833142Y-147010476D01*
X125499809Y-147010476D01*
X125499809Y-147200952D01*
X125928380Y-146581904D02*
X124928380Y-146581904D01*
X124928380Y-146343809D01*
X124976000Y-146200952D01*
X125071238Y-146105714D01*
X125166476Y-146058095D01*
X125356952Y-146010476D01*
X125499809Y-146010476D01*
X125690285Y-146058095D01*
X125785523Y-146105714D01*
X125880761Y-146200952D01*
X125928380Y-146343809D01*
X125928380Y-146581904D01*
X122182000Y-148081904D02*
X122134380Y-148177142D01*
X122134380Y-148320000D01*
X122182000Y-148462857D01*
X122277238Y-148558095D01*
X122372476Y-148605714D01*
X122562952Y-148653333D01*
X122705809Y-148653333D01*
X122896285Y-148605714D01*
X122991523Y-148558095D01*
X123086761Y-148462857D01*
X123134380Y-148320000D01*
X123134380Y-148224761D01*
X123086761Y-148081904D01*
X123039142Y-148034285D01*
X122705809Y-148034285D01*
X122705809Y-148224761D01*
X123134380Y-147605714D02*
X122134380Y-147605714D01*
X123134380Y-147034285D01*
X122134380Y-147034285D01*
X123134380Y-146558095D02*
X122134380Y-146558095D01*
X122134380Y-146320000D01*
X122182000Y-146177142D01*
X122277238Y-146081904D01*
X122372476Y-146034285D01*
X122562952Y-145986666D01*
X122705809Y-145986666D01*
X122896285Y-146034285D01*
X122991523Y-146081904D01*
X123086761Y-146177142D01*
X123134380Y-146320000D01*
X123134380Y-146558095D01*
X119594380Y-148653333D02*
X120594380Y-148320000D01*
X119594380Y-147986666D01*
X120594380Y-147653333D02*
X119594380Y-147653333D01*
X119594380Y-147415238D01*
X119642000Y-147272380D01*
X119737238Y-147177142D01*
X119832476Y-147129523D01*
X120022952Y-147081904D01*
X120165809Y-147081904D01*
X120356285Y-147129523D01*
X120451523Y-147177142D01*
X120546761Y-147272380D01*
X120594380Y-147415238D01*
X120594380Y-147653333D01*
X120594380Y-146653333D02*
X119594380Y-146653333D01*
X119594380Y-146415238D01*
X119642000Y-146272380D01*
X119737238Y-146177142D01*
X119832476Y-146129523D01*
X120022952Y-146081904D01*
X120165809Y-146081904D01*
X120356285Y-146129523D01*
X120451523Y-146177142D01*
X120546761Y-146272380D01*
X120594380Y-146415238D01*
X120594380Y-146653333D01*
D11*
X117054380Y-148867333D02*
X118054380Y-148534000D01*
X117054380Y-148200666D01*
X118054380Y-147867333D02*
X117054380Y-147867333D01*
X117054380Y-147486380D01*
X117102000Y-147391142D01*
X117149619Y-147343523D01*
X117244857Y-147295904D01*
X117387714Y-147295904D01*
X117482952Y-147343523D01*
X117530571Y-147391142D01*
X117578190Y-147486380D01*
X117578190Y-147867333D01*
X118054380Y-146867333D02*
X117054380Y-146867333D01*
X117054380Y-146486380D01*
X117102000Y-146391142D01*
X117149619Y-146343523D01*
X117244857Y-146295904D01*
X117387714Y-146295904D01*
X117482952Y-146343523D01*
X117530571Y-146391142D01*
X117578190Y-146486380D01*
X117578190Y-146867333D01*
X117006761Y-145153047D02*
X118292476Y-146010190D01*
X118054380Y-144819714D02*
X117054380Y-144819714D01*
X117768666Y-144486380D01*
X117054380Y-144153047D01*
X118054380Y-144153047D01*
X117959142Y-143105428D02*
X118006761Y-143153047D01*
X118054380Y-143295904D01*
X118054380Y-143391142D01*
X118006761Y-143534000D01*
X117911523Y-143629238D01*
X117816285Y-143676857D01*
X117625809Y-143724476D01*
X117482952Y-143724476D01*
X117292476Y-143676857D01*
X117197238Y-143629238D01*
X117102000Y-143534000D01*
X117054380Y-143391142D01*
X117054380Y-143295904D01*
X117102000Y-143153047D01*
X117149619Y-143105428D01*
X118054380Y-142200666D02*
X118054380Y-142676857D01*
X117054380Y-142676857D01*
X118054380Y-141295904D02*
X117578190Y-141629238D01*
X118054380Y-141867333D02*
X117054380Y-141867333D01*
X117054380Y-141486380D01*
X117102000Y-141391142D01*
X117149619Y-141343523D01*
X117244857Y-141295904D01*
X117387714Y-141295904D01*
X117482952Y-141343523D01*
X117530571Y-141391142D01*
X117578190Y-141486380D01*
X117578190Y-141867333D01*
D12*
X139647000Y-59691225D02*
X139147000Y-59691225D01*
X139397000Y-59441225D02*
X139397000Y-59941225D01*
X138206000Y-64847000D02*
X137638000Y-64847000D01*
X138440000Y-64807000D02*
X137404000Y-64807000D01*
X138599000Y-64767000D02*
X137245000Y-64767000D01*
X138727000Y-64727000D02*
X137117000Y-64727000D01*
X138837000Y-64687000D02*
X137007000Y-64687000D01*
X138933000Y-64647000D02*
X136911000Y-64647000D01*
X139020000Y-64607000D02*
X136824000Y-64607000D01*
X139100000Y-64567000D02*
X136744000Y-64567000D01*
X139173000Y-64527000D02*
X136671000Y-64527000D01*
X139241000Y-64487000D02*
X136603000Y-64487000D01*
X139305000Y-64447000D02*
X136539000Y-64447000D01*
X139365000Y-64407000D02*
X136479000Y-64407000D01*
X139422000Y-64367000D02*
X136422000Y-64367000D01*
X139476000Y-64327000D02*
X136368000Y-64327000D01*
X139527000Y-64287000D02*
X136317000Y-64287000D01*
X136882000Y-64247000D02*
X136269000Y-64247000D01*
X139575000Y-64247000D02*
X138962000Y-64247000D01*
X136882000Y-64207000D02*
X136223000Y-64207000D01*
X139621000Y-64207000D02*
X138962000Y-64207000D01*
X136882000Y-64167000D02*
X136179000Y-64167000D01*
X139665000Y-64167000D02*
X138962000Y-64167000D01*
X136882000Y-64127000D02*
X136137000Y-64127000D01*
X139707000Y-64127000D02*
X138962000Y-64127000D01*
X136882000Y-64087000D02*
X136096000Y-64087000D01*
X139748000Y-64087000D02*
X138962000Y-64087000D01*
X136882000Y-64047000D02*
X136058000Y-64047000D01*
X139786000Y-64047000D02*
X138962000Y-64047000D01*
X136882000Y-64007000D02*
X136021000Y-64007000D01*
X139823000Y-64007000D02*
X138962000Y-64007000D01*
X136882000Y-63967000D02*
X135985000Y-63967000D01*
X139859000Y-63967000D02*
X138962000Y-63967000D01*
X136882000Y-63927000D02*
X135951000Y-63927000D01*
X139893000Y-63927000D02*
X138962000Y-63927000D01*
X136882000Y-63887000D02*
X135918000Y-63887000D01*
X139926000Y-63887000D02*
X138962000Y-63887000D01*
X136882000Y-63847000D02*
X135887000Y-63847000D01*
X139957000Y-63847000D02*
X138962000Y-63847000D01*
X136882000Y-63807000D02*
X135857000Y-63807000D01*
X139987000Y-63807000D02*
X138962000Y-63807000D01*
X136882000Y-63767000D02*
X135827000Y-63767000D01*
X140017000Y-63767000D02*
X138962000Y-63767000D01*
X136882000Y-63727000D02*
X135800000Y-63727000D01*
X140044000Y-63727000D02*
X138962000Y-63727000D01*
X136882000Y-63687000D02*
X135773000Y-63687000D01*
X140071000Y-63687000D02*
X138962000Y-63687000D01*
X136882000Y-63647000D02*
X135747000Y-63647000D01*
X140097000Y-63647000D02*
X138962000Y-63647000D01*
X136882000Y-63607000D02*
X135722000Y-63607000D01*
X140122000Y-63607000D02*
X138962000Y-63607000D01*
X136882000Y-63567000D02*
X135698000Y-63567000D01*
X140146000Y-63567000D02*
X138962000Y-63567000D01*
X136882000Y-63527000D02*
X135675000Y-63527000D01*
X140169000Y-63527000D02*
X138962000Y-63527000D01*
X136882000Y-63487000D02*
X135654000Y-63487000D01*
X140190000Y-63487000D02*
X138962000Y-63487000D01*
X136882000Y-63447000D02*
X135632000Y-63447000D01*
X140212000Y-63447000D02*
X138962000Y-63447000D01*
X136882000Y-63407000D02*
X135612000Y-63407000D01*
X140232000Y-63407000D02*
X138962000Y-63407000D01*
X136882000Y-63367000D02*
X135593000Y-63367000D01*
X140251000Y-63367000D02*
X138962000Y-63367000D01*
X136882000Y-63327000D02*
X135574000Y-63327000D01*
X140270000Y-63327000D02*
X138962000Y-63327000D01*
X136882000Y-63287000D02*
X135557000Y-63287000D01*
X140287000Y-63287000D02*
X138962000Y-63287000D01*
X136882000Y-63247000D02*
X135540000Y-63247000D01*
X140304000Y-63247000D02*
X138962000Y-63247000D01*
X136882000Y-63207000D02*
X135524000Y-63207000D01*
X140320000Y-63207000D02*
X138962000Y-63207000D01*
X136882000Y-63167000D02*
X135508000Y-63167000D01*
X140336000Y-63167000D02*
X138962000Y-63167000D01*
X136882000Y-63127000D02*
X135494000Y-63127000D01*
X140350000Y-63127000D02*
X138962000Y-63127000D01*
X136882000Y-63087000D02*
X135480000Y-63087000D01*
X140364000Y-63087000D02*
X138962000Y-63087000D01*
X136882000Y-63047000D02*
X135467000Y-63047000D01*
X140377000Y-63047000D02*
X138962000Y-63047000D01*
X136882000Y-63007000D02*
X135454000Y-63007000D01*
X140390000Y-63007000D02*
X138962000Y-63007000D01*
X136882000Y-62967000D02*
X135442000Y-62967000D01*
X140402000Y-62967000D02*
X138962000Y-62967000D01*
X136882000Y-62926000D02*
X135431000Y-62926000D01*
X140413000Y-62926000D02*
X138962000Y-62926000D01*
X136882000Y-62886000D02*
X135421000Y-62886000D01*
X140423000Y-62886000D02*
X138962000Y-62886000D01*
X136882000Y-62846000D02*
X135411000Y-62846000D01*
X140433000Y-62846000D02*
X138962000Y-62846000D01*
X136882000Y-62806000D02*
X135402000Y-62806000D01*
X140442000Y-62806000D02*
X138962000Y-62806000D01*
X136882000Y-62766000D02*
X135394000Y-62766000D01*
X140450000Y-62766000D02*
X138962000Y-62766000D01*
X136882000Y-62726000D02*
X135386000Y-62726000D01*
X140458000Y-62726000D02*
X138962000Y-62726000D01*
X136882000Y-62686000D02*
X135379000Y-62686000D01*
X140465000Y-62686000D02*
X138962000Y-62686000D01*
X136882000Y-62646000D02*
X135372000Y-62646000D01*
X140472000Y-62646000D02*
X138962000Y-62646000D01*
X136882000Y-62606000D02*
X135366000Y-62606000D01*
X140478000Y-62606000D02*
X138962000Y-62606000D01*
X136882000Y-62566000D02*
X135361000Y-62566000D01*
X140483000Y-62566000D02*
X138962000Y-62566000D01*
X136882000Y-62526000D02*
X135357000Y-62526000D01*
X140487000Y-62526000D02*
X138962000Y-62526000D01*
X136882000Y-62486000D02*
X135353000Y-62486000D01*
X140491000Y-62486000D02*
X138962000Y-62486000D01*
X136882000Y-62446000D02*
X135349000Y-62446000D01*
X140495000Y-62446000D02*
X138962000Y-62446000D01*
X136882000Y-62406000D02*
X135346000Y-62406000D01*
X140498000Y-62406000D02*
X138962000Y-62406000D01*
X136882000Y-62366000D02*
X135344000Y-62366000D01*
X140500000Y-62366000D02*
X138962000Y-62366000D01*
X136882000Y-62326000D02*
X135343000Y-62326000D01*
X140501000Y-62326000D02*
X138962000Y-62326000D01*
X140502000Y-62286000D02*
X138962000Y-62286000D01*
X136882000Y-62286000D02*
X135342000Y-62286000D01*
X140502000Y-62246000D02*
X138962000Y-62246000D01*
X136882000Y-62246000D02*
X135342000Y-62246000D01*
X140542000Y-62246000D02*
G75*
G03X140542000Y-62246000I-2620000J0D01*
G01*
X140542000Y-69834000D02*
G75*
G03X140542000Y-69834000I-2620000J0D01*
G01*
X136882000Y-69834000D02*
X135342000Y-69834000D01*
X140502000Y-69834000D02*
X138962000Y-69834000D01*
X136882000Y-69874000D02*
X135342000Y-69874000D01*
X140502000Y-69874000D02*
X138962000Y-69874000D01*
X140501000Y-69914000D02*
X138962000Y-69914000D01*
X136882000Y-69914000D02*
X135343000Y-69914000D01*
X140500000Y-69954000D02*
X138962000Y-69954000D01*
X136882000Y-69954000D02*
X135344000Y-69954000D01*
X140498000Y-69994000D02*
X138962000Y-69994000D01*
X136882000Y-69994000D02*
X135346000Y-69994000D01*
X140495000Y-70034000D02*
X138962000Y-70034000D01*
X136882000Y-70034000D02*
X135349000Y-70034000D01*
X140491000Y-70074000D02*
X138962000Y-70074000D01*
X136882000Y-70074000D02*
X135353000Y-70074000D01*
X140487000Y-70114000D02*
X138962000Y-70114000D01*
X136882000Y-70114000D02*
X135357000Y-70114000D01*
X140483000Y-70154000D02*
X138962000Y-70154000D01*
X136882000Y-70154000D02*
X135361000Y-70154000D01*
X140478000Y-70194000D02*
X138962000Y-70194000D01*
X136882000Y-70194000D02*
X135366000Y-70194000D01*
X140472000Y-70234000D02*
X138962000Y-70234000D01*
X136882000Y-70234000D02*
X135372000Y-70234000D01*
X140465000Y-70274000D02*
X138962000Y-70274000D01*
X136882000Y-70274000D02*
X135379000Y-70274000D01*
X140458000Y-70314000D02*
X138962000Y-70314000D01*
X136882000Y-70314000D02*
X135386000Y-70314000D01*
X140450000Y-70354000D02*
X138962000Y-70354000D01*
X136882000Y-70354000D02*
X135394000Y-70354000D01*
X140442000Y-70394000D02*
X138962000Y-70394000D01*
X136882000Y-70394000D02*
X135402000Y-70394000D01*
X140433000Y-70434000D02*
X138962000Y-70434000D01*
X136882000Y-70434000D02*
X135411000Y-70434000D01*
X140423000Y-70474000D02*
X138962000Y-70474000D01*
X136882000Y-70474000D02*
X135421000Y-70474000D01*
X140413000Y-70514000D02*
X138962000Y-70514000D01*
X136882000Y-70514000D02*
X135431000Y-70514000D01*
X140402000Y-70555000D02*
X138962000Y-70555000D01*
X136882000Y-70555000D02*
X135442000Y-70555000D01*
X140390000Y-70595000D02*
X138962000Y-70595000D01*
X136882000Y-70595000D02*
X135454000Y-70595000D01*
X140377000Y-70635000D02*
X138962000Y-70635000D01*
X136882000Y-70635000D02*
X135467000Y-70635000D01*
X140364000Y-70675000D02*
X138962000Y-70675000D01*
X136882000Y-70675000D02*
X135480000Y-70675000D01*
X140350000Y-70715000D02*
X138962000Y-70715000D01*
X136882000Y-70715000D02*
X135494000Y-70715000D01*
X140336000Y-70755000D02*
X138962000Y-70755000D01*
X136882000Y-70755000D02*
X135508000Y-70755000D01*
X140320000Y-70795000D02*
X138962000Y-70795000D01*
X136882000Y-70795000D02*
X135524000Y-70795000D01*
X140304000Y-70835000D02*
X138962000Y-70835000D01*
X136882000Y-70835000D02*
X135540000Y-70835000D01*
X140287000Y-70875000D02*
X138962000Y-70875000D01*
X136882000Y-70875000D02*
X135557000Y-70875000D01*
X140270000Y-70915000D02*
X138962000Y-70915000D01*
X136882000Y-70915000D02*
X135574000Y-70915000D01*
X140251000Y-70955000D02*
X138962000Y-70955000D01*
X136882000Y-70955000D02*
X135593000Y-70955000D01*
X140232000Y-70995000D02*
X138962000Y-70995000D01*
X136882000Y-70995000D02*
X135612000Y-70995000D01*
X140212000Y-71035000D02*
X138962000Y-71035000D01*
X136882000Y-71035000D02*
X135632000Y-71035000D01*
X140190000Y-71075000D02*
X138962000Y-71075000D01*
X136882000Y-71075000D02*
X135654000Y-71075000D01*
X140169000Y-71115000D02*
X138962000Y-71115000D01*
X136882000Y-71115000D02*
X135675000Y-71115000D01*
X140146000Y-71155000D02*
X138962000Y-71155000D01*
X136882000Y-71155000D02*
X135698000Y-71155000D01*
X140122000Y-71195000D02*
X138962000Y-71195000D01*
X136882000Y-71195000D02*
X135722000Y-71195000D01*
X140097000Y-71235000D02*
X138962000Y-71235000D01*
X136882000Y-71235000D02*
X135747000Y-71235000D01*
X140071000Y-71275000D02*
X138962000Y-71275000D01*
X136882000Y-71275000D02*
X135773000Y-71275000D01*
X140044000Y-71315000D02*
X138962000Y-71315000D01*
X136882000Y-71315000D02*
X135800000Y-71315000D01*
X140017000Y-71355000D02*
X138962000Y-71355000D01*
X136882000Y-71355000D02*
X135827000Y-71355000D01*
X139987000Y-71395000D02*
X138962000Y-71395000D01*
X136882000Y-71395000D02*
X135857000Y-71395000D01*
X139957000Y-71435000D02*
X138962000Y-71435000D01*
X136882000Y-71435000D02*
X135887000Y-71435000D01*
X139926000Y-71475000D02*
X138962000Y-71475000D01*
X136882000Y-71475000D02*
X135918000Y-71475000D01*
X139893000Y-71515000D02*
X138962000Y-71515000D01*
X136882000Y-71515000D02*
X135951000Y-71515000D01*
X139859000Y-71555000D02*
X138962000Y-71555000D01*
X136882000Y-71555000D02*
X135985000Y-71555000D01*
X139823000Y-71595000D02*
X138962000Y-71595000D01*
X136882000Y-71595000D02*
X136021000Y-71595000D01*
X139786000Y-71635000D02*
X138962000Y-71635000D01*
X136882000Y-71635000D02*
X136058000Y-71635000D01*
X139748000Y-71675000D02*
X138962000Y-71675000D01*
X136882000Y-71675000D02*
X136096000Y-71675000D01*
X139707000Y-71715000D02*
X138962000Y-71715000D01*
X136882000Y-71715000D02*
X136137000Y-71715000D01*
X139665000Y-71755000D02*
X138962000Y-71755000D01*
X136882000Y-71755000D02*
X136179000Y-71755000D01*
X139621000Y-71795000D02*
X138962000Y-71795000D01*
X136882000Y-71795000D02*
X136223000Y-71795000D01*
X139575000Y-71835000D02*
X138962000Y-71835000D01*
X136882000Y-71835000D02*
X136269000Y-71835000D01*
X139527000Y-71875000D02*
X136317000Y-71875000D01*
X139476000Y-71915000D02*
X136368000Y-71915000D01*
X139422000Y-71955000D02*
X136422000Y-71955000D01*
X139365000Y-71995000D02*
X136479000Y-71995000D01*
X139305000Y-72035000D02*
X136539000Y-72035000D01*
X139241000Y-72075000D02*
X136603000Y-72075000D01*
X139173000Y-72115000D02*
X136671000Y-72115000D01*
X139100000Y-72155000D02*
X136744000Y-72155000D01*
X139020000Y-72195000D02*
X136824000Y-72195000D01*
X138933000Y-72235000D02*
X136911000Y-72235000D01*
X138837000Y-72275000D02*
X137007000Y-72275000D01*
X138727000Y-72315000D02*
X137117000Y-72315000D01*
X138599000Y-72355000D02*
X137245000Y-72355000D01*
X138440000Y-72395000D02*
X137404000Y-72395000D01*
X138206000Y-72435000D02*
X137638000Y-72435000D01*
X139397000Y-67029225D02*
X139397000Y-67529225D01*
X139647000Y-67279225D02*
X139147000Y-67279225D01*
X100624000Y-131103000D02*
X100624000Y-131418000D01*
X100624000Y-128678000D02*
X100624000Y-128993000D01*
X95384000Y-131103000D02*
X95384000Y-131418000D01*
X95384000Y-128678000D02*
X95384000Y-128993000D01*
X95384000Y-131418000D02*
X100624000Y-131418000D01*
X95384000Y-128678000D02*
X100624000Y-128678000D01*
X105036000Y-129186000D02*
X110276000Y-129186000D01*
X105036000Y-131926000D02*
X110276000Y-131926000D01*
X105036000Y-129186000D02*
X105036000Y-129501000D01*
X105036000Y-131611000D02*
X105036000Y-131926000D01*
X110276000Y-129186000D02*
X110276000Y-129501000D01*
X110276000Y-131611000D02*
X110276000Y-131926000D01*
X121349392Y-134979665D02*
G75*
G03X121192484Y-138212000I1078608J-1672335D01*
G01*
X123506608Y-134979665D02*
G75*
G02X123663516Y-138212000I-1078608J-1672335D01*
G01*
X121348163Y-135610870D02*
G75*
G03X121348000Y-137692961I1079837J-1041130D01*
G01*
X123507837Y-135610870D02*
G75*
G02X123508000Y-137692961I-1079837J-1041130D01*
G01*
X121192000Y-138212000D02*
X121348000Y-138212000D01*
X123508000Y-138212000D02*
X123664000Y-138212000D01*
X117666000Y-138212000D02*
X117822000Y-138212000D01*
X115350000Y-138212000D02*
X115506000Y-138212000D01*
X117665837Y-135610870D02*
G75*
G02X117666000Y-137692961I-1079837J-1041130D01*
G01*
X115506163Y-135610870D02*
G75*
G03X115506000Y-137692961I1079837J-1041130D01*
G01*
X117664608Y-134979665D02*
G75*
G02X117821516Y-138212000I-1078608J-1672335D01*
G01*
X115507392Y-134979665D02*
G75*
G03X115350484Y-138212000I1078608J-1672335D01*
G01*
X131632000Y-152206000D02*
X131632000Y-149546000D01*
X118872000Y-152206000D02*
X131632000Y-152206000D01*
X118872000Y-149546000D02*
X131632000Y-149546000D01*
X118872000Y-152206000D02*
X118872000Y-149546000D01*
X117602000Y-152206000D02*
X116272000Y-152206000D01*
X116272000Y-152206000D02*
X116272000Y-150876000D01*
X185520000Y-62262000D02*
X185190000Y-62262000D01*
X185520000Y-68802000D02*
X185520000Y-62262000D01*
X185190000Y-68802000D02*
X185520000Y-68802000D01*
X182780000Y-62262000D02*
X183110000Y-62262000D01*
X182780000Y-68802000D02*
X182780000Y-62262000D01*
X183110000Y-68802000D02*
X182780000Y-68802000D01*
X124146000Y-107696000D02*
X126806000Y-107696000D01*
X124146000Y-107696000D02*
X124146000Y-125536000D01*
X124146000Y-125536000D02*
X126806000Y-125536000D01*
X126806000Y-107696000D02*
X126806000Y-125536000D01*
X126806000Y-105096000D02*
X126806000Y-106426000D01*
X125476000Y-105096000D02*
X126806000Y-105096000D01*
X185360000Y-75184000D02*
X188020000Y-75184000D01*
X185360000Y-75184000D02*
X185360000Y-113344000D01*
X185360000Y-113344000D02*
X188020000Y-113344000D01*
X188020000Y-75184000D02*
X188020000Y-113344000D01*
X188020000Y-72584000D02*
X188020000Y-73914000D01*
X186690000Y-72584000D02*
X188020000Y-72584000D01*
X169704000Y-78970000D02*
X169704000Y-78640000D01*
X169704000Y-78640000D02*
X176244000Y-78640000D01*
X176244000Y-78640000D02*
X176244000Y-78970000D01*
X169704000Y-81050000D02*
X169704000Y-81380000D01*
X169704000Y-81380000D02*
X176244000Y-81380000D01*
X176244000Y-81380000D02*
X176244000Y-81050000D01*
X150224000Y-76140000D02*
X144764000Y-76140000D01*
X150224000Y-127060000D02*
X150224000Y-76140000D01*
X137304000Y-127060000D02*
X150224000Y-127060000D01*
X137304000Y-76140000D02*
X137304000Y-127060000D01*
X142764000Y-76140000D02*
X137304000Y-76140000D01*
X144764000Y-76140000D02*
G75*
G02X142764000Y-76140000I-1000000J0D01*
G01*
X176244000Y-84936000D02*
X176244000Y-84606000D01*
X169704000Y-84936000D02*
X176244000Y-84936000D01*
X169704000Y-84606000D02*
X169704000Y-84936000D01*
X176244000Y-82196000D02*
X176244000Y-82526000D01*
X169704000Y-82196000D02*
X176244000Y-82196000D01*
X169704000Y-82526000D02*
X169704000Y-82196000D01*
X115792000Y-97128000D02*
X115792000Y-96798000D01*
X109252000Y-97128000D02*
X115792000Y-97128000D01*
X109252000Y-96798000D02*
X109252000Y-97128000D01*
X115792000Y-94388000D02*
X115792000Y-94718000D01*
X109252000Y-94388000D02*
X115792000Y-94388000D01*
X109252000Y-94718000D02*
X109252000Y-94388000D01*
X176244000Y-95604000D02*
X176244000Y-95274000D01*
X169704000Y-95604000D02*
X176244000Y-95604000D01*
X169704000Y-95274000D02*
X169704000Y-95604000D01*
X176244000Y-92864000D02*
X176244000Y-93194000D01*
X169704000Y-92864000D02*
X176244000Y-92864000D01*
X169704000Y-93194000D02*
X169704000Y-92864000D01*
X160468000Y-78740000D02*
X163128000Y-78740000D01*
X160468000Y-78740000D02*
X160468000Y-96580000D01*
X160468000Y-96580000D02*
X163128000Y-96580000D01*
X163128000Y-78740000D02*
X163128000Y-96580000D01*
X163128000Y-76140000D02*
X163128000Y-77470000D01*
X161798000Y-76140000D02*
X163128000Y-76140000D01*
X169704000Y-89384000D02*
X169704000Y-89054000D01*
X169704000Y-89054000D02*
X176244000Y-89054000D01*
X176244000Y-89054000D02*
X176244000Y-89384000D01*
X169704000Y-91464000D02*
X169704000Y-91794000D01*
X169704000Y-91794000D02*
X176244000Y-91794000D01*
X176244000Y-91794000D02*
X176244000Y-91464000D01*
X170212000Y-108180000D02*
X170212000Y-107850000D01*
X170212000Y-107850000D02*
X176752000Y-107850000D01*
X176752000Y-107850000D02*
X176752000Y-108180000D01*
X170212000Y-110260000D02*
X170212000Y-110590000D01*
X170212000Y-110590000D02*
X176752000Y-110590000D01*
X176752000Y-110590000D02*
X176752000Y-110260000D01*
X105298000Y-113442000D02*
X105298000Y-111602000D01*
X105298000Y-111602000D02*
X101458000Y-111602000D01*
X101458000Y-111602000D02*
X101458000Y-113442000D01*
X101458000Y-113442000D02*
X105298000Y-113442000D01*
X106248000Y-112522000D02*
X105298000Y-112522000D01*
X100508000Y-112522000D02*
X101458000Y-112522000D01*
X123698000Y-73660000D02*
X118364000Y-73660000D01*
X118364000Y-73660000D02*
X118364000Y-62992000D01*
X118364000Y-62992000D02*
X123698000Y-62992000D01*
X123698000Y-62992000D02*
X123698000Y-62992000D01*
X121158000Y-73152000D02*
X121158000Y-70866000D01*
X121158000Y-70866000D02*
X123444000Y-70866000D01*
X123444000Y-70866000D02*
X123444000Y-70866000D01*
X124028000Y-74236000D02*
X94828000Y-74236000D01*
X94828000Y-74236000D02*
X94828000Y-58786000D01*
X94828000Y-58786000D02*
X124028000Y-58786000D01*
X124028000Y-58786000D02*
X124028000Y-74236000D01*
X124028000Y-74236000D02*
X124028000Y-74236000D01*
X123698000Y-62992000D02*
X123698000Y-73660000D01*
X123698000Y-73660000D02*
X123698000Y-73660000D01*
X159766000Y-125282000D02*
X159766000Y-122622000D01*
X159766000Y-125282000D02*
X164906000Y-125282000D01*
X164906000Y-125282000D02*
X164906000Y-122622000D01*
X159766000Y-122622000D02*
X164906000Y-122622000D01*
X157166000Y-122622000D02*
X158496000Y-122622000D01*
X157166000Y-123952000D02*
X157166000Y-122622000D01*
X169704000Y-85828000D02*
X169704000Y-85498000D01*
X169704000Y-85498000D02*
X176244000Y-85498000D01*
X176244000Y-85498000D02*
X176244000Y-85828000D01*
X169704000Y-87908000D02*
X169704000Y-88238000D01*
X169704000Y-88238000D02*
X176244000Y-88238000D01*
X176244000Y-88238000D02*
X176244000Y-87908000D01*
X124146000Y-78740000D02*
X126806000Y-78740000D01*
X124146000Y-78740000D02*
X124146000Y-96580000D01*
X124146000Y-96580000D02*
X126806000Y-96580000D01*
X126806000Y-78740000D02*
X126806000Y-96580000D01*
X126806000Y-76140000D02*
X126806000Y-77470000D01*
X125476000Y-76140000D02*
X126806000Y-76140000D01*
X109252000Y-91416000D02*
X109252000Y-91086000D01*
X109252000Y-91086000D02*
X115792000Y-91086000D01*
X115792000Y-91086000D02*
X115792000Y-91416000D01*
X109252000Y-93496000D02*
X109252000Y-93826000D01*
X109252000Y-93826000D02*
X115792000Y-93826000D01*
X115792000Y-93826000D02*
X115792000Y-93496000D01*
X160468000Y-107696000D02*
X163128000Y-107696000D01*
X160468000Y-107696000D02*
X160468000Y-117916000D01*
X160468000Y-117916000D02*
X163128000Y-117916000D01*
X163128000Y-107696000D02*
X163128000Y-117916000D01*
X163128000Y-105096000D02*
X163128000Y-106426000D01*
X161798000Y-105096000D02*
X163128000Y-105096000D01*
X129350000Y-138212000D02*
X129506000Y-138212000D01*
X127034000Y-138212000D02*
X127190000Y-138212000D01*
X129349837Y-135610870D02*
G75*
G02X129350000Y-137692961I-1079837J-1041130D01*
G01*
X127190163Y-135610870D02*
G75*
G03X127190000Y-137692961I1079837J-1041130D01*
G01*
X129348608Y-134979665D02*
G75*
G02X129505516Y-138212000I-1078608J-1672335D01*
G01*
X127191392Y-134979665D02*
G75*
G03X127034484Y-138212000I1078608J-1672335D01*
G01*
X133033392Y-134979665D02*
G75*
G03X132876484Y-138212000I1078608J-1672335D01*
G01*
X135190608Y-134979665D02*
G75*
G02X135347516Y-138212000I-1078608J-1672335D01*
G01*
X133032163Y-135610870D02*
G75*
G03X133032000Y-137692961I1079837J-1041130D01*
G01*
X135191837Y-135610870D02*
G75*
G02X135192000Y-137692961I-1079837J-1041130D01*
G01*
X132876000Y-138212000D02*
X133032000Y-138212000D01*
X135192000Y-138212000D02*
X135348000Y-138212000D01*
X109252000Y-98274000D02*
X109252000Y-97944000D01*
X109252000Y-97944000D02*
X115792000Y-97944000D01*
X115792000Y-97944000D02*
X115792000Y-98274000D01*
X109252000Y-100354000D02*
X109252000Y-100684000D01*
X109252000Y-100684000D02*
X115792000Y-100684000D01*
X115792000Y-100684000D02*
X115792000Y-100354000D01*
X148812000Y-67383000D02*
X147302000Y-67383000D01*
X148812000Y-63682000D02*
X147302000Y-63682000D01*
X147302000Y-60412000D02*
X147302000Y-70652000D01*
X148812000Y-70652000D02*
X144171000Y-70652000D01*
X148812000Y-60412000D02*
X144171000Y-60412000D01*
X144171000Y-60412000D02*
X144171000Y-70652000D01*
X148812000Y-60412000D02*
X148812000Y-70652000D01*
X115792000Y-90270000D02*
X115792000Y-89940000D01*
X109252000Y-90270000D02*
X115792000Y-90270000D01*
X109252000Y-89940000D02*
X109252000Y-90270000D01*
X115792000Y-87530000D02*
X115792000Y-87860000D01*
X109252000Y-87530000D02*
X115792000Y-87530000D01*
X109252000Y-87860000D02*
X109252000Y-87530000D01*
X98004000Y-119920000D02*
X108244000Y-119920000D01*
X98004000Y-124561000D02*
X108244000Y-124561000D01*
X98004000Y-119920000D02*
X98004000Y-124561000D01*
X108244000Y-119920000D02*
X108244000Y-124561000D01*
X98004000Y-121430000D02*
X108244000Y-121430000D01*
X101274000Y-119920000D02*
X101274000Y-121430000D01*
X104975000Y-119920000D02*
X104975000Y-121430000D01*
X176244000Y-77824000D02*
X176244000Y-77494000D01*
X169704000Y-77824000D02*
X176244000Y-77824000D01*
X169704000Y-77494000D02*
X169704000Y-77824000D01*
X176244000Y-75084000D02*
X176244000Y-75414000D01*
X169704000Y-75084000D02*
X176244000Y-75084000D01*
X169704000Y-75414000D02*
X169704000Y-75084000D01*
X115316000Y-108906000D02*
X116646000Y-108906000D01*
X116646000Y-108906000D02*
X116646000Y-110236000D01*
X116646000Y-111506000D02*
X116646000Y-116646000D01*
X113986000Y-116646000D02*
X116646000Y-116646000D01*
X113986000Y-111506000D02*
X113986000Y-116646000D01*
X113986000Y-111506000D02*
X116646000Y-111506000D01*
X159512000Y-66354000D02*
X159512000Y-63694000D01*
X159512000Y-66354000D02*
X172272000Y-66354000D01*
X172272000Y-66354000D02*
X172272000Y-63694000D01*
X159512000Y-63694000D02*
X172272000Y-63694000D01*
X156912000Y-63694000D02*
X158242000Y-63694000D01*
X156912000Y-65024000D02*
X156912000Y-63694000D01*
X99508000Y-103184000D02*
X102168000Y-103184000D01*
X99508000Y-85344000D02*
X99508000Y-103184000D01*
X102168000Y-85344000D02*
X102168000Y-103184000D01*
X99508000Y-85344000D02*
X102168000Y-85344000D01*
X99508000Y-84074000D02*
X99508000Y-82744000D01*
X99508000Y-82744000D02*
X100838000Y-82744000D01*
X182366000Y-123444000D02*
G75*
G03X182366000Y-123444000I-6100000J0D01*
G01*
X179300000Y-69056000D02*
X178970000Y-69056000D01*
X178970000Y-69056000D02*
X178970000Y-62516000D01*
X178970000Y-62516000D02*
X179300000Y-62516000D01*
X181380000Y-69056000D02*
X181710000Y-69056000D01*
X181710000Y-69056000D02*
X181710000Y-62516000D01*
X181710000Y-62516000D02*
X181380000Y-62516000D01*
X104422000Y-142868000D02*
X104422000Y-151368000D01*
X104422000Y-151368000D02*
X95222000Y-151368000D01*
X95222000Y-151368000D02*
X95222000Y-136668000D01*
X102322000Y-136668000D02*
X104422000Y-136668000D01*
X104422000Y-136668000D02*
X104422000Y-138468000D01*
X96622000Y-136368000D02*
X94922000Y-136368000D01*
X94922000Y-136368000D02*
X94922000Y-137968000D01*
X95222000Y-136668000D02*
X97322000Y-136668000D01*
X178582000Y-132782000D02*
X178582000Y-141852000D01*
X165842000Y-132782000D02*
X165842000Y-141852000D01*
X178582000Y-132782000D02*
X165842000Y-132782000D01*
X178582000Y-141852000D02*
X165842000Y-141852000D01*
X175507000Y-141852000D02*
X175507000Y-148202000D01*
X168917000Y-141852000D02*
X168917000Y-148202000D01*
X175507000Y-141852000D02*
X168917000Y-141852000D01*
X175507000Y-148202000D02*
X168917000Y-148202000D01*
X173916000Y-148202000D02*
X173916000Y-154652000D01*
X170507000Y-148202000D02*
X170507000Y-154652000D01*
X173916000Y-148202000D02*
X170507000Y-148202000D01*
X173916000Y-154652000D02*
X170507000Y-154652000D01*
X118174000Y-124206000D02*
G75*
G03X118174000Y-124206000I-2620000J0D01*
G01*
X115554000Y-125246000D02*
X115554000Y-126786000D01*
X115554000Y-121626000D02*
X115554000Y-123166000D01*
X115594000Y-125246000D02*
X115594000Y-126786000D01*
X115594000Y-121626000D02*
X115594000Y-123166000D01*
X115634000Y-121627000D02*
X115634000Y-123166000D01*
X115634000Y-125246000D02*
X115634000Y-126785000D01*
X115674000Y-121628000D02*
X115674000Y-123166000D01*
X115674000Y-125246000D02*
X115674000Y-126784000D01*
X115714000Y-121630000D02*
X115714000Y-123166000D01*
X115714000Y-125246000D02*
X115714000Y-126782000D01*
X115754000Y-121633000D02*
X115754000Y-123166000D01*
X115754000Y-125246000D02*
X115754000Y-126779000D01*
X115794000Y-121637000D02*
X115794000Y-123166000D01*
X115794000Y-125246000D02*
X115794000Y-126775000D01*
X115834000Y-121641000D02*
X115834000Y-123166000D01*
X115834000Y-125246000D02*
X115834000Y-126771000D01*
X115874000Y-121645000D02*
X115874000Y-123166000D01*
X115874000Y-125246000D02*
X115874000Y-126767000D01*
X115914000Y-121650000D02*
X115914000Y-123166000D01*
X115914000Y-125246000D02*
X115914000Y-126762000D01*
X115954000Y-121656000D02*
X115954000Y-123166000D01*
X115954000Y-125246000D02*
X115954000Y-126756000D01*
X115994000Y-121663000D02*
X115994000Y-123166000D01*
X115994000Y-125246000D02*
X115994000Y-126749000D01*
X116034000Y-121670000D02*
X116034000Y-123166000D01*
X116034000Y-125246000D02*
X116034000Y-126742000D01*
X116074000Y-121678000D02*
X116074000Y-123166000D01*
X116074000Y-125246000D02*
X116074000Y-126734000D01*
X116114000Y-121686000D02*
X116114000Y-123166000D01*
X116114000Y-125246000D02*
X116114000Y-126726000D01*
X116154000Y-121695000D02*
X116154000Y-123166000D01*
X116154000Y-125246000D02*
X116154000Y-126717000D01*
X116194000Y-121705000D02*
X116194000Y-123166000D01*
X116194000Y-125246000D02*
X116194000Y-126707000D01*
X116234000Y-121715000D02*
X116234000Y-123166000D01*
X116234000Y-125246000D02*
X116234000Y-126697000D01*
X116275000Y-121726000D02*
X116275000Y-123166000D01*
X116275000Y-125246000D02*
X116275000Y-126686000D01*
X116315000Y-121738000D02*
X116315000Y-123166000D01*
X116315000Y-125246000D02*
X116315000Y-126674000D01*
X116355000Y-121751000D02*
X116355000Y-123166000D01*
X116355000Y-125246000D02*
X116355000Y-126661000D01*
X116395000Y-121764000D02*
X116395000Y-123166000D01*
X116395000Y-125246000D02*
X116395000Y-126648000D01*
X116435000Y-121778000D02*
X116435000Y-123166000D01*
X116435000Y-125246000D02*
X116435000Y-126634000D01*
X116475000Y-121792000D02*
X116475000Y-123166000D01*
X116475000Y-125246000D02*
X116475000Y-126620000D01*
X116515000Y-121808000D02*
X116515000Y-123166000D01*
X116515000Y-125246000D02*
X116515000Y-126604000D01*
X116555000Y-121824000D02*
X116555000Y-123166000D01*
X116555000Y-125246000D02*
X116555000Y-126588000D01*
X116595000Y-121841000D02*
X116595000Y-123166000D01*
X116595000Y-125246000D02*
X116595000Y-126571000D01*
X116635000Y-121858000D02*
X116635000Y-123166000D01*
X116635000Y-125246000D02*
X116635000Y-126554000D01*
X116675000Y-121877000D02*
X116675000Y-123166000D01*
X116675000Y-125246000D02*
X116675000Y-126535000D01*
X116715000Y-121896000D02*
X116715000Y-123166000D01*
X116715000Y-125246000D02*
X116715000Y-126516000D01*
X116755000Y-121916000D02*
X116755000Y-123166000D01*
X116755000Y-125246000D02*
X116755000Y-126496000D01*
X116795000Y-121938000D02*
X116795000Y-123166000D01*
X116795000Y-125246000D02*
X116795000Y-126474000D01*
X116835000Y-121959000D02*
X116835000Y-123166000D01*
X116835000Y-125246000D02*
X116835000Y-126453000D01*
X116875000Y-121982000D02*
X116875000Y-123166000D01*
X116875000Y-125246000D02*
X116875000Y-126430000D01*
X116915000Y-122006000D02*
X116915000Y-123166000D01*
X116915000Y-125246000D02*
X116915000Y-126406000D01*
X116955000Y-122031000D02*
X116955000Y-123166000D01*
X116955000Y-125246000D02*
X116955000Y-126381000D01*
X116995000Y-122057000D02*
X116995000Y-123166000D01*
X116995000Y-125246000D02*
X116995000Y-126355000D01*
X117035000Y-122084000D02*
X117035000Y-123166000D01*
X117035000Y-125246000D02*
X117035000Y-126328000D01*
X117075000Y-122111000D02*
X117075000Y-123166000D01*
X117075000Y-125246000D02*
X117075000Y-126301000D01*
X117115000Y-122141000D02*
X117115000Y-123166000D01*
X117115000Y-125246000D02*
X117115000Y-126271000D01*
X117155000Y-122171000D02*
X117155000Y-123166000D01*
X117155000Y-125246000D02*
X117155000Y-126241000D01*
X117195000Y-122202000D02*
X117195000Y-123166000D01*
X117195000Y-125246000D02*
X117195000Y-126210000D01*
X117235000Y-122235000D02*
X117235000Y-123166000D01*
X117235000Y-125246000D02*
X117235000Y-126177000D01*
X117275000Y-122269000D02*
X117275000Y-123166000D01*
X117275000Y-125246000D02*
X117275000Y-126143000D01*
X117315000Y-122305000D02*
X117315000Y-123166000D01*
X117315000Y-125246000D02*
X117315000Y-126107000D01*
X117355000Y-122342000D02*
X117355000Y-123166000D01*
X117355000Y-125246000D02*
X117355000Y-126070000D01*
X117395000Y-122380000D02*
X117395000Y-123166000D01*
X117395000Y-125246000D02*
X117395000Y-126032000D01*
X117435000Y-122421000D02*
X117435000Y-123166000D01*
X117435000Y-125246000D02*
X117435000Y-125991000D01*
X117475000Y-122463000D02*
X117475000Y-123166000D01*
X117475000Y-125246000D02*
X117475000Y-125949000D01*
X117515000Y-122507000D02*
X117515000Y-123166000D01*
X117515000Y-125246000D02*
X117515000Y-125905000D01*
X117555000Y-122553000D02*
X117555000Y-123166000D01*
X117555000Y-125246000D02*
X117555000Y-125859000D01*
X117595000Y-122601000D02*
X117595000Y-125811000D01*
X117635000Y-122652000D02*
X117635000Y-125760000D01*
X117675000Y-122706000D02*
X117675000Y-125706000D01*
X117715000Y-122763000D02*
X117715000Y-125649000D01*
X117755000Y-122823000D02*
X117755000Y-125589000D01*
X117795000Y-122887000D02*
X117795000Y-125525000D01*
X117835000Y-122955000D02*
X117835000Y-125457000D01*
X117875000Y-123028000D02*
X117875000Y-125384000D01*
X117915000Y-123108000D02*
X117915000Y-125304000D01*
X117955000Y-123195000D02*
X117955000Y-125217000D01*
X117995000Y-123291000D02*
X117995000Y-125121000D01*
X118035000Y-123401000D02*
X118035000Y-125011000D01*
X118075000Y-123529000D02*
X118075000Y-124883000D01*
X118115000Y-123688000D02*
X118115000Y-124724000D01*
X118155000Y-123922000D02*
X118155000Y-124490000D01*
X112749225Y-122731000D02*
X113249225Y-122731000D01*
X112999225Y-122481000D02*
X112999225Y-122981000D01*
X115888000Y-81026000D02*
G75*
G03X115888000Y-81026000I-2620000J0D01*
G01*
X113268000Y-82066000D02*
X113268000Y-83606000D01*
X113268000Y-78446000D02*
X113268000Y-79986000D01*
X113308000Y-82066000D02*
X113308000Y-83606000D01*
X113308000Y-78446000D02*
X113308000Y-79986000D01*
X113348000Y-78447000D02*
X113348000Y-79986000D01*
X113348000Y-82066000D02*
X113348000Y-83605000D01*
X113388000Y-78448000D02*
X113388000Y-79986000D01*
X113388000Y-82066000D02*
X113388000Y-83604000D01*
X113428000Y-78450000D02*
X113428000Y-79986000D01*
X113428000Y-82066000D02*
X113428000Y-83602000D01*
X113468000Y-78453000D02*
X113468000Y-79986000D01*
X113468000Y-82066000D02*
X113468000Y-83599000D01*
X113508000Y-78457000D02*
X113508000Y-79986000D01*
X113508000Y-82066000D02*
X113508000Y-83595000D01*
X113548000Y-78461000D02*
X113548000Y-79986000D01*
X113548000Y-82066000D02*
X113548000Y-83591000D01*
X113588000Y-78465000D02*
X113588000Y-79986000D01*
X113588000Y-82066000D02*
X113588000Y-83587000D01*
X113628000Y-78470000D02*
X113628000Y-79986000D01*
X113628000Y-82066000D02*
X113628000Y-83582000D01*
X113668000Y-78476000D02*
X113668000Y-79986000D01*
X113668000Y-82066000D02*
X113668000Y-83576000D01*
X113708000Y-78483000D02*
X113708000Y-79986000D01*
X113708000Y-82066000D02*
X113708000Y-83569000D01*
X113748000Y-78490000D02*
X113748000Y-79986000D01*
X113748000Y-82066000D02*
X113748000Y-83562000D01*
X113788000Y-78498000D02*
X113788000Y-79986000D01*
X113788000Y-82066000D02*
X113788000Y-83554000D01*
X113828000Y-78506000D02*
X113828000Y-79986000D01*
X113828000Y-82066000D02*
X113828000Y-83546000D01*
X113868000Y-78515000D02*
X113868000Y-79986000D01*
X113868000Y-82066000D02*
X113868000Y-83537000D01*
X113908000Y-78525000D02*
X113908000Y-79986000D01*
X113908000Y-82066000D02*
X113908000Y-83527000D01*
X113948000Y-78535000D02*
X113948000Y-79986000D01*
X113948000Y-82066000D02*
X113948000Y-83517000D01*
X113989000Y-78546000D02*
X113989000Y-79986000D01*
X113989000Y-82066000D02*
X113989000Y-83506000D01*
X114029000Y-78558000D02*
X114029000Y-79986000D01*
X114029000Y-82066000D02*
X114029000Y-83494000D01*
X114069000Y-78571000D02*
X114069000Y-79986000D01*
X114069000Y-82066000D02*
X114069000Y-83481000D01*
X114109000Y-78584000D02*
X114109000Y-79986000D01*
X114109000Y-82066000D02*
X114109000Y-83468000D01*
X114149000Y-78598000D02*
X114149000Y-79986000D01*
X114149000Y-82066000D02*
X114149000Y-83454000D01*
X114189000Y-78612000D02*
X114189000Y-79986000D01*
X114189000Y-82066000D02*
X114189000Y-83440000D01*
X114229000Y-78628000D02*
X114229000Y-79986000D01*
X114229000Y-82066000D02*
X114229000Y-83424000D01*
X114269000Y-78644000D02*
X114269000Y-79986000D01*
X114269000Y-82066000D02*
X114269000Y-83408000D01*
X114309000Y-78661000D02*
X114309000Y-79986000D01*
X114309000Y-82066000D02*
X114309000Y-83391000D01*
X114349000Y-78678000D02*
X114349000Y-79986000D01*
X114349000Y-82066000D02*
X114349000Y-83374000D01*
X114389000Y-78697000D02*
X114389000Y-79986000D01*
X114389000Y-82066000D02*
X114389000Y-83355000D01*
X114429000Y-78716000D02*
X114429000Y-79986000D01*
X114429000Y-82066000D02*
X114429000Y-83336000D01*
X114469000Y-78736000D02*
X114469000Y-79986000D01*
X114469000Y-82066000D02*
X114469000Y-83316000D01*
X114509000Y-78758000D02*
X114509000Y-79986000D01*
X114509000Y-82066000D02*
X114509000Y-83294000D01*
X114549000Y-78779000D02*
X114549000Y-79986000D01*
X114549000Y-82066000D02*
X114549000Y-83273000D01*
X114589000Y-78802000D02*
X114589000Y-79986000D01*
X114589000Y-82066000D02*
X114589000Y-83250000D01*
X114629000Y-78826000D02*
X114629000Y-79986000D01*
X114629000Y-82066000D02*
X114629000Y-83226000D01*
X114669000Y-78851000D02*
X114669000Y-79986000D01*
X114669000Y-82066000D02*
X114669000Y-83201000D01*
X114709000Y-78877000D02*
X114709000Y-79986000D01*
X114709000Y-82066000D02*
X114709000Y-83175000D01*
X114749000Y-78904000D02*
X114749000Y-79986000D01*
X114749000Y-82066000D02*
X114749000Y-83148000D01*
X114789000Y-78931000D02*
X114789000Y-79986000D01*
X114789000Y-82066000D02*
X114789000Y-83121000D01*
X114829000Y-78961000D02*
X114829000Y-79986000D01*
X114829000Y-82066000D02*
X114829000Y-83091000D01*
X114869000Y-78991000D02*
X114869000Y-79986000D01*
X114869000Y-82066000D02*
X114869000Y-83061000D01*
X114909000Y-79022000D02*
X114909000Y-79986000D01*
X114909000Y-82066000D02*
X114909000Y-83030000D01*
X114949000Y-79055000D02*
X114949000Y-79986000D01*
X114949000Y-82066000D02*
X114949000Y-82997000D01*
X114989000Y-79089000D02*
X114989000Y-79986000D01*
X114989000Y-82066000D02*
X114989000Y-82963000D01*
X115029000Y-79125000D02*
X115029000Y-79986000D01*
X115029000Y-82066000D02*
X115029000Y-82927000D01*
X115069000Y-79162000D02*
X115069000Y-79986000D01*
X115069000Y-82066000D02*
X115069000Y-82890000D01*
X115109000Y-79200000D02*
X115109000Y-79986000D01*
X115109000Y-82066000D02*
X115109000Y-82852000D01*
X115149000Y-79241000D02*
X115149000Y-79986000D01*
X115149000Y-82066000D02*
X115149000Y-82811000D01*
X115189000Y-79283000D02*
X115189000Y-79986000D01*
X115189000Y-82066000D02*
X115189000Y-82769000D01*
X115229000Y-79327000D02*
X115229000Y-79986000D01*
X115229000Y-82066000D02*
X115229000Y-82725000D01*
X115269000Y-79373000D02*
X115269000Y-79986000D01*
X115269000Y-82066000D02*
X115269000Y-82679000D01*
X115309000Y-79421000D02*
X115309000Y-82631000D01*
X115349000Y-79472000D02*
X115349000Y-82580000D01*
X115389000Y-79526000D02*
X115389000Y-82526000D01*
X115429000Y-79583000D02*
X115429000Y-82469000D01*
X115469000Y-79643000D02*
X115469000Y-82409000D01*
X115509000Y-79707000D02*
X115509000Y-82345000D01*
X115549000Y-79775000D02*
X115549000Y-82277000D01*
X115589000Y-79848000D02*
X115589000Y-82204000D01*
X115629000Y-79928000D02*
X115629000Y-82124000D01*
X115669000Y-80015000D02*
X115669000Y-82037000D01*
X115709000Y-80111000D02*
X115709000Y-81941000D01*
X115749000Y-80221000D02*
X115749000Y-81831000D01*
X115789000Y-80349000D02*
X115789000Y-81703000D01*
X115829000Y-80508000D02*
X115829000Y-81544000D01*
X115869000Y-80742000D02*
X115869000Y-81310000D01*
X110463225Y-79551000D02*
X110963225Y-79551000D01*
X110713225Y-79301000D02*
X110713225Y-79801000D01*
X175832000Y-101854000D02*
G75*
G03X175832000Y-101854000I-2620000J0D01*
G01*
X173212000Y-102894000D02*
X173212000Y-104434000D01*
X173212000Y-99274000D02*
X173212000Y-100814000D01*
X173252000Y-102894000D02*
X173252000Y-104434000D01*
X173252000Y-99274000D02*
X173252000Y-100814000D01*
X173292000Y-99275000D02*
X173292000Y-100814000D01*
X173292000Y-102894000D02*
X173292000Y-104433000D01*
X173332000Y-99276000D02*
X173332000Y-100814000D01*
X173332000Y-102894000D02*
X173332000Y-104432000D01*
X173372000Y-99278000D02*
X173372000Y-100814000D01*
X173372000Y-102894000D02*
X173372000Y-104430000D01*
X173412000Y-99281000D02*
X173412000Y-100814000D01*
X173412000Y-102894000D02*
X173412000Y-104427000D01*
X173452000Y-99285000D02*
X173452000Y-100814000D01*
X173452000Y-102894000D02*
X173452000Y-104423000D01*
X173492000Y-99289000D02*
X173492000Y-100814000D01*
X173492000Y-102894000D02*
X173492000Y-104419000D01*
X173532000Y-99293000D02*
X173532000Y-100814000D01*
X173532000Y-102894000D02*
X173532000Y-104415000D01*
X173572000Y-99298000D02*
X173572000Y-100814000D01*
X173572000Y-102894000D02*
X173572000Y-104410000D01*
X173612000Y-99304000D02*
X173612000Y-100814000D01*
X173612000Y-102894000D02*
X173612000Y-104404000D01*
X173652000Y-99311000D02*
X173652000Y-100814000D01*
X173652000Y-102894000D02*
X173652000Y-104397000D01*
X173692000Y-99318000D02*
X173692000Y-100814000D01*
X173692000Y-102894000D02*
X173692000Y-104390000D01*
X173732000Y-99326000D02*
X173732000Y-100814000D01*
X173732000Y-102894000D02*
X173732000Y-104382000D01*
X173772000Y-99334000D02*
X173772000Y-100814000D01*
X173772000Y-102894000D02*
X173772000Y-104374000D01*
X173812000Y-99343000D02*
X173812000Y-100814000D01*
X173812000Y-102894000D02*
X173812000Y-104365000D01*
X173852000Y-99353000D02*
X173852000Y-100814000D01*
X173852000Y-102894000D02*
X173852000Y-104355000D01*
X173892000Y-99363000D02*
X173892000Y-100814000D01*
X173892000Y-102894000D02*
X173892000Y-104345000D01*
X173933000Y-99374000D02*
X173933000Y-100814000D01*
X173933000Y-102894000D02*
X173933000Y-104334000D01*
X173973000Y-99386000D02*
X173973000Y-100814000D01*
X173973000Y-102894000D02*
X173973000Y-104322000D01*
X174013000Y-99399000D02*
X174013000Y-100814000D01*
X174013000Y-102894000D02*
X174013000Y-104309000D01*
X174053000Y-99412000D02*
X174053000Y-100814000D01*
X174053000Y-102894000D02*
X174053000Y-104296000D01*
X174093000Y-99426000D02*
X174093000Y-100814000D01*
X174093000Y-102894000D02*
X174093000Y-104282000D01*
X174133000Y-99440000D02*
X174133000Y-100814000D01*
X174133000Y-102894000D02*
X174133000Y-104268000D01*
X174173000Y-99456000D02*
X174173000Y-100814000D01*
X174173000Y-102894000D02*
X174173000Y-104252000D01*
X174213000Y-99472000D02*
X174213000Y-100814000D01*
X174213000Y-102894000D02*
X174213000Y-104236000D01*
X174253000Y-99489000D02*
X174253000Y-100814000D01*
X174253000Y-102894000D02*
X174253000Y-104219000D01*
X174293000Y-99506000D02*
X174293000Y-100814000D01*
X174293000Y-102894000D02*
X174293000Y-104202000D01*
X174333000Y-99525000D02*
X174333000Y-100814000D01*
X174333000Y-102894000D02*
X174333000Y-104183000D01*
X174373000Y-99544000D02*
X174373000Y-100814000D01*
X174373000Y-102894000D02*
X174373000Y-104164000D01*
X174413000Y-99564000D02*
X174413000Y-100814000D01*
X174413000Y-102894000D02*
X174413000Y-104144000D01*
X174453000Y-99586000D02*
X174453000Y-100814000D01*
X174453000Y-102894000D02*
X174453000Y-104122000D01*
X174493000Y-99607000D02*
X174493000Y-100814000D01*
X174493000Y-102894000D02*
X174493000Y-104101000D01*
X174533000Y-99630000D02*
X174533000Y-100814000D01*
X174533000Y-102894000D02*
X174533000Y-104078000D01*
X174573000Y-99654000D02*
X174573000Y-100814000D01*
X174573000Y-102894000D02*
X174573000Y-104054000D01*
X174613000Y-99679000D02*
X174613000Y-100814000D01*
X174613000Y-102894000D02*
X174613000Y-104029000D01*
X174653000Y-99705000D02*
X174653000Y-100814000D01*
X174653000Y-102894000D02*
X174653000Y-104003000D01*
X174693000Y-99732000D02*
X174693000Y-100814000D01*
X174693000Y-102894000D02*
X174693000Y-103976000D01*
X174733000Y-99759000D02*
X174733000Y-100814000D01*
X174733000Y-102894000D02*
X174733000Y-103949000D01*
X174773000Y-99789000D02*
X174773000Y-100814000D01*
X174773000Y-102894000D02*
X174773000Y-103919000D01*
X174813000Y-99819000D02*
X174813000Y-100814000D01*
X174813000Y-102894000D02*
X174813000Y-103889000D01*
X174853000Y-99850000D02*
X174853000Y-100814000D01*
X174853000Y-102894000D02*
X174853000Y-103858000D01*
X174893000Y-99883000D02*
X174893000Y-100814000D01*
X174893000Y-102894000D02*
X174893000Y-103825000D01*
X174933000Y-99917000D02*
X174933000Y-100814000D01*
X174933000Y-102894000D02*
X174933000Y-103791000D01*
X174973000Y-99953000D02*
X174973000Y-100814000D01*
X174973000Y-102894000D02*
X174973000Y-103755000D01*
X175013000Y-99990000D02*
X175013000Y-100814000D01*
X175013000Y-102894000D02*
X175013000Y-103718000D01*
X175053000Y-100028000D02*
X175053000Y-100814000D01*
X175053000Y-102894000D02*
X175053000Y-103680000D01*
X175093000Y-100069000D02*
X175093000Y-100814000D01*
X175093000Y-102894000D02*
X175093000Y-103639000D01*
X175133000Y-100111000D02*
X175133000Y-100814000D01*
X175133000Y-102894000D02*
X175133000Y-103597000D01*
X175173000Y-100155000D02*
X175173000Y-100814000D01*
X175173000Y-102894000D02*
X175173000Y-103553000D01*
X175213000Y-100201000D02*
X175213000Y-100814000D01*
X175213000Y-102894000D02*
X175213000Y-103507000D01*
X175253000Y-100249000D02*
X175253000Y-103459000D01*
X175293000Y-100300000D02*
X175293000Y-103408000D01*
X175333000Y-100354000D02*
X175333000Y-103354000D01*
X175373000Y-100411000D02*
X175373000Y-103297000D01*
X175413000Y-100471000D02*
X175413000Y-103237000D01*
X175453000Y-100535000D02*
X175453000Y-103173000D01*
X175493000Y-100603000D02*
X175493000Y-103105000D01*
X175533000Y-100676000D02*
X175533000Y-103032000D01*
X175573000Y-100756000D02*
X175573000Y-102952000D01*
X175613000Y-100843000D02*
X175613000Y-102865000D01*
X175653000Y-100939000D02*
X175653000Y-102769000D01*
X175693000Y-101049000D02*
X175693000Y-102659000D01*
X175733000Y-101177000D02*
X175733000Y-102531000D01*
X175773000Y-101336000D02*
X175773000Y-102372000D01*
X175813000Y-101570000D02*
X175813000Y-102138000D01*
X170407225Y-100379000D02*
X170907225Y-100379000D01*
X170657225Y-100129000D02*
X170657225Y-100629000D01*
X162370000Y-141732000D02*
G75*
G03X162370000Y-141732000I-2620000J0D01*
G01*
X159750000Y-142772000D02*
X159750000Y-144312000D01*
X159750000Y-139152000D02*
X159750000Y-140692000D01*
X159790000Y-142772000D02*
X159790000Y-144312000D01*
X159790000Y-139152000D02*
X159790000Y-140692000D01*
X159830000Y-139153000D02*
X159830000Y-140692000D01*
X159830000Y-142772000D02*
X159830000Y-144311000D01*
X159870000Y-139154000D02*
X159870000Y-140692000D01*
X159870000Y-142772000D02*
X159870000Y-144310000D01*
X159910000Y-139156000D02*
X159910000Y-140692000D01*
X159910000Y-142772000D02*
X159910000Y-144308000D01*
X159950000Y-139159000D02*
X159950000Y-140692000D01*
X159950000Y-142772000D02*
X159950000Y-144305000D01*
X159990000Y-139163000D02*
X159990000Y-140692000D01*
X159990000Y-142772000D02*
X159990000Y-144301000D01*
X160030000Y-139167000D02*
X160030000Y-140692000D01*
X160030000Y-142772000D02*
X160030000Y-144297000D01*
X160070000Y-139171000D02*
X160070000Y-140692000D01*
X160070000Y-142772000D02*
X160070000Y-144293000D01*
X160110000Y-139176000D02*
X160110000Y-140692000D01*
X160110000Y-142772000D02*
X160110000Y-144288000D01*
X160150000Y-139182000D02*
X160150000Y-140692000D01*
X160150000Y-142772000D02*
X160150000Y-144282000D01*
X160190000Y-139189000D02*
X160190000Y-140692000D01*
X160190000Y-142772000D02*
X160190000Y-144275000D01*
X160230000Y-139196000D02*
X160230000Y-140692000D01*
X160230000Y-142772000D02*
X160230000Y-144268000D01*
X160270000Y-139204000D02*
X160270000Y-140692000D01*
X160270000Y-142772000D02*
X160270000Y-144260000D01*
X160310000Y-139212000D02*
X160310000Y-140692000D01*
X160310000Y-142772000D02*
X160310000Y-144252000D01*
X160350000Y-139221000D02*
X160350000Y-140692000D01*
X160350000Y-142772000D02*
X160350000Y-144243000D01*
X160390000Y-139231000D02*
X160390000Y-140692000D01*
X160390000Y-142772000D02*
X160390000Y-144233000D01*
X160430000Y-139241000D02*
X160430000Y-140692000D01*
X160430000Y-142772000D02*
X160430000Y-144223000D01*
X160471000Y-139252000D02*
X160471000Y-140692000D01*
X160471000Y-142772000D02*
X160471000Y-144212000D01*
X160511000Y-139264000D02*
X160511000Y-140692000D01*
X160511000Y-142772000D02*
X160511000Y-144200000D01*
X160551000Y-139277000D02*
X160551000Y-140692000D01*
X160551000Y-142772000D02*
X160551000Y-144187000D01*
X160591000Y-139290000D02*
X160591000Y-140692000D01*
X160591000Y-142772000D02*
X160591000Y-144174000D01*
X160631000Y-139304000D02*
X160631000Y-140692000D01*
X160631000Y-142772000D02*
X160631000Y-144160000D01*
X160671000Y-139318000D02*
X160671000Y-140692000D01*
X160671000Y-142772000D02*
X160671000Y-144146000D01*
X160711000Y-139334000D02*
X160711000Y-140692000D01*
X160711000Y-142772000D02*
X160711000Y-144130000D01*
X160751000Y-139350000D02*
X160751000Y-140692000D01*
X160751000Y-142772000D02*
X160751000Y-144114000D01*
X160791000Y-139367000D02*
X160791000Y-140692000D01*
X160791000Y-142772000D02*
X160791000Y-144097000D01*
X160831000Y-139384000D02*
X160831000Y-140692000D01*
X160831000Y-142772000D02*
X160831000Y-144080000D01*
X160871000Y-139403000D02*
X160871000Y-140692000D01*
X160871000Y-142772000D02*
X160871000Y-144061000D01*
X160911000Y-139422000D02*
X160911000Y-140692000D01*
X160911000Y-142772000D02*
X160911000Y-144042000D01*
X160951000Y-139442000D02*
X160951000Y-140692000D01*
X160951000Y-142772000D02*
X160951000Y-144022000D01*
X160991000Y-139464000D02*
X160991000Y-140692000D01*
X160991000Y-142772000D02*
X160991000Y-144000000D01*
X161031000Y-139485000D02*
X161031000Y-140692000D01*
X161031000Y-142772000D02*
X161031000Y-143979000D01*
X161071000Y-139508000D02*
X161071000Y-140692000D01*
X161071000Y-142772000D02*
X161071000Y-143956000D01*
X161111000Y-139532000D02*
X161111000Y-140692000D01*
X161111000Y-142772000D02*
X161111000Y-143932000D01*
X161151000Y-139557000D02*
X161151000Y-140692000D01*
X161151000Y-142772000D02*
X161151000Y-143907000D01*
X161191000Y-139583000D02*
X161191000Y-140692000D01*
X161191000Y-142772000D02*
X161191000Y-143881000D01*
X161231000Y-139610000D02*
X161231000Y-140692000D01*
X161231000Y-142772000D02*
X161231000Y-143854000D01*
X161271000Y-139637000D02*
X161271000Y-140692000D01*
X161271000Y-142772000D02*
X161271000Y-143827000D01*
X161311000Y-139667000D02*
X161311000Y-140692000D01*
X161311000Y-142772000D02*
X161311000Y-143797000D01*
X161351000Y-139697000D02*
X161351000Y-140692000D01*
X161351000Y-142772000D02*
X161351000Y-143767000D01*
X161391000Y-139728000D02*
X161391000Y-140692000D01*
X161391000Y-142772000D02*
X161391000Y-143736000D01*
X161431000Y-139761000D02*
X161431000Y-140692000D01*
X161431000Y-142772000D02*
X161431000Y-143703000D01*
X161471000Y-139795000D02*
X161471000Y-140692000D01*
X161471000Y-142772000D02*
X161471000Y-143669000D01*
X161511000Y-139831000D02*
X161511000Y-140692000D01*
X161511000Y-142772000D02*
X161511000Y-143633000D01*
X161551000Y-139868000D02*
X161551000Y-140692000D01*
X161551000Y-142772000D02*
X161551000Y-143596000D01*
X161591000Y-139906000D02*
X161591000Y-140692000D01*
X161591000Y-142772000D02*
X161591000Y-143558000D01*
X161631000Y-139947000D02*
X161631000Y-140692000D01*
X161631000Y-142772000D02*
X161631000Y-143517000D01*
X161671000Y-139989000D02*
X161671000Y-140692000D01*
X161671000Y-142772000D02*
X161671000Y-143475000D01*
X161711000Y-140033000D02*
X161711000Y-140692000D01*
X161711000Y-142772000D02*
X161711000Y-143431000D01*
X161751000Y-140079000D02*
X161751000Y-140692000D01*
X161751000Y-142772000D02*
X161751000Y-143385000D01*
X161791000Y-140127000D02*
X161791000Y-143337000D01*
X161831000Y-140178000D02*
X161831000Y-143286000D01*
X161871000Y-140232000D02*
X161871000Y-143232000D01*
X161911000Y-140289000D02*
X161911000Y-143175000D01*
X161951000Y-140349000D02*
X161951000Y-143115000D01*
X161991000Y-140413000D02*
X161991000Y-143051000D01*
X162031000Y-140481000D02*
X162031000Y-142983000D01*
X162071000Y-140554000D02*
X162071000Y-142910000D01*
X162111000Y-140634000D02*
X162111000Y-142830000D01*
X162151000Y-140721000D02*
X162151000Y-142743000D01*
X162191000Y-140817000D02*
X162191000Y-142647000D01*
X162231000Y-140927000D02*
X162231000Y-142537000D01*
X162271000Y-141055000D02*
X162271000Y-142409000D01*
X162311000Y-141214000D02*
X162311000Y-142250000D01*
X162351000Y-141448000D02*
X162351000Y-142016000D01*
X156945225Y-140257000D02*
X157445225Y-140257000D01*
X157195225Y-140007000D02*
X157195225Y-140507000D01*
X147665000Y-132818000D02*
X147665000Y-132488000D01*
X147665000Y-132488000D02*
X154205000Y-132488000D01*
X154205000Y-132488000D02*
X154205000Y-132818000D01*
X147665000Y-134898000D02*
X147665000Y-135228000D01*
X147665000Y-135228000D02*
X154205000Y-135228000D01*
X154205000Y-135228000D02*
X154205000Y-134898000D01*
X154146000Y-138530000D02*
X154146000Y-138200000D01*
X147606000Y-138530000D02*
X154146000Y-138530000D01*
X147606000Y-138200000D02*
X147606000Y-138530000D01*
X154146000Y-135790000D02*
X154146000Y-136120000D01*
X147606000Y-135790000D02*
X154146000Y-135790000D01*
X147606000Y-136120000D02*
X147606000Y-135790000D01*
X150352000Y-152566000D02*
X154852000Y-152566000D01*
X149102000Y-148566000D02*
X149102000Y-150066000D01*
X154852000Y-146066000D02*
X150352000Y-146066000D01*
X156102000Y-150066000D02*
X156102000Y-148566000D01*
D10*
X142029142Y-62412666D02*
X142076761Y-62460285D01*
X142124380Y-62603142D01*
X142124380Y-62698380D01*
X142076761Y-62841238D01*
X141981523Y-62936476D01*
X141886285Y-62984095D01*
X141695809Y-63031714D01*
X141552952Y-63031714D01*
X141362476Y-62984095D01*
X141267238Y-62936476D01*
X141172000Y-62841238D01*
X141124380Y-62698380D01*
X141124380Y-62603142D01*
X141172000Y-62460285D01*
X141219619Y-62412666D01*
X141124380Y-62079333D02*
X141124380Y-61460285D01*
X141505333Y-61793619D01*
X141505333Y-61650761D01*
X141552952Y-61555523D01*
X141600571Y-61507904D01*
X141695809Y-61460285D01*
X141933904Y-61460285D01*
X142029142Y-61507904D01*
X142076761Y-61555523D01*
X142124380Y-61650761D01*
X142124380Y-61936476D01*
X142076761Y-62031714D01*
X142029142Y-62079333D01*
X142029142Y-70000666D02*
X142076761Y-70048285D01*
X142124380Y-70191142D01*
X142124380Y-70286380D01*
X142076761Y-70429238D01*
X141981523Y-70524476D01*
X141886285Y-70572095D01*
X141695809Y-70619714D01*
X141552952Y-70619714D01*
X141362476Y-70572095D01*
X141267238Y-70524476D01*
X141172000Y-70429238D01*
X141124380Y-70286380D01*
X141124380Y-70191142D01*
X141172000Y-70048285D01*
X141219619Y-70000666D01*
X141457714Y-69143523D02*
X142124380Y-69143523D01*
X141076761Y-69381619D02*
X141791047Y-69619714D01*
X141791047Y-69000666D01*
X97837333Y-127905142D02*
X97789714Y-127952761D01*
X97646857Y-128000380D01*
X97551619Y-128000380D01*
X97408761Y-127952761D01*
X97313523Y-127857523D01*
X97265904Y-127762285D01*
X97218285Y-127571809D01*
X97218285Y-127428952D01*
X97265904Y-127238476D01*
X97313523Y-127143238D01*
X97408761Y-127048000D01*
X97551619Y-127000380D01*
X97646857Y-127000380D01*
X97789714Y-127048000D01*
X97837333Y-127095619D01*
X98789714Y-128000380D02*
X98218285Y-128000380D01*
X98504000Y-128000380D02*
X98504000Y-127000380D01*
X98408761Y-127143238D01*
X98313523Y-127238476D01*
X98218285Y-127286095D01*
X107489333Y-128413142D02*
X107441714Y-128460761D01*
X107298857Y-128508380D01*
X107203619Y-128508380D01*
X107060761Y-128460761D01*
X106965523Y-128365523D01*
X106917904Y-128270285D01*
X106870285Y-128079809D01*
X106870285Y-127936952D01*
X106917904Y-127746476D01*
X106965523Y-127651238D01*
X107060761Y-127556000D01*
X107203619Y-127508380D01*
X107298857Y-127508380D01*
X107441714Y-127556000D01*
X107489333Y-127603619D01*
X107870285Y-127603619D02*
X107917904Y-127556000D01*
X108013142Y-127508380D01*
X108251238Y-127508380D01*
X108346476Y-127556000D01*
X108394095Y-127603619D01*
X108441714Y-127698857D01*
X108441714Y-127794095D01*
X108394095Y-127936952D01*
X107822666Y-128508380D01*
X108441714Y-128508380D01*
X102639904Y-114894380D02*
X102639904Y-113894380D01*
X102878000Y-113894380D01*
X103020857Y-113942000D01*
X103116095Y-114037238D01*
X103163714Y-114132476D01*
X103211333Y-114322952D01*
X103211333Y-114465809D01*
X103163714Y-114656285D01*
X103116095Y-114751523D01*
X103020857Y-114846761D01*
X102878000Y-114894380D01*
X102639904Y-114894380D01*
X104116095Y-113894380D02*
X103639904Y-113894380D01*
X103592285Y-114370571D01*
X103639904Y-114322952D01*
X103735142Y-114275333D01*
X103973238Y-114275333D01*
X104068476Y-114322952D01*
X104116095Y-114370571D01*
X104163714Y-114465809D01*
X104163714Y-114703904D01*
X104116095Y-114799142D01*
X104068476Y-114846761D01*
X103973238Y-114894380D01*
X103735142Y-114894380D01*
X103639904Y-114846761D01*
X103592285Y-114799142D01*
X149264380Y-66293904D02*
X150073904Y-66293904D01*
X150169142Y-66246285D01*
X150216761Y-66198666D01*
X150264380Y-66103428D01*
X150264380Y-65912952D01*
X150216761Y-65817714D01*
X150169142Y-65770095D01*
X150073904Y-65722476D01*
X149264380Y-65722476D01*
X149597714Y-64817714D02*
X150264380Y-64817714D01*
X149216761Y-65055809D02*
X149931047Y-65293904D01*
X149931047Y-64674857D01*
X102362095Y-118372380D02*
X102362095Y-119181904D01*
X102409714Y-119277142D01*
X102457333Y-119324761D01*
X102552571Y-119372380D01*
X102743047Y-119372380D01*
X102838285Y-119324761D01*
X102885904Y-119277142D01*
X102933523Y-119181904D01*
X102933523Y-118372380D01*
X103362095Y-118467619D02*
X103409714Y-118420000D01*
X103504952Y-118372380D01*
X103743047Y-118372380D01*
X103838285Y-118420000D01*
X103885904Y-118467619D01*
X103933523Y-118562857D01*
X103933523Y-118658095D01*
X103885904Y-118800952D01*
X103314476Y-119372380D01*
X103933523Y-119372380D01*
X175385047Y-116172571D02*
X175527904Y-116220190D01*
X175575523Y-116267809D01*
X175623142Y-116363047D01*
X175623142Y-116505904D01*
X175575523Y-116601142D01*
X175527904Y-116648761D01*
X175432666Y-116696380D01*
X175051714Y-116696380D01*
X175051714Y-115696380D01*
X175385047Y-115696380D01*
X175480285Y-115744000D01*
X175527904Y-115791619D01*
X175575523Y-115886857D01*
X175575523Y-115982095D01*
X175527904Y-116077333D01*
X175480285Y-116124952D01*
X175385047Y-116172571D01*
X175051714Y-116172571D01*
X175956476Y-115696380D02*
X176623142Y-115696380D01*
X175956476Y-116696380D01*
X176623142Y-116696380D01*
X177527904Y-116696380D02*
X176956476Y-116696380D01*
X177242190Y-116696380D02*
X177242190Y-115696380D01*
X177146952Y-115839238D01*
X177051714Y-115934476D01*
X176956476Y-115982095D01*
X172075047Y-120975428D02*
X172836952Y-120975428D01*
X172456000Y-121356380D02*
X172456000Y-120594476D01*
X180164380Y-137247238D02*
X179688190Y-137580571D01*
X180164380Y-137818666D02*
X179164380Y-137818666D01*
X179164380Y-137437714D01*
X179212000Y-137342476D01*
X179259619Y-137294857D01*
X179354857Y-137247238D01*
X179497714Y-137247238D01*
X179592952Y-137294857D01*
X179640571Y-137342476D01*
X179688190Y-137437714D01*
X179688190Y-137818666D01*
X179164380Y-136961523D02*
X180164380Y-136628190D01*
X179164380Y-136294857D01*
X180164380Y-135437714D02*
X180164380Y-136009142D01*
X180164380Y-135723428D02*
X179164380Y-135723428D01*
X179307238Y-135818666D01*
X179402476Y-135913904D01*
X179450095Y-136009142D01*
X115387333Y-120813142D02*
X115339714Y-120860761D01*
X115196857Y-120908380D01*
X115101619Y-120908380D01*
X114958761Y-120860761D01*
X114863523Y-120765523D01*
X114815904Y-120670285D01*
X114768285Y-120479809D01*
X114768285Y-120336952D01*
X114815904Y-120146476D01*
X114863523Y-120051238D01*
X114958761Y-119956000D01*
X115101619Y-119908380D01*
X115196857Y-119908380D01*
X115339714Y-119956000D01*
X115387333Y-120003619D01*
X116292095Y-119908380D02*
X115815904Y-119908380D01*
X115768285Y-120384571D01*
X115815904Y-120336952D01*
X115911142Y-120289333D01*
X116149238Y-120289333D01*
X116244476Y-120336952D01*
X116292095Y-120384571D01*
X116339714Y-120479809D01*
X116339714Y-120717904D01*
X116292095Y-120813142D01*
X116244476Y-120860761D01*
X116149238Y-120908380D01*
X115911142Y-120908380D01*
X115815904Y-120860761D01*
X115768285Y-120813142D01*
X113101333Y-77633142D02*
X113053714Y-77680761D01*
X112910857Y-77728380D01*
X112815619Y-77728380D01*
X112672761Y-77680761D01*
X112577523Y-77585523D01*
X112529904Y-77490285D01*
X112482285Y-77299809D01*
X112482285Y-77156952D01*
X112529904Y-76966476D01*
X112577523Y-76871238D01*
X112672761Y-76776000D01*
X112815619Y-76728380D01*
X112910857Y-76728380D01*
X113053714Y-76776000D01*
X113101333Y-76823619D01*
X113958476Y-76728380D02*
X113768000Y-76728380D01*
X113672761Y-76776000D01*
X113625142Y-76823619D01*
X113529904Y-76966476D01*
X113482285Y-77156952D01*
X113482285Y-77537904D01*
X113529904Y-77633142D01*
X113577523Y-77680761D01*
X113672761Y-77728380D01*
X113863238Y-77728380D01*
X113958476Y-77680761D01*
X114006095Y-77633142D01*
X114053714Y-77537904D01*
X114053714Y-77299809D01*
X114006095Y-77204571D01*
X113958476Y-77156952D01*
X113863238Y-77109333D01*
X113672761Y-77109333D01*
X113577523Y-77156952D01*
X113529904Y-77204571D01*
X113482285Y-77299809D01*
X173045333Y-98461142D02*
X172997714Y-98508761D01*
X172854857Y-98556380D01*
X172759619Y-98556380D01*
X172616761Y-98508761D01*
X172521523Y-98413523D01*
X172473904Y-98318285D01*
X172426285Y-98127809D01*
X172426285Y-97984952D01*
X172473904Y-97794476D01*
X172521523Y-97699238D01*
X172616761Y-97604000D01*
X172759619Y-97556380D01*
X172854857Y-97556380D01*
X172997714Y-97604000D01*
X173045333Y-97651619D01*
X173378666Y-97556380D02*
X174045333Y-97556380D01*
X173616761Y-98556380D01*
X159583333Y-138339142D02*
X159535714Y-138386761D01*
X159392857Y-138434380D01*
X159297619Y-138434380D01*
X159154761Y-138386761D01*
X159059523Y-138291523D01*
X159011904Y-138196285D01*
X158964285Y-138005809D01*
X158964285Y-137862952D01*
X159011904Y-137672476D01*
X159059523Y-137577238D01*
X159154761Y-137482000D01*
X159297619Y-137434380D01*
X159392857Y-137434380D01*
X159535714Y-137482000D01*
X159583333Y-137529619D01*
X160154761Y-137862952D02*
X160059523Y-137815333D01*
X160011904Y-137767714D01*
X159964285Y-137672476D01*
X159964285Y-137624857D01*
X160011904Y-137529619D01*
X160059523Y-137482000D01*
X160154761Y-137434380D01*
X160345238Y-137434380D01*
X160440476Y-137482000D01*
X160488095Y-137529619D01*
X160535714Y-137624857D01*
X160535714Y-137672476D01*
X160488095Y-137767714D01*
X160440476Y-137815333D01*
X160345238Y-137862952D01*
X160154761Y-137862952D01*
X160059523Y-137910571D01*
X160011904Y-137958190D01*
X159964285Y-138053428D01*
X159964285Y-138243904D01*
X160011904Y-138339142D01*
X160059523Y-138386761D01*
X160154761Y-138434380D01*
X160345238Y-138434380D01*
X160440476Y-138386761D01*
X160488095Y-138339142D01*
X160535714Y-138243904D01*
X160535714Y-138053428D01*
X160488095Y-137958190D01*
X160440476Y-137910571D01*
X160345238Y-137862952D01*
X151149619Y-154376380D02*
X150816285Y-153900190D01*
X150578190Y-154376380D02*
X150578190Y-153376380D01*
X150959142Y-153376380D01*
X151054380Y-153424000D01*
X151102000Y-153471619D01*
X151149619Y-153566857D01*
X151149619Y-153709714D01*
X151102000Y-153804952D01*
X151054380Y-153852571D01*
X150959142Y-153900190D01*
X150578190Y-153900190D01*
X151578190Y-153852571D02*
X151911523Y-153852571D01*
X152054380Y-154376380D02*
X151578190Y-154376380D01*
X151578190Y-153376380D01*
X152054380Y-153376380D01*
X152435333Y-154328761D02*
X152578190Y-154376380D01*
X152816285Y-154376380D01*
X152911523Y-154328761D01*
X152959142Y-154281142D01*
X153006761Y-154185904D01*
X153006761Y-154090666D01*
X152959142Y-153995428D01*
X152911523Y-153947809D01*
X152816285Y-153900190D01*
X152625809Y-153852571D01*
X152530571Y-153804952D01*
X152482952Y-153757333D01*
X152435333Y-153662095D01*
X152435333Y-153566857D01*
X152482952Y-153471619D01*
X152530571Y-153424000D01*
X152625809Y-153376380D01*
X152863904Y-153376380D01*
X153006761Y-153424000D01*
X153435333Y-153852571D02*
X153768666Y-153852571D01*
X153911523Y-154376380D02*
X153435333Y-154376380D01*
X153435333Y-153376380D01*
X153911523Y-153376380D01*
X154197238Y-153376380D02*
X154768666Y-153376380D01*
X154482952Y-154376380D02*
X154482952Y-153376380D01*
M02*
