G04 #@! TF.GenerationSoftware,KiCad,Pcbnew,5.1.1-8be2ce7~80~ubuntu18.04.1*
G04 #@! TF.CreationDate,2019-04-28T23:59:19-05:00*
G04 #@! TF.ProjectId,Proyecto,50726f79-6563-4746-9f2e-6b696361645f,rev?*
G04 #@! TF.SameCoordinates,Original*
G04 #@! TF.FileFunction,Copper,L1,Top*
G04 #@! TF.FilePolarity,Positive*
%FSLAX46Y46*%
G04 Gerber Fmt 4.6, Leading zero omitted, Abs format (unit mm)*
G04 Created by KiCad (PCBNEW 5.1.1-8be2ce7~80~ubuntu18.04.1) date 2019-04-28 23:59:19*
%MOMM*%
%LPD*%
G04 APERTURE LIST*
%ADD10C,1.600000*%
%ADD11R,1.600000X1.600000*%
%ADD12R,1.800000X1.800000*%
%ADD13C,1.800000*%
%ADD14R,1.700000X1.700000*%
%ADD15O,1.700000X1.700000*%
%ADD16O,1.600000X1.600000*%
%ADD17C,1.400000*%
%ADD18O,1.400000X1.400000*%
%ADD19R,1.524000X1.524000*%
%ADD20C,1.524000*%
%ADD21O,2.000000X1.905000*%
%ADD22R,2.000000X1.905000*%
%ADD23R,1.905000X2.000000*%
%ADD24O,1.905000X2.000000*%
%ADD25R,2.000000X2.000000*%
%ADD26C,2.000000*%
%ADD27O,1.800000X4.000000*%
%ADD28O,4.000000X1.800000*%
%ADD29R,4.400000X1.800000*%
%ADD30C,0.762000*%
%ADD31C,0.254000*%
G04 APERTURE END LIST*
D10*
X137922000Y-63246000D03*
D11*
X137922000Y-61246000D03*
X137922000Y-68834000D03*
D10*
X137922000Y-70834000D03*
X100504000Y-130048000D03*
X95504000Y-130048000D03*
X105156000Y-130556000D03*
X110156000Y-130556000D03*
D12*
X122428000Y-137922000D03*
D13*
X122428000Y-135382000D03*
X116586000Y-135382000D03*
D12*
X116586000Y-137922000D03*
D14*
X117602000Y-150876000D03*
D15*
X120142000Y-150876000D03*
X122682000Y-150876000D03*
X125222000Y-150876000D03*
X127762000Y-150876000D03*
X130302000Y-150876000D03*
D16*
X184150000Y-61722000D03*
D10*
X184150000Y-69342000D03*
D14*
X125476000Y-106426000D03*
D15*
X125476000Y-108966000D03*
X125476000Y-111506000D03*
X125476000Y-114046000D03*
X125476000Y-116586000D03*
X125476000Y-119126000D03*
X125476000Y-121666000D03*
X125476000Y-124206000D03*
D14*
X186690000Y-73914000D03*
D15*
X186690000Y-76454000D03*
X186690000Y-78994000D03*
X186690000Y-81534000D03*
X186690000Y-84074000D03*
X186690000Y-86614000D03*
X186690000Y-89154000D03*
X186690000Y-91694000D03*
X186690000Y-94234000D03*
X186690000Y-96774000D03*
X186690000Y-99314000D03*
X186690000Y-101854000D03*
X186690000Y-104394000D03*
X186690000Y-106934000D03*
X186690000Y-109474000D03*
X186690000Y-112014000D03*
D10*
X169164000Y-80010000D03*
D16*
X176784000Y-80010000D03*
X151384000Y-77470000D03*
X136144000Y-125730000D03*
X151384000Y-80010000D03*
X136144000Y-123190000D03*
X151384000Y-82550000D03*
X136144000Y-120650000D03*
X151384000Y-85090000D03*
X136144000Y-118110000D03*
X151384000Y-87630000D03*
X136144000Y-115570000D03*
X151384000Y-90170000D03*
X136144000Y-113030000D03*
X151384000Y-92710000D03*
X136144000Y-110490000D03*
X151384000Y-95250000D03*
X136144000Y-107950000D03*
X151384000Y-97790000D03*
X136144000Y-105410000D03*
X151384000Y-100330000D03*
X136144000Y-102870000D03*
X151384000Y-102870000D03*
X136144000Y-100330000D03*
X151384000Y-105410000D03*
X136144000Y-97790000D03*
X151384000Y-107950000D03*
X136144000Y-95250000D03*
X151384000Y-110490000D03*
X136144000Y-92710000D03*
X151384000Y-113030000D03*
X136144000Y-90170000D03*
X151384000Y-115570000D03*
X136144000Y-87630000D03*
X151384000Y-118110000D03*
X136144000Y-85090000D03*
X151384000Y-120650000D03*
X136144000Y-82550000D03*
X151384000Y-123190000D03*
X136144000Y-80010000D03*
X151384000Y-125730000D03*
D11*
X136144000Y-77470000D03*
D16*
X176784000Y-83566000D03*
D10*
X169164000Y-83566000D03*
D16*
X116332000Y-95758000D03*
D10*
X108712000Y-95758000D03*
D16*
X176784000Y-94234000D03*
D10*
X169164000Y-94234000D03*
D14*
X161798000Y-77470000D03*
D15*
X161798000Y-80010000D03*
X161798000Y-82550000D03*
X161798000Y-85090000D03*
X161798000Y-87630000D03*
X161798000Y-90170000D03*
X161798000Y-92710000D03*
X161798000Y-95250000D03*
D10*
X169164000Y-90424000D03*
D16*
X176784000Y-90424000D03*
D10*
X169418000Y-105664000D03*
D16*
X177038000Y-105664000D03*
D17*
X107188000Y-112522000D03*
D18*
X99568000Y-112522000D03*
D19*
X122428000Y-72136000D03*
D20*
X119888000Y-72136000D03*
X122428000Y-69596000D03*
X119888000Y-69596000D03*
X122428000Y-67056000D03*
X119888000Y-67056000D03*
X122428000Y-64516000D03*
X119888000Y-64516000D03*
D14*
X158496000Y-123952000D03*
D15*
X161036000Y-123952000D03*
X163576000Y-123952000D03*
D10*
X169164000Y-86868000D03*
D16*
X176784000Y-86868000D03*
D14*
X125476000Y-77470000D03*
D15*
X125476000Y-80010000D03*
X125476000Y-82550000D03*
X125476000Y-85090000D03*
X125476000Y-87630000D03*
X125476000Y-90170000D03*
X125476000Y-92710000D03*
X125476000Y-95250000D03*
D10*
X108712000Y-92456000D03*
D16*
X116332000Y-92456000D03*
D14*
X161798000Y-106426000D03*
D15*
X161798000Y-108966000D03*
X161798000Y-111506000D03*
X161798000Y-114046000D03*
X161798000Y-116586000D03*
D13*
X128270000Y-135382000D03*
D12*
X128270000Y-137922000D03*
X134112000Y-137922000D03*
D13*
X134112000Y-135382000D03*
D10*
X108712000Y-99314000D03*
D16*
X116332000Y-99314000D03*
D21*
X145542000Y-68072000D03*
X145542000Y-65532000D03*
D22*
X145542000Y-62992000D03*
D11*
X149098000Y-142494000D03*
D16*
X156718000Y-150114000D03*
X149098000Y-145034000D03*
X156718000Y-147574000D03*
X149098000Y-147574000D03*
X156718000Y-145034000D03*
X149098000Y-150114000D03*
X156718000Y-142494000D03*
X116332000Y-88900000D03*
D10*
X108712000Y-88900000D03*
D23*
X100584000Y-123190000D03*
D24*
X103124000Y-123190000D03*
X105664000Y-123190000D03*
D16*
X176784000Y-76454000D03*
D10*
X169164000Y-76454000D03*
D15*
X115316000Y-115316000D03*
X115316000Y-112776000D03*
D14*
X115316000Y-110236000D03*
X158242000Y-65024000D03*
D15*
X160782000Y-65024000D03*
X163322000Y-65024000D03*
X165862000Y-65024000D03*
X168402000Y-65024000D03*
X170942000Y-65024000D03*
D14*
X100838000Y-84074000D03*
D15*
X100838000Y-86614000D03*
X100838000Y-89154000D03*
X100838000Y-91694000D03*
X100838000Y-94234000D03*
X100838000Y-96774000D03*
X100838000Y-99314000D03*
X100838000Y-101854000D03*
D25*
X172466000Y-123444000D03*
D26*
X180066000Y-123444000D03*
D10*
X180340000Y-69596000D03*
D16*
X180340000Y-61976000D03*
D27*
X104622000Y-140668000D03*
D28*
X99822000Y-143468000D03*
D29*
X99822000Y-137668000D03*
D13*
X174752000Y-136652000D03*
X172212000Y-136652000D03*
X169672000Y-136652000D03*
D30*
X165576300Y-118014300D03*
X172775800Y-111628900D03*
X137665400Y-110678600D03*
X132657300Y-113594800D03*
D31*
X139614700Y-64938700D02*
X137922000Y-63246000D01*
X145542000Y-65532000D02*
X140208000Y-65532000D01*
X140208000Y-65532000D02*
X139614700Y-64938700D01*
X137922000Y-70834000D02*
X137774300Y-70834000D01*
X137774300Y-70834000D02*
X136716000Y-69775700D01*
X136716000Y-69775700D02*
X136716000Y-67837400D01*
X136716000Y-67837400D02*
X139614700Y-64938700D01*
X164630700Y-65024000D02*
X164630700Y-64562300D01*
X164630700Y-64562300D02*
X163861000Y-63792600D01*
X163861000Y-63792600D02*
X147281400Y-63792600D01*
X147281400Y-63792600D02*
X145542000Y-65532000D01*
X165862000Y-65024000D02*
X164630700Y-65024000D01*
X178562000Y-77050700D02*
X177965300Y-76454000D01*
X187930300Y-77724000D02*
X179235300Y-77724000D01*
X179235300Y-77724000D02*
X178562000Y-77050700D01*
X178562000Y-77050700D02*
X176784000Y-78828700D01*
X186690000Y-112014000D02*
X186690000Y-116820000D01*
X186690000Y-116820000D02*
X180066000Y-123444000D01*
X135393300Y-137922000D02*
X135482300Y-138011000D01*
X135482300Y-138011000D02*
X173393000Y-138011000D01*
X173393000Y-138011000D02*
X174752000Y-136652000D01*
X176784000Y-80010000D02*
X176784000Y-78828700D01*
X103124000Y-129319300D02*
X101232700Y-129319300D01*
X101232700Y-129319300D02*
X100504000Y-130048000D01*
X110156000Y-130556000D02*
X108919300Y-129319300D01*
X108919300Y-129319300D02*
X103124000Y-129319300D01*
X103124000Y-129319300D02*
X103124000Y-123190000D01*
X176784000Y-76454000D02*
X177965300Y-76454000D01*
X187930300Y-77724000D02*
X187930300Y-75154300D01*
X187930300Y-75154300D02*
X186690000Y-73914000D01*
X186690000Y-82842700D02*
X187151700Y-82842700D01*
X187151700Y-82842700D02*
X187930300Y-82064100D01*
X187930300Y-82064100D02*
X187930300Y-77724000D01*
X134112000Y-137922000D02*
X135393300Y-137922000D01*
X186690000Y-84074000D02*
X186690000Y-82842700D01*
X122428000Y-137922000D02*
X116586000Y-137922000D01*
X128270000Y-137922000D02*
X122428000Y-137922000D01*
X137325300Y-105410000D02*
X142405300Y-100330000D01*
X142405300Y-100330000D02*
X151384000Y-100330000D01*
X128270000Y-137922000D02*
X134112000Y-137922000D01*
X136144000Y-105410000D02*
X137325300Y-105410000D01*
X104622000Y-140668000D02*
X103340700Y-140668000D01*
X99822000Y-143468000D02*
X102203300Y-143468000D01*
X102203300Y-143468000D02*
X102203300Y-141805400D01*
X102203300Y-141805400D02*
X103340700Y-140668000D01*
X156718000Y-142494000D02*
X155536700Y-142494000D01*
X95504000Y-130048000D02*
X100438100Y-134982100D01*
X100438100Y-134982100D02*
X108813800Y-134982100D01*
X108813800Y-134982100D02*
X113747700Y-139916000D01*
X113747700Y-139916000D02*
X152958700Y-139916000D01*
X152958700Y-139916000D02*
X155536700Y-142494000D01*
X99822000Y-137668000D02*
X108784000Y-137668000D01*
X108784000Y-137668000D02*
X113610000Y-142494000D01*
X113610000Y-142494000D02*
X149098000Y-142494000D01*
X137922000Y-68834000D02*
X139103300Y-68834000D01*
X145542000Y-68072000D02*
X139865300Y-68072000D01*
X139865300Y-68072000D02*
X139103300Y-68834000D01*
X116586000Y-135382000D02*
X119939100Y-132028900D01*
X119939100Y-132028900D02*
X119939100Y-132028800D01*
X119939100Y-132028800D02*
X147502800Y-132028800D01*
X147502800Y-132028800D02*
X155579900Y-123951700D01*
X155579900Y-123951700D02*
X155579900Y-123852000D01*
X155579900Y-123852000D02*
X158015800Y-121416100D01*
X158015800Y-121416100D02*
X162174500Y-121416100D01*
X162174500Y-121416100D02*
X165576300Y-118014300D01*
X122428000Y-135382000D02*
X124190200Y-133619800D01*
X124190200Y-133619800D02*
X146630800Y-133619800D01*
X146630800Y-133619800D02*
X156342300Y-123908300D01*
X156342300Y-123908300D02*
X156342300Y-123818200D01*
X156342300Y-123818200D02*
X157727800Y-122432700D01*
X157727800Y-122432700D02*
X162282700Y-122432700D01*
X162282700Y-122432700D02*
X172775800Y-111939600D01*
X172775800Y-111939600D02*
X172775800Y-111628900D01*
X186690000Y-86614000D02*
X185458700Y-86614000D01*
X161798000Y-95250000D02*
X166293800Y-95250000D01*
X166293800Y-95250000D02*
X172320700Y-89223100D01*
X172320700Y-89223100D02*
X182849600Y-89223100D01*
X182849600Y-89223100D02*
X185458700Y-86614000D01*
X160566700Y-92710000D02*
X160566700Y-92863900D01*
X160566700Y-92863900D02*
X151830600Y-101600000D01*
X151830600Y-101600000D02*
X146744000Y-101600000D01*
X146744000Y-101600000D02*
X137665400Y-110678600D01*
X161798000Y-92710000D02*
X160566700Y-92710000D01*
X185458700Y-81534000D02*
X178641300Y-88351400D01*
X178641300Y-88351400D02*
X168399500Y-88351400D01*
X168399500Y-88351400D02*
X164040900Y-92710000D01*
X164040900Y-92710000D02*
X161798000Y-92710000D01*
X186690000Y-81534000D02*
X185458700Y-81534000D01*
X151384000Y-110490000D02*
X150202700Y-110490000D01*
X149643300Y-108749300D02*
X149643300Y-105403400D01*
X149643300Y-105403400D02*
X150906700Y-104140000D01*
X150906700Y-104140000D02*
X152014300Y-104140000D01*
X152014300Y-104140000D02*
X156840300Y-99314000D01*
X156840300Y-99314000D02*
X186690000Y-99314000D01*
X150202700Y-110490000D02*
X150202700Y-109308700D01*
X150202700Y-109308700D02*
X149643300Y-108749300D01*
X132657300Y-113594800D02*
X134422200Y-111829900D01*
X134422200Y-111829900D02*
X137760900Y-111829900D01*
X137760900Y-111829900D02*
X140841500Y-108749300D01*
X140841500Y-108749300D02*
X149643300Y-108749300D01*
X152565300Y-107950000D02*
X158661300Y-101854000D01*
X158661300Y-101854000D02*
X186690000Y-101854000D01*
X151384000Y-107950000D02*
X152565300Y-107950000D01*
X164078200Y-105418100D02*
X165102300Y-104394000D01*
X165102300Y-104394000D02*
X186690000Y-104394000D01*
X126707300Y-121666000D02*
X129437800Y-124396500D01*
X129437800Y-124396500D02*
X152900200Y-124396500D01*
X152900200Y-124396500D02*
X156897200Y-120399500D01*
X156897200Y-120399500D02*
X161239000Y-120399500D01*
X161239000Y-120399500D02*
X164078200Y-117560300D01*
X164078200Y-117560300D02*
X164078200Y-105418100D01*
X151384000Y-106591300D02*
X151016000Y-106591300D01*
X151016000Y-106591300D02*
X150200600Y-107406700D01*
X150200600Y-107406700D02*
X150200600Y-108466100D01*
X150200600Y-108466100D02*
X150954500Y-109220000D01*
X150954500Y-109220000D02*
X155631100Y-109220000D01*
X155631100Y-109220000D02*
X159703000Y-105148100D01*
X159703000Y-105148100D02*
X163808200Y-105148100D01*
X163808200Y-105148100D02*
X164078200Y-105418100D01*
X125476000Y-121666000D02*
X126707300Y-121666000D01*
X151384000Y-105410000D02*
X151384000Y-106591300D01*
X126707300Y-124206000D02*
X129413000Y-126911700D01*
X129413000Y-126911700D02*
X151900900Y-126911700D01*
X151900900Y-126911700D02*
X152702100Y-126110500D01*
X152702100Y-126110500D02*
X152702100Y-125987400D01*
X152702100Y-125987400D02*
X157781700Y-120907800D01*
X157781700Y-120907800D02*
X161449400Y-120907800D01*
X161449400Y-120907800D02*
X171613300Y-110743900D01*
X171613300Y-110743900D02*
X187226500Y-110743900D01*
X187226500Y-110743900D02*
X187923600Y-110046800D01*
X187923600Y-110046800D02*
X187923600Y-108937200D01*
X187923600Y-108937200D02*
X187151700Y-108165300D01*
X187151700Y-108165300D02*
X186690000Y-108165300D01*
X186690000Y-106934000D02*
X186690000Y-108165300D01*
X186690000Y-106934000D02*
X186690000Y-106762500D01*
X125476000Y-124206000D02*
X126707300Y-124206000D01*
X152565300Y-102870000D02*
X157938500Y-97496800D01*
X157938500Y-97496800D02*
X184013000Y-97496800D01*
X184013000Y-97496800D02*
X186005800Y-95504000D01*
X186005800Y-95504000D02*
X187165800Y-95504000D01*
X187165800Y-95504000D02*
X187991800Y-96330000D01*
X187991800Y-96330000D02*
X187991800Y-104911100D01*
X187991800Y-104911100D02*
X187200200Y-105702700D01*
X187200200Y-105702700D02*
X186690000Y-105702700D01*
X186690000Y-106762500D02*
X186690000Y-105702700D01*
X151384000Y-102870000D02*
X152565300Y-102870000D01*
X169418000Y-105664000D02*
X173228000Y-109474000D01*
X173228000Y-109474000D02*
X186690000Y-109474000D01*
X125476000Y-77470000D02*
X126707300Y-77470000D01*
X126707300Y-77470000D02*
X129247300Y-80010000D01*
X129247300Y-80010000D02*
X136144000Y-80010000D01*
X102069300Y-84074000D02*
X108673300Y-77470000D01*
X108673300Y-77470000D02*
X125476000Y-77470000D01*
X100838000Y-84074000D02*
X102069300Y-84074000D01*
X125476000Y-80010000D02*
X126707300Y-80010000D01*
X136144000Y-82550000D02*
X129247300Y-82550000D01*
X129247300Y-82550000D02*
X126707300Y-80010000D01*
X102069300Y-86614000D02*
X108673300Y-80010000D01*
X108673300Y-80010000D02*
X125476000Y-80010000D01*
X100838000Y-86614000D02*
X102069300Y-86614000D01*
X125476000Y-82550000D02*
X126707300Y-82550000D01*
X136144000Y-85090000D02*
X129247300Y-85090000D01*
X129247300Y-85090000D02*
X126707300Y-82550000D01*
X102069300Y-89154000D02*
X108673300Y-82550000D01*
X108673300Y-82550000D02*
X125476000Y-82550000D01*
X100838000Y-89154000D02*
X102069300Y-89154000D01*
X125476000Y-85090000D02*
X126707300Y-85090000D01*
X136144000Y-87630000D02*
X129247300Y-87630000D01*
X129247300Y-87630000D02*
X126707300Y-85090000D01*
X102069300Y-91694000D02*
X108673300Y-85090000D01*
X108673300Y-85090000D02*
X125476000Y-85090000D01*
X100838000Y-91694000D02*
X102069300Y-91694000D01*
X125476000Y-87630000D02*
X126707300Y-87630000D01*
X126707300Y-87630000D02*
X129247300Y-90170000D01*
X129247300Y-90170000D02*
X136144000Y-90170000D01*
X108712000Y-88900000D02*
X109982000Y-87630000D01*
X109982000Y-87630000D02*
X125476000Y-87630000D01*
X125476000Y-90170000D02*
X126707300Y-90170000D01*
X126707300Y-90170000D02*
X129247300Y-92710000D01*
X129247300Y-92710000D02*
X136144000Y-92710000D01*
X108712000Y-92456000D02*
X110998000Y-90170000D01*
X110998000Y-90170000D02*
X125476000Y-90170000D01*
X100838000Y-96774000D02*
X104394000Y-96774000D01*
X104394000Y-96774000D02*
X108712000Y-92456000D01*
X136144000Y-110490000D02*
X134962700Y-110490000D01*
X100838000Y-100545300D02*
X100376300Y-100545300D01*
X100376300Y-100545300D02*
X99596000Y-101325600D01*
X99596000Y-101325600D02*
X99596000Y-102443200D01*
X99596000Y-102443200D02*
X104810200Y-107657400D01*
X104810200Y-107657400D02*
X132130100Y-107657400D01*
X132130100Y-107657400D02*
X134962700Y-110490000D01*
X100838000Y-99314000D02*
X100838000Y-100545300D01*
X108712000Y-95758000D02*
X105156000Y-99314000D01*
X105156000Y-99314000D02*
X100838000Y-99314000D01*
X125476000Y-92710000D02*
X124244700Y-92710000D01*
X124244700Y-92710000D02*
X123317300Y-93637400D01*
X123317300Y-93637400D02*
X110832600Y-93637400D01*
X110832600Y-93637400D02*
X108712000Y-95758000D01*
X125476000Y-95250000D02*
X125476000Y-96481300D01*
X136144000Y-107950000D02*
X136144000Y-106768700D01*
X136144000Y-106768700D02*
X135763400Y-106768700D01*
X135763400Y-106768700D02*
X125476000Y-96481300D01*
X125476000Y-95250000D02*
X124244700Y-95250000D01*
X108712000Y-99314000D02*
X110646700Y-97379300D01*
X110646700Y-97379300D02*
X122115400Y-97379300D01*
X122115400Y-97379300D02*
X124244700Y-95250000D01*
X100838000Y-101854000D02*
X106172000Y-101854000D01*
X106172000Y-101854000D02*
X108712000Y-99314000D01*
X160782000Y-65024000D02*
X162013300Y-65024000D01*
X162013300Y-65024000D02*
X162013300Y-65485700D01*
X162013300Y-65485700D02*
X166123600Y-69596000D01*
X166123600Y-69596000D02*
X180340000Y-69596000D01*
X161798000Y-116586000D02*
X160566700Y-116586000D01*
X151384000Y-113030000D02*
X157010700Y-113030000D01*
X157010700Y-113030000D02*
X160566700Y-116586000D01*
X137325300Y-113030000D02*
X138683900Y-111671400D01*
X138683900Y-111671400D02*
X155321300Y-111671400D01*
X155321300Y-111671400D02*
X160566700Y-106426000D01*
X136144000Y-113030000D02*
X137325300Y-113030000D01*
X161798000Y-106426000D02*
X160566700Y-106426000D01*
X161798000Y-108966000D02*
X161798000Y-110197300D01*
X136144000Y-115570000D02*
X146253200Y-115570000D01*
X146253200Y-115570000D02*
X149976300Y-119293100D01*
X149976300Y-119293100D02*
X160836200Y-119293100D01*
X160836200Y-119293100D02*
X163061600Y-117067700D01*
X163061600Y-117067700D02*
X163061600Y-115994000D01*
X163061600Y-115994000D02*
X162383600Y-115316000D01*
X162383600Y-115316000D02*
X161309500Y-115316000D01*
X161309500Y-115316000D02*
X160540700Y-114547200D01*
X160540700Y-114547200D02*
X160540700Y-110944400D01*
X160540700Y-110944400D02*
X161287800Y-110197300D01*
X161287800Y-110197300D02*
X161798000Y-110197300D01*
X137325300Y-95250000D02*
X138506600Y-94068700D01*
X138506600Y-94068700D02*
X152285600Y-94068700D01*
X152285600Y-94068700D02*
X159955700Y-86398600D01*
X159955700Y-86398600D02*
X166331400Y-86398600D01*
X166331400Y-86398600D02*
X169164000Y-83566000D01*
X136144000Y-95250000D02*
X137325300Y-95250000D01*
X136144000Y-97790000D02*
X137325300Y-97790000D01*
X137325300Y-97790000D02*
X138506600Y-96608700D01*
X138506600Y-96608700D02*
X153787500Y-96608700D01*
X153787500Y-96608700D02*
X158956200Y-91440000D01*
X158956200Y-91440000D02*
X164592000Y-91440000D01*
X164592000Y-91440000D02*
X169164000Y-86868000D01*
X136144000Y-118110000D02*
X141159000Y-118110000D01*
X141159000Y-118110000D02*
X144903000Y-121854000D01*
X144903000Y-121854000D02*
X154551700Y-121854000D01*
X154551700Y-121854000D02*
X156514500Y-119891200D01*
X156514500Y-119891200D02*
X161028500Y-119891200D01*
X161028500Y-119891200D02*
X163569900Y-117349800D01*
X163569900Y-117349800D02*
X163569900Y-114047500D01*
X163569900Y-114047500D02*
X162259700Y-112737300D01*
X162259700Y-112737300D02*
X161798000Y-112737300D01*
X161798000Y-111506000D02*
X161798000Y-112737300D01*
X122428000Y-69596000D02*
X126406000Y-69596000D01*
X126406000Y-69596000D02*
X131906000Y-75096000D01*
X131906000Y-75096000D02*
X142158000Y-75096000D01*
X142158000Y-75096000D02*
X149612000Y-82550000D01*
X149612000Y-82550000D02*
X151384000Y-82550000D01*
X119888000Y-69596000D02*
X121284700Y-70992700D01*
X121284700Y-70992700D02*
X126996900Y-70992700D01*
X126996900Y-70992700D02*
X132080700Y-76076500D01*
X132080700Y-76076500D02*
X141189200Y-76076500D01*
X141189200Y-76076500D02*
X150202700Y-85090000D01*
X151384000Y-85090000D02*
X150202700Y-85090000D01*
X122428000Y-67056000D02*
X121158000Y-68326000D01*
X121158000Y-68326000D02*
X119489700Y-68326000D01*
X119489700Y-68326000D02*
X118737500Y-69078200D01*
X118737500Y-69078200D02*
X118737500Y-72677500D01*
X118737500Y-72677500D02*
X119699000Y-73639000D01*
X119699000Y-73639000D02*
X127712000Y-73639000D01*
X127712000Y-73639000D02*
X132724400Y-78651400D01*
X132724400Y-78651400D02*
X139182900Y-78651400D01*
X139182900Y-78651400D02*
X150188900Y-89657400D01*
X150188900Y-89657400D02*
X150946300Y-88900000D01*
X150946300Y-88900000D02*
X151804200Y-88900000D01*
X151804200Y-88900000D02*
X160566700Y-80137500D01*
X160566700Y-80137500D02*
X160566700Y-80010000D01*
X151384000Y-91528700D02*
X151014800Y-91528700D01*
X151014800Y-91528700D02*
X150188900Y-90702800D01*
X150188900Y-90702800D02*
X150188900Y-89657400D01*
X161798000Y-80010000D02*
X160566700Y-80010000D01*
X151384000Y-92710000D02*
X151384000Y-91528700D01*
X152567500Y-82038500D02*
X152567500Y-85632300D01*
X152567500Y-85632300D02*
X151751100Y-86448700D01*
X151751100Y-86448700D02*
X151384000Y-86448700D01*
X119888000Y-67056000D02*
X121033600Y-65910400D01*
X121033600Y-65910400D02*
X123439400Y-65910400D01*
X123439400Y-65910400D02*
X130450100Y-72921100D01*
X130450100Y-72921100D02*
X142440900Y-72921100D01*
X142440900Y-72921100D02*
X150799800Y-81280000D01*
X150799800Y-81280000D02*
X151809000Y-81280000D01*
X151809000Y-81280000D02*
X152567500Y-82038500D01*
X152567500Y-82038500D02*
X155847800Y-78758200D01*
X155847800Y-78758200D02*
X162294200Y-78758200D01*
X162294200Y-78758200D02*
X163055800Y-79519800D01*
X163055800Y-79519800D02*
X163055800Y-83111100D01*
X163055800Y-83111100D02*
X162308200Y-83858700D01*
X162308200Y-83858700D02*
X161798000Y-83858700D01*
X161798000Y-85090000D02*
X161798000Y-83858700D01*
X151384000Y-87630000D02*
X151384000Y-86448700D01*
X160566700Y-77470000D02*
X155509400Y-72412700D01*
X155509400Y-72412700D02*
X132655100Y-72412700D01*
X132655100Y-72412700D02*
X124758400Y-64516000D01*
X124758400Y-64516000D02*
X122428000Y-64516000D01*
X151384000Y-95250000D02*
X152565300Y-95250000D01*
X161798000Y-77470000D02*
X164790900Y-77470000D01*
X164790900Y-77470000D02*
X170364900Y-83044000D01*
X170364900Y-83044000D02*
X170364900Y-84038900D01*
X170364900Y-84038900D02*
X169186800Y-85217000D01*
X169186800Y-85217000D02*
X168960800Y-85217000D01*
X168960800Y-85217000D02*
X165277800Y-88900000D01*
X165277800Y-88900000D02*
X158915300Y-88900000D01*
X158915300Y-88900000D02*
X152565300Y-95250000D01*
X161798000Y-77470000D02*
X160566700Y-77470000D01*
X161798000Y-82550000D02*
X160566700Y-82550000D01*
X151384000Y-90170000D02*
X152946700Y-90170000D01*
X152946700Y-90170000D02*
X160566700Y-82550000D01*
X151384000Y-123190000D02*
X141448400Y-123190000D01*
X141448400Y-123190000D02*
X137638400Y-119380000D01*
X137638400Y-119380000D02*
X132041300Y-119380000D01*
X132041300Y-119380000D02*
X126707300Y-114046000D01*
X125476000Y-114046000D02*
X126707300Y-114046000D01*
X134962700Y-102870000D02*
X126072700Y-93980000D01*
X126072700Y-93980000D02*
X124094800Y-93980000D01*
X124094800Y-93980000D02*
X122316800Y-95758000D01*
X122316800Y-95758000D02*
X116332000Y-95758000D01*
X136144000Y-102870000D02*
X134962700Y-102870000D01*
X168402000Y-65024000D02*
X169633300Y-65024000D01*
X186690000Y-76454000D02*
X186690000Y-75222700D01*
X186690000Y-75222700D02*
X185689500Y-75222700D01*
X185689500Y-75222700D02*
X185458700Y-74991900D01*
X185458700Y-74991900D02*
X185458700Y-73018200D01*
X185458700Y-73018200D02*
X179825800Y-67385300D01*
X179825800Y-67385300D02*
X171484400Y-67385300D01*
X171484400Y-67385300D02*
X169633300Y-65534200D01*
X169633300Y-65534200D02*
X169633300Y-65024000D01*
X137922000Y-61246000D02*
X139103300Y-61246000D01*
X145542000Y-62992000D02*
X140849300Y-62992000D01*
X140849300Y-62992000D02*
X139103300Y-61246000D01*
X167170700Y-65024000D02*
X167170700Y-64562300D01*
X167170700Y-64562300D02*
X165600400Y-62992000D01*
X165600400Y-62992000D02*
X145542000Y-62992000D01*
X168402000Y-65024000D02*
X167170700Y-65024000D01*
X136144000Y-120650000D02*
X134962700Y-120650000D01*
X115316000Y-115316000D02*
X116547300Y-115316000D01*
X116547300Y-115316000D02*
X121627300Y-120396000D01*
X121627300Y-120396000D02*
X134708700Y-120396000D01*
X134708700Y-120396000D02*
X134962700Y-120650000D01*
X151384000Y-120650000D02*
X150202700Y-120650000D01*
X115316000Y-112776000D02*
X129330700Y-112776000D01*
X129330700Y-112776000D02*
X133394700Y-116840000D01*
X133394700Y-116840000D02*
X146392700Y-116840000D01*
X146392700Y-116840000D02*
X150202700Y-120650000D01*
X115316000Y-110236000D02*
X128220500Y-110236000D01*
X128220500Y-110236000D02*
X132341600Y-114357100D01*
X132341600Y-114357100D02*
X146449800Y-114357100D01*
X146449800Y-114357100D02*
X150202700Y-118110000D01*
X151384000Y-118110000D02*
X150202700Y-118110000D01*
G36*
X188953328Y-56883659D02*
G01*
X189519159Y-57233553D01*
X190006249Y-57686682D01*
X190396054Y-58225800D01*
X190673719Y-58830358D01*
X190828668Y-59477330D01*
X190856143Y-60170850D01*
X190344044Y-150298997D01*
X190240138Y-151180708D01*
X190001049Y-152018859D01*
X189631037Y-152807992D01*
X189139612Y-153527825D01*
X188539425Y-154159825D01*
X187845910Y-154687739D01*
X187076915Y-155097980D01*
X186252219Y-155379997D01*
X185381291Y-155528537D01*
X184897441Y-155549997D01*
X95353966Y-155528596D01*
X94635039Y-155047409D01*
X93876695Y-154367108D01*
X93221769Y-153586738D01*
X92683334Y-152721880D01*
X92272129Y-151789780D01*
X91996360Y-150809035D01*
X91891810Y-150026000D01*
X116113928Y-150026000D01*
X116113928Y-151726000D01*
X116126188Y-151850482D01*
X116162498Y-151970180D01*
X116221463Y-152080494D01*
X116300815Y-152177185D01*
X116397506Y-152256537D01*
X116507820Y-152315502D01*
X116627518Y-152351812D01*
X116752000Y-152364072D01*
X118452000Y-152364072D01*
X118576482Y-152351812D01*
X118696180Y-152315502D01*
X118806494Y-152256537D01*
X118903185Y-152177185D01*
X118982537Y-152080494D01*
X119041502Y-151970180D01*
X119062393Y-151901313D01*
X119086866Y-151931134D01*
X119312986Y-152116706D01*
X119570966Y-152254599D01*
X119850889Y-152339513D01*
X120069050Y-152361000D01*
X120214950Y-152361000D01*
X120433111Y-152339513D01*
X120713034Y-152254599D01*
X120971014Y-152116706D01*
X121197134Y-151931134D01*
X121382706Y-151705014D01*
X121417201Y-151640477D01*
X121486822Y-151757355D01*
X121681731Y-151973588D01*
X121915080Y-152147641D01*
X122177901Y-152272825D01*
X122325110Y-152317476D01*
X122555000Y-152196155D01*
X122555000Y-151003000D01*
X122535000Y-151003000D01*
X122535000Y-150749000D01*
X122555000Y-150749000D01*
X122555000Y-149555845D01*
X122809000Y-149555845D01*
X122809000Y-150749000D01*
X122829000Y-150749000D01*
X122829000Y-151003000D01*
X122809000Y-151003000D01*
X122809000Y-152196155D01*
X123038890Y-152317476D01*
X123186099Y-152272825D01*
X123448920Y-152147641D01*
X123682269Y-151973588D01*
X123877178Y-151757355D01*
X123946799Y-151640477D01*
X123981294Y-151705014D01*
X124166866Y-151931134D01*
X124392986Y-152116706D01*
X124650966Y-152254599D01*
X124930889Y-152339513D01*
X125149050Y-152361000D01*
X125294950Y-152361000D01*
X125513111Y-152339513D01*
X125793034Y-152254599D01*
X126051014Y-152116706D01*
X126277134Y-151931134D01*
X126462706Y-151705014D01*
X126492000Y-151650209D01*
X126521294Y-151705014D01*
X126706866Y-151931134D01*
X126932986Y-152116706D01*
X127190966Y-152254599D01*
X127470889Y-152339513D01*
X127689050Y-152361000D01*
X127834950Y-152361000D01*
X128053111Y-152339513D01*
X128333034Y-152254599D01*
X128591014Y-152116706D01*
X128817134Y-151931134D01*
X129002706Y-151705014D01*
X129032000Y-151650209D01*
X129061294Y-151705014D01*
X129246866Y-151931134D01*
X129472986Y-152116706D01*
X129730966Y-152254599D01*
X130010889Y-152339513D01*
X130229050Y-152361000D01*
X130374950Y-152361000D01*
X130593111Y-152339513D01*
X130873034Y-152254599D01*
X131131014Y-152116706D01*
X131357134Y-151931134D01*
X131542706Y-151705014D01*
X131680599Y-151447034D01*
X131765513Y-151167111D01*
X131794185Y-150876000D01*
X131765513Y-150584889D01*
X131680599Y-150304966D01*
X131542706Y-150046986D01*
X131357134Y-149820866D01*
X131131014Y-149635294D01*
X130873034Y-149497401D01*
X130593111Y-149412487D01*
X130374950Y-149391000D01*
X130229050Y-149391000D01*
X130010889Y-149412487D01*
X129730966Y-149497401D01*
X129472986Y-149635294D01*
X129246866Y-149820866D01*
X129061294Y-150046986D01*
X129032000Y-150101791D01*
X129002706Y-150046986D01*
X128817134Y-149820866D01*
X128591014Y-149635294D01*
X128333034Y-149497401D01*
X128053111Y-149412487D01*
X127834950Y-149391000D01*
X127689050Y-149391000D01*
X127470889Y-149412487D01*
X127190966Y-149497401D01*
X126932986Y-149635294D01*
X126706866Y-149820866D01*
X126521294Y-150046986D01*
X126492000Y-150101791D01*
X126462706Y-150046986D01*
X126277134Y-149820866D01*
X126051014Y-149635294D01*
X125793034Y-149497401D01*
X125513111Y-149412487D01*
X125294950Y-149391000D01*
X125149050Y-149391000D01*
X124930889Y-149412487D01*
X124650966Y-149497401D01*
X124392986Y-149635294D01*
X124166866Y-149820866D01*
X123981294Y-150046986D01*
X123946799Y-150111523D01*
X123877178Y-149994645D01*
X123682269Y-149778412D01*
X123448920Y-149604359D01*
X123186099Y-149479175D01*
X123038890Y-149434524D01*
X122809000Y-149555845D01*
X122555000Y-149555845D01*
X122325110Y-149434524D01*
X122177901Y-149479175D01*
X121915080Y-149604359D01*
X121681731Y-149778412D01*
X121486822Y-149994645D01*
X121417201Y-150111523D01*
X121382706Y-150046986D01*
X121197134Y-149820866D01*
X120971014Y-149635294D01*
X120713034Y-149497401D01*
X120433111Y-149412487D01*
X120214950Y-149391000D01*
X120069050Y-149391000D01*
X119850889Y-149412487D01*
X119570966Y-149497401D01*
X119312986Y-149635294D01*
X119086866Y-149820866D01*
X119062393Y-149850687D01*
X119041502Y-149781820D01*
X118982537Y-149671506D01*
X118903185Y-149574815D01*
X118806494Y-149495463D01*
X118696180Y-149436498D01*
X118576482Y-149400188D01*
X118452000Y-149387928D01*
X116752000Y-149387928D01*
X116627518Y-149400188D01*
X116507820Y-149436498D01*
X116397506Y-149495463D01*
X116300815Y-149574815D01*
X116221463Y-149671506D01*
X116162498Y-149781820D01*
X116126188Y-149901518D01*
X116113928Y-150026000D01*
X91891810Y-150026000D01*
X91859792Y-149786207D01*
X91846022Y-149342471D01*
X91857666Y-143832740D01*
X97230964Y-143832740D01*
X97255245Y-143938087D01*
X97375138Y-144215204D01*
X97546790Y-144463606D01*
X97763604Y-144673748D01*
X98017249Y-144837554D01*
X98297977Y-144948729D01*
X98595000Y-145003000D01*
X99695000Y-145003000D01*
X99695000Y-143595000D01*
X99949000Y-143595000D01*
X99949000Y-145003000D01*
X101049000Y-145003000D01*
X101346023Y-144948729D01*
X101626751Y-144837554D01*
X101880396Y-144673748D01*
X102097210Y-144463606D01*
X102268862Y-144215204D01*
X102388755Y-143938087D01*
X102413036Y-143832740D01*
X102292378Y-143595000D01*
X99949000Y-143595000D01*
X99695000Y-143595000D01*
X97351622Y-143595000D01*
X97230964Y-143832740D01*
X91857666Y-143832740D01*
X91859207Y-143103260D01*
X97230964Y-143103260D01*
X97351622Y-143341000D01*
X99695000Y-143341000D01*
X99695000Y-141933000D01*
X99949000Y-141933000D01*
X99949000Y-143341000D01*
X102292378Y-143341000D01*
X102413036Y-143103260D01*
X102388755Y-142997913D01*
X102268862Y-142720796D01*
X102097210Y-142472394D01*
X101880396Y-142262252D01*
X101626751Y-142098446D01*
X101346023Y-141987271D01*
X101049000Y-141933000D01*
X99949000Y-141933000D01*
X99695000Y-141933000D01*
X98595000Y-141933000D01*
X98297977Y-141987271D01*
X98017249Y-142098446D01*
X97763604Y-142262252D01*
X97546790Y-142472394D01*
X97375138Y-142720796D01*
X97255245Y-142997913D01*
X97230964Y-143103260D01*
X91859207Y-143103260D01*
X91864085Y-140795000D01*
X103087000Y-140795000D01*
X103087000Y-141895000D01*
X103141271Y-142192023D01*
X103252446Y-142472751D01*
X103416252Y-142726396D01*
X103626394Y-142943210D01*
X103874796Y-143114862D01*
X104151913Y-143234755D01*
X104257260Y-143259036D01*
X104495000Y-143138378D01*
X104495000Y-140795000D01*
X104749000Y-140795000D01*
X104749000Y-143138378D01*
X104986740Y-143259036D01*
X105092087Y-143234755D01*
X105369204Y-143114862D01*
X105617606Y-142943210D01*
X105827748Y-142726396D01*
X105991554Y-142472751D01*
X106102729Y-142192023D01*
X106157000Y-141895000D01*
X106157000Y-140795000D01*
X104749000Y-140795000D01*
X104495000Y-140795000D01*
X103087000Y-140795000D01*
X91864085Y-140795000D01*
X91872597Y-136768000D01*
X96983928Y-136768000D01*
X96983928Y-138568000D01*
X96996188Y-138692482D01*
X97032498Y-138812180D01*
X97091463Y-138922494D01*
X97170815Y-139019185D01*
X97267506Y-139098537D01*
X97377820Y-139157502D01*
X97497518Y-139193812D01*
X97622000Y-139206072D01*
X102022000Y-139206072D01*
X102146482Y-139193812D01*
X102266180Y-139157502D01*
X102376494Y-139098537D01*
X102473185Y-139019185D01*
X102552537Y-138922494D01*
X102611502Y-138812180D01*
X102647812Y-138692482D01*
X102660072Y-138568000D01*
X102660072Y-138430000D01*
X103590329Y-138430000D01*
X103416252Y-138609604D01*
X103252446Y-138863249D01*
X103141271Y-139143977D01*
X103087000Y-139441000D01*
X103087000Y-140541000D01*
X104495000Y-140541000D01*
X104495000Y-140521000D01*
X104749000Y-140521000D01*
X104749000Y-140541000D01*
X106157000Y-140541000D01*
X106157000Y-139441000D01*
X106102729Y-139143977D01*
X105991554Y-138863249D01*
X105827748Y-138609604D01*
X105653671Y-138430000D01*
X108468370Y-138430000D01*
X113044716Y-143006346D01*
X113068578Y-143035422D01*
X113142219Y-143095857D01*
X113184607Y-143130645D01*
X113199075Y-143138378D01*
X113316985Y-143201402D01*
X113460622Y-143244974D01*
X113572574Y-143256000D01*
X113572577Y-143256000D01*
X113610000Y-143259686D01*
X113647423Y-143256000D01*
X147659928Y-143256000D01*
X147659928Y-143294000D01*
X147672188Y-143418482D01*
X147708498Y-143538180D01*
X147767463Y-143648494D01*
X147846815Y-143745185D01*
X147943506Y-143824537D01*
X148053820Y-143883502D01*
X148173518Y-143919812D01*
X148191482Y-143921581D01*
X148078392Y-144014392D01*
X147899068Y-144232899D01*
X147765818Y-144482192D01*
X147683764Y-144752691D01*
X147656057Y-145034000D01*
X147683764Y-145315309D01*
X147765818Y-145585808D01*
X147899068Y-145835101D01*
X148078392Y-146053608D01*
X148296899Y-146232932D01*
X148429858Y-146304000D01*
X148296899Y-146375068D01*
X148078392Y-146554392D01*
X147899068Y-146772899D01*
X147765818Y-147022192D01*
X147683764Y-147292691D01*
X147656057Y-147574000D01*
X147683764Y-147855309D01*
X147765818Y-148125808D01*
X147899068Y-148375101D01*
X148078392Y-148593608D01*
X148296899Y-148772932D01*
X148429858Y-148844000D01*
X148296899Y-148915068D01*
X148078392Y-149094392D01*
X147899068Y-149312899D01*
X147765818Y-149562192D01*
X147683764Y-149832691D01*
X147656057Y-150114000D01*
X147683764Y-150395309D01*
X147765818Y-150665808D01*
X147899068Y-150915101D01*
X148078392Y-151133608D01*
X148296899Y-151312932D01*
X148546192Y-151446182D01*
X148816691Y-151528236D01*
X149027508Y-151549000D01*
X149168492Y-151549000D01*
X149379309Y-151528236D01*
X149649808Y-151446182D01*
X149899101Y-151312932D01*
X150117608Y-151133608D01*
X150296932Y-150915101D01*
X150430182Y-150665808D01*
X150512236Y-150395309D01*
X150539943Y-150114000D01*
X150512236Y-149832691D01*
X150430182Y-149562192D01*
X150296932Y-149312899D01*
X150117608Y-149094392D01*
X149899101Y-148915068D01*
X149766142Y-148844000D01*
X149899101Y-148772932D01*
X150117608Y-148593608D01*
X150296932Y-148375101D01*
X150430182Y-148125808D01*
X150512236Y-147855309D01*
X150539943Y-147574000D01*
X150512236Y-147292691D01*
X150430182Y-147022192D01*
X150296932Y-146772899D01*
X150117608Y-146554392D01*
X149899101Y-146375068D01*
X149766142Y-146304000D01*
X149899101Y-146232932D01*
X150117608Y-146053608D01*
X150296932Y-145835101D01*
X150430182Y-145585808D01*
X150512236Y-145315309D01*
X150539943Y-145034000D01*
X150512236Y-144752691D01*
X150430182Y-144482192D01*
X150296932Y-144232899D01*
X150117608Y-144014392D01*
X150004518Y-143921581D01*
X150022482Y-143919812D01*
X150142180Y-143883502D01*
X150252494Y-143824537D01*
X150349185Y-143745185D01*
X150428537Y-143648494D01*
X150487502Y-143538180D01*
X150523812Y-143418482D01*
X150536072Y-143294000D01*
X150536072Y-141694000D01*
X150523812Y-141569518D01*
X150487502Y-141449820D01*
X150428537Y-141339506D01*
X150349185Y-141242815D01*
X150252494Y-141163463D01*
X150142180Y-141104498D01*
X150022482Y-141068188D01*
X149898000Y-141055928D01*
X148298000Y-141055928D01*
X148173518Y-141068188D01*
X148053820Y-141104498D01*
X147943506Y-141163463D01*
X147846815Y-141242815D01*
X147767463Y-141339506D01*
X147708498Y-141449820D01*
X147672188Y-141569518D01*
X147659928Y-141694000D01*
X147659928Y-141732000D01*
X113925630Y-141732000D01*
X109349284Y-137155654D01*
X109325422Y-137126578D01*
X109209392Y-137031355D01*
X109077015Y-136960598D01*
X108933378Y-136917026D01*
X108821426Y-136906000D01*
X108821423Y-136906000D01*
X108784000Y-136902314D01*
X108746577Y-136906000D01*
X102660072Y-136906000D01*
X102660072Y-136768000D01*
X102647812Y-136643518D01*
X102611502Y-136523820D01*
X102552537Y-136413506D01*
X102473185Y-136316815D01*
X102376494Y-136237463D01*
X102266180Y-136178498D01*
X102146482Y-136142188D01*
X102022000Y-136129928D01*
X97622000Y-136129928D01*
X97497518Y-136142188D01*
X97377820Y-136178498D01*
X97267506Y-136237463D01*
X97170815Y-136316815D01*
X97091463Y-136413506D01*
X97032498Y-136523820D01*
X96996188Y-136643518D01*
X96983928Y-136768000D01*
X91872597Y-136768000D01*
X91887098Y-129906665D01*
X94069000Y-129906665D01*
X94069000Y-130189335D01*
X94124147Y-130466574D01*
X94232320Y-130727727D01*
X94389363Y-130962759D01*
X94589241Y-131162637D01*
X94824273Y-131319680D01*
X95085426Y-131427853D01*
X95362665Y-131483000D01*
X95645335Y-131483000D01*
X95825527Y-131447157D01*
X99872820Y-135494451D01*
X99896678Y-135523522D01*
X100012708Y-135618745D01*
X100145085Y-135689502D01*
X100288722Y-135733074D01*
X100400674Y-135744100D01*
X100400676Y-135744100D01*
X100438099Y-135747786D01*
X100475522Y-135744100D01*
X108498170Y-135744100D01*
X113182420Y-140428351D01*
X113206278Y-140457422D01*
X113322308Y-140552645D01*
X113454685Y-140623402D01*
X113598322Y-140666974D01*
X113710274Y-140678000D01*
X113710276Y-140678000D01*
X113747699Y-140681686D01*
X113785122Y-140678000D01*
X152643070Y-140678000D01*
X154971416Y-143006346D01*
X154995278Y-143035422D01*
X155068919Y-143095857D01*
X155111307Y-143130645D01*
X155125775Y-143138378D01*
X155243685Y-143201402D01*
X155387322Y-143244974D01*
X155498107Y-143255885D01*
X155519068Y-143295101D01*
X155698392Y-143513608D01*
X155916899Y-143692932D01*
X156049858Y-143764000D01*
X155916899Y-143835068D01*
X155698392Y-144014392D01*
X155519068Y-144232899D01*
X155385818Y-144482192D01*
X155303764Y-144752691D01*
X155276057Y-145034000D01*
X155303764Y-145315309D01*
X155385818Y-145585808D01*
X155519068Y-145835101D01*
X155698392Y-146053608D01*
X155916899Y-146232932D01*
X156049858Y-146304000D01*
X155916899Y-146375068D01*
X155698392Y-146554392D01*
X155519068Y-146772899D01*
X155385818Y-147022192D01*
X155303764Y-147292691D01*
X155276057Y-147574000D01*
X155303764Y-147855309D01*
X155385818Y-148125808D01*
X155519068Y-148375101D01*
X155698392Y-148593608D01*
X155916899Y-148772932D01*
X156049858Y-148844000D01*
X155916899Y-148915068D01*
X155698392Y-149094392D01*
X155519068Y-149312899D01*
X155385818Y-149562192D01*
X155303764Y-149832691D01*
X155276057Y-150114000D01*
X155303764Y-150395309D01*
X155385818Y-150665808D01*
X155519068Y-150915101D01*
X155698392Y-151133608D01*
X155916899Y-151312932D01*
X156166192Y-151446182D01*
X156436691Y-151528236D01*
X156647508Y-151549000D01*
X156788492Y-151549000D01*
X156999309Y-151528236D01*
X157269808Y-151446182D01*
X157519101Y-151312932D01*
X157737608Y-151133608D01*
X157916932Y-150915101D01*
X158050182Y-150665808D01*
X158132236Y-150395309D01*
X158159943Y-150114000D01*
X158132236Y-149832691D01*
X158050182Y-149562192D01*
X157916932Y-149312899D01*
X157737608Y-149094392D01*
X157519101Y-148915068D01*
X157386142Y-148844000D01*
X157519101Y-148772932D01*
X157737608Y-148593608D01*
X157916932Y-148375101D01*
X158050182Y-148125808D01*
X158132236Y-147855309D01*
X158159943Y-147574000D01*
X158132236Y-147292691D01*
X158050182Y-147022192D01*
X157916932Y-146772899D01*
X157737608Y-146554392D01*
X157519101Y-146375068D01*
X157386142Y-146304000D01*
X157519101Y-146232932D01*
X157737608Y-146053608D01*
X157916932Y-145835101D01*
X158050182Y-145585808D01*
X158132236Y-145315309D01*
X158159943Y-145034000D01*
X158132236Y-144752691D01*
X158050182Y-144482192D01*
X157916932Y-144232899D01*
X157737608Y-144014392D01*
X157519101Y-143835068D01*
X157386142Y-143764000D01*
X157519101Y-143692932D01*
X157737608Y-143513608D01*
X157916932Y-143295101D01*
X158050182Y-143045808D01*
X158132236Y-142775309D01*
X158159943Y-142494000D01*
X158132236Y-142212691D01*
X158050182Y-141942192D01*
X157916932Y-141692899D01*
X157737608Y-141474392D01*
X157519101Y-141295068D01*
X157269808Y-141161818D01*
X156999309Y-141079764D01*
X156788492Y-141059000D01*
X156647508Y-141059000D01*
X156436691Y-141079764D01*
X156166192Y-141161818D01*
X155916899Y-141295068D01*
X155698392Y-141474392D01*
X155651662Y-141531332D01*
X153523984Y-139403654D01*
X153500122Y-139374578D01*
X153384092Y-139279355D01*
X153251715Y-139208598D01*
X153108078Y-139165026D01*
X152996126Y-139154000D01*
X152996123Y-139154000D01*
X152958700Y-139150314D01*
X152921277Y-139154000D01*
X135554560Y-139154000D01*
X135601502Y-139066180D01*
X135637812Y-138946482D01*
X135650072Y-138822000D01*
X135647000Y-138207750D01*
X135488250Y-138049000D01*
X134239000Y-138049000D01*
X134239000Y-138069000D01*
X133985000Y-138069000D01*
X133985000Y-138049000D01*
X132735750Y-138049000D01*
X132577000Y-138207750D01*
X132573928Y-138822000D01*
X132586188Y-138946482D01*
X132622498Y-139066180D01*
X132669440Y-139154000D01*
X129712560Y-139154000D01*
X129759502Y-139066180D01*
X129795812Y-138946482D01*
X129808072Y-138822000D01*
X129805000Y-138207750D01*
X129646250Y-138049000D01*
X128397000Y-138049000D01*
X128397000Y-138069000D01*
X128143000Y-138069000D01*
X128143000Y-138049000D01*
X126893750Y-138049000D01*
X126735000Y-138207750D01*
X126731928Y-138822000D01*
X126744188Y-138946482D01*
X126780498Y-139066180D01*
X126827440Y-139154000D01*
X123870560Y-139154000D01*
X123917502Y-139066180D01*
X123953812Y-138946482D01*
X123966072Y-138822000D01*
X123963000Y-138207750D01*
X123804250Y-138049000D01*
X122555000Y-138049000D01*
X122555000Y-138069000D01*
X122301000Y-138069000D01*
X122301000Y-138049000D01*
X121051750Y-138049000D01*
X120893000Y-138207750D01*
X120889928Y-138822000D01*
X120902188Y-138946482D01*
X120938498Y-139066180D01*
X120985440Y-139154000D01*
X118028560Y-139154000D01*
X118075502Y-139066180D01*
X118111812Y-138946482D01*
X118124072Y-138822000D01*
X118121000Y-138207750D01*
X117962250Y-138049000D01*
X116713000Y-138049000D01*
X116713000Y-138069000D01*
X116459000Y-138069000D01*
X116459000Y-138049000D01*
X115209750Y-138049000D01*
X115051000Y-138207750D01*
X115047928Y-138822000D01*
X115060188Y-138946482D01*
X115096498Y-139066180D01*
X115143440Y-139154000D01*
X114063331Y-139154000D01*
X109379084Y-134469754D01*
X109355222Y-134440678D01*
X109239192Y-134345455D01*
X109106815Y-134274698D01*
X108963178Y-134231126D01*
X108851226Y-134220100D01*
X108851223Y-134220100D01*
X108813800Y-134216414D01*
X108776377Y-134220100D01*
X100753731Y-134220100D01*
X97574333Y-131040702D01*
X99690903Y-131040702D01*
X99762486Y-131284671D01*
X100017996Y-131405571D01*
X100292184Y-131474300D01*
X100574512Y-131488217D01*
X100854130Y-131446787D01*
X101120292Y-131351603D01*
X101245514Y-131284671D01*
X101317097Y-131040702D01*
X100504000Y-130227605D01*
X99690903Y-131040702D01*
X97574333Y-131040702D01*
X96903157Y-130369527D01*
X96939000Y-130189335D01*
X96939000Y-130118512D01*
X99063783Y-130118512D01*
X99105213Y-130398130D01*
X99200397Y-130664292D01*
X99267329Y-130789514D01*
X99511298Y-130861097D01*
X100324395Y-130048000D01*
X100683605Y-130048000D01*
X101496702Y-130861097D01*
X101740671Y-130789514D01*
X101861571Y-130534004D01*
X101891484Y-130414665D01*
X103721000Y-130414665D01*
X103721000Y-130697335D01*
X103776147Y-130974574D01*
X103884320Y-131235727D01*
X104041363Y-131470759D01*
X104241241Y-131670637D01*
X104476273Y-131827680D01*
X104737426Y-131935853D01*
X105014665Y-131991000D01*
X105297335Y-131991000D01*
X105574574Y-131935853D01*
X105835727Y-131827680D01*
X106070759Y-131670637D01*
X106192694Y-131548702D01*
X109342903Y-131548702D01*
X109414486Y-131792671D01*
X109669996Y-131913571D01*
X109944184Y-131982300D01*
X110226512Y-131996217D01*
X110506130Y-131954787D01*
X110772292Y-131859603D01*
X110897514Y-131792671D01*
X110969097Y-131548702D01*
X110156000Y-130735605D01*
X109342903Y-131548702D01*
X106192694Y-131548702D01*
X106270637Y-131470759D01*
X106427680Y-131235727D01*
X106535853Y-130974574D01*
X106591000Y-130697335D01*
X106591000Y-130626512D01*
X108715783Y-130626512D01*
X108757213Y-130906130D01*
X108852397Y-131172292D01*
X108919329Y-131297514D01*
X109163298Y-131369097D01*
X109976395Y-130556000D01*
X110335605Y-130556000D01*
X111148702Y-131369097D01*
X111392671Y-131297514D01*
X111513571Y-131042004D01*
X111582300Y-130767816D01*
X111596217Y-130485488D01*
X111554787Y-130205870D01*
X111459603Y-129939708D01*
X111392671Y-129814486D01*
X111148702Y-129742903D01*
X110335605Y-130556000D01*
X109976395Y-130556000D01*
X109163298Y-129742903D01*
X108919329Y-129814486D01*
X108798429Y-130069996D01*
X108729700Y-130344184D01*
X108715783Y-130626512D01*
X106591000Y-130626512D01*
X106591000Y-130414665D01*
X106535853Y-130137426D01*
X106427680Y-129876273D01*
X106270637Y-129641241D01*
X106192694Y-129563298D01*
X109342903Y-129563298D01*
X110156000Y-130376395D01*
X110969097Y-129563298D01*
X110897514Y-129319329D01*
X110642004Y-129198429D01*
X110367816Y-129129700D01*
X110085488Y-129115783D01*
X109805870Y-129157213D01*
X109539708Y-129252397D01*
X109414486Y-129319329D01*
X109342903Y-129563298D01*
X106192694Y-129563298D01*
X106070759Y-129441363D01*
X105835727Y-129284320D01*
X105574574Y-129176147D01*
X105297335Y-129121000D01*
X105014665Y-129121000D01*
X104737426Y-129176147D01*
X104476273Y-129284320D01*
X104241241Y-129441363D01*
X104041363Y-129641241D01*
X103884320Y-129876273D01*
X103776147Y-130137426D01*
X103721000Y-130414665D01*
X101891484Y-130414665D01*
X101930300Y-130259816D01*
X101944217Y-129977488D01*
X101902787Y-129697870D01*
X101807603Y-129431708D01*
X101740671Y-129306486D01*
X101496702Y-129234903D01*
X100683605Y-130048000D01*
X100324395Y-130048000D01*
X99511298Y-129234903D01*
X99267329Y-129306486D01*
X99146429Y-129561996D01*
X99077700Y-129836184D01*
X99063783Y-130118512D01*
X96939000Y-130118512D01*
X96939000Y-129906665D01*
X96883853Y-129629426D01*
X96775680Y-129368273D01*
X96618637Y-129133241D01*
X96540694Y-129055298D01*
X99690903Y-129055298D01*
X100504000Y-129868395D01*
X101317097Y-129055298D01*
X101245514Y-128811329D01*
X100990004Y-128690429D01*
X100715816Y-128621700D01*
X100433488Y-128607783D01*
X100153870Y-128649213D01*
X99887708Y-128744397D01*
X99762486Y-128811329D01*
X99690903Y-129055298D01*
X96540694Y-129055298D01*
X96418759Y-128933363D01*
X96183727Y-128776320D01*
X95922574Y-128668147D01*
X95645335Y-128613000D01*
X95362665Y-128613000D01*
X95085426Y-128668147D01*
X94824273Y-128776320D01*
X94589241Y-128933363D01*
X94389363Y-129133241D01*
X94232320Y-129368273D01*
X94124147Y-129629426D01*
X94069000Y-129906665D01*
X91887098Y-129906665D01*
X91903406Y-122190000D01*
X98993428Y-122190000D01*
X98993428Y-124190000D01*
X99005688Y-124314482D01*
X99041998Y-124434180D01*
X99100963Y-124544494D01*
X99180315Y-124641185D01*
X99277006Y-124720537D01*
X99387320Y-124779502D01*
X99507018Y-124815812D01*
X99631500Y-124828072D01*
X101536500Y-124828072D01*
X101660982Y-124815812D01*
X101780680Y-124779502D01*
X101890994Y-124720537D01*
X101987685Y-124641185D01*
X102067037Y-124544494D01*
X102116059Y-124452781D01*
X102257077Y-124565969D01*
X102532906Y-124709571D01*
X102751020Y-124780563D01*
X102997000Y-124660594D01*
X102997000Y-123317000D01*
X102977000Y-123317000D01*
X102977000Y-123063000D01*
X102997000Y-123063000D01*
X102997000Y-121719406D01*
X103251000Y-121719406D01*
X103251000Y-123063000D01*
X103271000Y-123063000D01*
X103271000Y-123317000D01*
X103251000Y-123317000D01*
X103251000Y-124660594D01*
X103496980Y-124780563D01*
X103715094Y-124709571D01*
X103990923Y-124565969D01*
X104233437Y-124371315D01*
X104388837Y-124186101D01*
X104536037Y-124365463D01*
X104777766Y-124563845D01*
X105053552Y-124711255D01*
X105352797Y-124802030D01*
X105664000Y-124832681D01*
X105975204Y-124802030D01*
X106274449Y-124711255D01*
X106550235Y-124563845D01*
X106791963Y-124365463D01*
X106990345Y-124123734D01*
X107137755Y-123847948D01*
X107228530Y-123548703D01*
X107251500Y-123315485D01*
X107251500Y-123064514D01*
X107228530Y-122831296D01*
X107137755Y-122532051D01*
X106990345Y-122256265D01*
X106791963Y-122014537D01*
X106550234Y-121816155D01*
X106274448Y-121668745D01*
X105975203Y-121577970D01*
X105664000Y-121547319D01*
X105352796Y-121577970D01*
X105053551Y-121668745D01*
X104777765Y-121816155D01*
X104536037Y-122014537D01*
X104388838Y-122193900D01*
X104233437Y-122008685D01*
X103990923Y-121814031D01*
X103715094Y-121670429D01*
X103496980Y-121599437D01*
X103251000Y-121719406D01*
X102997000Y-121719406D01*
X102751020Y-121599437D01*
X102532906Y-121670429D01*
X102257077Y-121814031D01*
X102116059Y-121927219D01*
X102067037Y-121835506D01*
X101987685Y-121738815D01*
X101890994Y-121659463D01*
X101780680Y-121600498D01*
X101660982Y-121564188D01*
X101536500Y-121551928D01*
X99631500Y-121551928D01*
X99507018Y-121564188D01*
X99387320Y-121600498D01*
X99277006Y-121659463D01*
X99180315Y-121738815D01*
X99100963Y-121835506D01*
X99041998Y-121945820D01*
X99005688Y-122065518D01*
X98993428Y-122190000D01*
X91903406Y-122190000D01*
X91923839Y-112522000D01*
X98226541Y-112522000D01*
X98252317Y-112783706D01*
X98328653Y-113035354D01*
X98452618Y-113267275D01*
X98619445Y-113470555D01*
X98822725Y-113637382D01*
X99054646Y-113761347D01*
X99306294Y-113837683D01*
X99502421Y-113857000D01*
X99633579Y-113857000D01*
X99829706Y-113837683D01*
X100081354Y-113761347D01*
X100313275Y-113637382D01*
X100516555Y-113470555D01*
X100683382Y-113267275D01*
X100807347Y-113035354D01*
X100883683Y-112783706D01*
X100909459Y-112522000D01*
X100896509Y-112390514D01*
X105853000Y-112390514D01*
X105853000Y-112653486D01*
X105904304Y-112911405D01*
X106004939Y-113154359D01*
X106151038Y-113373013D01*
X106336987Y-113558962D01*
X106555641Y-113705061D01*
X106798595Y-113805696D01*
X107056514Y-113857000D01*
X107319486Y-113857000D01*
X107577405Y-113805696D01*
X107820359Y-113705061D01*
X108039013Y-113558962D01*
X108224962Y-113373013D01*
X108371061Y-113154359D01*
X108471696Y-112911405D01*
X108523000Y-112653486D01*
X108523000Y-112390514D01*
X108471696Y-112132595D01*
X108371061Y-111889641D01*
X108224962Y-111670987D01*
X108039013Y-111485038D01*
X107820359Y-111338939D01*
X107577405Y-111238304D01*
X107319486Y-111187000D01*
X107056514Y-111187000D01*
X106798595Y-111238304D01*
X106555641Y-111338939D01*
X106336987Y-111485038D01*
X106151038Y-111670987D01*
X106004939Y-111889641D01*
X105904304Y-112132595D01*
X105853000Y-112390514D01*
X100896509Y-112390514D01*
X100883683Y-112260294D01*
X100807347Y-112008646D01*
X100683382Y-111776725D01*
X100516555Y-111573445D01*
X100313275Y-111406618D01*
X100081354Y-111282653D01*
X99829706Y-111206317D01*
X99633579Y-111187000D01*
X99502421Y-111187000D01*
X99306294Y-111206317D01*
X99054646Y-111282653D01*
X98822725Y-111406618D01*
X98619445Y-111573445D01*
X98452618Y-111776725D01*
X98328653Y-112008646D01*
X98252317Y-112260294D01*
X98226541Y-112522000D01*
X91923839Y-112522000D01*
X91947502Y-101325600D01*
X98830314Y-101325600D01*
X98834000Y-101363024D01*
X98834001Y-102405767D01*
X98830314Y-102443200D01*
X98845027Y-102592578D01*
X98888599Y-102736215D01*
X98959355Y-102868592D01*
X99030721Y-102955551D01*
X99054579Y-102984622D01*
X99083649Y-103008479D01*
X104244920Y-108169751D01*
X104268778Y-108198822D01*
X104384808Y-108294045D01*
X104517185Y-108364802D01*
X104660822Y-108408374D01*
X104772774Y-108419400D01*
X104772776Y-108419400D01*
X104810199Y-108423086D01*
X104847622Y-108419400D01*
X124089989Y-108419400D01*
X124012487Y-108674889D01*
X123983815Y-108966000D01*
X124012487Y-109257111D01*
X124078280Y-109474000D01*
X116804072Y-109474000D01*
X116804072Y-109386000D01*
X116791812Y-109261518D01*
X116755502Y-109141820D01*
X116696537Y-109031506D01*
X116617185Y-108934815D01*
X116520494Y-108855463D01*
X116410180Y-108796498D01*
X116290482Y-108760188D01*
X116166000Y-108747928D01*
X114466000Y-108747928D01*
X114341518Y-108760188D01*
X114221820Y-108796498D01*
X114111506Y-108855463D01*
X114014815Y-108934815D01*
X113935463Y-109031506D01*
X113876498Y-109141820D01*
X113840188Y-109261518D01*
X113827928Y-109386000D01*
X113827928Y-111086000D01*
X113840188Y-111210482D01*
X113876498Y-111330180D01*
X113935463Y-111440494D01*
X114014815Y-111537185D01*
X114111506Y-111616537D01*
X114221820Y-111675502D01*
X114290687Y-111696393D01*
X114260866Y-111720866D01*
X114075294Y-111946986D01*
X113937401Y-112204966D01*
X113852487Y-112484889D01*
X113823815Y-112776000D01*
X113852487Y-113067111D01*
X113937401Y-113347034D01*
X114075294Y-113605014D01*
X114260866Y-113831134D01*
X114486986Y-114016706D01*
X114541791Y-114046000D01*
X114486986Y-114075294D01*
X114260866Y-114260866D01*
X114075294Y-114486986D01*
X113937401Y-114744966D01*
X113852487Y-115024889D01*
X113823815Y-115316000D01*
X113852487Y-115607111D01*
X113937401Y-115887034D01*
X114075294Y-116145014D01*
X114260866Y-116371134D01*
X114486986Y-116556706D01*
X114744966Y-116694599D01*
X115024889Y-116779513D01*
X115243050Y-116801000D01*
X115388950Y-116801000D01*
X115607111Y-116779513D01*
X115887034Y-116694599D01*
X116145014Y-116556706D01*
X116371134Y-116371134D01*
X116440401Y-116286731D01*
X121062020Y-120908351D01*
X121085878Y-120937422D01*
X121114948Y-120961279D01*
X121201907Y-121032645D01*
X121247806Y-121057178D01*
X121334285Y-121103402D01*
X121477922Y-121146974D01*
X121589874Y-121158000D01*
X121589877Y-121158000D01*
X121627300Y-121161686D01*
X121664723Y-121158000D01*
X124078280Y-121158000D01*
X124012487Y-121374889D01*
X123983815Y-121666000D01*
X124012487Y-121957111D01*
X124097401Y-122237034D01*
X124235294Y-122495014D01*
X124420866Y-122721134D01*
X124646986Y-122906706D01*
X124701791Y-122936000D01*
X124646986Y-122965294D01*
X124420866Y-123150866D01*
X124235294Y-123376986D01*
X124097401Y-123634966D01*
X124012487Y-123914889D01*
X123983815Y-124206000D01*
X124012487Y-124497111D01*
X124097401Y-124777034D01*
X124235294Y-125035014D01*
X124420866Y-125261134D01*
X124646986Y-125446706D01*
X124904966Y-125584599D01*
X125184889Y-125669513D01*
X125403050Y-125691000D01*
X125548950Y-125691000D01*
X125767111Y-125669513D01*
X126047034Y-125584599D01*
X126305014Y-125446706D01*
X126531134Y-125261134D01*
X126600401Y-125176731D01*
X128847716Y-127424046D01*
X128871578Y-127453122D01*
X128945219Y-127513557D01*
X128987607Y-127548345D01*
X129058364Y-127586165D01*
X129119985Y-127619102D01*
X129263622Y-127662674D01*
X129375574Y-127673700D01*
X129375577Y-127673700D01*
X129413000Y-127677386D01*
X129450423Y-127673700D01*
X150780270Y-127673700D01*
X147187170Y-131266800D01*
X119976526Y-131266800D01*
X119939100Y-131263114D01*
X119901675Y-131266800D01*
X119901674Y-131266800D01*
X119789722Y-131277826D01*
X119646085Y-131321398D01*
X119513708Y-131392155D01*
X119397678Y-131487378D01*
X119373363Y-131517006D01*
X116992570Y-133897799D01*
X116737184Y-133847000D01*
X116434816Y-133847000D01*
X116138257Y-133905989D01*
X115858905Y-134021701D01*
X115607495Y-134189688D01*
X115393688Y-134403495D01*
X115225701Y-134654905D01*
X115109989Y-134934257D01*
X115051000Y-135230816D01*
X115051000Y-135533184D01*
X115109989Y-135829743D01*
X115225701Y-136109095D01*
X115393688Y-136360505D01*
X115460127Y-136426944D01*
X115441820Y-136432498D01*
X115331506Y-136491463D01*
X115234815Y-136570815D01*
X115155463Y-136667506D01*
X115096498Y-136777820D01*
X115060188Y-136897518D01*
X115047928Y-137022000D01*
X115051000Y-137636250D01*
X115209750Y-137795000D01*
X116459000Y-137795000D01*
X116459000Y-137775000D01*
X116713000Y-137775000D01*
X116713000Y-137795000D01*
X117962250Y-137795000D01*
X118121000Y-137636250D01*
X118124072Y-137022000D01*
X118111812Y-136897518D01*
X118075502Y-136777820D01*
X118016537Y-136667506D01*
X117937185Y-136570815D01*
X117840494Y-136491463D01*
X117730180Y-136432498D01*
X117711873Y-136426944D01*
X117778312Y-136360505D01*
X117946299Y-136109095D01*
X118062011Y-135829743D01*
X118121000Y-135533184D01*
X118121000Y-135230816D01*
X118070201Y-134975430D01*
X120254831Y-132790800D01*
X146382170Y-132790800D01*
X146315170Y-132857800D01*
X124227622Y-132857800D01*
X124190199Y-132854114D01*
X124152776Y-132857800D01*
X124152774Y-132857800D01*
X124040822Y-132868826D01*
X123897185Y-132912398D01*
X123764808Y-132983155D01*
X123648778Y-133078378D01*
X123624921Y-133107448D01*
X122834570Y-133897799D01*
X122579184Y-133847000D01*
X122276816Y-133847000D01*
X121980257Y-133905989D01*
X121700905Y-134021701D01*
X121449495Y-134189688D01*
X121235688Y-134403495D01*
X121067701Y-134654905D01*
X120951989Y-134934257D01*
X120893000Y-135230816D01*
X120893000Y-135533184D01*
X120951989Y-135829743D01*
X121067701Y-136109095D01*
X121235688Y-136360505D01*
X121302127Y-136426944D01*
X121283820Y-136432498D01*
X121173506Y-136491463D01*
X121076815Y-136570815D01*
X120997463Y-136667506D01*
X120938498Y-136777820D01*
X120902188Y-136897518D01*
X120889928Y-137022000D01*
X120893000Y-137636250D01*
X121051750Y-137795000D01*
X122301000Y-137795000D01*
X122301000Y-137775000D01*
X122555000Y-137775000D01*
X122555000Y-137795000D01*
X123804250Y-137795000D01*
X123963000Y-137636250D01*
X123966072Y-137022000D01*
X123953812Y-136897518D01*
X123917502Y-136777820D01*
X123858537Y-136667506D01*
X123779185Y-136570815D01*
X123682494Y-136491463D01*
X123572180Y-136432498D01*
X123553873Y-136426944D01*
X123620312Y-136360505D01*
X123788299Y-136109095D01*
X123904011Y-135829743D01*
X123963000Y-135533184D01*
X123963000Y-135230816D01*
X123912201Y-134975430D01*
X124505831Y-134381800D01*
X127099383Y-134381800D01*
X127077688Y-134403495D01*
X126909701Y-134654905D01*
X126793989Y-134934257D01*
X126735000Y-135230816D01*
X126735000Y-135533184D01*
X126793989Y-135829743D01*
X126909701Y-136109095D01*
X127077688Y-136360505D01*
X127144127Y-136426944D01*
X127125820Y-136432498D01*
X127015506Y-136491463D01*
X126918815Y-136570815D01*
X126839463Y-136667506D01*
X126780498Y-136777820D01*
X126744188Y-136897518D01*
X126731928Y-137022000D01*
X126735000Y-137636250D01*
X126893750Y-137795000D01*
X128143000Y-137795000D01*
X128143000Y-137775000D01*
X128397000Y-137775000D01*
X128397000Y-137795000D01*
X129646250Y-137795000D01*
X129805000Y-137636250D01*
X129808072Y-137022000D01*
X129795812Y-136897518D01*
X129759502Y-136777820D01*
X129700537Y-136667506D01*
X129621185Y-136570815D01*
X129524494Y-136491463D01*
X129414180Y-136432498D01*
X129395873Y-136426944D01*
X129462312Y-136360505D01*
X129630299Y-136109095D01*
X129746011Y-135829743D01*
X129805000Y-135533184D01*
X129805000Y-135230816D01*
X129746011Y-134934257D01*
X129630299Y-134654905D01*
X129462312Y-134403495D01*
X129440617Y-134381800D01*
X132941383Y-134381800D01*
X132919688Y-134403495D01*
X132751701Y-134654905D01*
X132635989Y-134934257D01*
X132577000Y-135230816D01*
X132577000Y-135533184D01*
X132635989Y-135829743D01*
X132751701Y-136109095D01*
X132919688Y-136360505D01*
X132986127Y-136426944D01*
X132967820Y-136432498D01*
X132857506Y-136491463D01*
X132760815Y-136570815D01*
X132681463Y-136667506D01*
X132622498Y-136777820D01*
X132586188Y-136897518D01*
X132573928Y-137022000D01*
X132577000Y-137636250D01*
X132735750Y-137795000D01*
X133985000Y-137795000D01*
X133985000Y-137775000D01*
X134239000Y-137775000D01*
X134239000Y-137795000D01*
X135488250Y-137795000D01*
X135647000Y-137636250D01*
X135650072Y-137022000D01*
X135637812Y-136897518D01*
X135601502Y-136777820D01*
X135542537Y-136667506D01*
X135463185Y-136570815D01*
X135377891Y-136500816D01*
X168137000Y-136500816D01*
X168137000Y-136803184D01*
X168195989Y-137099743D01*
X168311701Y-137379095D01*
X168479688Y-137630505D01*
X168693495Y-137844312D01*
X168944905Y-138012299D01*
X169224257Y-138128011D01*
X169520816Y-138187000D01*
X169823184Y-138187000D01*
X170119743Y-138128011D01*
X170399095Y-138012299D01*
X170650505Y-137844312D01*
X170864312Y-137630505D01*
X170942000Y-137514237D01*
X171019688Y-137630505D01*
X171233495Y-137844312D01*
X171484905Y-138012299D01*
X171764257Y-138128011D01*
X172060816Y-138187000D01*
X172363184Y-138187000D01*
X172659743Y-138128011D01*
X172939095Y-138012299D01*
X173190505Y-137844312D01*
X173318737Y-137716080D01*
X173867525Y-137716080D01*
X173951208Y-137970261D01*
X174223775Y-138101158D01*
X174516642Y-138176365D01*
X174818553Y-138192991D01*
X175117907Y-138150397D01*
X175403199Y-138050222D01*
X175552792Y-137970261D01*
X175636475Y-137716080D01*
X174752000Y-136831605D01*
X173867525Y-137716080D01*
X173318737Y-137716080D01*
X173404312Y-137630505D01*
X173506951Y-137476895D01*
X173687920Y-137536475D01*
X174572395Y-136652000D01*
X174931605Y-136652000D01*
X175816080Y-137536475D01*
X176070261Y-137452792D01*
X176201158Y-137180225D01*
X176276365Y-136887358D01*
X176292991Y-136585447D01*
X176250397Y-136286093D01*
X176150222Y-136000801D01*
X176070261Y-135851208D01*
X175816080Y-135767525D01*
X174931605Y-136652000D01*
X174572395Y-136652000D01*
X173687920Y-135767525D01*
X173506951Y-135827105D01*
X173404312Y-135673495D01*
X173318737Y-135587920D01*
X173867525Y-135587920D01*
X174752000Y-136472395D01*
X175636475Y-135587920D01*
X175552792Y-135333739D01*
X175280225Y-135202842D01*
X174987358Y-135127635D01*
X174685447Y-135111009D01*
X174386093Y-135153603D01*
X174100801Y-135253778D01*
X173951208Y-135333739D01*
X173867525Y-135587920D01*
X173318737Y-135587920D01*
X173190505Y-135459688D01*
X172939095Y-135291701D01*
X172659743Y-135175989D01*
X172363184Y-135117000D01*
X172060816Y-135117000D01*
X171764257Y-135175989D01*
X171484905Y-135291701D01*
X171233495Y-135459688D01*
X171019688Y-135673495D01*
X170942000Y-135789763D01*
X170864312Y-135673495D01*
X170650505Y-135459688D01*
X170399095Y-135291701D01*
X170119743Y-135175989D01*
X169823184Y-135117000D01*
X169520816Y-135117000D01*
X169224257Y-135175989D01*
X168944905Y-135291701D01*
X168693495Y-135459688D01*
X168479688Y-135673495D01*
X168311701Y-135924905D01*
X168195989Y-136204257D01*
X168137000Y-136500816D01*
X135377891Y-136500816D01*
X135366494Y-136491463D01*
X135256180Y-136432498D01*
X135237873Y-136426944D01*
X135304312Y-136360505D01*
X135472299Y-136109095D01*
X135588011Y-135829743D01*
X135647000Y-135533184D01*
X135647000Y-135230816D01*
X135588011Y-134934257D01*
X135472299Y-134654905D01*
X135304312Y-134403495D01*
X135282617Y-134381800D01*
X146593377Y-134381800D01*
X146630800Y-134385486D01*
X146668223Y-134381800D01*
X146668226Y-134381800D01*
X146780178Y-134370774D01*
X146923815Y-134327202D01*
X147056192Y-134256445D01*
X147172222Y-134161222D01*
X147196084Y-134132146D01*
X156854653Y-124473578D01*
X156883722Y-124449722D01*
X156978945Y-124333692D01*
X157007928Y-124279469D01*
X157007928Y-124802000D01*
X157020188Y-124926482D01*
X157056498Y-125046180D01*
X157115463Y-125156494D01*
X157194815Y-125253185D01*
X157291506Y-125332537D01*
X157401820Y-125391502D01*
X157521518Y-125427812D01*
X157646000Y-125440072D01*
X159346000Y-125440072D01*
X159470482Y-125427812D01*
X159590180Y-125391502D01*
X159700494Y-125332537D01*
X159797185Y-125253185D01*
X159876537Y-125156494D01*
X159935502Y-125046180D01*
X159956393Y-124977313D01*
X159980866Y-125007134D01*
X160206986Y-125192706D01*
X160464966Y-125330599D01*
X160744889Y-125415513D01*
X160963050Y-125437000D01*
X161108950Y-125437000D01*
X161327111Y-125415513D01*
X161607034Y-125330599D01*
X161865014Y-125192706D01*
X162091134Y-125007134D01*
X162276706Y-124781014D01*
X162306000Y-124726209D01*
X162335294Y-124781014D01*
X162520866Y-125007134D01*
X162746986Y-125192706D01*
X163004966Y-125330599D01*
X163284889Y-125415513D01*
X163503050Y-125437000D01*
X163648950Y-125437000D01*
X163867111Y-125415513D01*
X164147034Y-125330599D01*
X164405014Y-125192706D01*
X164631134Y-125007134D01*
X164816706Y-124781014D01*
X164954599Y-124523034D01*
X165039513Y-124243111D01*
X165068185Y-123952000D01*
X165039513Y-123660889D01*
X164954599Y-123380966D01*
X164816706Y-123122986D01*
X164631134Y-122896866D01*
X164405014Y-122711294D01*
X164147034Y-122573401D01*
X163867111Y-122488487D01*
X163648950Y-122467000D01*
X163503050Y-122467000D01*
X163306690Y-122486340D01*
X163349030Y-122444000D01*
X170827928Y-122444000D01*
X170827928Y-124444000D01*
X170840188Y-124568482D01*
X170876498Y-124688180D01*
X170935463Y-124798494D01*
X171014815Y-124895185D01*
X171111506Y-124974537D01*
X171221820Y-125033502D01*
X171341518Y-125069812D01*
X171466000Y-125082072D01*
X173466000Y-125082072D01*
X173590482Y-125069812D01*
X173710180Y-125033502D01*
X173820494Y-124974537D01*
X173917185Y-124895185D01*
X173996537Y-124798494D01*
X174055502Y-124688180D01*
X174088496Y-124579413D01*
X179110192Y-124579413D01*
X179205956Y-124843814D01*
X179495571Y-124984704D01*
X179807108Y-125066384D01*
X180128595Y-125085718D01*
X180447675Y-125041961D01*
X180752088Y-124936795D01*
X180926044Y-124843814D01*
X181021808Y-124579413D01*
X180066000Y-123623605D01*
X179110192Y-124579413D01*
X174088496Y-124579413D01*
X174091812Y-124568482D01*
X174104072Y-124444000D01*
X174104072Y-123506595D01*
X178424282Y-123506595D01*
X178468039Y-123825675D01*
X178573205Y-124130088D01*
X178666186Y-124304044D01*
X178930587Y-124399808D01*
X179886395Y-123444000D01*
X180245605Y-123444000D01*
X181201413Y-124399808D01*
X181465814Y-124304044D01*
X181606704Y-124014429D01*
X181688384Y-123702892D01*
X181707718Y-123381405D01*
X181663961Y-123062325D01*
X181558795Y-122757912D01*
X181465814Y-122583956D01*
X181201413Y-122488192D01*
X180245605Y-123444000D01*
X179886395Y-123444000D01*
X178930587Y-122488192D01*
X178666186Y-122583956D01*
X178525296Y-122873571D01*
X178443616Y-123185108D01*
X178424282Y-123506595D01*
X174104072Y-123506595D01*
X174104072Y-122444000D01*
X174091812Y-122319518D01*
X174088497Y-122308587D01*
X179110192Y-122308587D01*
X180066000Y-123264395D01*
X181021808Y-122308587D01*
X180926044Y-122044186D01*
X180636429Y-121903296D01*
X180324892Y-121821616D01*
X180003405Y-121802282D01*
X179684325Y-121846039D01*
X179379912Y-121951205D01*
X179205956Y-122044186D01*
X179110192Y-122308587D01*
X174088497Y-122308587D01*
X174055502Y-122199820D01*
X173996537Y-122089506D01*
X173917185Y-121992815D01*
X173820494Y-121913463D01*
X173710180Y-121854498D01*
X173590482Y-121818188D01*
X173466000Y-121805928D01*
X171466000Y-121805928D01*
X171341518Y-121818188D01*
X171221820Y-121854498D01*
X171111506Y-121913463D01*
X171014815Y-121992815D01*
X170935463Y-122089506D01*
X170876498Y-122199820D01*
X170840188Y-122319518D01*
X170827928Y-122444000D01*
X163349030Y-122444000D01*
X173277269Y-112515762D01*
X173423462Y-112418079D01*
X173470651Y-112370890D01*
X185248524Y-112370890D01*
X185293175Y-112518099D01*
X185418359Y-112780920D01*
X185592412Y-113014269D01*
X185808645Y-113209178D01*
X186058748Y-113358157D01*
X186333109Y-113455481D01*
X186563000Y-113334814D01*
X186563000Y-112141000D01*
X186817000Y-112141000D01*
X186817000Y-113334814D01*
X187046891Y-113455481D01*
X187321252Y-113358157D01*
X187571355Y-113209178D01*
X187787588Y-113014269D01*
X187961641Y-112780920D01*
X188086825Y-112518099D01*
X188131476Y-112370890D01*
X188010155Y-112141000D01*
X186817000Y-112141000D01*
X186563000Y-112141000D01*
X185369845Y-112141000D01*
X185248524Y-112370890D01*
X173470651Y-112370890D01*
X173564979Y-112276562D01*
X173676168Y-112110156D01*
X173752756Y-111925256D01*
X173791800Y-111728967D01*
X173791800Y-111528833D01*
X173787238Y-111505900D01*
X185295081Y-111505900D01*
X185293175Y-111509901D01*
X185248524Y-111657110D01*
X185369845Y-111887000D01*
X186563000Y-111887000D01*
X186563000Y-111867000D01*
X186817000Y-111867000D01*
X186817000Y-111887000D01*
X188010155Y-111887000D01*
X188131476Y-111657110D01*
X188086825Y-111509901D01*
X187961641Y-111247080D01*
X187892990Y-111155041D01*
X188435953Y-110612078D01*
X188465022Y-110588222D01*
X188560245Y-110472192D01*
X188631002Y-110339815D01*
X188674574Y-110196178D01*
X188685600Y-110084226D01*
X188685600Y-110084224D01*
X188689286Y-110046801D01*
X188685600Y-110009378D01*
X188685600Y-108974622D01*
X188689286Y-108937199D01*
X188683978Y-108883307D01*
X188674574Y-108787822D01*
X188631002Y-108644185D01*
X188560245Y-108511808D01*
X188465022Y-108395778D01*
X188435951Y-108371920D01*
X187883980Y-107819950D01*
X187930706Y-107763014D01*
X188068599Y-107505034D01*
X188153513Y-107225111D01*
X188182185Y-106934000D01*
X188153513Y-106642889D01*
X188068599Y-106362966D01*
X187930706Y-106104986D01*
X187905842Y-106074689D01*
X188504151Y-105476380D01*
X188533222Y-105452522D01*
X188628445Y-105336492D01*
X188699202Y-105204115D01*
X188742774Y-105060478D01*
X188753800Y-104948526D01*
X188753800Y-104948524D01*
X188757486Y-104911101D01*
X188753800Y-104873678D01*
X188753800Y-96367422D01*
X188757486Y-96329999D01*
X188751538Y-96269608D01*
X188742774Y-96180622D01*
X188699202Y-96036985D01*
X188628445Y-95904608D01*
X188533222Y-95788578D01*
X188504153Y-95764722D01*
X187872891Y-95133461D01*
X187930706Y-95063014D01*
X188068599Y-94805034D01*
X188153513Y-94525111D01*
X188182185Y-94234000D01*
X188153513Y-93942889D01*
X188068599Y-93662966D01*
X187930706Y-93404986D01*
X187745134Y-93178866D01*
X187519014Y-92993294D01*
X187464209Y-92964000D01*
X187519014Y-92934706D01*
X187745134Y-92749134D01*
X187930706Y-92523014D01*
X188068599Y-92265034D01*
X188153513Y-91985111D01*
X188182185Y-91694000D01*
X188153513Y-91402889D01*
X188068599Y-91122966D01*
X187930706Y-90864986D01*
X187745134Y-90638866D01*
X187519014Y-90453294D01*
X187464209Y-90424000D01*
X187519014Y-90394706D01*
X187745134Y-90209134D01*
X187930706Y-89983014D01*
X188068599Y-89725034D01*
X188153513Y-89445111D01*
X188182185Y-89154000D01*
X188153513Y-88862889D01*
X188068599Y-88582966D01*
X187930706Y-88324986D01*
X187745134Y-88098866D01*
X187519014Y-87913294D01*
X187464209Y-87884000D01*
X187519014Y-87854706D01*
X187745134Y-87669134D01*
X187930706Y-87443014D01*
X188068599Y-87185034D01*
X188153513Y-86905111D01*
X188182185Y-86614000D01*
X188153513Y-86322889D01*
X188068599Y-86042966D01*
X187930706Y-85784986D01*
X187745134Y-85558866D01*
X187519014Y-85373294D01*
X187454477Y-85338799D01*
X187571355Y-85269178D01*
X187787588Y-85074269D01*
X187961641Y-84840920D01*
X188086825Y-84578099D01*
X188131476Y-84430890D01*
X188010155Y-84201000D01*
X186817000Y-84201000D01*
X186817000Y-84221000D01*
X186563000Y-84221000D01*
X186563000Y-84201000D01*
X185369845Y-84201000D01*
X185248524Y-84430890D01*
X185293175Y-84578099D01*
X185418359Y-84840920D01*
X185592412Y-85074269D01*
X185808645Y-85269178D01*
X185925523Y-85338799D01*
X185860986Y-85373294D01*
X185634866Y-85558866D01*
X185449294Y-85784986D01*
X185413041Y-85852811D01*
X185309322Y-85863026D01*
X185165685Y-85906598D01*
X185132378Y-85924401D01*
X185033307Y-85977355D01*
X184990919Y-86012143D01*
X184917278Y-86072578D01*
X184893416Y-86101654D01*
X182533970Y-88461100D01*
X179609230Y-88461100D01*
X185565599Y-82504731D01*
X185634866Y-82589134D01*
X185860986Y-82774706D01*
X185925523Y-82809201D01*
X185808645Y-82878822D01*
X185592412Y-83073731D01*
X185418359Y-83307080D01*
X185293175Y-83569901D01*
X185248524Y-83717110D01*
X185369845Y-83947000D01*
X186563000Y-83947000D01*
X186563000Y-83927000D01*
X186817000Y-83927000D01*
X186817000Y-83947000D01*
X188010155Y-83947000D01*
X188131476Y-83717110D01*
X188086825Y-83569901D01*
X187961641Y-83307080D01*
X187787588Y-83073731D01*
X187571355Y-82878822D01*
X187454477Y-82809201D01*
X187519014Y-82774706D01*
X187745134Y-82589134D01*
X187930706Y-82363014D01*
X188068599Y-82105034D01*
X188153513Y-81825111D01*
X188182185Y-81534000D01*
X188153513Y-81242889D01*
X188068599Y-80962966D01*
X187930706Y-80704986D01*
X187745134Y-80478866D01*
X187519014Y-80293294D01*
X187464209Y-80264000D01*
X187519014Y-80234706D01*
X187745134Y-80049134D01*
X187930706Y-79823014D01*
X188068599Y-79565034D01*
X188153513Y-79285111D01*
X188182185Y-78994000D01*
X188153513Y-78702889D01*
X188068599Y-78422966D01*
X187930706Y-78164986D01*
X187745134Y-77938866D01*
X187519014Y-77753294D01*
X187464209Y-77724000D01*
X187519014Y-77694706D01*
X187745134Y-77509134D01*
X187930706Y-77283014D01*
X188068599Y-77025034D01*
X188153513Y-76745111D01*
X188182185Y-76454000D01*
X188153513Y-76162889D01*
X188068599Y-75882966D01*
X187930706Y-75624986D01*
X187745134Y-75398866D01*
X187715313Y-75374393D01*
X187784180Y-75353502D01*
X187894494Y-75294537D01*
X187991185Y-75215185D01*
X188070537Y-75118494D01*
X188129502Y-75008180D01*
X188165812Y-74888482D01*
X188178072Y-74764000D01*
X188175000Y-74199750D01*
X188016250Y-74041000D01*
X186817000Y-74041000D01*
X186817000Y-74061000D01*
X186563000Y-74061000D01*
X186563000Y-74041000D01*
X186543000Y-74041000D01*
X186543000Y-73787000D01*
X186563000Y-73787000D01*
X186563000Y-72587750D01*
X186817000Y-72587750D01*
X186817000Y-73787000D01*
X188016250Y-73787000D01*
X188175000Y-73628250D01*
X188178072Y-73064000D01*
X188165812Y-72939518D01*
X188129502Y-72819820D01*
X188070537Y-72709506D01*
X187991185Y-72612815D01*
X187894494Y-72533463D01*
X187784180Y-72474498D01*
X187664482Y-72438188D01*
X187540000Y-72425928D01*
X186975750Y-72429000D01*
X186817000Y-72587750D01*
X186563000Y-72587750D01*
X186404250Y-72429000D01*
X185944628Y-72426498D01*
X184294500Y-70776370D01*
X184568574Y-70721853D01*
X184829727Y-70613680D01*
X185064759Y-70456637D01*
X185264637Y-70256759D01*
X185421680Y-70021727D01*
X185529853Y-69760574D01*
X185585000Y-69483335D01*
X185585000Y-69200665D01*
X185529853Y-68923426D01*
X185421680Y-68662273D01*
X185264637Y-68427241D01*
X185064759Y-68227363D01*
X184829727Y-68070320D01*
X184568574Y-67962147D01*
X184291335Y-67907000D01*
X184008665Y-67907000D01*
X183731426Y-67962147D01*
X183470273Y-68070320D01*
X183235241Y-68227363D01*
X183035363Y-68427241D01*
X182878320Y-68662273D01*
X182770147Y-68923426D01*
X182715630Y-69197500D01*
X180391084Y-66872954D01*
X180367222Y-66843878D01*
X180251192Y-66748655D01*
X180118815Y-66677898D01*
X179975178Y-66634326D01*
X179863226Y-66623300D01*
X179863223Y-66623300D01*
X179825800Y-66619614D01*
X179788377Y-66623300D01*
X171800030Y-66623300D01*
X171556237Y-66379507D01*
X171771014Y-66264706D01*
X171997134Y-66079134D01*
X172182706Y-65853014D01*
X172320599Y-65595034D01*
X172405513Y-65315111D01*
X172434185Y-65024000D01*
X172405513Y-64732889D01*
X172320599Y-64452966D01*
X172182706Y-64194986D01*
X171997134Y-63968866D01*
X171771014Y-63783294D01*
X171513034Y-63645401D01*
X171233111Y-63560487D01*
X171014950Y-63539000D01*
X170869050Y-63539000D01*
X170650889Y-63560487D01*
X170370966Y-63645401D01*
X170112986Y-63783294D01*
X169886866Y-63968866D01*
X169701294Y-64194986D01*
X169672000Y-64249791D01*
X169642706Y-64194986D01*
X169457134Y-63968866D01*
X169231014Y-63783294D01*
X168973034Y-63645401D01*
X168693111Y-63560487D01*
X168474950Y-63539000D01*
X168329050Y-63539000D01*
X168110889Y-63560487D01*
X167830966Y-63645401D01*
X167572986Y-63783294D01*
X167516050Y-63830020D01*
X166165684Y-62479654D01*
X166141822Y-62450578D01*
X166025792Y-62355355D01*
X165893415Y-62284598D01*
X165749778Y-62241026D01*
X165637826Y-62230000D01*
X165637823Y-62230000D01*
X165600400Y-62226314D01*
X165562977Y-62230000D01*
X147180072Y-62230000D01*
X147180072Y-62039500D01*
X147173819Y-61976000D01*
X178898057Y-61976000D01*
X178925764Y-62257309D01*
X179007818Y-62527808D01*
X179141068Y-62777101D01*
X179320392Y-62995608D01*
X179538899Y-63174932D01*
X179788192Y-63308182D01*
X180058691Y-63390236D01*
X180269508Y-63411000D01*
X180410492Y-63411000D01*
X180621309Y-63390236D01*
X180891808Y-63308182D01*
X181141101Y-63174932D01*
X181359608Y-62995608D01*
X181538932Y-62777101D01*
X181672182Y-62527808D01*
X181754236Y-62257309D01*
X181772582Y-62071040D01*
X182758091Y-62071040D01*
X182852930Y-62335881D01*
X182997615Y-62577131D01*
X183186586Y-62785519D01*
X183412580Y-62953037D01*
X183666913Y-63073246D01*
X183800961Y-63113904D01*
X184023000Y-62991915D01*
X184023000Y-61849000D01*
X184277000Y-61849000D01*
X184277000Y-62991915D01*
X184499039Y-63113904D01*
X184633087Y-63073246D01*
X184887420Y-62953037D01*
X185113414Y-62785519D01*
X185302385Y-62577131D01*
X185447070Y-62335881D01*
X185541909Y-62071040D01*
X185420624Y-61849000D01*
X184277000Y-61849000D01*
X184023000Y-61849000D01*
X182879376Y-61849000D01*
X182758091Y-62071040D01*
X181772582Y-62071040D01*
X181781943Y-61976000D01*
X181754236Y-61694691D01*
X181672182Y-61424192D01*
X181644798Y-61372960D01*
X182758091Y-61372960D01*
X182879376Y-61595000D01*
X184023000Y-61595000D01*
X184023000Y-60452085D01*
X184277000Y-60452085D01*
X184277000Y-61595000D01*
X185420624Y-61595000D01*
X185541909Y-61372960D01*
X185447070Y-61108119D01*
X185302385Y-60866869D01*
X185113414Y-60658481D01*
X184887420Y-60490963D01*
X184633087Y-60370754D01*
X184499039Y-60330096D01*
X184277000Y-60452085D01*
X184023000Y-60452085D01*
X183800961Y-60330096D01*
X183666913Y-60370754D01*
X183412580Y-60490963D01*
X183186586Y-60658481D01*
X182997615Y-60866869D01*
X182852930Y-61108119D01*
X182758091Y-61372960D01*
X181644798Y-61372960D01*
X181538932Y-61174899D01*
X181359608Y-60956392D01*
X181141101Y-60777068D01*
X180891808Y-60643818D01*
X180621309Y-60561764D01*
X180410492Y-60541000D01*
X180269508Y-60541000D01*
X180058691Y-60561764D01*
X179788192Y-60643818D01*
X179538899Y-60777068D01*
X179320392Y-60956392D01*
X179141068Y-61174899D01*
X179007818Y-61424192D01*
X178925764Y-61694691D01*
X178898057Y-61976000D01*
X147173819Y-61976000D01*
X147167812Y-61915018D01*
X147131502Y-61795320D01*
X147072537Y-61685006D01*
X146993185Y-61588315D01*
X146896494Y-61508963D01*
X146786180Y-61449998D01*
X146666482Y-61413688D01*
X146542000Y-61401428D01*
X144542000Y-61401428D01*
X144417518Y-61413688D01*
X144297820Y-61449998D01*
X144187506Y-61508963D01*
X144090815Y-61588315D01*
X144011463Y-61685006D01*
X143952498Y-61795320D01*
X143916188Y-61915018D01*
X143903928Y-62039500D01*
X143903928Y-62230000D01*
X141164931Y-62230000D01*
X139668584Y-60733654D01*
X139644722Y-60704578D01*
X139528692Y-60609355D01*
X139396315Y-60538598D01*
X139360072Y-60527604D01*
X139360072Y-60446000D01*
X139347812Y-60321518D01*
X139311502Y-60201820D01*
X139252537Y-60091506D01*
X139173185Y-59994815D01*
X139076494Y-59915463D01*
X138966180Y-59856498D01*
X138846482Y-59820188D01*
X138722000Y-59807928D01*
X137122000Y-59807928D01*
X136997518Y-59820188D01*
X136877820Y-59856498D01*
X136767506Y-59915463D01*
X136670815Y-59994815D01*
X136591463Y-60091506D01*
X136532498Y-60201820D01*
X136496188Y-60321518D01*
X136483928Y-60446000D01*
X136483928Y-62046000D01*
X136496188Y-62170482D01*
X136532498Y-62290180D01*
X136591463Y-62400494D01*
X136670815Y-62497185D01*
X136683758Y-62507807D01*
X136564429Y-62759996D01*
X136495700Y-63034184D01*
X136481783Y-63316512D01*
X136523213Y-63596130D01*
X136618397Y-63862292D01*
X136685329Y-63987514D01*
X136929298Y-64059097D01*
X137742395Y-63246000D01*
X137728253Y-63231858D01*
X137907858Y-63052253D01*
X137922000Y-63066395D01*
X137936143Y-63052253D01*
X138115748Y-63231858D01*
X138101605Y-63246000D01*
X138914702Y-64059097D01*
X139158671Y-63987514D01*
X139279571Y-63732004D01*
X139348300Y-63457816D01*
X139362217Y-63175488D01*
X139320787Y-62895870D01*
X139225603Y-62629708D01*
X139160384Y-62507691D01*
X139173185Y-62497185D01*
X139219914Y-62440245D01*
X140284020Y-63504351D01*
X140307878Y-63533422D01*
X140336948Y-63557279D01*
X140423907Y-63628645D01*
X140455256Y-63645401D01*
X140556285Y-63699402D01*
X140699922Y-63742974D01*
X140811874Y-63754000D01*
X140811877Y-63754000D01*
X140849300Y-63757686D01*
X140886723Y-63754000D01*
X143903928Y-63754000D01*
X143903928Y-63944500D01*
X143916188Y-64068982D01*
X143952498Y-64188680D01*
X144011463Y-64298994D01*
X144090815Y-64395685D01*
X144187506Y-64475037D01*
X144279219Y-64524059D01*
X144166031Y-64665077D01*
X144022429Y-64940906D01*
X143951437Y-65159020D01*
X144071406Y-65405000D01*
X145415000Y-65405000D01*
X145415000Y-65385000D01*
X145669000Y-65385000D01*
X145669000Y-65405000D01*
X147012594Y-65405000D01*
X147132563Y-65159020D01*
X147061571Y-64940906D01*
X146917969Y-64665077D01*
X146804781Y-64524059D01*
X146896494Y-64475037D01*
X146993185Y-64395685D01*
X147072537Y-64298994D01*
X147131502Y-64188680D01*
X147167812Y-64068982D01*
X147180072Y-63944500D01*
X147180072Y-63754000D01*
X156915222Y-63754000D01*
X156861463Y-63819506D01*
X156802498Y-63929820D01*
X156766188Y-64049518D01*
X156753928Y-64174000D01*
X156753928Y-65874000D01*
X156766188Y-65998482D01*
X156802498Y-66118180D01*
X156861463Y-66228494D01*
X156940815Y-66325185D01*
X157037506Y-66404537D01*
X157147820Y-66463502D01*
X157267518Y-66499812D01*
X157392000Y-66512072D01*
X159092000Y-66512072D01*
X159216482Y-66499812D01*
X159336180Y-66463502D01*
X159446494Y-66404537D01*
X159543185Y-66325185D01*
X159622537Y-66228494D01*
X159681502Y-66118180D01*
X159702393Y-66049313D01*
X159726866Y-66079134D01*
X159952986Y-66264706D01*
X160210966Y-66402599D01*
X160490889Y-66487513D01*
X160709050Y-66509000D01*
X160854950Y-66509000D01*
X161073111Y-66487513D01*
X161353034Y-66402599D01*
X161611014Y-66264706D01*
X161667950Y-66217980D01*
X165558320Y-70108351D01*
X165582178Y-70137422D01*
X165611248Y-70161279D01*
X165698207Y-70232645D01*
X165743322Y-70256759D01*
X165830585Y-70303402D01*
X165974222Y-70346974D01*
X166086174Y-70358000D01*
X166086176Y-70358000D01*
X166123599Y-70361686D01*
X166161022Y-70358000D01*
X179123293Y-70358000D01*
X179225363Y-70510759D01*
X179425241Y-70710637D01*
X179660273Y-70867680D01*
X179921426Y-70975853D01*
X180198665Y-71031000D01*
X180481335Y-71031000D01*
X180758574Y-70975853D01*
X181019727Y-70867680D01*
X181254759Y-70710637D01*
X181454637Y-70510759D01*
X181611680Y-70275727D01*
X181619564Y-70256694D01*
X184696701Y-73333831D01*
X184696700Y-74954476D01*
X184693014Y-74991900D01*
X184696700Y-75029323D01*
X184696700Y-75029325D01*
X184707726Y-75141277D01*
X184751298Y-75284914D01*
X184751299Y-75284915D01*
X184822055Y-75417292D01*
X184861683Y-75465578D01*
X184917278Y-75533322D01*
X184946354Y-75557184D01*
X185124216Y-75735046D01*
X185148078Y-75764122D01*
X185264108Y-75859345D01*
X185310968Y-75884392D01*
X185226487Y-76162889D01*
X185197815Y-76454000D01*
X185226487Y-76745111D01*
X185311401Y-77025034D01*
X185449294Y-77283014D01*
X185634866Y-77509134D01*
X185860986Y-77694706D01*
X185915791Y-77724000D01*
X185860986Y-77753294D01*
X185634866Y-77938866D01*
X185449294Y-78164986D01*
X185311401Y-78422966D01*
X185226487Y-78702889D01*
X185197815Y-78994000D01*
X185226487Y-79285111D01*
X185311401Y-79565034D01*
X185449294Y-79823014D01*
X185634866Y-80049134D01*
X185860986Y-80234706D01*
X185915791Y-80264000D01*
X185860986Y-80293294D01*
X185634866Y-80478866D01*
X185449294Y-80704986D01*
X185413041Y-80772811D01*
X185309322Y-80783026D01*
X185165685Y-80826598D01*
X185131441Y-80844902D01*
X185033307Y-80897355D01*
X184999916Y-80924759D01*
X184917278Y-80992578D01*
X184893416Y-81021654D01*
X178325670Y-87589400D01*
X178025533Y-87589400D01*
X178116182Y-87419808D01*
X178198236Y-87149309D01*
X178225943Y-86868000D01*
X178198236Y-86586691D01*
X178116182Y-86316192D01*
X177982932Y-86066899D01*
X177803608Y-85848392D01*
X177585101Y-85669068D01*
X177335808Y-85535818D01*
X177065309Y-85453764D01*
X176854492Y-85433000D01*
X176713508Y-85433000D01*
X176502691Y-85453764D01*
X176232192Y-85535818D01*
X175982899Y-85669068D01*
X175764392Y-85848392D01*
X175585068Y-86066899D01*
X175451818Y-86316192D01*
X175369764Y-86586691D01*
X175342057Y-86868000D01*
X175369764Y-87149309D01*
X175451818Y-87419808D01*
X175542467Y-87589400D01*
X170407835Y-87589400D01*
X170435680Y-87547727D01*
X170543853Y-87286574D01*
X170599000Y-87009335D01*
X170599000Y-86726665D01*
X170543853Y-86449426D01*
X170435680Y-86188273D01*
X170278637Y-85953241D01*
X170078759Y-85753363D01*
X169868534Y-85612896D01*
X170877252Y-84604179D01*
X170906322Y-84580322D01*
X170940897Y-84538192D01*
X171001545Y-84464293D01*
X171045211Y-84382598D01*
X171072302Y-84331915D01*
X171115874Y-84188278D01*
X171126900Y-84076326D01*
X171126900Y-84076323D01*
X171130586Y-84038900D01*
X171126900Y-84001477D01*
X171126900Y-83566000D01*
X175342057Y-83566000D01*
X175369764Y-83847309D01*
X175451818Y-84117808D01*
X175585068Y-84367101D01*
X175764392Y-84585608D01*
X175982899Y-84764932D01*
X176232192Y-84898182D01*
X176502691Y-84980236D01*
X176713508Y-85001000D01*
X176854492Y-85001000D01*
X177065309Y-84980236D01*
X177335808Y-84898182D01*
X177585101Y-84764932D01*
X177803608Y-84585608D01*
X177982932Y-84367101D01*
X178116182Y-84117808D01*
X178198236Y-83847309D01*
X178225943Y-83566000D01*
X178198236Y-83284691D01*
X178116182Y-83014192D01*
X177982932Y-82764899D01*
X177803608Y-82546392D01*
X177585101Y-82367068D01*
X177335808Y-82233818D01*
X177065309Y-82151764D01*
X176854492Y-82131000D01*
X176713508Y-82131000D01*
X176502691Y-82151764D01*
X176232192Y-82233818D01*
X175982899Y-82367068D01*
X175764392Y-82546392D01*
X175585068Y-82764899D01*
X175451818Y-83014192D01*
X175369764Y-83284691D01*
X175342057Y-83566000D01*
X171126900Y-83566000D01*
X171126900Y-83081422D01*
X171130586Y-83043999D01*
X171126900Y-83006574D01*
X171115874Y-82894622D01*
X171072302Y-82750985D01*
X171001545Y-82618608D01*
X170906322Y-82502578D01*
X170877253Y-82478722D01*
X169728104Y-81329573D01*
X169843727Y-81281680D01*
X170078759Y-81124637D01*
X170278637Y-80924759D01*
X170435680Y-80689727D01*
X170543853Y-80428574D01*
X170557684Y-80359039D01*
X175392096Y-80359039D01*
X175432754Y-80493087D01*
X175552963Y-80747420D01*
X175720481Y-80973414D01*
X175928869Y-81162385D01*
X176170119Y-81307070D01*
X176434960Y-81401909D01*
X176657000Y-81280624D01*
X176657000Y-80137000D01*
X176911000Y-80137000D01*
X176911000Y-81280624D01*
X177133040Y-81401909D01*
X177397881Y-81307070D01*
X177639131Y-81162385D01*
X177847519Y-80973414D01*
X178015037Y-80747420D01*
X178135246Y-80493087D01*
X178175904Y-80359039D01*
X178053915Y-80137000D01*
X176911000Y-80137000D01*
X176657000Y-80137000D01*
X175514085Y-80137000D01*
X175392096Y-80359039D01*
X170557684Y-80359039D01*
X170599000Y-80151335D01*
X170599000Y-79868665D01*
X170557685Y-79660961D01*
X175392096Y-79660961D01*
X175514085Y-79883000D01*
X176657000Y-79883000D01*
X176657000Y-78739376D01*
X176911000Y-78739376D01*
X176911000Y-79883000D01*
X178053915Y-79883000D01*
X178175904Y-79660961D01*
X178135246Y-79526913D01*
X178015037Y-79272580D01*
X177847519Y-79046586D01*
X177639131Y-78857615D01*
X177397881Y-78712930D01*
X177133040Y-78618091D01*
X176911000Y-78739376D01*
X176657000Y-78739376D01*
X176434960Y-78618091D01*
X176170119Y-78712930D01*
X175928869Y-78857615D01*
X175720481Y-79046586D01*
X175552963Y-79272580D01*
X175432754Y-79526913D01*
X175392096Y-79660961D01*
X170557685Y-79660961D01*
X170543853Y-79591426D01*
X170435680Y-79330273D01*
X170278637Y-79095241D01*
X170078759Y-78895363D01*
X169843727Y-78738320D01*
X169582574Y-78630147D01*
X169305335Y-78575000D01*
X169022665Y-78575000D01*
X168745426Y-78630147D01*
X168484273Y-78738320D01*
X168249241Y-78895363D01*
X168049363Y-79095241D01*
X167892320Y-79330273D01*
X167844427Y-79445897D01*
X165356184Y-76957654D01*
X165332322Y-76928578D01*
X165216292Y-76833355D01*
X165083915Y-76762598D01*
X164940278Y-76719026D01*
X164828326Y-76708000D01*
X164828323Y-76708000D01*
X164790900Y-76704314D01*
X164753477Y-76708000D01*
X163286072Y-76708000D01*
X163286072Y-76620000D01*
X163273812Y-76495518D01*
X163237502Y-76375820D01*
X163203745Y-76312665D01*
X167729000Y-76312665D01*
X167729000Y-76595335D01*
X167784147Y-76872574D01*
X167892320Y-77133727D01*
X168049363Y-77368759D01*
X168249241Y-77568637D01*
X168484273Y-77725680D01*
X168745426Y-77833853D01*
X169022665Y-77889000D01*
X169305335Y-77889000D01*
X169582574Y-77833853D01*
X169843727Y-77725680D01*
X170078759Y-77568637D01*
X170278637Y-77368759D01*
X170435680Y-77133727D01*
X170543853Y-76872574D01*
X170557684Y-76803039D01*
X175392096Y-76803039D01*
X175432754Y-76937087D01*
X175552963Y-77191420D01*
X175720481Y-77417414D01*
X175928869Y-77606385D01*
X176170119Y-77751070D01*
X176434960Y-77845909D01*
X176657000Y-77724624D01*
X176657000Y-76581000D01*
X176911000Y-76581000D01*
X176911000Y-77724624D01*
X177133040Y-77845909D01*
X177397881Y-77751070D01*
X177639131Y-77606385D01*
X177847519Y-77417414D01*
X178015037Y-77191420D01*
X178135246Y-76937087D01*
X178175904Y-76803039D01*
X178053915Y-76581000D01*
X176911000Y-76581000D01*
X176657000Y-76581000D01*
X175514085Y-76581000D01*
X175392096Y-76803039D01*
X170557684Y-76803039D01*
X170599000Y-76595335D01*
X170599000Y-76312665D01*
X170557685Y-76104961D01*
X175392096Y-76104961D01*
X175514085Y-76327000D01*
X176657000Y-76327000D01*
X176657000Y-75183376D01*
X176911000Y-75183376D01*
X176911000Y-76327000D01*
X178053915Y-76327000D01*
X178175904Y-76104961D01*
X178135246Y-75970913D01*
X178015037Y-75716580D01*
X177847519Y-75490586D01*
X177639131Y-75301615D01*
X177397881Y-75156930D01*
X177133040Y-75062091D01*
X176911000Y-75183376D01*
X176657000Y-75183376D01*
X176434960Y-75062091D01*
X176170119Y-75156930D01*
X175928869Y-75301615D01*
X175720481Y-75490586D01*
X175552963Y-75716580D01*
X175432754Y-75970913D01*
X175392096Y-76104961D01*
X170557685Y-76104961D01*
X170543853Y-76035426D01*
X170435680Y-75774273D01*
X170278637Y-75539241D01*
X170078759Y-75339363D01*
X169843727Y-75182320D01*
X169582574Y-75074147D01*
X169305335Y-75019000D01*
X169022665Y-75019000D01*
X168745426Y-75074147D01*
X168484273Y-75182320D01*
X168249241Y-75339363D01*
X168049363Y-75539241D01*
X167892320Y-75774273D01*
X167784147Y-76035426D01*
X167729000Y-76312665D01*
X163203745Y-76312665D01*
X163178537Y-76265506D01*
X163099185Y-76168815D01*
X163002494Y-76089463D01*
X162892180Y-76030498D01*
X162772482Y-75994188D01*
X162648000Y-75981928D01*
X160948000Y-75981928D01*
X160823518Y-75994188D01*
X160703820Y-76030498D01*
X160593506Y-76089463D01*
X160496815Y-76168815D01*
X160427548Y-76253217D01*
X156074684Y-71900354D01*
X156050822Y-71871278D01*
X155934792Y-71776055D01*
X155802415Y-71705298D01*
X155658778Y-71661726D01*
X155546826Y-71650700D01*
X155546823Y-71650700D01*
X155509400Y-71647014D01*
X155471977Y-71650700D01*
X138918307Y-71650700D01*
X138914704Y-71647097D01*
X139158671Y-71575514D01*
X139279571Y-71320004D01*
X139348300Y-71045816D01*
X139362217Y-70763488D01*
X139320787Y-70483870D01*
X139225603Y-70217708D01*
X139160384Y-70095691D01*
X139173185Y-70085185D01*
X139252537Y-69988494D01*
X139311502Y-69878180D01*
X139347812Y-69758482D01*
X139360072Y-69634000D01*
X139360072Y-69552396D01*
X139396315Y-69541402D01*
X139528692Y-69470645D01*
X139644722Y-69375422D01*
X139668584Y-69346347D01*
X140180931Y-68834000D01*
X144101750Y-68834000D01*
X144168155Y-68958235D01*
X144366537Y-69199963D01*
X144608265Y-69398345D01*
X144884051Y-69545755D01*
X145183296Y-69636530D01*
X145416514Y-69659500D01*
X145667486Y-69659500D01*
X145900704Y-69636530D01*
X146199949Y-69545755D01*
X146475735Y-69398345D01*
X146717463Y-69199963D01*
X146915845Y-68958235D01*
X147063255Y-68682449D01*
X147154030Y-68383204D01*
X147184681Y-68072000D01*
X147154030Y-67760796D01*
X147063255Y-67461551D01*
X146915845Y-67185765D01*
X146717463Y-66944037D01*
X146538101Y-66796837D01*
X146723315Y-66641437D01*
X146917969Y-66398923D01*
X147061571Y-66123094D01*
X147132563Y-65904980D01*
X147012594Y-65659000D01*
X145669000Y-65659000D01*
X145669000Y-65679000D01*
X145415000Y-65679000D01*
X145415000Y-65659000D01*
X144071406Y-65659000D01*
X143951437Y-65904980D01*
X144022429Y-66123094D01*
X144166031Y-66398923D01*
X144360685Y-66641437D01*
X144545899Y-66796837D01*
X144366537Y-66944037D01*
X144168155Y-67185765D01*
X144101750Y-67310000D01*
X139902723Y-67310000D01*
X139865300Y-67306314D01*
X139827877Y-67310000D01*
X139827874Y-67310000D01*
X139715922Y-67321026D01*
X139572285Y-67364598D01*
X139513671Y-67395928D01*
X139439907Y-67435355D01*
X139383810Y-67481393D01*
X139323878Y-67530578D01*
X139300020Y-67559649D01*
X139219914Y-67639755D01*
X139173185Y-67582815D01*
X139076494Y-67503463D01*
X138966180Y-67444498D01*
X138846482Y-67408188D01*
X138722000Y-67395928D01*
X137122000Y-67395928D01*
X136997518Y-67408188D01*
X136877820Y-67444498D01*
X136767506Y-67503463D01*
X136670815Y-67582815D01*
X136591463Y-67679506D01*
X136532498Y-67789820D01*
X136496188Y-67909518D01*
X136483928Y-68034000D01*
X136483928Y-69634000D01*
X136496188Y-69758482D01*
X136532498Y-69878180D01*
X136591463Y-69988494D01*
X136670815Y-70085185D01*
X136683758Y-70095807D01*
X136564429Y-70347996D01*
X136495700Y-70622184D01*
X136481783Y-70904512D01*
X136523213Y-71184130D01*
X136618397Y-71450292D01*
X136685329Y-71575514D01*
X136929296Y-71647097D01*
X136925693Y-71650700D01*
X132970731Y-71650700D01*
X125558733Y-64238702D01*
X137108903Y-64238702D01*
X137180486Y-64482671D01*
X137435996Y-64603571D01*
X137710184Y-64672300D01*
X137992512Y-64686217D01*
X138272130Y-64644787D01*
X138538292Y-64549603D01*
X138663514Y-64482671D01*
X138735097Y-64238702D01*
X137922000Y-63425605D01*
X137108903Y-64238702D01*
X125558733Y-64238702D01*
X125323684Y-64003654D01*
X125299822Y-63974578D01*
X125183792Y-63879355D01*
X125051415Y-63808598D01*
X124907778Y-63765026D01*
X124795826Y-63754000D01*
X124795823Y-63754000D01*
X124758400Y-63750314D01*
X124720977Y-63754000D01*
X123599005Y-63754000D01*
X123513120Y-63625465D01*
X123318535Y-63430880D01*
X123089727Y-63277995D01*
X122835490Y-63172686D01*
X122565592Y-63119000D01*
X122290408Y-63119000D01*
X122020510Y-63172686D01*
X121766273Y-63277995D01*
X121537465Y-63430880D01*
X121342880Y-63625465D01*
X121189995Y-63854273D01*
X121158000Y-63931515D01*
X121126005Y-63854273D01*
X120973120Y-63625465D01*
X120778535Y-63430880D01*
X120549727Y-63277995D01*
X120295490Y-63172686D01*
X120025592Y-63119000D01*
X119750408Y-63119000D01*
X119480510Y-63172686D01*
X119226273Y-63277995D01*
X118997465Y-63430880D01*
X118802880Y-63625465D01*
X118649995Y-63854273D01*
X118544686Y-64108510D01*
X118491000Y-64378408D01*
X118491000Y-64653592D01*
X118544686Y-64923490D01*
X118649995Y-65177727D01*
X118802880Y-65406535D01*
X118997465Y-65601120D01*
X119226273Y-65754005D01*
X119303515Y-65786000D01*
X119226273Y-65817995D01*
X118997465Y-65970880D01*
X118802880Y-66165465D01*
X118649995Y-66394273D01*
X118544686Y-66648510D01*
X118491000Y-66918408D01*
X118491000Y-67193592D01*
X118544686Y-67463490D01*
X118649995Y-67717727D01*
X118798336Y-67939734D01*
X118225153Y-68512916D01*
X118196078Y-68536778D01*
X118157036Y-68584352D01*
X118100855Y-68652808D01*
X118072710Y-68705465D01*
X118030098Y-68785186D01*
X117986526Y-68928823D01*
X117976490Y-69030721D01*
X117971814Y-69078200D01*
X117975500Y-69115623D01*
X117975501Y-72640067D01*
X117971814Y-72677500D01*
X117986527Y-72826878D01*
X118030099Y-72970515D01*
X118100855Y-73102892D01*
X118150737Y-73163673D01*
X118196079Y-73218922D01*
X118225149Y-73242779D01*
X119133721Y-74151351D01*
X119157578Y-74180422D01*
X119273608Y-74275645D01*
X119388889Y-74337264D01*
X119403413Y-74345027D01*
X119405985Y-74346402D01*
X119549622Y-74389974D01*
X119661574Y-74401000D01*
X119661576Y-74401000D01*
X119698999Y-74404686D01*
X119736422Y-74401000D01*
X127396370Y-74401000D01*
X132159120Y-79163751D01*
X132182978Y-79192822D01*
X132250213Y-79248000D01*
X129562931Y-79248000D01*
X127272584Y-76957654D01*
X127248722Y-76928578D01*
X127132692Y-76833355D01*
X127000315Y-76762598D01*
X126964072Y-76751604D01*
X126964072Y-76620000D01*
X126951812Y-76495518D01*
X126915502Y-76375820D01*
X126856537Y-76265506D01*
X126777185Y-76168815D01*
X126680494Y-76089463D01*
X126570180Y-76030498D01*
X126450482Y-75994188D01*
X126326000Y-75981928D01*
X124626000Y-75981928D01*
X124501518Y-75994188D01*
X124381820Y-76030498D01*
X124271506Y-76089463D01*
X124174815Y-76168815D01*
X124095463Y-76265506D01*
X124036498Y-76375820D01*
X124000188Y-76495518D01*
X123987928Y-76620000D01*
X123987928Y-76708000D01*
X108710722Y-76708000D01*
X108673299Y-76704314D01*
X108635876Y-76708000D01*
X108635874Y-76708000D01*
X108523922Y-76719026D01*
X108380285Y-76762598D01*
X108247908Y-76833355D01*
X108131878Y-76928578D01*
X108108021Y-76957648D01*
X102208452Y-82857218D01*
X102139185Y-82772815D01*
X102042494Y-82693463D01*
X101932180Y-82634498D01*
X101812482Y-82598188D01*
X101688000Y-82585928D01*
X99988000Y-82585928D01*
X99863518Y-82598188D01*
X99743820Y-82634498D01*
X99633506Y-82693463D01*
X99536815Y-82772815D01*
X99457463Y-82869506D01*
X99398498Y-82979820D01*
X99362188Y-83099518D01*
X99349928Y-83224000D01*
X99349928Y-84924000D01*
X99362188Y-85048482D01*
X99398498Y-85168180D01*
X99457463Y-85278494D01*
X99536815Y-85375185D01*
X99633506Y-85454537D01*
X99743820Y-85513502D01*
X99812687Y-85534393D01*
X99782866Y-85558866D01*
X99597294Y-85784986D01*
X99459401Y-86042966D01*
X99374487Y-86322889D01*
X99345815Y-86614000D01*
X99374487Y-86905111D01*
X99459401Y-87185034D01*
X99597294Y-87443014D01*
X99782866Y-87669134D01*
X100008986Y-87854706D01*
X100063791Y-87884000D01*
X100008986Y-87913294D01*
X99782866Y-88098866D01*
X99597294Y-88324986D01*
X99459401Y-88582966D01*
X99374487Y-88862889D01*
X99345815Y-89154000D01*
X99374487Y-89445111D01*
X99459401Y-89725034D01*
X99597294Y-89983014D01*
X99782866Y-90209134D01*
X100008986Y-90394706D01*
X100063791Y-90424000D01*
X100008986Y-90453294D01*
X99782866Y-90638866D01*
X99597294Y-90864986D01*
X99459401Y-91122966D01*
X99374487Y-91402889D01*
X99345815Y-91694000D01*
X99374487Y-91985111D01*
X99459401Y-92265034D01*
X99597294Y-92523014D01*
X99782866Y-92749134D01*
X100008986Y-92934706D01*
X100063791Y-92964000D01*
X100008986Y-92993294D01*
X99782866Y-93178866D01*
X99597294Y-93404986D01*
X99459401Y-93662966D01*
X99374487Y-93942889D01*
X99345815Y-94234000D01*
X99374487Y-94525111D01*
X99459401Y-94805034D01*
X99597294Y-95063014D01*
X99782866Y-95289134D01*
X100008986Y-95474706D01*
X100063791Y-95504000D01*
X100008986Y-95533294D01*
X99782866Y-95718866D01*
X99597294Y-95944986D01*
X99459401Y-96202966D01*
X99374487Y-96482889D01*
X99345815Y-96774000D01*
X99374487Y-97065111D01*
X99459401Y-97345034D01*
X99597294Y-97603014D01*
X99782866Y-97829134D01*
X100008986Y-98014706D01*
X100063791Y-98044000D01*
X100008986Y-98073294D01*
X99782866Y-98258866D01*
X99597294Y-98484986D01*
X99459401Y-98742966D01*
X99374487Y-99022889D01*
X99345815Y-99314000D01*
X99374487Y-99605111D01*
X99459401Y-99885034D01*
X99597294Y-100143014D01*
X99644020Y-100199949D01*
X99083653Y-100760316D01*
X99054578Y-100784178D01*
X98998983Y-100851922D01*
X98959355Y-100900208D01*
X98925603Y-100963355D01*
X98888598Y-101032586D01*
X98845026Y-101176223D01*
X98837494Y-101252702D01*
X98830314Y-101325600D01*
X91947502Y-101325600D01*
X92035430Y-59722298D01*
X92282987Y-59093502D01*
X92672453Y-58462644D01*
X93167471Y-57910735D01*
X93752407Y-57455204D01*
X94408763Y-57110456D01*
X95115799Y-56887387D01*
X95865461Y-56791213D01*
X96231727Y-56793777D01*
X96234471Y-56794044D01*
X188382077Y-56669721D01*
X188953328Y-56883659D01*
X188953328Y-56883659D01*
G37*
X188953328Y-56883659D02*
X189519159Y-57233553D01*
X190006249Y-57686682D01*
X190396054Y-58225800D01*
X190673719Y-58830358D01*
X190828668Y-59477330D01*
X190856143Y-60170850D01*
X190344044Y-150298997D01*
X190240138Y-151180708D01*
X190001049Y-152018859D01*
X189631037Y-152807992D01*
X189139612Y-153527825D01*
X188539425Y-154159825D01*
X187845910Y-154687739D01*
X187076915Y-155097980D01*
X186252219Y-155379997D01*
X185381291Y-155528537D01*
X184897441Y-155549997D01*
X95353966Y-155528596D01*
X94635039Y-155047409D01*
X93876695Y-154367108D01*
X93221769Y-153586738D01*
X92683334Y-152721880D01*
X92272129Y-151789780D01*
X91996360Y-150809035D01*
X91891810Y-150026000D01*
X116113928Y-150026000D01*
X116113928Y-151726000D01*
X116126188Y-151850482D01*
X116162498Y-151970180D01*
X116221463Y-152080494D01*
X116300815Y-152177185D01*
X116397506Y-152256537D01*
X116507820Y-152315502D01*
X116627518Y-152351812D01*
X116752000Y-152364072D01*
X118452000Y-152364072D01*
X118576482Y-152351812D01*
X118696180Y-152315502D01*
X118806494Y-152256537D01*
X118903185Y-152177185D01*
X118982537Y-152080494D01*
X119041502Y-151970180D01*
X119062393Y-151901313D01*
X119086866Y-151931134D01*
X119312986Y-152116706D01*
X119570966Y-152254599D01*
X119850889Y-152339513D01*
X120069050Y-152361000D01*
X120214950Y-152361000D01*
X120433111Y-152339513D01*
X120713034Y-152254599D01*
X120971014Y-152116706D01*
X121197134Y-151931134D01*
X121382706Y-151705014D01*
X121417201Y-151640477D01*
X121486822Y-151757355D01*
X121681731Y-151973588D01*
X121915080Y-152147641D01*
X122177901Y-152272825D01*
X122325110Y-152317476D01*
X122555000Y-152196155D01*
X122555000Y-151003000D01*
X122535000Y-151003000D01*
X122535000Y-150749000D01*
X122555000Y-150749000D01*
X122555000Y-149555845D01*
X122809000Y-149555845D01*
X122809000Y-150749000D01*
X122829000Y-150749000D01*
X122829000Y-151003000D01*
X122809000Y-151003000D01*
X122809000Y-152196155D01*
X123038890Y-152317476D01*
X123186099Y-152272825D01*
X123448920Y-152147641D01*
X123682269Y-151973588D01*
X123877178Y-151757355D01*
X123946799Y-151640477D01*
X123981294Y-151705014D01*
X124166866Y-151931134D01*
X124392986Y-152116706D01*
X124650966Y-152254599D01*
X124930889Y-152339513D01*
X125149050Y-152361000D01*
X125294950Y-152361000D01*
X125513111Y-152339513D01*
X125793034Y-152254599D01*
X126051014Y-152116706D01*
X126277134Y-151931134D01*
X126462706Y-151705014D01*
X126492000Y-151650209D01*
X126521294Y-151705014D01*
X126706866Y-151931134D01*
X126932986Y-152116706D01*
X127190966Y-152254599D01*
X127470889Y-152339513D01*
X127689050Y-152361000D01*
X127834950Y-152361000D01*
X128053111Y-152339513D01*
X128333034Y-152254599D01*
X128591014Y-152116706D01*
X128817134Y-151931134D01*
X129002706Y-151705014D01*
X129032000Y-151650209D01*
X129061294Y-151705014D01*
X129246866Y-151931134D01*
X129472986Y-152116706D01*
X129730966Y-152254599D01*
X130010889Y-152339513D01*
X130229050Y-152361000D01*
X130374950Y-152361000D01*
X130593111Y-152339513D01*
X130873034Y-152254599D01*
X131131014Y-152116706D01*
X131357134Y-151931134D01*
X131542706Y-151705014D01*
X131680599Y-151447034D01*
X131765513Y-151167111D01*
X131794185Y-150876000D01*
X131765513Y-150584889D01*
X131680599Y-150304966D01*
X131542706Y-150046986D01*
X131357134Y-149820866D01*
X131131014Y-149635294D01*
X130873034Y-149497401D01*
X130593111Y-149412487D01*
X130374950Y-149391000D01*
X130229050Y-149391000D01*
X130010889Y-149412487D01*
X129730966Y-149497401D01*
X129472986Y-149635294D01*
X129246866Y-149820866D01*
X129061294Y-150046986D01*
X129032000Y-150101791D01*
X129002706Y-150046986D01*
X128817134Y-149820866D01*
X128591014Y-149635294D01*
X128333034Y-149497401D01*
X128053111Y-149412487D01*
X127834950Y-149391000D01*
X127689050Y-149391000D01*
X127470889Y-149412487D01*
X127190966Y-149497401D01*
X126932986Y-149635294D01*
X126706866Y-149820866D01*
X126521294Y-150046986D01*
X126492000Y-150101791D01*
X126462706Y-150046986D01*
X126277134Y-149820866D01*
X126051014Y-149635294D01*
X125793034Y-149497401D01*
X125513111Y-149412487D01*
X125294950Y-149391000D01*
X125149050Y-149391000D01*
X124930889Y-149412487D01*
X124650966Y-149497401D01*
X124392986Y-149635294D01*
X124166866Y-149820866D01*
X123981294Y-150046986D01*
X123946799Y-150111523D01*
X123877178Y-149994645D01*
X123682269Y-149778412D01*
X123448920Y-149604359D01*
X123186099Y-149479175D01*
X123038890Y-149434524D01*
X122809000Y-149555845D01*
X122555000Y-149555845D01*
X122325110Y-149434524D01*
X122177901Y-149479175D01*
X121915080Y-149604359D01*
X121681731Y-149778412D01*
X121486822Y-149994645D01*
X121417201Y-150111523D01*
X121382706Y-150046986D01*
X121197134Y-149820866D01*
X120971014Y-149635294D01*
X120713034Y-149497401D01*
X120433111Y-149412487D01*
X120214950Y-149391000D01*
X120069050Y-149391000D01*
X119850889Y-149412487D01*
X119570966Y-149497401D01*
X119312986Y-149635294D01*
X119086866Y-149820866D01*
X119062393Y-149850687D01*
X119041502Y-149781820D01*
X118982537Y-149671506D01*
X118903185Y-149574815D01*
X118806494Y-149495463D01*
X118696180Y-149436498D01*
X118576482Y-149400188D01*
X118452000Y-149387928D01*
X116752000Y-149387928D01*
X116627518Y-149400188D01*
X116507820Y-149436498D01*
X116397506Y-149495463D01*
X116300815Y-149574815D01*
X116221463Y-149671506D01*
X116162498Y-149781820D01*
X116126188Y-149901518D01*
X116113928Y-150026000D01*
X91891810Y-150026000D01*
X91859792Y-149786207D01*
X91846022Y-149342471D01*
X91857666Y-143832740D01*
X97230964Y-143832740D01*
X97255245Y-143938087D01*
X97375138Y-144215204D01*
X97546790Y-144463606D01*
X97763604Y-144673748D01*
X98017249Y-144837554D01*
X98297977Y-144948729D01*
X98595000Y-145003000D01*
X99695000Y-145003000D01*
X99695000Y-143595000D01*
X99949000Y-143595000D01*
X99949000Y-145003000D01*
X101049000Y-145003000D01*
X101346023Y-144948729D01*
X101626751Y-144837554D01*
X101880396Y-144673748D01*
X102097210Y-144463606D01*
X102268862Y-144215204D01*
X102388755Y-143938087D01*
X102413036Y-143832740D01*
X102292378Y-143595000D01*
X99949000Y-143595000D01*
X99695000Y-143595000D01*
X97351622Y-143595000D01*
X97230964Y-143832740D01*
X91857666Y-143832740D01*
X91859207Y-143103260D01*
X97230964Y-143103260D01*
X97351622Y-143341000D01*
X99695000Y-143341000D01*
X99695000Y-141933000D01*
X99949000Y-141933000D01*
X99949000Y-143341000D01*
X102292378Y-143341000D01*
X102413036Y-143103260D01*
X102388755Y-142997913D01*
X102268862Y-142720796D01*
X102097210Y-142472394D01*
X101880396Y-142262252D01*
X101626751Y-142098446D01*
X101346023Y-141987271D01*
X101049000Y-141933000D01*
X99949000Y-141933000D01*
X99695000Y-141933000D01*
X98595000Y-141933000D01*
X98297977Y-141987271D01*
X98017249Y-142098446D01*
X97763604Y-142262252D01*
X97546790Y-142472394D01*
X97375138Y-142720796D01*
X97255245Y-142997913D01*
X97230964Y-143103260D01*
X91859207Y-143103260D01*
X91864085Y-140795000D01*
X103087000Y-140795000D01*
X103087000Y-141895000D01*
X103141271Y-142192023D01*
X103252446Y-142472751D01*
X103416252Y-142726396D01*
X103626394Y-142943210D01*
X103874796Y-143114862D01*
X104151913Y-143234755D01*
X104257260Y-143259036D01*
X104495000Y-143138378D01*
X104495000Y-140795000D01*
X104749000Y-140795000D01*
X104749000Y-143138378D01*
X104986740Y-143259036D01*
X105092087Y-143234755D01*
X105369204Y-143114862D01*
X105617606Y-142943210D01*
X105827748Y-142726396D01*
X105991554Y-142472751D01*
X106102729Y-142192023D01*
X106157000Y-141895000D01*
X106157000Y-140795000D01*
X104749000Y-140795000D01*
X104495000Y-140795000D01*
X103087000Y-140795000D01*
X91864085Y-140795000D01*
X91872597Y-136768000D01*
X96983928Y-136768000D01*
X96983928Y-138568000D01*
X96996188Y-138692482D01*
X97032498Y-138812180D01*
X97091463Y-138922494D01*
X97170815Y-139019185D01*
X97267506Y-139098537D01*
X97377820Y-139157502D01*
X97497518Y-139193812D01*
X97622000Y-139206072D01*
X102022000Y-139206072D01*
X102146482Y-139193812D01*
X102266180Y-139157502D01*
X102376494Y-139098537D01*
X102473185Y-139019185D01*
X102552537Y-138922494D01*
X102611502Y-138812180D01*
X102647812Y-138692482D01*
X102660072Y-138568000D01*
X102660072Y-138430000D01*
X103590329Y-138430000D01*
X103416252Y-138609604D01*
X103252446Y-138863249D01*
X103141271Y-139143977D01*
X103087000Y-139441000D01*
X103087000Y-140541000D01*
X104495000Y-140541000D01*
X104495000Y-140521000D01*
X104749000Y-140521000D01*
X104749000Y-140541000D01*
X106157000Y-140541000D01*
X106157000Y-139441000D01*
X106102729Y-139143977D01*
X105991554Y-138863249D01*
X105827748Y-138609604D01*
X105653671Y-138430000D01*
X108468370Y-138430000D01*
X113044716Y-143006346D01*
X113068578Y-143035422D01*
X113142219Y-143095857D01*
X113184607Y-143130645D01*
X113199075Y-143138378D01*
X113316985Y-143201402D01*
X113460622Y-143244974D01*
X113572574Y-143256000D01*
X113572577Y-143256000D01*
X113610000Y-143259686D01*
X113647423Y-143256000D01*
X147659928Y-143256000D01*
X147659928Y-143294000D01*
X147672188Y-143418482D01*
X147708498Y-143538180D01*
X147767463Y-143648494D01*
X147846815Y-143745185D01*
X147943506Y-143824537D01*
X148053820Y-143883502D01*
X148173518Y-143919812D01*
X148191482Y-143921581D01*
X148078392Y-144014392D01*
X147899068Y-144232899D01*
X147765818Y-144482192D01*
X147683764Y-144752691D01*
X147656057Y-145034000D01*
X147683764Y-145315309D01*
X147765818Y-145585808D01*
X147899068Y-145835101D01*
X148078392Y-146053608D01*
X148296899Y-146232932D01*
X148429858Y-146304000D01*
X148296899Y-146375068D01*
X148078392Y-146554392D01*
X147899068Y-146772899D01*
X147765818Y-147022192D01*
X147683764Y-147292691D01*
X147656057Y-147574000D01*
X147683764Y-147855309D01*
X147765818Y-148125808D01*
X147899068Y-148375101D01*
X148078392Y-148593608D01*
X148296899Y-148772932D01*
X148429858Y-148844000D01*
X148296899Y-148915068D01*
X148078392Y-149094392D01*
X147899068Y-149312899D01*
X147765818Y-149562192D01*
X147683764Y-149832691D01*
X147656057Y-150114000D01*
X147683764Y-150395309D01*
X147765818Y-150665808D01*
X147899068Y-150915101D01*
X148078392Y-151133608D01*
X148296899Y-151312932D01*
X148546192Y-151446182D01*
X148816691Y-151528236D01*
X149027508Y-151549000D01*
X149168492Y-151549000D01*
X149379309Y-151528236D01*
X149649808Y-151446182D01*
X149899101Y-151312932D01*
X150117608Y-151133608D01*
X150296932Y-150915101D01*
X150430182Y-150665808D01*
X150512236Y-150395309D01*
X150539943Y-150114000D01*
X150512236Y-149832691D01*
X150430182Y-149562192D01*
X150296932Y-149312899D01*
X150117608Y-149094392D01*
X149899101Y-148915068D01*
X149766142Y-148844000D01*
X149899101Y-148772932D01*
X150117608Y-148593608D01*
X150296932Y-148375101D01*
X150430182Y-148125808D01*
X150512236Y-147855309D01*
X150539943Y-147574000D01*
X150512236Y-147292691D01*
X150430182Y-147022192D01*
X150296932Y-146772899D01*
X150117608Y-146554392D01*
X149899101Y-146375068D01*
X149766142Y-146304000D01*
X149899101Y-146232932D01*
X150117608Y-146053608D01*
X150296932Y-145835101D01*
X150430182Y-145585808D01*
X150512236Y-145315309D01*
X150539943Y-145034000D01*
X150512236Y-144752691D01*
X150430182Y-144482192D01*
X150296932Y-144232899D01*
X150117608Y-144014392D01*
X150004518Y-143921581D01*
X150022482Y-143919812D01*
X150142180Y-143883502D01*
X150252494Y-143824537D01*
X150349185Y-143745185D01*
X150428537Y-143648494D01*
X150487502Y-143538180D01*
X150523812Y-143418482D01*
X150536072Y-143294000D01*
X150536072Y-141694000D01*
X150523812Y-141569518D01*
X150487502Y-141449820D01*
X150428537Y-141339506D01*
X150349185Y-141242815D01*
X150252494Y-141163463D01*
X150142180Y-141104498D01*
X150022482Y-141068188D01*
X149898000Y-141055928D01*
X148298000Y-141055928D01*
X148173518Y-141068188D01*
X148053820Y-141104498D01*
X147943506Y-141163463D01*
X147846815Y-141242815D01*
X147767463Y-141339506D01*
X147708498Y-141449820D01*
X147672188Y-141569518D01*
X147659928Y-141694000D01*
X147659928Y-141732000D01*
X113925630Y-141732000D01*
X109349284Y-137155654D01*
X109325422Y-137126578D01*
X109209392Y-137031355D01*
X109077015Y-136960598D01*
X108933378Y-136917026D01*
X108821426Y-136906000D01*
X108821423Y-136906000D01*
X108784000Y-136902314D01*
X108746577Y-136906000D01*
X102660072Y-136906000D01*
X102660072Y-136768000D01*
X102647812Y-136643518D01*
X102611502Y-136523820D01*
X102552537Y-136413506D01*
X102473185Y-136316815D01*
X102376494Y-136237463D01*
X102266180Y-136178498D01*
X102146482Y-136142188D01*
X102022000Y-136129928D01*
X97622000Y-136129928D01*
X97497518Y-136142188D01*
X97377820Y-136178498D01*
X97267506Y-136237463D01*
X97170815Y-136316815D01*
X97091463Y-136413506D01*
X97032498Y-136523820D01*
X96996188Y-136643518D01*
X96983928Y-136768000D01*
X91872597Y-136768000D01*
X91887098Y-129906665D01*
X94069000Y-129906665D01*
X94069000Y-130189335D01*
X94124147Y-130466574D01*
X94232320Y-130727727D01*
X94389363Y-130962759D01*
X94589241Y-131162637D01*
X94824273Y-131319680D01*
X95085426Y-131427853D01*
X95362665Y-131483000D01*
X95645335Y-131483000D01*
X95825527Y-131447157D01*
X99872820Y-135494451D01*
X99896678Y-135523522D01*
X100012708Y-135618745D01*
X100145085Y-135689502D01*
X100288722Y-135733074D01*
X100400674Y-135744100D01*
X100400676Y-135744100D01*
X100438099Y-135747786D01*
X100475522Y-135744100D01*
X108498170Y-135744100D01*
X113182420Y-140428351D01*
X113206278Y-140457422D01*
X113322308Y-140552645D01*
X113454685Y-140623402D01*
X113598322Y-140666974D01*
X113710274Y-140678000D01*
X113710276Y-140678000D01*
X113747699Y-140681686D01*
X113785122Y-140678000D01*
X152643070Y-140678000D01*
X154971416Y-143006346D01*
X154995278Y-143035422D01*
X155068919Y-143095857D01*
X155111307Y-143130645D01*
X155125775Y-143138378D01*
X155243685Y-143201402D01*
X155387322Y-143244974D01*
X155498107Y-143255885D01*
X155519068Y-143295101D01*
X155698392Y-143513608D01*
X155916899Y-143692932D01*
X156049858Y-143764000D01*
X155916899Y-143835068D01*
X155698392Y-144014392D01*
X155519068Y-144232899D01*
X155385818Y-144482192D01*
X155303764Y-144752691D01*
X155276057Y-145034000D01*
X155303764Y-145315309D01*
X155385818Y-145585808D01*
X155519068Y-145835101D01*
X155698392Y-146053608D01*
X155916899Y-146232932D01*
X156049858Y-146304000D01*
X155916899Y-146375068D01*
X155698392Y-146554392D01*
X155519068Y-146772899D01*
X155385818Y-147022192D01*
X155303764Y-147292691D01*
X155276057Y-147574000D01*
X155303764Y-147855309D01*
X155385818Y-148125808D01*
X155519068Y-148375101D01*
X155698392Y-148593608D01*
X155916899Y-148772932D01*
X156049858Y-148844000D01*
X155916899Y-148915068D01*
X155698392Y-149094392D01*
X155519068Y-149312899D01*
X155385818Y-149562192D01*
X155303764Y-149832691D01*
X155276057Y-150114000D01*
X155303764Y-150395309D01*
X155385818Y-150665808D01*
X155519068Y-150915101D01*
X155698392Y-151133608D01*
X155916899Y-151312932D01*
X156166192Y-151446182D01*
X156436691Y-151528236D01*
X156647508Y-151549000D01*
X156788492Y-151549000D01*
X156999309Y-151528236D01*
X157269808Y-151446182D01*
X157519101Y-151312932D01*
X157737608Y-151133608D01*
X157916932Y-150915101D01*
X158050182Y-150665808D01*
X158132236Y-150395309D01*
X158159943Y-150114000D01*
X158132236Y-149832691D01*
X158050182Y-149562192D01*
X157916932Y-149312899D01*
X157737608Y-149094392D01*
X157519101Y-148915068D01*
X157386142Y-148844000D01*
X157519101Y-148772932D01*
X157737608Y-148593608D01*
X157916932Y-148375101D01*
X158050182Y-148125808D01*
X158132236Y-147855309D01*
X158159943Y-147574000D01*
X158132236Y-147292691D01*
X158050182Y-147022192D01*
X157916932Y-146772899D01*
X157737608Y-146554392D01*
X157519101Y-146375068D01*
X157386142Y-146304000D01*
X157519101Y-146232932D01*
X157737608Y-146053608D01*
X157916932Y-145835101D01*
X158050182Y-145585808D01*
X158132236Y-145315309D01*
X158159943Y-145034000D01*
X158132236Y-144752691D01*
X158050182Y-144482192D01*
X157916932Y-144232899D01*
X157737608Y-144014392D01*
X157519101Y-143835068D01*
X157386142Y-143764000D01*
X157519101Y-143692932D01*
X157737608Y-143513608D01*
X157916932Y-143295101D01*
X158050182Y-143045808D01*
X158132236Y-142775309D01*
X158159943Y-142494000D01*
X158132236Y-142212691D01*
X158050182Y-141942192D01*
X157916932Y-141692899D01*
X157737608Y-141474392D01*
X157519101Y-141295068D01*
X157269808Y-141161818D01*
X156999309Y-141079764D01*
X156788492Y-141059000D01*
X156647508Y-141059000D01*
X156436691Y-141079764D01*
X156166192Y-141161818D01*
X155916899Y-141295068D01*
X155698392Y-141474392D01*
X155651662Y-141531332D01*
X153523984Y-139403654D01*
X153500122Y-139374578D01*
X153384092Y-139279355D01*
X153251715Y-139208598D01*
X153108078Y-139165026D01*
X152996126Y-139154000D01*
X152996123Y-139154000D01*
X152958700Y-139150314D01*
X152921277Y-139154000D01*
X135554560Y-139154000D01*
X135601502Y-139066180D01*
X135637812Y-138946482D01*
X135650072Y-138822000D01*
X135647000Y-138207750D01*
X135488250Y-138049000D01*
X134239000Y-138049000D01*
X134239000Y-138069000D01*
X133985000Y-138069000D01*
X133985000Y-138049000D01*
X132735750Y-138049000D01*
X132577000Y-138207750D01*
X132573928Y-138822000D01*
X132586188Y-138946482D01*
X132622498Y-139066180D01*
X132669440Y-139154000D01*
X129712560Y-139154000D01*
X129759502Y-139066180D01*
X129795812Y-138946482D01*
X129808072Y-138822000D01*
X129805000Y-138207750D01*
X129646250Y-138049000D01*
X128397000Y-138049000D01*
X128397000Y-138069000D01*
X128143000Y-138069000D01*
X128143000Y-138049000D01*
X126893750Y-138049000D01*
X126735000Y-138207750D01*
X126731928Y-138822000D01*
X126744188Y-138946482D01*
X126780498Y-139066180D01*
X126827440Y-139154000D01*
X123870560Y-139154000D01*
X123917502Y-139066180D01*
X123953812Y-138946482D01*
X123966072Y-138822000D01*
X123963000Y-138207750D01*
X123804250Y-138049000D01*
X122555000Y-138049000D01*
X122555000Y-138069000D01*
X122301000Y-138069000D01*
X122301000Y-138049000D01*
X121051750Y-138049000D01*
X120893000Y-138207750D01*
X120889928Y-138822000D01*
X120902188Y-138946482D01*
X120938498Y-139066180D01*
X120985440Y-139154000D01*
X118028560Y-139154000D01*
X118075502Y-139066180D01*
X118111812Y-138946482D01*
X118124072Y-138822000D01*
X118121000Y-138207750D01*
X117962250Y-138049000D01*
X116713000Y-138049000D01*
X116713000Y-138069000D01*
X116459000Y-138069000D01*
X116459000Y-138049000D01*
X115209750Y-138049000D01*
X115051000Y-138207750D01*
X115047928Y-138822000D01*
X115060188Y-138946482D01*
X115096498Y-139066180D01*
X115143440Y-139154000D01*
X114063331Y-139154000D01*
X109379084Y-134469754D01*
X109355222Y-134440678D01*
X109239192Y-134345455D01*
X109106815Y-134274698D01*
X108963178Y-134231126D01*
X108851226Y-134220100D01*
X108851223Y-134220100D01*
X108813800Y-134216414D01*
X108776377Y-134220100D01*
X100753731Y-134220100D01*
X97574333Y-131040702D01*
X99690903Y-131040702D01*
X99762486Y-131284671D01*
X100017996Y-131405571D01*
X100292184Y-131474300D01*
X100574512Y-131488217D01*
X100854130Y-131446787D01*
X101120292Y-131351603D01*
X101245514Y-131284671D01*
X101317097Y-131040702D01*
X100504000Y-130227605D01*
X99690903Y-131040702D01*
X97574333Y-131040702D01*
X96903157Y-130369527D01*
X96939000Y-130189335D01*
X96939000Y-130118512D01*
X99063783Y-130118512D01*
X99105213Y-130398130D01*
X99200397Y-130664292D01*
X99267329Y-130789514D01*
X99511298Y-130861097D01*
X100324395Y-130048000D01*
X100683605Y-130048000D01*
X101496702Y-130861097D01*
X101740671Y-130789514D01*
X101861571Y-130534004D01*
X101891484Y-130414665D01*
X103721000Y-130414665D01*
X103721000Y-130697335D01*
X103776147Y-130974574D01*
X103884320Y-131235727D01*
X104041363Y-131470759D01*
X104241241Y-131670637D01*
X104476273Y-131827680D01*
X104737426Y-131935853D01*
X105014665Y-131991000D01*
X105297335Y-131991000D01*
X105574574Y-131935853D01*
X105835727Y-131827680D01*
X106070759Y-131670637D01*
X106192694Y-131548702D01*
X109342903Y-131548702D01*
X109414486Y-131792671D01*
X109669996Y-131913571D01*
X109944184Y-131982300D01*
X110226512Y-131996217D01*
X110506130Y-131954787D01*
X110772292Y-131859603D01*
X110897514Y-131792671D01*
X110969097Y-131548702D01*
X110156000Y-130735605D01*
X109342903Y-131548702D01*
X106192694Y-131548702D01*
X106270637Y-131470759D01*
X106427680Y-131235727D01*
X106535853Y-130974574D01*
X106591000Y-130697335D01*
X106591000Y-130626512D01*
X108715783Y-130626512D01*
X108757213Y-130906130D01*
X108852397Y-131172292D01*
X108919329Y-131297514D01*
X109163298Y-131369097D01*
X109976395Y-130556000D01*
X110335605Y-130556000D01*
X111148702Y-131369097D01*
X111392671Y-131297514D01*
X111513571Y-131042004D01*
X111582300Y-130767816D01*
X111596217Y-130485488D01*
X111554787Y-130205870D01*
X111459603Y-129939708D01*
X111392671Y-129814486D01*
X111148702Y-129742903D01*
X110335605Y-130556000D01*
X109976395Y-130556000D01*
X109163298Y-129742903D01*
X108919329Y-129814486D01*
X108798429Y-130069996D01*
X108729700Y-130344184D01*
X108715783Y-130626512D01*
X106591000Y-130626512D01*
X106591000Y-130414665D01*
X106535853Y-130137426D01*
X106427680Y-129876273D01*
X106270637Y-129641241D01*
X106192694Y-129563298D01*
X109342903Y-129563298D01*
X110156000Y-130376395D01*
X110969097Y-129563298D01*
X110897514Y-129319329D01*
X110642004Y-129198429D01*
X110367816Y-129129700D01*
X110085488Y-129115783D01*
X109805870Y-129157213D01*
X109539708Y-129252397D01*
X109414486Y-129319329D01*
X109342903Y-129563298D01*
X106192694Y-129563298D01*
X106070759Y-129441363D01*
X105835727Y-129284320D01*
X105574574Y-129176147D01*
X105297335Y-129121000D01*
X105014665Y-129121000D01*
X104737426Y-129176147D01*
X104476273Y-129284320D01*
X104241241Y-129441363D01*
X104041363Y-129641241D01*
X103884320Y-129876273D01*
X103776147Y-130137426D01*
X103721000Y-130414665D01*
X101891484Y-130414665D01*
X101930300Y-130259816D01*
X101944217Y-129977488D01*
X101902787Y-129697870D01*
X101807603Y-129431708D01*
X101740671Y-129306486D01*
X101496702Y-129234903D01*
X100683605Y-130048000D01*
X100324395Y-130048000D01*
X99511298Y-129234903D01*
X99267329Y-129306486D01*
X99146429Y-129561996D01*
X99077700Y-129836184D01*
X99063783Y-130118512D01*
X96939000Y-130118512D01*
X96939000Y-129906665D01*
X96883853Y-129629426D01*
X96775680Y-129368273D01*
X96618637Y-129133241D01*
X96540694Y-129055298D01*
X99690903Y-129055298D01*
X100504000Y-129868395D01*
X101317097Y-129055298D01*
X101245514Y-128811329D01*
X100990004Y-128690429D01*
X100715816Y-128621700D01*
X100433488Y-128607783D01*
X100153870Y-128649213D01*
X99887708Y-128744397D01*
X99762486Y-128811329D01*
X99690903Y-129055298D01*
X96540694Y-129055298D01*
X96418759Y-128933363D01*
X96183727Y-128776320D01*
X95922574Y-128668147D01*
X95645335Y-128613000D01*
X95362665Y-128613000D01*
X95085426Y-128668147D01*
X94824273Y-128776320D01*
X94589241Y-128933363D01*
X94389363Y-129133241D01*
X94232320Y-129368273D01*
X94124147Y-129629426D01*
X94069000Y-129906665D01*
X91887098Y-129906665D01*
X91903406Y-122190000D01*
X98993428Y-122190000D01*
X98993428Y-124190000D01*
X99005688Y-124314482D01*
X99041998Y-124434180D01*
X99100963Y-124544494D01*
X99180315Y-124641185D01*
X99277006Y-124720537D01*
X99387320Y-124779502D01*
X99507018Y-124815812D01*
X99631500Y-124828072D01*
X101536500Y-124828072D01*
X101660982Y-124815812D01*
X101780680Y-124779502D01*
X101890994Y-124720537D01*
X101987685Y-124641185D01*
X102067037Y-124544494D01*
X102116059Y-124452781D01*
X102257077Y-124565969D01*
X102532906Y-124709571D01*
X102751020Y-124780563D01*
X102997000Y-124660594D01*
X102997000Y-123317000D01*
X102977000Y-123317000D01*
X102977000Y-123063000D01*
X102997000Y-123063000D01*
X102997000Y-121719406D01*
X103251000Y-121719406D01*
X103251000Y-123063000D01*
X103271000Y-123063000D01*
X103271000Y-123317000D01*
X103251000Y-123317000D01*
X103251000Y-124660594D01*
X103496980Y-124780563D01*
X103715094Y-124709571D01*
X103990923Y-124565969D01*
X104233437Y-124371315D01*
X104388837Y-124186101D01*
X104536037Y-124365463D01*
X104777766Y-124563845D01*
X105053552Y-124711255D01*
X105352797Y-124802030D01*
X105664000Y-124832681D01*
X105975204Y-124802030D01*
X106274449Y-124711255D01*
X106550235Y-124563845D01*
X106791963Y-124365463D01*
X106990345Y-124123734D01*
X107137755Y-123847948D01*
X107228530Y-123548703D01*
X107251500Y-123315485D01*
X107251500Y-123064514D01*
X107228530Y-122831296D01*
X107137755Y-122532051D01*
X106990345Y-122256265D01*
X106791963Y-122014537D01*
X106550234Y-121816155D01*
X106274448Y-121668745D01*
X105975203Y-121577970D01*
X105664000Y-121547319D01*
X105352796Y-121577970D01*
X105053551Y-121668745D01*
X104777765Y-121816155D01*
X104536037Y-122014537D01*
X104388838Y-122193900D01*
X104233437Y-122008685D01*
X103990923Y-121814031D01*
X103715094Y-121670429D01*
X103496980Y-121599437D01*
X103251000Y-121719406D01*
X102997000Y-121719406D01*
X102751020Y-121599437D01*
X102532906Y-121670429D01*
X102257077Y-121814031D01*
X102116059Y-121927219D01*
X102067037Y-121835506D01*
X101987685Y-121738815D01*
X101890994Y-121659463D01*
X101780680Y-121600498D01*
X101660982Y-121564188D01*
X101536500Y-121551928D01*
X99631500Y-121551928D01*
X99507018Y-121564188D01*
X99387320Y-121600498D01*
X99277006Y-121659463D01*
X99180315Y-121738815D01*
X99100963Y-121835506D01*
X99041998Y-121945820D01*
X99005688Y-122065518D01*
X98993428Y-122190000D01*
X91903406Y-122190000D01*
X91923839Y-112522000D01*
X98226541Y-112522000D01*
X98252317Y-112783706D01*
X98328653Y-113035354D01*
X98452618Y-113267275D01*
X98619445Y-113470555D01*
X98822725Y-113637382D01*
X99054646Y-113761347D01*
X99306294Y-113837683D01*
X99502421Y-113857000D01*
X99633579Y-113857000D01*
X99829706Y-113837683D01*
X100081354Y-113761347D01*
X100313275Y-113637382D01*
X100516555Y-113470555D01*
X100683382Y-113267275D01*
X100807347Y-113035354D01*
X100883683Y-112783706D01*
X100909459Y-112522000D01*
X100896509Y-112390514D01*
X105853000Y-112390514D01*
X105853000Y-112653486D01*
X105904304Y-112911405D01*
X106004939Y-113154359D01*
X106151038Y-113373013D01*
X106336987Y-113558962D01*
X106555641Y-113705061D01*
X106798595Y-113805696D01*
X107056514Y-113857000D01*
X107319486Y-113857000D01*
X107577405Y-113805696D01*
X107820359Y-113705061D01*
X108039013Y-113558962D01*
X108224962Y-113373013D01*
X108371061Y-113154359D01*
X108471696Y-112911405D01*
X108523000Y-112653486D01*
X108523000Y-112390514D01*
X108471696Y-112132595D01*
X108371061Y-111889641D01*
X108224962Y-111670987D01*
X108039013Y-111485038D01*
X107820359Y-111338939D01*
X107577405Y-111238304D01*
X107319486Y-111187000D01*
X107056514Y-111187000D01*
X106798595Y-111238304D01*
X106555641Y-111338939D01*
X106336987Y-111485038D01*
X106151038Y-111670987D01*
X106004939Y-111889641D01*
X105904304Y-112132595D01*
X105853000Y-112390514D01*
X100896509Y-112390514D01*
X100883683Y-112260294D01*
X100807347Y-112008646D01*
X100683382Y-111776725D01*
X100516555Y-111573445D01*
X100313275Y-111406618D01*
X100081354Y-111282653D01*
X99829706Y-111206317D01*
X99633579Y-111187000D01*
X99502421Y-111187000D01*
X99306294Y-111206317D01*
X99054646Y-111282653D01*
X98822725Y-111406618D01*
X98619445Y-111573445D01*
X98452618Y-111776725D01*
X98328653Y-112008646D01*
X98252317Y-112260294D01*
X98226541Y-112522000D01*
X91923839Y-112522000D01*
X91947502Y-101325600D01*
X98830314Y-101325600D01*
X98834000Y-101363024D01*
X98834001Y-102405767D01*
X98830314Y-102443200D01*
X98845027Y-102592578D01*
X98888599Y-102736215D01*
X98959355Y-102868592D01*
X99030721Y-102955551D01*
X99054579Y-102984622D01*
X99083649Y-103008479D01*
X104244920Y-108169751D01*
X104268778Y-108198822D01*
X104384808Y-108294045D01*
X104517185Y-108364802D01*
X104660822Y-108408374D01*
X104772774Y-108419400D01*
X104772776Y-108419400D01*
X104810199Y-108423086D01*
X104847622Y-108419400D01*
X124089989Y-108419400D01*
X124012487Y-108674889D01*
X123983815Y-108966000D01*
X124012487Y-109257111D01*
X124078280Y-109474000D01*
X116804072Y-109474000D01*
X116804072Y-109386000D01*
X116791812Y-109261518D01*
X116755502Y-109141820D01*
X116696537Y-109031506D01*
X116617185Y-108934815D01*
X116520494Y-108855463D01*
X116410180Y-108796498D01*
X116290482Y-108760188D01*
X116166000Y-108747928D01*
X114466000Y-108747928D01*
X114341518Y-108760188D01*
X114221820Y-108796498D01*
X114111506Y-108855463D01*
X114014815Y-108934815D01*
X113935463Y-109031506D01*
X113876498Y-109141820D01*
X113840188Y-109261518D01*
X113827928Y-109386000D01*
X113827928Y-111086000D01*
X113840188Y-111210482D01*
X113876498Y-111330180D01*
X113935463Y-111440494D01*
X114014815Y-111537185D01*
X114111506Y-111616537D01*
X114221820Y-111675502D01*
X114290687Y-111696393D01*
X114260866Y-111720866D01*
X114075294Y-111946986D01*
X113937401Y-112204966D01*
X113852487Y-112484889D01*
X113823815Y-112776000D01*
X113852487Y-113067111D01*
X113937401Y-113347034D01*
X114075294Y-113605014D01*
X114260866Y-113831134D01*
X114486986Y-114016706D01*
X114541791Y-114046000D01*
X114486986Y-114075294D01*
X114260866Y-114260866D01*
X114075294Y-114486986D01*
X113937401Y-114744966D01*
X113852487Y-115024889D01*
X113823815Y-115316000D01*
X113852487Y-115607111D01*
X113937401Y-115887034D01*
X114075294Y-116145014D01*
X114260866Y-116371134D01*
X114486986Y-116556706D01*
X114744966Y-116694599D01*
X115024889Y-116779513D01*
X115243050Y-116801000D01*
X115388950Y-116801000D01*
X115607111Y-116779513D01*
X115887034Y-116694599D01*
X116145014Y-116556706D01*
X116371134Y-116371134D01*
X116440401Y-116286731D01*
X121062020Y-120908351D01*
X121085878Y-120937422D01*
X121114948Y-120961279D01*
X121201907Y-121032645D01*
X121247806Y-121057178D01*
X121334285Y-121103402D01*
X121477922Y-121146974D01*
X121589874Y-121158000D01*
X121589877Y-121158000D01*
X121627300Y-121161686D01*
X121664723Y-121158000D01*
X124078280Y-121158000D01*
X124012487Y-121374889D01*
X123983815Y-121666000D01*
X124012487Y-121957111D01*
X124097401Y-122237034D01*
X124235294Y-122495014D01*
X124420866Y-122721134D01*
X124646986Y-122906706D01*
X124701791Y-122936000D01*
X124646986Y-122965294D01*
X124420866Y-123150866D01*
X124235294Y-123376986D01*
X124097401Y-123634966D01*
X124012487Y-123914889D01*
X123983815Y-124206000D01*
X124012487Y-124497111D01*
X124097401Y-124777034D01*
X124235294Y-125035014D01*
X124420866Y-125261134D01*
X124646986Y-125446706D01*
X124904966Y-125584599D01*
X125184889Y-125669513D01*
X125403050Y-125691000D01*
X125548950Y-125691000D01*
X125767111Y-125669513D01*
X126047034Y-125584599D01*
X126305014Y-125446706D01*
X126531134Y-125261134D01*
X126600401Y-125176731D01*
X128847716Y-127424046D01*
X128871578Y-127453122D01*
X128945219Y-127513557D01*
X128987607Y-127548345D01*
X129058364Y-127586165D01*
X129119985Y-127619102D01*
X129263622Y-127662674D01*
X129375574Y-127673700D01*
X129375577Y-127673700D01*
X129413000Y-127677386D01*
X129450423Y-127673700D01*
X150780270Y-127673700D01*
X147187170Y-131266800D01*
X119976526Y-131266800D01*
X119939100Y-131263114D01*
X119901675Y-131266800D01*
X119901674Y-131266800D01*
X119789722Y-131277826D01*
X119646085Y-131321398D01*
X119513708Y-131392155D01*
X119397678Y-131487378D01*
X119373363Y-131517006D01*
X116992570Y-133897799D01*
X116737184Y-133847000D01*
X116434816Y-133847000D01*
X116138257Y-133905989D01*
X115858905Y-134021701D01*
X115607495Y-134189688D01*
X115393688Y-134403495D01*
X115225701Y-134654905D01*
X115109989Y-134934257D01*
X115051000Y-135230816D01*
X115051000Y-135533184D01*
X115109989Y-135829743D01*
X115225701Y-136109095D01*
X115393688Y-136360505D01*
X115460127Y-136426944D01*
X115441820Y-136432498D01*
X115331506Y-136491463D01*
X115234815Y-136570815D01*
X115155463Y-136667506D01*
X115096498Y-136777820D01*
X115060188Y-136897518D01*
X115047928Y-137022000D01*
X115051000Y-137636250D01*
X115209750Y-137795000D01*
X116459000Y-137795000D01*
X116459000Y-137775000D01*
X116713000Y-137775000D01*
X116713000Y-137795000D01*
X117962250Y-137795000D01*
X118121000Y-137636250D01*
X118124072Y-137022000D01*
X118111812Y-136897518D01*
X118075502Y-136777820D01*
X118016537Y-136667506D01*
X117937185Y-136570815D01*
X117840494Y-136491463D01*
X117730180Y-136432498D01*
X117711873Y-136426944D01*
X117778312Y-136360505D01*
X117946299Y-136109095D01*
X118062011Y-135829743D01*
X118121000Y-135533184D01*
X118121000Y-135230816D01*
X118070201Y-134975430D01*
X120254831Y-132790800D01*
X146382170Y-132790800D01*
X146315170Y-132857800D01*
X124227622Y-132857800D01*
X124190199Y-132854114D01*
X124152776Y-132857800D01*
X124152774Y-132857800D01*
X124040822Y-132868826D01*
X123897185Y-132912398D01*
X123764808Y-132983155D01*
X123648778Y-133078378D01*
X123624921Y-133107448D01*
X122834570Y-133897799D01*
X122579184Y-133847000D01*
X122276816Y-133847000D01*
X121980257Y-133905989D01*
X121700905Y-134021701D01*
X121449495Y-134189688D01*
X121235688Y-134403495D01*
X121067701Y-134654905D01*
X120951989Y-134934257D01*
X120893000Y-135230816D01*
X120893000Y-135533184D01*
X120951989Y-135829743D01*
X121067701Y-136109095D01*
X121235688Y-136360505D01*
X121302127Y-136426944D01*
X121283820Y-136432498D01*
X121173506Y-136491463D01*
X121076815Y-136570815D01*
X120997463Y-136667506D01*
X120938498Y-136777820D01*
X120902188Y-136897518D01*
X120889928Y-137022000D01*
X120893000Y-137636250D01*
X121051750Y-137795000D01*
X122301000Y-137795000D01*
X122301000Y-137775000D01*
X122555000Y-137775000D01*
X122555000Y-137795000D01*
X123804250Y-137795000D01*
X123963000Y-137636250D01*
X123966072Y-137022000D01*
X123953812Y-136897518D01*
X123917502Y-136777820D01*
X123858537Y-136667506D01*
X123779185Y-136570815D01*
X123682494Y-136491463D01*
X123572180Y-136432498D01*
X123553873Y-136426944D01*
X123620312Y-136360505D01*
X123788299Y-136109095D01*
X123904011Y-135829743D01*
X123963000Y-135533184D01*
X123963000Y-135230816D01*
X123912201Y-134975430D01*
X124505831Y-134381800D01*
X127099383Y-134381800D01*
X127077688Y-134403495D01*
X126909701Y-134654905D01*
X126793989Y-134934257D01*
X126735000Y-135230816D01*
X126735000Y-135533184D01*
X126793989Y-135829743D01*
X126909701Y-136109095D01*
X127077688Y-136360505D01*
X127144127Y-136426944D01*
X127125820Y-136432498D01*
X127015506Y-136491463D01*
X126918815Y-136570815D01*
X126839463Y-136667506D01*
X126780498Y-136777820D01*
X126744188Y-136897518D01*
X126731928Y-137022000D01*
X126735000Y-137636250D01*
X126893750Y-137795000D01*
X128143000Y-137795000D01*
X128143000Y-137775000D01*
X128397000Y-137775000D01*
X128397000Y-137795000D01*
X129646250Y-137795000D01*
X129805000Y-137636250D01*
X129808072Y-137022000D01*
X129795812Y-136897518D01*
X129759502Y-136777820D01*
X129700537Y-136667506D01*
X129621185Y-136570815D01*
X129524494Y-136491463D01*
X129414180Y-136432498D01*
X129395873Y-136426944D01*
X129462312Y-136360505D01*
X129630299Y-136109095D01*
X129746011Y-135829743D01*
X129805000Y-135533184D01*
X129805000Y-135230816D01*
X129746011Y-134934257D01*
X129630299Y-134654905D01*
X129462312Y-134403495D01*
X129440617Y-134381800D01*
X132941383Y-134381800D01*
X132919688Y-134403495D01*
X132751701Y-134654905D01*
X132635989Y-134934257D01*
X132577000Y-135230816D01*
X132577000Y-135533184D01*
X132635989Y-135829743D01*
X132751701Y-136109095D01*
X132919688Y-136360505D01*
X132986127Y-136426944D01*
X132967820Y-136432498D01*
X132857506Y-136491463D01*
X132760815Y-136570815D01*
X132681463Y-136667506D01*
X132622498Y-136777820D01*
X132586188Y-136897518D01*
X132573928Y-137022000D01*
X132577000Y-137636250D01*
X132735750Y-137795000D01*
X133985000Y-137795000D01*
X133985000Y-137775000D01*
X134239000Y-137775000D01*
X134239000Y-137795000D01*
X135488250Y-137795000D01*
X135647000Y-137636250D01*
X135650072Y-137022000D01*
X135637812Y-136897518D01*
X135601502Y-136777820D01*
X135542537Y-136667506D01*
X135463185Y-136570815D01*
X135377891Y-136500816D01*
X168137000Y-136500816D01*
X168137000Y-136803184D01*
X168195989Y-137099743D01*
X168311701Y-137379095D01*
X168479688Y-137630505D01*
X168693495Y-137844312D01*
X168944905Y-138012299D01*
X169224257Y-138128011D01*
X169520816Y-138187000D01*
X169823184Y-138187000D01*
X170119743Y-138128011D01*
X170399095Y-138012299D01*
X170650505Y-137844312D01*
X170864312Y-137630505D01*
X170942000Y-137514237D01*
X171019688Y-137630505D01*
X171233495Y-137844312D01*
X171484905Y-138012299D01*
X171764257Y-138128011D01*
X172060816Y-138187000D01*
X172363184Y-138187000D01*
X172659743Y-138128011D01*
X172939095Y-138012299D01*
X173190505Y-137844312D01*
X173318737Y-137716080D01*
X173867525Y-137716080D01*
X173951208Y-137970261D01*
X174223775Y-138101158D01*
X174516642Y-138176365D01*
X174818553Y-138192991D01*
X175117907Y-138150397D01*
X175403199Y-138050222D01*
X175552792Y-137970261D01*
X175636475Y-137716080D01*
X174752000Y-136831605D01*
X173867525Y-137716080D01*
X173318737Y-137716080D01*
X173404312Y-137630505D01*
X173506951Y-137476895D01*
X173687920Y-137536475D01*
X174572395Y-136652000D01*
X174931605Y-136652000D01*
X175816080Y-137536475D01*
X176070261Y-137452792D01*
X176201158Y-137180225D01*
X176276365Y-136887358D01*
X176292991Y-136585447D01*
X176250397Y-136286093D01*
X176150222Y-136000801D01*
X176070261Y-135851208D01*
X175816080Y-135767525D01*
X174931605Y-136652000D01*
X174572395Y-136652000D01*
X173687920Y-135767525D01*
X173506951Y-135827105D01*
X173404312Y-135673495D01*
X173318737Y-135587920D01*
X173867525Y-135587920D01*
X174752000Y-136472395D01*
X175636475Y-135587920D01*
X175552792Y-135333739D01*
X175280225Y-135202842D01*
X174987358Y-135127635D01*
X174685447Y-135111009D01*
X174386093Y-135153603D01*
X174100801Y-135253778D01*
X173951208Y-135333739D01*
X173867525Y-135587920D01*
X173318737Y-135587920D01*
X173190505Y-135459688D01*
X172939095Y-135291701D01*
X172659743Y-135175989D01*
X172363184Y-135117000D01*
X172060816Y-135117000D01*
X171764257Y-135175989D01*
X171484905Y-135291701D01*
X171233495Y-135459688D01*
X171019688Y-135673495D01*
X170942000Y-135789763D01*
X170864312Y-135673495D01*
X170650505Y-135459688D01*
X170399095Y-135291701D01*
X170119743Y-135175989D01*
X169823184Y-135117000D01*
X169520816Y-135117000D01*
X169224257Y-135175989D01*
X168944905Y-135291701D01*
X168693495Y-135459688D01*
X168479688Y-135673495D01*
X168311701Y-135924905D01*
X168195989Y-136204257D01*
X168137000Y-136500816D01*
X135377891Y-136500816D01*
X135366494Y-136491463D01*
X135256180Y-136432498D01*
X135237873Y-136426944D01*
X135304312Y-136360505D01*
X135472299Y-136109095D01*
X135588011Y-135829743D01*
X135647000Y-135533184D01*
X135647000Y-135230816D01*
X135588011Y-134934257D01*
X135472299Y-134654905D01*
X135304312Y-134403495D01*
X135282617Y-134381800D01*
X146593377Y-134381800D01*
X146630800Y-134385486D01*
X146668223Y-134381800D01*
X146668226Y-134381800D01*
X146780178Y-134370774D01*
X146923815Y-134327202D01*
X147056192Y-134256445D01*
X147172222Y-134161222D01*
X147196084Y-134132146D01*
X156854653Y-124473578D01*
X156883722Y-124449722D01*
X156978945Y-124333692D01*
X157007928Y-124279469D01*
X157007928Y-124802000D01*
X157020188Y-124926482D01*
X157056498Y-125046180D01*
X157115463Y-125156494D01*
X157194815Y-125253185D01*
X157291506Y-125332537D01*
X157401820Y-125391502D01*
X157521518Y-125427812D01*
X157646000Y-125440072D01*
X159346000Y-125440072D01*
X159470482Y-125427812D01*
X159590180Y-125391502D01*
X159700494Y-125332537D01*
X159797185Y-125253185D01*
X159876537Y-125156494D01*
X159935502Y-125046180D01*
X159956393Y-124977313D01*
X159980866Y-125007134D01*
X160206986Y-125192706D01*
X160464966Y-125330599D01*
X160744889Y-125415513D01*
X160963050Y-125437000D01*
X161108950Y-125437000D01*
X161327111Y-125415513D01*
X161607034Y-125330599D01*
X161865014Y-125192706D01*
X162091134Y-125007134D01*
X162276706Y-124781014D01*
X162306000Y-124726209D01*
X162335294Y-124781014D01*
X162520866Y-125007134D01*
X162746986Y-125192706D01*
X163004966Y-125330599D01*
X163284889Y-125415513D01*
X163503050Y-125437000D01*
X163648950Y-125437000D01*
X163867111Y-125415513D01*
X164147034Y-125330599D01*
X164405014Y-125192706D01*
X164631134Y-125007134D01*
X164816706Y-124781014D01*
X164954599Y-124523034D01*
X165039513Y-124243111D01*
X165068185Y-123952000D01*
X165039513Y-123660889D01*
X164954599Y-123380966D01*
X164816706Y-123122986D01*
X164631134Y-122896866D01*
X164405014Y-122711294D01*
X164147034Y-122573401D01*
X163867111Y-122488487D01*
X163648950Y-122467000D01*
X163503050Y-122467000D01*
X163306690Y-122486340D01*
X163349030Y-122444000D01*
X170827928Y-122444000D01*
X170827928Y-124444000D01*
X170840188Y-124568482D01*
X170876498Y-124688180D01*
X170935463Y-124798494D01*
X171014815Y-124895185D01*
X171111506Y-124974537D01*
X171221820Y-125033502D01*
X171341518Y-125069812D01*
X171466000Y-125082072D01*
X173466000Y-125082072D01*
X173590482Y-125069812D01*
X173710180Y-125033502D01*
X173820494Y-124974537D01*
X173917185Y-124895185D01*
X173996537Y-124798494D01*
X174055502Y-124688180D01*
X174088496Y-124579413D01*
X179110192Y-124579413D01*
X179205956Y-124843814D01*
X179495571Y-124984704D01*
X179807108Y-125066384D01*
X180128595Y-125085718D01*
X180447675Y-125041961D01*
X180752088Y-124936795D01*
X180926044Y-124843814D01*
X181021808Y-124579413D01*
X180066000Y-123623605D01*
X179110192Y-124579413D01*
X174088496Y-124579413D01*
X174091812Y-124568482D01*
X174104072Y-124444000D01*
X174104072Y-123506595D01*
X178424282Y-123506595D01*
X178468039Y-123825675D01*
X178573205Y-124130088D01*
X178666186Y-124304044D01*
X178930587Y-124399808D01*
X179886395Y-123444000D01*
X180245605Y-123444000D01*
X181201413Y-124399808D01*
X181465814Y-124304044D01*
X181606704Y-124014429D01*
X181688384Y-123702892D01*
X181707718Y-123381405D01*
X181663961Y-123062325D01*
X181558795Y-122757912D01*
X181465814Y-122583956D01*
X181201413Y-122488192D01*
X180245605Y-123444000D01*
X179886395Y-123444000D01*
X178930587Y-122488192D01*
X178666186Y-122583956D01*
X178525296Y-122873571D01*
X178443616Y-123185108D01*
X178424282Y-123506595D01*
X174104072Y-123506595D01*
X174104072Y-122444000D01*
X174091812Y-122319518D01*
X174088497Y-122308587D01*
X179110192Y-122308587D01*
X180066000Y-123264395D01*
X181021808Y-122308587D01*
X180926044Y-122044186D01*
X180636429Y-121903296D01*
X180324892Y-121821616D01*
X180003405Y-121802282D01*
X179684325Y-121846039D01*
X179379912Y-121951205D01*
X179205956Y-122044186D01*
X179110192Y-122308587D01*
X174088497Y-122308587D01*
X174055502Y-122199820D01*
X173996537Y-122089506D01*
X173917185Y-121992815D01*
X173820494Y-121913463D01*
X173710180Y-121854498D01*
X173590482Y-121818188D01*
X173466000Y-121805928D01*
X171466000Y-121805928D01*
X171341518Y-121818188D01*
X171221820Y-121854498D01*
X171111506Y-121913463D01*
X171014815Y-121992815D01*
X170935463Y-122089506D01*
X170876498Y-122199820D01*
X170840188Y-122319518D01*
X170827928Y-122444000D01*
X163349030Y-122444000D01*
X173277269Y-112515762D01*
X173423462Y-112418079D01*
X173470651Y-112370890D01*
X185248524Y-112370890D01*
X185293175Y-112518099D01*
X185418359Y-112780920D01*
X185592412Y-113014269D01*
X185808645Y-113209178D01*
X186058748Y-113358157D01*
X186333109Y-113455481D01*
X186563000Y-113334814D01*
X186563000Y-112141000D01*
X186817000Y-112141000D01*
X186817000Y-113334814D01*
X187046891Y-113455481D01*
X187321252Y-113358157D01*
X187571355Y-113209178D01*
X187787588Y-113014269D01*
X187961641Y-112780920D01*
X188086825Y-112518099D01*
X188131476Y-112370890D01*
X188010155Y-112141000D01*
X186817000Y-112141000D01*
X186563000Y-112141000D01*
X185369845Y-112141000D01*
X185248524Y-112370890D01*
X173470651Y-112370890D01*
X173564979Y-112276562D01*
X173676168Y-112110156D01*
X173752756Y-111925256D01*
X173791800Y-111728967D01*
X173791800Y-111528833D01*
X173787238Y-111505900D01*
X185295081Y-111505900D01*
X185293175Y-111509901D01*
X185248524Y-111657110D01*
X185369845Y-111887000D01*
X186563000Y-111887000D01*
X186563000Y-111867000D01*
X186817000Y-111867000D01*
X186817000Y-111887000D01*
X188010155Y-111887000D01*
X188131476Y-111657110D01*
X188086825Y-111509901D01*
X187961641Y-111247080D01*
X187892990Y-111155041D01*
X188435953Y-110612078D01*
X188465022Y-110588222D01*
X188560245Y-110472192D01*
X188631002Y-110339815D01*
X188674574Y-110196178D01*
X188685600Y-110084226D01*
X188685600Y-110084224D01*
X188689286Y-110046801D01*
X188685600Y-110009378D01*
X188685600Y-108974622D01*
X188689286Y-108937199D01*
X188683978Y-108883307D01*
X188674574Y-108787822D01*
X188631002Y-108644185D01*
X188560245Y-108511808D01*
X188465022Y-108395778D01*
X188435951Y-108371920D01*
X187883980Y-107819950D01*
X187930706Y-107763014D01*
X188068599Y-107505034D01*
X188153513Y-107225111D01*
X188182185Y-106934000D01*
X188153513Y-106642889D01*
X188068599Y-106362966D01*
X187930706Y-106104986D01*
X187905842Y-106074689D01*
X188504151Y-105476380D01*
X188533222Y-105452522D01*
X188628445Y-105336492D01*
X188699202Y-105204115D01*
X188742774Y-105060478D01*
X188753800Y-104948526D01*
X188753800Y-104948524D01*
X188757486Y-104911101D01*
X188753800Y-104873678D01*
X188753800Y-96367422D01*
X188757486Y-96329999D01*
X188751538Y-96269608D01*
X188742774Y-96180622D01*
X188699202Y-96036985D01*
X188628445Y-95904608D01*
X188533222Y-95788578D01*
X188504153Y-95764722D01*
X187872891Y-95133461D01*
X187930706Y-95063014D01*
X188068599Y-94805034D01*
X188153513Y-94525111D01*
X188182185Y-94234000D01*
X188153513Y-93942889D01*
X188068599Y-93662966D01*
X187930706Y-93404986D01*
X187745134Y-93178866D01*
X187519014Y-92993294D01*
X187464209Y-92964000D01*
X187519014Y-92934706D01*
X187745134Y-92749134D01*
X187930706Y-92523014D01*
X188068599Y-92265034D01*
X188153513Y-91985111D01*
X188182185Y-91694000D01*
X188153513Y-91402889D01*
X188068599Y-91122966D01*
X187930706Y-90864986D01*
X187745134Y-90638866D01*
X187519014Y-90453294D01*
X187464209Y-90424000D01*
X187519014Y-90394706D01*
X187745134Y-90209134D01*
X187930706Y-89983014D01*
X188068599Y-89725034D01*
X188153513Y-89445111D01*
X188182185Y-89154000D01*
X188153513Y-88862889D01*
X188068599Y-88582966D01*
X187930706Y-88324986D01*
X187745134Y-88098866D01*
X187519014Y-87913294D01*
X187464209Y-87884000D01*
X187519014Y-87854706D01*
X187745134Y-87669134D01*
X187930706Y-87443014D01*
X188068599Y-87185034D01*
X188153513Y-86905111D01*
X188182185Y-86614000D01*
X188153513Y-86322889D01*
X188068599Y-86042966D01*
X187930706Y-85784986D01*
X187745134Y-85558866D01*
X187519014Y-85373294D01*
X187454477Y-85338799D01*
X187571355Y-85269178D01*
X187787588Y-85074269D01*
X187961641Y-84840920D01*
X188086825Y-84578099D01*
X188131476Y-84430890D01*
X188010155Y-84201000D01*
X186817000Y-84201000D01*
X186817000Y-84221000D01*
X186563000Y-84221000D01*
X186563000Y-84201000D01*
X185369845Y-84201000D01*
X185248524Y-84430890D01*
X185293175Y-84578099D01*
X185418359Y-84840920D01*
X185592412Y-85074269D01*
X185808645Y-85269178D01*
X185925523Y-85338799D01*
X185860986Y-85373294D01*
X185634866Y-85558866D01*
X185449294Y-85784986D01*
X185413041Y-85852811D01*
X185309322Y-85863026D01*
X185165685Y-85906598D01*
X185132378Y-85924401D01*
X185033307Y-85977355D01*
X184990919Y-86012143D01*
X184917278Y-86072578D01*
X184893416Y-86101654D01*
X182533970Y-88461100D01*
X179609230Y-88461100D01*
X185565599Y-82504731D01*
X185634866Y-82589134D01*
X185860986Y-82774706D01*
X185925523Y-82809201D01*
X185808645Y-82878822D01*
X185592412Y-83073731D01*
X185418359Y-83307080D01*
X185293175Y-83569901D01*
X185248524Y-83717110D01*
X185369845Y-83947000D01*
X186563000Y-83947000D01*
X186563000Y-83927000D01*
X186817000Y-83927000D01*
X186817000Y-83947000D01*
X188010155Y-83947000D01*
X188131476Y-83717110D01*
X188086825Y-83569901D01*
X187961641Y-83307080D01*
X187787588Y-83073731D01*
X187571355Y-82878822D01*
X187454477Y-82809201D01*
X187519014Y-82774706D01*
X187745134Y-82589134D01*
X187930706Y-82363014D01*
X188068599Y-82105034D01*
X188153513Y-81825111D01*
X188182185Y-81534000D01*
X188153513Y-81242889D01*
X188068599Y-80962966D01*
X187930706Y-80704986D01*
X187745134Y-80478866D01*
X187519014Y-80293294D01*
X187464209Y-80264000D01*
X187519014Y-80234706D01*
X187745134Y-80049134D01*
X187930706Y-79823014D01*
X188068599Y-79565034D01*
X188153513Y-79285111D01*
X188182185Y-78994000D01*
X188153513Y-78702889D01*
X188068599Y-78422966D01*
X187930706Y-78164986D01*
X187745134Y-77938866D01*
X187519014Y-77753294D01*
X187464209Y-77724000D01*
X187519014Y-77694706D01*
X187745134Y-77509134D01*
X187930706Y-77283014D01*
X188068599Y-77025034D01*
X188153513Y-76745111D01*
X188182185Y-76454000D01*
X188153513Y-76162889D01*
X188068599Y-75882966D01*
X187930706Y-75624986D01*
X187745134Y-75398866D01*
X187715313Y-75374393D01*
X187784180Y-75353502D01*
X187894494Y-75294537D01*
X187991185Y-75215185D01*
X188070537Y-75118494D01*
X188129502Y-75008180D01*
X188165812Y-74888482D01*
X188178072Y-74764000D01*
X188175000Y-74199750D01*
X188016250Y-74041000D01*
X186817000Y-74041000D01*
X186817000Y-74061000D01*
X186563000Y-74061000D01*
X186563000Y-74041000D01*
X186543000Y-74041000D01*
X186543000Y-73787000D01*
X186563000Y-73787000D01*
X186563000Y-72587750D01*
X186817000Y-72587750D01*
X186817000Y-73787000D01*
X188016250Y-73787000D01*
X188175000Y-73628250D01*
X188178072Y-73064000D01*
X188165812Y-72939518D01*
X188129502Y-72819820D01*
X188070537Y-72709506D01*
X187991185Y-72612815D01*
X187894494Y-72533463D01*
X187784180Y-72474498D01*
X187664482Y-72438188D01*
X187540000Y-72425928D01*
X186975750Y-72429000D01*
X186817000Y-72587750D01*
X186563000Y-72587750D01*
X186404250Y-72429000D01*
X185944628Y-72426498D01*
X184294500Y-70776370D01*
X184568574Y-70721853D01*
X184829727Y-70613680D01*
X185064759Y-70456637D01*
X185264637Y-70256759D01*
X185421680Y-70021727D01*
X185529853Y-69760574D01*
X185585000Y-69483335D01*
X185585000Y-69200665D01*
X185529853Y-68923426D01*
X185421680Y-68662273D01*
X185264637Y-68427241D01*
X185064759Y-68227363D01*
X184829727Y-68070320D01*
X184568574Y-67962147D01*
X184291335Y-67907000D01*
X184008665Y-67907000D01*
X183731426Y-67962147D01*
X183470273Y-68070320D01*
X183235241Y-68227363D01*
X183035363Y-68427241D01*
X182878320Y-68662273D01*
X182770147Y-68923426D01*
X182715630Y-69197500D01*
X180391084Y-66872954D01*
X180367222Y-66843878D01*
X180251192Y-66748655D01*
X180118815Y-66677898D01*
X179975178Y-66634326D01*
X179863226Y-66623300D01*
X179863223Y-66623300D01*
X179825800Y-66619614D01*
X179788377Y-66623300D01*
X171800030Y-66623300D01*
X171556237Y-66379507D01*
X171771014Y-66264706D01*
X171997134Y-66079134D01*
X172182706Y-65853014D01*
X172320599Y-65595034D01*
X172405513Y-65315111D01*
X172434185Y-65024000D01*
X172405513Y-64732889D01*
X172320599Y-64452966D01*
X172182706Y-64194986D01*
X171997134Y-63968866D01*
X171771014Y-63783294D01*
X171513034Y-63645401D01*
X171233111Y-63560487D01*
X171014950Y-63539000D01*
X170869050Y-63539000D01*
X170650889Y-63560487D01*
X170370966Y-63645401D01*
X170112986Y-63783294D01*
X169886866Y-63968866D01*
X169701294Y-64194986D01*
X169672000Y-64249791D01*
X169642706Y-64194986D01*
X169457134Y-63968866D01*
X169231014Y-63783294D01*
X168973034Y-63645401D01*
X168693111Y-63560487D01*
X168474950Y-63539000D01*
X168329050Y-63539000D01*
X168110889Y-63560487D01*
X167830966Y-63645401D01*
X167572986Y-63783294D01*
X167516050Y-63830020D01*
X166165684Y-62479654D01*
X166141822Y-62450578D01*
X166025792Y-62355355D01*
X165893415Y-62284598D01*
X165749778Y-62241026D01*
X165637826Y-62230000D01*
X165637823Y-62230000D01*
X165600400Y-62226314D01*
X165562977Y-62230000D01*
X147180072Y-62230000D01*
X147180072Y-62039500D01*
X147173819Y-61976000D01*
X178898057Y-61976000D01*
X178925764Y-62257309D01*
X179007818Y-62527808D01*
X179141068Y-62777101D01*
X179320392Y-62995608D01*
X179538899Y-63174932D01*
X179788192Y-63308182D01*
X180058691Y-63390236D01*
X180269508Y-63411000D01*
X180410492Y-63411000D01*
X180621309Y-63390236D01*
X180891808Y-63308182D01*
X181141101Y-63174932D01*
X181359608Y-62995608D01*
X181538932Y-62777101D01*
X181672182Y-62527808D01*
X181754236Y-62257309D01*
X181772582Y-62071040D01*
X182758091Y-62071040D01*
X182852930Y-62335881D01*
X182997615Y-62577131D01*
X183186586Y-62785519D01*
X183412580Y-62953037D01*
X183666913Y-63073246D01*
X183800961Y-63113904D01*
X184023000Y-62991915D01*
X184023000Y-61849000D01*
X184277000Y-61849000D01*
X184277000Y-62991915D01*
X184499039Y-63113904D01*
X184633087Y-63073246D01*
X184887420Y-62953037D01*
X185113414Y-62785519D01*
X185302385Y-62577131D01*
X185447070Y-62335881D01*
X185541909Y-62071040D01*
X185420624Y-61849000D01*
X184277000Y-61849000D01*
X184023000Y-61849000D01*
X182879376Y-61849000D01*
X182758091Y-62071040D01*
X181772582Y-62071040D01*
X181781943Y-61976000D01*
X181754236Y-61694691D01*
X181672182Y-61424192D01*
X181644798Y-61372960D01*
X182758091Y-61372960D01*
X182879376Y-61595000D01*
X184023000Y-61595000D01*
X184023000Y-60452085D01*
X184277000Y-60452085D01*
X184277000Y-61595000D01*
X185420624Y-61595000D01*
X185541909Y-61372960D01*
X185447070Y-61108119D01*
X185302385Y-60866869D01*
X185113414Y-60658481D01*
X184887420Y-60490963D01*
X184633087Y-60370754D01*
X184499039Y-60330096D01*
X184277000Y-60452085D01*
X184023000Y-60452085D01*
X183800961Y-60330096D01*
X183666913Y-60370754D01*
X183412580Y-60490963D01*
X183186586Y-60658481D01*
X182997615Y-60866869D01*
X182852930Y-61108119D01*
X182758091Y-61372960D01*
X181644798Y-61372960D01*
X181538932Y-61174899D01*
X181359608Y-60956392D01*
X181141101Y-60777068D01*
X180891808Y-60643818D01*
X180621309Y-60561764D01*
X180410492Y-60541000D01*
X180269508Y-60541000D01*
X180058691Y-60561764D01*
X179788192Y-60643818D01*
X179538899Y-60777068D01*
X179320392Y-60956392D01*
X179141068Y-61174899D01*
X179007818Y-61424192D01*
X178925764Y-61694691D01*
X178898057Y-61976000D01*
X147173819Y-61976000D01*
X147167812Y-61915018D01*
X147131502Y-61795320D01*
X147072537Y-61685006D01*
X146993185Y-61588315D01*
X146896494Y-61508963D01*
X146786180Y-61449998D01*
X146666482Y-61413688D01*
X146542000Y-61401428D01*
X144542000Y-61401428D01*
X144417518Y-61413688D01*
X144297820Y-61449998D01*
X144187506Y-61508963D01*
X144090815Y-61588315D01*
X144011463Y-61685006D01*
X143952498Y-61795320D01*
X143916188Y-61915018D01*
X143903928Y-62039500D01*
X143903928Y-62230000D01*
X141164931Y-62230000D01*
X139668584Y-60733654D01*
X139644722Y-60704578D01*
X139528692Y-60609355D01*
X139396315Y-60538598D01*
X139360072Y-60527604D01*
X139360072Y-60446000D01*
X139347812Y-60321518D01*
X139311502Y-60201820D01*
X139252537Y-60091506D01*
X139173185Y-59994815D01*
X139076494Y-59915463D01*
X138966180Y-59856498D01*
X138846482Y-59820188D01*
X138722000Y-59807928D01*
X137122000Y-59807928D01*
X136997518Y-59820188D01*
X136877820Y-59856498D01*
X136767506Y-59915463D01*
X136670815Y-59994815D01*
X136591463Y-60091506D01*
X136532498Y-60201820D01*
X136496188Y-60321518D01*
X136483928Y-60446000D01*
X136483928Y-62046000D01*
X136496188Y-62170482D01*
X136532498Y-62290180D01*
X136591463Y-62400494D01*
X136670815Y-62497185D01*
X136683758Y-62507807D01*
X136564429Y-62759996D01*
X136495700Y-63034184D01*
X136481783Y-63316512D01*
X136523213Y-63596130D01*
X136618397Y-63862292D01*
X136685329Y-63987514D01*
X136929298Y-64059097D01*
X137742395Y-63246000D01*
X137728253Y-63231858D01*
X137907858Y-63052253D01*
X137922000Y-63066395D01*
X137936143Y-63052253D01*
X138115748Y-63231858D01*
X138101605Y-63246000D01*
X138914702Y-64059097D01*
X139158671Y-63987514D01*
X139279571Y-63732004D01*
X139348300Y-63457816D01*
X139362217Y-63175488D01*
X139320787Y-62895870D01*
X139225603Y-62629708D01*
X139160384Y-62507691D01*
X139173185Y-62497185D01*
X139219914Y-62440245D01*
X140284020Y-63504351D01*
X140307878Y-63533422D01*
X140336948Y-63557279D01*
X140423907Y-63628645D01*
X140455256Y-63645401D01*
X140556285Y-63699402D01*
X140699922Y-63742974D01*
X140811874Y-63754000D01*
X140811877Y-63754000D01*
X140849300Y-63757686D01*
X140886723Y-63754000D01*
X143903928Y-63754000D01*
X143903928Y-63944500D01*
X143916188Y-64068982D01*
X143952498Y-64188680D01*
X144011463Y-64298994D01*
X144090815Y-64395685D01*
X144187506Y-64475037D01*
X144279219Y-64524059D01*
X144166031Y-64665077D01*
X144022429Y-64940906D01*
X143951437Y-65159020D01*
X144071406Y-65405000D01*
X145415000Y-65405000D01*
X145415000Y-65385000D01*
X145669000Y-65385000D01*
X145669000Y-65405000D01*
X147012594Y-65405000D01*
X147132563Y-65159020D01*
X147061571Y-64940906D01*
X146917969Y-64665077D01*
X146804781Y-64524059D01*
X146896494Y-64475037D01*
X146993185Y-64395685D01*
X147072537Y-64298994D01*
X147131502Y-64188680D01*
X147167812Y-64068982D01*
X147180072Y-63944500D01*
X147180072Y-63754000D01*
X156915222Y-63754000D01*
X156861463Y-63819506D01*
X156802498Y-63929820D01*
X156766188Y-64049518D01*
X156753928Y-64174000D01*
X156753928Y-65874000D01*
X156766188Y-65998482D01*
X156802498Y-66118180D01*
X156861463Y-66228494D01*
X156940815Y-66325185D01*
X157037506Y-66404537D01*
X157147820Y-66463502D01*
X157267518Y-66499812D01*
X157392000Y-66512072D01*
X159092000Y-66512072D01*
X159216482Y-66499812D01*
X159336180Y-66463502D01*
X159446494Y-66404537D01*
X159543185Y-66325185D01*
X159622537Y-66228494D01*
X159681502Y-66118180D01*
X159702393Y-66049313D01*
X159726866Y-66079134D01*
X159952986Y-66264706D01*
X160210966Y-66402599D01*
X160490889Y-66487513D01*
X160709050Y-66509000D01*
X160854950Y-66509000D01*
X161073111Y-66487513D01*
X161353034Y-66402599D01*
X161611014Y-66264706D01*
X161667950Y-66217980D01*
X165558320Y-70108351D01*
X165582178Y-70137422D01*
X165611248Y-70161279D01*
X165698207Y-70232645D01*
X165743322Y-70256759D01*
X165830585Y-70303402D01*
X165974222Y-70346974D01*
X166086174Y-70358000D01*
X166086176Y-70358000D01*
X166123599Y-70361686D01*
X166161022Y-70358000D01*
X179123293Y-70358000D01*
X179225363Y-70510759D01*
X179425241Y-70710637D01*
X179660273Y-70867680D01*
X179921426Y-70975853D01*
X180198665Y-71031000D01*
X180481335Y-71031000D01*
X180758574Y-70975853D01*
X181019727Y-70867680D01*
X181254759Y-70710637D01*
X181454637Y-70510759D01*
X181611680Y-70275727D01*
X181619564Y-70256694D01*
X184696701Y-73333831D01*
X184696700Y-74954476D01*
X184693014Y-74991900D01*
X184696700Y-75029323D01*
X184696700Y-75029325D01*
X184707726Y-75141277D01*
X184751298Y-75284914D01*
X184751299Y-75284915D01*
X184822055Y-75417292D01*
X184861683Y-75465578D01*
X184917278Y-75533322D01*
X184946354Y-75557184D01*
X185124216Y-75735046D01*
X185148078Y-75764122D01*
X185264108Y-75859345D01*
X185310968Y-75884392D01*
X185226487Y-76162889D01*
X185197815Y-76454000D01*
X185226487Y-76745111D01*
X185311401Y-77025034D01*
X185449294Y-77283014D01*
X185634866Y-77509134D01*
X185860986Y-77694706D01*
X185915791Y-77724000D01*
X185860986Y-77753294D01*
X185634866Y-77938866D01*
X185449294Y-78164986D01*
X185311401Y-78422966D01*
X185226487Y-78702889D01*
X185197815Y-78994000D01*
X185226487Y-79285111D01*
X185311401Y-79565034D01*
X185449294Y-79823014D01*
X185634866Y-80049134D01*
X185860986Y-80234706D01*
X185915791Y-80264000D01*
X185860986Y-80293294D01*
X185634866Y-80478866D01*
X185449294Y-80704986D01*
X185413041Y-80772811D01*
X185309322Y-80783026D01*
X185165685Y-80826598D01*
X185131441Y-80844902D01*
X185033307Y-80897355D01*
X184999916Y-80924759D01*
X184917278Y-80992578D01*
X184893416Y-81021654D01*
X178325670Y-87589400D01*
X178025533Y-87589400D01*
X178116182Y-87419808D01*
X178198236Y-87149309D01*
X178225943Y-86868000D01*
X178198236Y-86586691D01*
X178116182Y-86316192D01*
X177982932Y-86066899D01*
X177803608Y-85848392D01*
X177585101Y-85669068D01*
X177335808Y-85535818D01*
X177065309Y-85453764D01*
X176854492Y-85433000D01*
X176713508Y-85433000D01*
X176502691Y-85453764D01*
X176232192Y-85535818D01*
X175982899Y-85669068D01*
X175764392Y-85848392D01*
X175585068Y-86066899D01*
X175451818Y-86316192D01*
X175369764Y-86586691D01*
X175342057Y-86868000D01*
X175369764Y-87149309D01*
X175451818Y-87419808D01*
X175542467Y-87589400D01*
X170407835Y-87589400D01*
X170435680Y-87547727D01*
X170543853Y-87286574D01*
X170599000Y-87009335D01*
X170599000Y-86726665D01*
X170543853Y-86449426D01*
X170435680Y-86188273D01*
X170278637Y-85953241D01*
X170078759Y-85753363D01*
X169868534Y-85612896D01*
X170877252Y-84604179D01*
X170906322Y-84580322D01*
X170940897Y-84538192D01*
X171001545Y-84464293D01*
X171045211Y-84382598D01*
X171072302Y-84331915D01*
X171115874Y-84188278D01*
X171126900Y-84076326D01*
X171126900Y-84076323D01*
X171130586Y-84038900D01*
X171126900Y-84001477D01*
X171126900Y-83566000D01*
X175342057Y-83566000D01*
X175369764Y-83847309D01*
X175451818Y-84117808D01*
X175585068Y-84367101D01*
X175764392Y-84585608D01*
X175982899Y-84764932D01*
X176232192Y-84898182D01*
X176502691Y-84980236D01*
X176713508Y-85001000D01*
X176854492Y-85001000D01*
X177065309Y-84980236D01*
X177335808Y-84898182D01*
X177585101Y-84764932D01*
X177803608Y-84585608D01*
X177982932Y-84367101D01*
X178116182Y-84117808D01*
X178198236Y-83847309D01*
X178225943Y-83566000D01*
X178198236Y-83284691D01*
X178116182Y-83014192D01*
X177982932Y-82764899D01*
X177803608Y-82546392D01*
X177585101Y-82367068D01*
X177335808Y-82233818D01*
X177065309Y-82151764D01*
X176854492Y-82131000D01*
X176713508Y-82131000D01*
X176502691Y-82151764D01*
X176232192Y-82233818D01*
X175982899Y-82367068D01*
X175764392Y-82546392D01*
X175585068Y-82764899D01*
X175451818Y-83014192D01*
X175369764Y-83284691D01*
X175342057Y-83566000D01*
X171126900Y-83566000D01*
X171126900Y-83081422D01*
X171130586Y-83043999D01*
X171126900Y-83006574D01*
X171115874Y-82894622D01*
X171072302Y-82750985D01*
X171001545Y-82618608D01*
X170906322Y-82502578D01*
X170877253Y-82478722D01*
X169728104Y-81329573D01*
X169843727Y-81281680D01*
X170078759Y-81124637D01*
X170278637Y-80924759D01*
X170435680Y-80689727D01*
X170543853Y-80428574D01*
X170557684Y-80359039D01*
X175392096Y-80359039D01*
X175432754Y-80493087D01*
X175552963Y-80747420D01*
X175720481Y-80973414D01*
X175928869Y-81162385D01*
X176170119Y-81307070D01*
X176434960Y-81401909D01*
X176657000Y-81280624D01*
X176657000Y-80137000D01*
X176911000Y-80137000D01*
X176911000Y-81280624D01*
X177133040Y-81401909D01*
X177397881Y-81307070D01*
X177639131Y-81162385D01*
X177847519Y-80973414D01*
X178015037Y-80747420D01*
X178135246Y-80493087D01*
X178175904Y-80359039D01*
X178053915Y-80137000D01*
X176911000Y-80137000D01*
X176657000Y-80137000D01*
X175514085Y-80137000D01*
X175392096Y-80359039D01*
X170557684Y-80359039D01*
X170599000Y-80151335D01*
X170599000Y-79868665D01*
X170557685Y-79660961D01*
X175392096Y-79660961D01*
X175514085Y-79883000D01*
X176657000Y-79883000D01*
X176657000Y-78739376D01*
X176911000Y-78739376D01*
X176911000Y-79883000D01*
X178053915Y-79883000D01*
X178175904Y-79660961D01*
X178135246Y-79526913D01*
X178015037Y-79272580D01*
X177847519Y-79046586D01*
X177639131Y-78857615D01*
X177397881Y-78712930D01*
X177133040Y-78618091D01*
X176911000Y-78739376D01*
X176657000Y-78739376D01*
X176434960Y-78618091D01*
X176170119Y-78712930D01*
X175928869Y-78857615D01*
X175720481Y-79046586D01*
X175552963Y-79272580D01*
X175432754Y-79526913D01*
X175392096Y-79660961D01*
X170557685Y-79660961D01*
X170543853Y-79591426D01*
X170435680Y-79330273D01*
X170278637Y-79095241D01*
X170078759Y-78895363D01*
X169843727Y-78738320D01*
X169582574Y-78630147D01*
X169305335Y-78575000D01*
X169022665Y-78575000D01*
X168745426Y-78630147D01*
X168484273Y-78738320D01*
X168249241Y-78895363D01*
X168049363Y-79095241D01*
X167892320Y-79330273D01*
X167844427Y-79445897D01*
X165356184Y-76957654D01*
X165332322Y-76928578D01*
X165216292Y-76833355D01*
X165083915Y-76762598D01*
X164940278Y-76719026D01*
X164828326Y-76708000D01*
X164828323Y-76708000D01*
X164790900Y-76704314D01*
X164753477Y-76708000D01*
X163286072Y-76708000D01*
X163286072Y-76620000D01*
X163273812Y-76495518D01*
X163237502Y-76375820D01*
X163203745Y-76312665D01*
X167729000Y-76312665D01*
X167729000Y-76595335D01*
X167784147Y-76872574D01*
X167892320Y-77133727D01*
X168049363Y-77368759D01*
X168249241Y-77568637D01*
X168484273Y-77725680D01*
X168745426Y-77833853D01*
X169022665Y-77889000D01*
X169305335Y-77889000D01*
X169582574Y-77833853D01*
X169843727Y-77725680D01*
X170078759Y-77568637D01*
X170278637Y-77368759D01*
X170435680Y-77133727D01*
X170543853Y-76872574D01*
X170557684Y-76803039D01*
X175392096Y-76803039D01*
X175432754Y-76937087D01*
X175552963Y-77191420D01*
X175720481Y-77417414D01*
X175928869Y-77606385D01*
X176170119Y-77751070D01*
X176434960Y-77845909D01*
X176657000Y-77724624D01*
X176657000Y-76581000D01*
X176911000Y-76581000D01*
X176911000Y-77724624D01*
X177133040Y-77845909D01*
X177397881Y-77751070D01*
X177639131Y-77606385D01*
X177847519Y-77417414D01*
X178015037Y-77191420D01*
X178135246Y-76937087D01*
X178175904Y-76803039D01*
X178053915Y-76581000D01*
X176911000Y-76581000D01*
X176657000Y-76581000D01*
X175514085Y-76581000D01*
X175392096Y-76803039D01*
X170557684Y-76803039D01*
X170599000Y-76595335D01*
X170599000Y-76312665D01*
X170557685Y-76104961D01*
X175392096Y-76104961D01*
X175514085Y-76327000D01*
X176657000Y-76327000D01*
X176657000Y-75183376D01*
X176911000Y-75183376D01*
X176911000Y-76327000D01*
X178053915Y-76327000D01*
X178175904Y-76104961D01*
X178135246Y-75970913D01*
X178015037Y-75716580D01*
X177847519Y-75490586D01*
X177639131Y-75301615D01*
X177397881Y-75156930D01*
X177133040Y-75062091D01*
X176911000Y-75183376D01*
X176657000Y-75183376D01*
X176434960Y-75062091D01*
X176170119Y-75156930D01*
X175928869Y-75301615D01*
X175720481Y-75490586D01*
X175552963Y-75716580D01*
X175432754Y-75970913D01*
X175392096Y-76104961D01*
X170557685Y-76104961D01*
X170543853Y-76035426D01*
X170435680Y-75774273D01*
X170278637Y-75539241D01*
X170078759Y-75339363D01*
X169843727Y-75182320D01*
X169582574Y-75074147D01*
X169305335Y-75019000D01*
X169022665Y-75019000D01*
X168745426Y-75074147D01*
X168484273Y-75182320D01*
X168249241Y-75339363D01*
X168049363Y-75539241D01*
X167892320Y-75774273D01*
X167784147Y-76035426D01*
X167729000Y-76312665D01*
X163203745Y-76312665D01*
X163178537Y-76265506D01*
X163099185Y-76168815D01*
X163002494Y-76089463D01*
X162892180Y-76030498D01*
X162772482Y-75994188D01*
X162648000Y-75981928D01*
X160948000Y-75981928D01*
X160823518Y-75994188D01*
X160703820Y-76030498D01*
X160593506Y-76089463D01*
X160496815Y-76168815D01*
X160427548Y-76253217D01*
X156074684Y-71900354D01*
X156050822Y-71871278D01*
X155934792Y-71776055D01*
X155802415Y-71705298D01*
X155658778Y-71661726D01*
X155546826Y-71650700D01*
X155546823Y-71650700D01*
X155509400Y-71647014D01*
X155471977Y-71650700D01*
X138918307Y-71650700D01*
X138914704Y-71647097D01*
X139158671Y-71575514D01*
X139279571Y-71320004D01*
X139348300Y-71045816D01*
X139362217Y-70763488D01*
X139320787Y-70483870D01*
X139225603Y-70217708D01*
X139160384Y-70095691D01*
X139173185Y-70085185D01*
X139252537Y-69988494D01*
X139311502Y-69878180D01*
X139347812Y-69758482D01*
X139360072Y-69634000D01*
X139360072Y-69552396D01*
X139396315Y-69541402D01*
X139528692Y-69470645D01*
X139644722Y-69375422D01*
X139668584Y-69346347D01*
X140180931Y-68834000D01*
X144101750Y-68834000D01*
X144168155Y-68958235D01*
X144366537Y-69199963D01*
X144608265Y-69398345D01*
X144884051Y-69545755D01*
X145183296Y-69636530D01*
X145416514Y-69659500D01*
X145667486Y-69659500D01*
X145900704Y-69636530D01*
X146199949Y-69545755D01*
X146475735Y-69398345D01*
X146717463Y-69199963D01*
X146915845Y-68958235D01*
X147063255Y-68682449D01*
X147154030Y-68383204D01*
X147184681Y-68072000D01*
X147154030Y-67760796D01*
X147063255Y-67461551D01*
X146915845Y-67185765D01*
X146717463Y-66944037D01*
X146538101Y-66796837D01*
X146723315Y-66641437D01*
X146917969Y-66398923D01*
X147061571Y-66123094D01*
X147132563Y-65904980D01*
X147012594Y-65659000D01*
X145669000Y-65659000D01*
X145669000Y-65679000D01*
X145415000Y-65679000D01*
X145415000Y-65659000D01*
X144071406Y-65659000D01*
X143951437Y-65904980D01*
X144022429Y-66123094D01*
X144166031Y-66398923D01*
X144360685Y-66641437D01*
X144545899Y-66796837D01*
X144366537Y-66944037D01*
X144168155Y-67185765D01*
X144101750Y-67310000D01*
X139902723Y-67310000D01*
X139865300Y-67306314D01*
X139827877Y-67310000D01*
X139827874Y-67310000D01*
X139715922Y-67321026D01*
X139572285Y-67364598D01*
X139513671Y-67395928D01*
X139439907Y-67435355D01*
X139383810Y-67481393D01*
X139323878Y-67530578D01*
X139300020Y-67559649D01*
X139219914Y-67639755D01*
X139173185Y-67582815D01*
X139076494Y-67503463D01*
X138966180Y-67444498D01*
X138846482Y-67408188D01*
X138722000Y-67395928D01*
X137122000Y-67395928D01*
X136997518Y-67408188D01*
X136877820Y-67444498D01*
X136767506Y-67503463D01*
X136670815Y-67582815D01*
X136591463Y-67679506D01*
X136532498Y-67789820D01*
X136496188Y-67909518D01*
X136483928Y-68034000D01*
X136483928Y-69634000D01*
X136496188Y-69758482D01*
X136532498Y-69878180D01*
X136591463Y-69988494D01*
X136670815Y-70085185D01*
X136683758Y-70095807D01*
X136564429Y-70347996D01*
X136495700Y-70622184D01*
X136481783Y-70904512D01*
X136523213Y-71184130D01*
X136618397Y-71450292D01*
X136685329Y-71575514D01*
X136929296Y-71647097D01*
X136925693Y-71650700D01*
X132970731Y-71650700D01*
X125558733Y-64238702D01*
X137108903Y-64238702D01*
X137180486Y-64482671D01*
X137435996Y-64603571D01*
X137710184Y-64672300D01*
X137992512Y-64686217D01*
X138272130Y-64644787D01*
X138538292Y-64549603D01*
X138663514Y-64482671D01*
X138735097Y-64238702D01*
X137922000Y-63425605D01*
X137108903Y-64238702D01*
X125558733Y-64238702D01*
X125323684Y-64003654D01*
X125299822Y-63974578D01*
X125183792Y-63879355D01*
X125051415Y-63808598D01*
X124907778Y-63765026D01*
X124795826Y-63754000D01*
X124795823Y-63754000D01*
X124758400Y-63750314D01*
X124720977Y-63754000D01*
X123599005Y-63754000D01*
X123513120Y-63625465D01*
X123318535Y-63430880D01*
X123089727Y-63277995D01*
X122835490Y-63172686D01*
X122565592Y-63119000D01*
X122290408Y-63119000D01*
X122020510Y-63172686D01*
X121766273Y-63277995D01*
X121537465Y-63430880D01*
X121342880Y-63625465D01*
X121189995Y-63854273D01*
X121158000Y-63931515D01*
X121126005Y-63854273D01*
X120973120Y-63625465D01*
X120778535Y-63430880D01*
X120549727Y-63277995D01*
X120295490Y-63172686D01*
X120025592Y-63119000D01*
X119750408Y-63119000D01*
X119480510Y-63172686D01*
X119226273Y-63277995D01*
X118997465Y-63430880D01*
X118802880Y-63625465D01*
X118649995Y-63854273D01*
X118544686Y-64108510D01*
X118491000Y-64378408D01*
X118491000Y-64653592D01*
X118544686Y-64923490D01*
X118649995Y-65177727D01*
X118802880Y-65406535D01*
X118997465Y-65601120D01*
X119226273Y-65754005D01*
X119303515Y-65786000D01*
X119226273Y-65817995D01*
X118997465Y-65970880D01*
X118802880Y-66165465D01*
X118649995Y-66394273D01*
X118544686Y-66648510D01*
X118491000Y-66918408D01*
X118491000Y-67193592D01*
X118544686Y-67463490D01*
X118649995Y-67717727D01*
X118798336Y-67939734D01*
X118225153Y-68512916D01*
X118196078Y-68536778D01*
X118157036Y-68584352D01*
X118100855Y-68652808D01*
X118072710Y-68705465D01*
X118030098Y-68785186D01*
X117986526Y-68928823D01*
X117976490Y-69030721D01*
X117971814Y-69078200D01*
X117975500Y-69115623D01*
X117975501Y-72640067D01*
X117971814Y-72677500D01*
X117986527Y-72826878D01*
X118030099Y-72970515D01*
X118100855Y-73102892D01*
X118150737Y-73163673D01*
X118196079Y-73218922D01*
X118225149Y-73242779D01*
X119133721Y-74151351D01*
X119157578Y-74180422D01*
X119273608Y-74275645D01*
X119388889Y-74337264D01*
X119403413Y-74345027D01*
X119405985Y-74346402D01*
X119549622Y-74389974D01*
X119661574Y-74401000D01*
X119661576Y-74401000D01*
X119698999Y-74404686D01*
X119736422Y-74401000D01*
X127396370Y-74401000D01*
X132159120Y-79163751D01*
X132182978Y-79192822D01*
X132250213Y-79248000D01*
X129562931Y-79248000D01*
X127272584Y-76957654D01*
X127248722Y-76928578D01*
X127132692Y-76833355D01*
X127000315Y-76762598D01*
X126964072Y-76751604D01*
X126964072Y-76620000D01*
X126951812Y-76495518D01*
X126915502Y-76375820D01*
X126856537Y-76265506D01*
X126777185Y-76168815D01*
X126680494Y-76089463D01*
X126570180Y-76030498D01*
X126450482Y-75994188D01*
X126326000Y-75981928D01*
X124626000Y-75981928D01*
X124501518Y-75994188D01*
X124381820Y-76030498D01*
X124271506Y-76089463D01*
X124174815Y-76168815D01*
X124095463Y-76265506D01*
X124036498Y-76375820D01*
X124000188Y-76495518D01*
X123987928Y-76620000D01*
X123987928Y-76708000D01*
X108710722Y-76708000D01*
X108673299Y-76704314D01*
X108635876Y-76708000D01*
X108635874Y-76708000D01*
X108523922Y-76719026D01*
X108380285Y-76762598D01*
X108247908Y-76833355D01*
X108131878Y-76928578D01*
X108108021Y-76957648D01*
X102208452Y-82857218D01*
X102139185Y-82772815D01*
X102042494Y-82693463D01*
X101932180Y-82634498D01*
X101812482Y-82598188D01*
X101688000Y-82585928D01*
X99988000Y-82585928D01*
X99863518Y-82598188D01*
X99743820Y-82634498D01*
X99633506Y-82693463D01*
X99536815Y-82772815D01*
X99457463Y-82869506D01*
X99398498Y-82979820D01*
X99362188Y-83099518D01*
X99349928Y-83224000D01*
X99349928Y-84924000D01*
X99362188Y-85048482D01*
X99398498Y-85168180D01*
X99457463Y-85278494D01*
X99536815Y-85375185D01*
X99633506Y-85454537D01*
X99743820Y-85513502D01*
X99812687Y-85534393D01*
X99782866Y-85558866D01*
X99597294Y-85784986D01*
X99459401Y-86042966D01*
X99374487Y-86322889D01*
X99345815Y-86614000D01*
X99374487Y-86905111D01*
X99459401Y-87185034D01*
X99597294Y-87443014D01*
X99782866Y-87669134D01*
X100008986Y-87854706D01*
X100063791Y-87884000D01*
X100008986Y-87913294D01*
X99782866Y-88098866D01*
X99597294Y-88324986D01*
X99459401Y-88582966D01*
X99374487Y-88862889D01*
X99345815Y-89154000D01*
X99374487Y-89445111D01*
X99459401Y-89725034D01*
X99597294Y-89983014D01*
X99782866Y-90209134D01*
X100008986Y-90394706D01*
X100063791Y-90424000D01*
X100008986Y-90453294D01*
X99782866Y-90638866D01*
X99597294Y-90864986D01*
X99459401Y-91122966D01*
X99374487Y-91402889D01*
X99345815Y-91694000D01*
X99374487Y-91985111D01*
X99459401Y-92265034D01*
X99597294Y-92523014D01*
X99782866Y-92749134D01*
X100008986Y-92934706D01*
X100063791Y-92964000D01*
X100008986Y-92993294D01*
X99782866Y-93178866D01*
X99597294Y-93404986D01*
X99459401Y-93662966D01*
X99374487Y-93942889D01*
X99345815Y-94234000D01*
X99374487Y-94525111D01*
X99459401Y-94805034D01*
X99597294Y-95063014D01*
X99782866Y-95289134D01*
X100008986Y-95474706D01*
X100063791Y-95504000D01*
X100008986Y-95533294D01*
X99782866Y-95718866D01*
X99597294Y-95944986D01*
X99459401Y-96202966D01*
X99374487Y-96482889D01*
X99345815Y-96774000D01*
X99374487Y-97065111D01*
X99459401Y-97345034D01*
X99597294Y-97603014D01*
X99782866Y-97829134D01*
X100008986Y-98014706D01*
X100063791Y-98044000D01*
X100008986Y-98073294D01*
X99782866Y-98258866D01*
X99597294Y-98484986D01*
X99459401Y-98742966D01*
X99374487Y-99022889D01*
X99345815Y-99314000D01*
X99374487Y-99605111D01*
X99459401Y-99885034D01*
X99597294Y-100143014D01*
X99644020Y-100199949D01*
X99083653Y-100760316D01*
X99054578Y-100784178D01*
X98998983Y-100851922D01*
X98959355Y-100900208D01*
X98925603Y-100963355D01*
X98888598Y-101032586D01*
X98845026Y-101176223D01*
X98837494Y-101252702D01*
X98830314Y-101325600D01*
X91947502Y-101325600D01*
X92035430Y-59722298D01*
X92282987Y-59093502D01*
X92672453Y-58462644D01*
X93167471Y-57910735D01*
X93752407Y-57455204D01*
X94408763Y-57110456D01*
X95115799Y-56887387D01*
X95865461Y-56791213D01*
X96231727Y-56793777D01*
X96234471Y-56794044D01*
X188382077Y-56669721D01*
X188953328Y-56883659D01*
G36*
X149969764Y-97508691D02*
G01*
X149942057Y-97790000D01*
X149969764Y-98071309D01*
X150051818Y-98341808D01*
X150185068Y-98591101D01*
X150364392Y-98809608D01*
X150582899Y-98988932D01*
X150720682Y-99062579D01*
X150528869Y-99177615D01*
X150320481Y-99366586D01*
X150152963Y-99592580D01*
X150032754Y-99846913D01*
X149992096Y-99980961D01*
X150114085Y-100203000D01*
X151257000Y-100203000D01*
X151257000Y-100183000D01*
X151511000Y-100183000D01*
X151511000Y-100203000D01*
X151531000Y-100203000D01*
X151531000Y-100457000D01*
X151511000Y-100457000D01*
X151511000Y-100477000D01*
X151257000Y-100477000D01*
X151257000Y-100457000D01*
X150114085Y-100457000D01*
X149992096Y-100679039D01*
X150032754Y-100813087D01*
X150044529Y-100838000D01*
X146781422Y-100838000D01*
X146743999Y-100834314D01*
X146706576Y-100838000D01*
X146706574Y-100838000D01*
X146594622Y-100849026D01*
X146450985Y-100892598D01*
X146318608Y-100963355D01*
X146202578Y-101058578D01*
X146178721Y-101087648D01*
X137603770Y-109662600D01*
X137565333Y-109662600D01*
X137369044Y-109701644D01*
X137353243Y-109708189D01*
X137342932Y-109688899D01*
X137163608Y-109470392D01*
X136945101Y-109291068D01*
X136812142Y-109220000D01*
X136945101Y-109148932D01*
X137163608Y-108969608D01*
X137342932Y-108751101D01*
X137476182Y-108501808D01*
X137558236Y-108231309D01*
X137585943Y-107950000D01*
X137558236Y-107668691D01*
X137476182Y-107398192D01*
X137342932Y-107148899D01*
X137163608Y-106930392D01*
X136945101Y-106751068D01*
X136905885Y-106730107D01*
X136895488Y-106624543D01*
X136999131Y-106562385D01*
X137207519Y-106373414D01*
X137375037Y-106147420D01*
X137495246Y-105893087D01*
X137535904Y-105759039D01*
X137413915Y-105537000D01*
X136271000Y-105537000D01*
X136271000Y-105557000D01*
X136017000Y-105557000D01*
X136017000Y-105537000D01*
X135997000Y-105537000D01*
X135997000Y-105283000D01*
X136017000Y-105283000D01*
X136017000Y-105263000D01*
X136271000Y-105263000D01*
X136271000Y-105283000D01*
X137413915Y-105283000D01*
X137535904Y-105060961D01*
X137495246Y-104926913D01*
X137375037Y-104672580D01*
X137207519Y-104446586D01*
X136999131Y-104257615D01*
X136807318Y-104142579D01*
X136945101Y-104068932D01*
X137163608Y-103889608D01*
X137342932Y-103671101D01*
X137476182Y-103421808D01*
X137558236Y-103151309D01*
X137585943Y-102870000D01*
X137558236Y-102588691D01*
X137476182Y-102318192D01*
X137342932Y-102068899D01*
X137163608Y-101850392D01*
X136945101Y-101671068D01*
X136812142Y-101600000D01*
X136945101Y-101528932D01*
X137163608Y-101349608D01*
X137342932Y-101131101D01*
X137476182Y-100881808D01*
X137558236Y-100611309D01*
X137585943Y-100330000D01*
X137558236Y-100048691D01*
X137476182Y-99778192D01*
X137342932Y-99528899D01*
X137163608Y-99310392D01*
X136945101Y-99131068D01*
X136812142Y-99060000D01*
X136945101Y-98988932D01*
X137163608Y-98809608D01*
X137342932Y-98591101D01*
X137363893Y-98551885D01*
X137474678Y-98540974D01*
X137618315Y-98497402D01*
X137750692Y-98426645D01*
X137866722Y-98331422D01*
X137890584Y-98302346D01*
X138822231Y-97370700D01*
X150011623Y-97370700D01*
X149969764Y-97508691D01*
X149969764Y-97508691D01*
G37*
X149969764Y-97508691D02*
X149942057Y-97790000D01*
X149969764Y-98071309D01*
X150051818Y-98341808D01*
X150185068Y-98591101D01*
X150364392Y-98809608D01*
X150582899Y-98988932D01*
X150720682Y-99062579D01*
X150528869Y-99177615D01*
X150320481Y-99366586D01*
X150152963Y-99592580D01*
X150032754Y-99846913D01*
X149992096Y-99980961D01*
X150114085Y-100203000D01*
X151257000Y-100203000D01*
X151257000Y-100183000D01*
X151511000Y-100183000D01*
X151511000Y-100203000D01*
X151531000Y-100203000D01*
X151531000Y-100457000D01*
X151511000Y-100457000D01*
X151511000Y-100477000D01*
X151257000Y-100477000D01*
X151257000Y-100457000D01*
X150114085Y-100457000D01*
X149992096Y-100679039D01*
X150032754Y-100813087D01*
X150044529Y-100838000D01*
X146781422Y-100838000D01*
X146743999Y-100834314D01*
X146706576Y-100838000D01*
X146706574Y-100838000D01*
X146594622Y-100849026D01*
X146450985Y-100892598D01*
X146318608Y-100963355D01*
X146202578Y-101058578D01*
X146178721Y-101087648D01*
X137603770Y-109662600D01*
X137565333Y-109662600D01*
X137369044Y-109701644D01*
X137353243Y-109708189D01*
X137342932Y-109688899D01*
X137163608Y-109470392D01*
X136945101Y-109291068D01*
X136812142Y-109220000D01*
X136945101Y-109148932D01*
X137163608Y-108969608D01*
X137342932Y-108751101D01*
X137476182Y-108501808D01*
X137558236Y-108231309D01*
X137585943Y-107950000D01*
X137558236Y-107668691D01*
X137476182Y-107398192D01*
X137342932Y-107148899D01*
X137163608Y-106930392D01*
X136945101Y-106751068D01*
X136905885Y-106730107D01*
X136895488Y-106624543D01*
X136999131Y-106562385D01*
X137207519Y-106373414D01*
X137375037Y-106147420D01*
X137495246Y-105893087D01*
X137535904Y-105759039D01*
X137413915Y-105537000D01*
X136271000Y-105537000D01*
X136271000Y-105557000D01*
X136017000Y-105557000D01*
X136017000Y-105537000D01*
X135997000Y-105537000D01*
X135997000Y-105283000D01*
X136017000Y-105283000D01*
X136017000Y-105263000D01*
X136271000Y-105263000D01*
X136271000Y-105283000D01*
X137413915Y-105283000D01*
X137535904Y-105060961D01*
X137495246Y-104926913D01*
X137375037Y-104672580D01*
X137207519Y-104446586D01*
X136999131Y-104257615D01*
X136807318Y-104142579D01*
X136945101Y-104068932D01*
X137163608Y-103889608D01*
X137342932Y-103671101D01*
X137476182Y-103421808D01*
X137558236Y-103151309D01*
X137585943Y-102870000D01*
X137558236Y-102588691D01*
X137476182Y-102318192D01*
X137342932Y-102068899D01*
X137163608Y-101850392D01*
X136945101Y-101671068D01*
X136812142Y-101600000D01*
X136945101Y-101528932D01*
X137163608Y-101349608D01*
X137342932Y-101131101D01*
X137476182Y-100881808D01*
X137558236Y-100611309D01*
X137585943Y-100330000D01*
X137558236Y-100048691D01*
X137476182Y-99778192D01*
X137342932Y-99528899D01*
X137163608Y-99310392D01*
X136945101Y-99131068D01*
X136812142Y-99060000D01*
X136945101Y-98988932D01*
X137163608Y-98809608D01*
X137342932Y-98591101D01*
X137363893Y-98551885D01*
X137474678Y-98540974D01*
X137618315Y-98497402D01*
X137750692Y-98426645D01*
X137866722Y-98331422D01*
X137890584Y-98302346D01*
X138822231Y-97370700D01*
X150011623Y-97370700D01*
X149969764Y-97508691D01*
G36*
X127809485Y-72882915D02*
G01*
X127749426Y-72877000D01*
X127749423Y-72877000D01*
X127712000Y-72873314D01*
X127674577Y-72877000D01*
X123827937Y-72877000D01*
X123825000Y-72421750D01*
X123666250Y-72263000D01*
X122555000Y-72263000D01*
X122555000Y-72283000D01*
X122301000Y-72283000D01*
X122301000Y-72263000D01*
X122281000Y-72263000D01*
X122281000Y-72009000D01*
X122301000Y-72009000D01*
X122301000Y-71989000D01*
X122555000Y-71989000D01*
X122555000Y-72009000D01*
X123666250Y-72009000D01*
X123825000Y-71850250D01*
X123825616Y-71754700D01*
X126681270Y-71754700D01*
X127809485Y-72882915D01*
X127809485Y-72882915D01*
G37*
X127809485Y-72882915D02*
X127749426Y-72877000D01*
X127749423Y-72877000D01*
X127712000Y-72873314D01*
X127674577Y-72877000D01*
X123827937Y-72877000D01*
X123825000Y-72421750D01*
X123666250Y-72263000D01*
X122555000Y-72263000D01*
X122555000Y-72283000D01*
X122301000Y-72283000D01*
X122301000Y-72263000D01*
X122281000Y-72263000D01*
X122281000Y-72009000D01*
X122301000Y-72009000D01*
X122301000Y-71989000D01*
X122555000Y-71989000D01*
X122555000Y-72009000D01*
X123666250Y-72009000D01*
X123825000Y-71850250D01*
X123825616Y-71754700D01*
X126681270Y-71754700D01*
X127809485Y-72882915D01*
G36*
X138115748Y-70819858D02*
G01*
X138101605Y-70834000D01*
X138115748Y-70848143D01*
X137936143Y-71027748D01*
X137922000Y-71013605D01*
X137907858Y-71027748D01*
X137728253Y-70848143D01*
X137742395Y-70834000D01*
X137728253Y-70819858D01*
X137907858Y-70640253D01*
X137922000Y-70654395D01*
X137936143Y-70640253D01*
X138115748Y-70819858D01*
X138115748Y-70819858D01*
G37*
X138115748Y-70819858D02*
X138101605Y-70834000D01*
X138115748Y-70848143D01*
X137936143Y-71027748D01*
X137922000Y-71013605D01*
X137907858Y-71027748D01*
X137728253Y-70848143D01*
X137742395Y-70834000D01*
X137728253Y-70819858D01*
X137907858Y-70640253D01*
X137922000Y-70654395D01*
X137936143Y-70640253D01*
X138115748Y-70819858D01*
G36*
X165989000Y-64897000D02*
G01*
X166009000Y-64897000D01*
X166009000Y-65151000D01*
X165989000Y-65151000D01*
X165989000Y-66344155D01*
X166218890Y-66465476D01*
X166366099Y-66420825D01*
X166628920Y-66295641D01*
X166862269Y-66121588D01*
X167057178Y-65905355D01*
X167126799Y-65788477D01*
X167161294Y-65853014D01*
X167346866Y-66079134D01*
X167572986Y-66264706D01*
X167830966Y-66402599D01*
X168110889Y-66487513D01*
X168329050Y-66509000D01*
X168474950Y-66509000D01*
X168693111Y-66487513D01*
X168973034Y-66402599D01*
X169231014Y-66264706D01*
X169261311Y-66239841D01*
X170919116Y-67897646D01*
X170942978Y-67926722D01*
X170986144Y-67962147D01*
X171059007Y-68021945D01*
X171079662Y-68032985D01*
X171191385Y-68092702D01*
X171335022Y-68136274D01*
X171446974Y-68147300D01*
X171446977Y-68147300D01*
X171484400Y-68150986D01*
X171521823Y-68147300D01*
X179510170Y-68147300D01*
X179679306Y-68316436D01*
X179660273Y-68324320D01*
X179425241Y-68481363D01*
X179225363Y-68681241D01*
X179123293Y-68834000D01*
X166439231Y-68834000D01*
X163967843Y-66362613D01*
X164151014Y-66264706D01*
X164377134Y-66079134D01*
X164562706Y-65853014D01*
X164597201Y-65788477D01*
X164666822Y-65905355D01*
X164861731Y-66121588D01*
X165095080Y-66295641D01*
X165357901Y-66420825D01*
X165505110Y-66465476D01*
X165735000Y-66344155D01*
X165735000Y-65151000D01*
X165715000Y-65151000D01*
X165715000Y-64897000D01*
X165735000Y-64897000D01*
X165735000Y-64877000D01*
X165989000Y-64877000D01*
X165989000Y-64897000D01*
X165989000Y-64897000D01*
G37*
X165989000Y-64897000D02*
X166009000Y-64897000D01*
X166009000Y-65151000D01*
X165989000Y-65151000D01*
X165989000Y-66344155D01*
X166218890Y-66465476D01*
X166366099Y-66420825D01*
X166628920Y-66295641D01*
X166862269Y-66121588D01*
X167057178Y-65905355D01*
X167126799Y-65788477D01*
X167161294Y-65853014D01*
X167346866Y-66079134D01*
X167572986Y-66264706D01*
X167830966Y-66402599D01*
X168110889Y-66487513D01*
X168329050Y-66509000D01*
X168474950Y-66509000D01*
X168693111Y-66487513D01*
X168973034Y-66402599D01*
X169231014Y-66264706D01*
X169261311Y-66239841D01*
X170919116Y-67897646D01*
X170942978Y-67926722D01*
X170986144Y-67962147D01*
X171059007Y-68021945D01*
X171079662Y-68032985D01*
X171191385Y-68092702D01*
X171335022Y-68136274D01*
X171446974Y-68147300D01*
X171446977Y-68147300D01*
X171484400Y-68150986D01*
X171521823Y-68147300D01*
X179510170Y-68147300D01*
X179679306Y-68316436D01*
X179660273Y-68324320D01*
X179425241Y-68481363D01*
X179225363Y-68681241D01*
X179123293Y-68834000D01*
X166439231Y-68834000D01*
X163967843Y-66362613D01*
X164151014Y-66264706D01*
X164377134Y-66079134D01*
X164562706Y-65853014D01*
X164597201Y-65788477D01*
X164666822Y-65905355D01*
X164861731Y-66121588D01*
X165095080Y-66295641D01*
X165357901Y-66420825D01*
X165505110Y-66465476D01*
X165735000Y-66344155D01*
X165735000Y-65151000D01*
X165715000Y-65151000D01*
X165715000Y-64897000D01*
X165735000Y-64897000D01*
X165735000Y-64877000D01*
X165989000Y-64877000D01*
X165989000Y-64897000D01*
G36*
X164861731Y-63926412D02*
G01*
X164666822Y-64142645D01*
X164597201Y-64259523D01*
X164562706Y-64194986D01*
X164377134Y-63968866D01*
X164151014Y-63783294D01*
X164096209Y-63754000D01*
X165092880Y-63754000D01*
X164861731Y-63926412D01*
X164861731Y-63926412D01*
G37*
X164861731Y-63926412D02*
X164666822Y-64142645D01*
X164597201Y-64259523D01*
X164562706Y-64194986D01*
X164377134Y-63968866D01*
X164151014Y-63783294D01*
X164096209Y-63754000D01*
X165092880Y-63754000D01*
X164861731Y-63926412D01*
M02*
