M48
; DRILL file {KiCad 5.1.1-8be2ce7~80~ubuntu18.04.1} date dom 28 abr 2019 21:45:02 CDT
; FORMAT={-:-/ absolute / inch / decimal}
; #@! TF.CreationDate,2019-04-28T21:45:02-05:00
; #@! TF.GenerationSoftware,Kicad,Pcbnew,5.1.1-8be2ce7~80~ubuntu18.04.1
; #@! TF.FileFunction,Plated,1,2,PTH
FMAT,2
INCH
T1C0.0150
T2C0.0276
T3C0.0300
T4C0.0315
T5C0.0354
T6C0.0394
T7C0.0433
%
G90
G05
T1
X5.2779Y-2.1582
X7.1054Y-3.0248
T2
X3.35Y-3.66
X3.65Y-3.66
T3
X4.14Y-1.84
X4.14Y-1.94
X4.14Y-2.04
X4.14Y-2.14
X4.24Y-1.84
X4.24Y-1.94
X4.24Y-2.04
X4.24Y-2.14
T4
X5.11Y-4.59
X5.41Y-4.59
X3.19Y-4.35
X3.3869Y-4.35
X3.57Y-4.37
X3.7669Y-4.37
X4.89Y-2.94
X4.89Y-3.54
X4.99Y-2.94
X4.99Y-3.54
X5.09Y-2.94
X5.09Y-3.54
X5.19Y-2.94
X5.19Y-3.54
X5.29Y-2.94
X5.29Y-3.54
X5.39Y-2.94
X5.39Y-3.54
X5.49Y-2.94
X5.49Y-3.54
X5.59Y-2.94
X5.59Y-3.54
X5.69Y-2.94
X5.69Y-3.54
X5.79Y-2.94
X5.79Y-3.54
X5.89Y-2.94
X5.89Y-3.54
X5.99Y-2.94
X5.99Y-3.54
X6.09Y-2.94
X6.09Y-3.54
X6.19Y-2.94
X6.19Y-3.54
X6.29Y-2.94
X6.29Y-3.54
X6.39Y-2.94
X6.39Y-3.54
X6.49Y-2.94
X6.49Y-3.54
X6.59Y-2.94
X6.59Y-3.54
X6.69Y-2.94
X6.69Y-3.54
X6.79Y-2.94
X6.79Y-3.54
X7.7Y-3.25
X8.0Y-3.25
X4.48Y-4.38
X4.5587Y-4.38
X7.7Y-3.38
X8.0Y-3.38
X4.1813Y-4.38
X4.26Y-4.38
X4.15Y-2.52
X4.15Y-2.62
X4.15Y-2.72
X4.15Y-2.82
X4.45Y-2.52
X4.45Y-2.62
X4.45Y-2.72
X4.45Y-2.82
X7.7Y-3.52
X8.0Y-3.52
X7.7Y-3.11
X8.0Y-3.11
X6.04Y-2.37
X6.34Y-2.37
X5.11Y-4.45
X5.41Y-4.45
X7.7Y-3.67
X8.0Y-3.67
X7.7Y-2.97
X8.0Y-2.97
X7.71Y-4.12
X8.01Y-4.12
X5.11Y-4.18
X5.41Y-4.18
X6.05Y-2.52
X6.35Y-2.52
X5.11Y-4.32
X5.41Y-4.32
T5
X7.23Y-3.8
X7.33Y-3.8
X7.23Y-3.24
X7.33Y-3.24
X7.23Y-3.43
X7.33Y-3.43
X7.23Y-3.62
X7.33Y-3.62
T6
X4.85Y-4.87
X4.95Y-4.87
X5.05Y-4.87
X5.15Y-4.87
X5.25Y-4.87
X5.35Y-4.87
X5.45Y-4.87
X5.55Y-4.87
X8.03Y-4.87
X8.3292Y-4.87
X6.04Y-4.54
X6.14Y-4.54
X6.24Y-4.54
X5.8Y-5.16
X5.9Y-5.16
X6.0Y-5.16
X6.1Y-5.16
X6.2Y-5.16
X6.3Y-5.16
X6.4Y-5.16
X6.5Y-5.16
X6.7Y-1.98
X6.8Y-1.98
X6.9Y-1.98
X7.0Y-1.98
X7.1Y-1.98
X8.56Y-2.74
X8.56Y-2.84
X8.56Y-2.94
X8.56Y-3.04
X8.56Y-3.14
X8.56Y-3.24
X8.56Y-3.34
X8.56Y-3.44
X8.56Y-3.54
X8.56Y-3.64
X8.56Y-3.74
X8.56Y-3.84
X8.56Y-3.94
X8.56Y-4.04
X8.56Y-4.14
X8.56Y-4.24
X3.92Y-5.14
X4.02Y-5.14
X4.12Y-5.14
X4.22Y-5.14
X4.32Y-5.14
X4.42Y-5.14
X4.84Y-1.98
X4.94Y-1.98
X5.04Y-1.98
X5.14Y-1.98
X5.24Y-1.98
X5.34Y-1.98
X5.44Y-1.98
X5.54Y-1.98
X6.68Y-4.87
X6.78Y-4.87
X6.88Y-4.87
X6.98Y-4.87
X7.08Y-4.87
X7.18Y-4.87
X7.28Y-4.87
X7.38Y-4.87
X7.9Y-1.91
X7.9Y-2.01
X7.9Y-2.11
X6.04Y-2.0
X6.14Y-2.0
X6.24Y-2.0
X5.0Y-2.43
X5.1Y-2.43
X5.2Y-2.43
X5.3Y-2.43
X5.4Y-2.43
X5.5Y-2.43
T7
X4.25Y-4.08
X4.35Y-4.08
X4.45Y-4.08
X3.39Y-4.08
X3.49Y-4.08
X3.59Y-4.08
T4
G00X3.2288Y-4.7
M15
G01X3.3312Y-4.7
M16
G05
G00X3.2367Y-4.9283
M15
G01X3.3233Y-4.9283
M16
G05
G00X3.469Y-4.8614
M15
G01X3.469Y-4.7748
M16
G05
T0
M30
