M48
; DRILL file {KiCad 5.1.1-8be2ce7~80~ubuntu18.04.1} date dom 28 abr 2019 23:59:24 CDT
; FORMAT={-:-/ absolute / inch / decimal}
; #@! TF.CreationDate,2019-04-28T23:59:24-05:00
; #@! TF.GenerationSoftware,Kicad,Pcbnew,5.1.1-8be2ce7~80~ubuntu18.04.1
; #@! TF.FileFunction,Plated,1,2,PTH
FMAT,2
INCH
T1C0.0150
T2C0.0276
T3C0.0300
T4C0.0315
T5C0.0354
T6C0.0394
T7C0.0433
%
G90
G05
T1
X5.2227Y-4.4722
X5.4199Y-4.3574
X6.5188Y-4.6462
X6.8022Y-4.3948
T2
X3.92Y-4.43
X4.22Y-4.43
T3
X4.72Y-2.54
X4.72Y-2.64
X4.72Y-2.74
X4.72Y-2.84
X4.82Y-2.54
X4.82Y-2.64
X4.82Y-2.74
X4.82Y-2.84
T4
X5.43Y-2.71
X5.43Y-2.7887
X5.87Y-5.61
X5.87Y-5.71
X5.87Y-5.81
X5.87Y-5.91
X6.17Y-5.61
X6.17Y-5.71
X6.17Y-5.81
X6.17Y-5.91
X6.66Y-3.42
X6.96Y-3.42
X4.14Y-5.14
X4.3369Y-5.14
X5.43Y-2.4113
X5.43Y-2.49
X6.66Y-3.71
X6.96Y-3.71
X6.66Y-3.15
X6.96Y-3.15
X6.66Y-3.29
X6.96Y-3.29
X4.28Y-3.77
X4.58Y-3.77
X6.67Y-4.16
X6.97Y-4.16
X7.25Y-2.43
X7.25Y-2.73
X4.28Y-3.64
X4.58Y-3.64
X6.66Y-3.56
X6.96Y-3.56
X4.28Y-3.91
X4.58Y-3.91
X3.76Y-5.12
X3.9569Y-5.12
X4.28Y-3.5
X4.58Y-3.5
X5.36Y-3.05
X5.36Y-3.15
X5.36Y-3.25
X5.36Y-3.35
X5.36Y-3.45
X5.36Y-3.55
X5.36Y-3.65
X5.36Y-3.75
X5.36Y-3.85
X5.36Y-3.95
X5.36Y-4.05
X5.36Y-4.15
X5.36Y-4.25
X5.36Y-4.35
X5.36Y-4.45
X5.36Y-4.55
X5.36Y-4.65
X5.36Y-4.75
X5.36Y-4.85
X5.36Y-4.95
X5.96Y-3.05
X5.96Y-3.15
X5.96Y-3.25
X5.96Y-3.35
X5.96Y-3.45
X5.96Y-3.55
X5.96Y-3.65
X5.96Y-3.75
X5.96Y-3.85
X5.96Y-3.95
X5.96Y-4.05
X5.96Y-4.15
X5.96Y-4.25
X5.96Y-4.35
X5.96Y-4.45
X5.96Y-4.55
X5.96Y-4.65
X5.96Y-4.75
X5.96Y-4.85
X5.96Y-4.95
X6.66Y-3.01
X6.96Y-3.01
X7.1Y-2.44
X7.1Y-2.74
T5
X5.28Y-5.33
X5.28Y-5.43
X4.59Y-5.33
X4.59Y-5.43
X4.82Y-5.33
X4.82Y-5.43
X5.05Y-5.33
X5.05Y-5.43
T6
X3.97Y-3.31
X3.97Y-3.41
X3.97Y-3.51
X3.97Y-3.61
X3.97Y-3.71
X3.97Y-3.81
X3.97Y-3.91
X3.97Y-4.01
X6.23Y-2.56
X6.33Y-2.56
X6.43Y-2.56
X6.53Y-2.56
X6.63Y-2.56
X6.73Y-2.56
X7.35Y-2.91
X7.35Y-3.01
X7.35Y-3.11
X7.35Y-3.21
X7.35Y-3.31
X7.35Y-3.41
X7.35Y-3.51
X7.35Y-3.61
X7.35Y-3.71
X7.35Y-3.81
X7.35Y-3.91
X7.35Y-4.01
X7.35Y-4.11
X7.35Y-4.21
X7.35Y-4.31
X7.35Y-4.41
X6.37Y-3.05
X6.37Y-3.15
X6.37Y-3.25
X6.37Y-3.35
X6.37Y-3.45
X6.37Y-3.55
X6.37Y-3.65
X6.37Y-3.75
X6.68Y-5.38
X6.78Y-5.38
X6.88Y-5.38
X4.54Y-4.34
X4.54Y-4.44
X4.54Y-4.54
X4.94Y-3.05
X4.94Y-3.15
X4.94Y-3.25
X4.94Y-3.35
X4.94Y-3.45
X4.94Y-3.55
X4.94Y-3.65
X4.94Y-3.75
X4.94Y-4.19
X4.94Y-4.29
X4.94Y-4.39
X4.94Y-4.49
X4.94Y-4.59
X4.94Y-4.69
X4.94Y-4.79
X4.94Y-4.89
X6.37Y-4.19
X6.37Y-4.29
X6.37Y-4.39
X6.37Y-4.49
X6.37Y-4.59
X6.79Y-4.86
X7.0892Y-4.86
X4.63Y-5.94
X4.73Y-5.94
X4.83Y-5.94
X4.93Y-5.94
X5.03Y-5.94
X5.13Y-5.94
X6.24Y-4.88
X6.34Y-4.88
X6.44Y-4.88
T7
X3.96Y-4.85
X4.06Y-4.85
X4.16Y-4.85
X5.73Y-2.48
X5.73Y-2.58
X5.73Y-2.68
T4
G00X3.8788Y-5.42
M15
G01X3.9812Y-5.42
M16
G05
G00X3.8867Y-5.6483
M15
G01X3.9733Y-5.6483
M16
G05
G00X4.119Y-5.5814
M15
G01X4.119Y-5.4948
M16
G05
T0
M30
